/* XPM */
static const char * characterset_xpm[] = {
"16 16 6 1",
" 	c None",
".	c #FA1111",
"+	c #F91010",
"@	c #F91111",
"#	c #FA1010",
"$	c #F81111",
"                ",
"                ",
"                ",
"                ",
"         .+@    ",
"        #  @    ",
"        +  +    ",
"   $$+  + .     ",
"  @  #  +  .    ",
"  @  +  +   +   ",
"  @  @  .  +    ",
"  .+++  @#++    ",
"        +       ",
"        +       ",
"                ",
"                "};
