/* XPM */
static char * column_xpm[] = {
"32 32 96 2",
"  	c None",
". 	c #000000",
"+ 	c #E2E2E2",
"@ 	c #F2F2F2",
"# 	c #F3F3F3",
"$ 	c #F4F4F4",
"% 	c #F5F5F5",
"& 	c #F6F6F6",
"* 	c #F7F7F7",
"= 	c #DBDBDB",
"- 	c #F0F0F0",
"; 	c #E0E0E0",
"> 	c #E1E1E1",
", 	c #E3E3E3",
"' 	c #E4E4E4",
") 	c #E5E5E5",
"! 	c #E6E6E6",
"~ 	c #BCC3CA",
"{ 	c #DDDFE1",
"] 	c #E8E8E8",
"^ 	c #E9E9E9",
"/ 	c #EAEAEA",
"( 	c #EBEBEB",
"_ 	c #ECECEC",
": 	c #EDEDED",
"< 	c #EEEEEE",
"[ 	c #EFEFEF",
"} 	c #BAC1C9",
"| 	c #314E6C",
"1 	c #8E9CAB",
"2 	c #F1F1F1",
"3 	c #E7E7E7",
"4 	c #738598",
"5 	c #46607A",
"6 	c #E9E9EA",
"7 	c #DBDDDF",
"8 	c #36526F",
"9 	c #B6BEC7",
"0 	c #9AA6B3",
"a 	c #6B7F94",
"b 	c #526A82",
"c 	c #49637D",
"d 	c #33506E",
"e 	c #DDDFE2",
"f 	c #C2C8CF",
"g 	c #B5BEC7",
"h 	c #375370",
"i 	c #94A2B0",
"j 	c #7A8B9E",
"k 	c #415B77",
"l 	c #6C8095",
"m 	c #E3E4E5",
"n 	c #395572",
"o 	c #7C8EA0",
"p 	c #ABB5C0",
"q 	c #BEC6CE",
"r 	c #F8F8F8",
"s 	c #A2AEB9",
"t 	c #BCC4CC",
"u 	c #E5E7E9",
"v 	c #35516F",
"w 	c #718498",
"x 	c #F9F9F9",
"y 	c #586F87",
"z 	c #3A5672",
"A 	c #DBDFE2",
"B 	c #DFE2E5",
"C 	c #60768D",
"D 	c #34516E",
"E 	c #E5E7EA",
"F 	c #FAFAFA",
"G 	c #CBD1D6",
"H 	c #9BA8B6",
"I 	c #FBFBFB",
"J 	c #FCFCFC",
"K 	c #8192A3",
"L 	c #395571",
"M 	c #324F6D",
"N 	c #4D6680",
"O 	c #FDFDFD",
"P 	c #E8E9EA",
"Q 	c #3C5874",
"R 	c #8091A3",
"S 	c #C6CED5",
"T 	c #FEFEFE",
"U 	c #ABB6C1",
"V 	c #8C9CAC",
"W 	c #CAD1D8",
"X 	c #778A9D",
"Y 	c #FFFFFF",
"Z 	c #5F758C",
"` 	c #D0D6DB",
" .	c #4B647E",
"..	c #EDF0F2",
"+.	c #C9C9C9",
"@.	c #BDBDBD",
"                                                                ",
"                                                                ",
"                                                                ",
"                                                                ",
"          . . . . . . . . . . . . . . . . . . . .               ",
"        . + @ @ @ @ # # # $ $ $ % % % & & * * $ = .             ",
"        . - ; ; > + , ' ) ! ~ { ] ^ / ( _ : < [ : .             ",
"        . @ > > + , ' ) ! } | 1 / / ( _ : < [ - 2 .             ",
"        . @ + , , ' ) ! 3 4 | 5 6 _ _ : < [ - 2 @ .             ",
"        . # , ' ) ) ! 3 7 8 | | 9 : : < [ - 2 @ # .             ",
"        . # ' ) ! 3 3 ] 0 | | | a < [ [ - 2 @ # $ .             ",
"        . # ) ! 3 ] ^ ^ b | c | d e - 2 2 @ # $ % .             ",
"        . $ ! 3 ] ^ / f | | g h | i 2 @ # # $ % & .             ",
"        . $ 3 ] ^ / ( j | k _ l | c 2 # $ % % & * .             ",
"        . % ] ^ / ( m n | o [ p | | q $ % & * * r .             ",
"        . % ^ / ( _ s | | t - u v | w % & * r r x .             ",
"        . % / ( _ : y | z A B B C | D E * r x F F .             ",
"        . & ( _ : G | | | | | | | | | H r x F I J .             ",
"        . * : : < K | | L L L L L M | N r F I J O .             ",
"        . * < [ P Q | c # $ % & * R | | S I J O T .             ",
"        . r - 2 U | | V % & * r x W | | X O T Y Y .             ",
"        . r 2 @ Z | | ` & * r x F F  .| 8 ..Y Y Y .             ",
"        . @ @ # $ % & & * r x F I J O T Y Y Y Y _ .             ",
"        . +.: r % & * r r x F I J O T Y Y Y Y < @..             ",
"          . . . . . . . . . . . . . . . . . . . .               ",
"                                                                ",
"                                                                ",
"                                                                ",
"                                                                ",
"                                                                ",
"                                                                ",
"                                                                "};
