/* XPM */
static char * column_xpm[] = {
"16 16 63 1",
" 	c None",
".	c #000000",
"+	c #7791AE",
"@	c #9AB7D3",
"#	c #9BB8D4",
"$	c #9BB8D5",
"%	c #9CB9D5",
"&	c #9DBAD6",
"*	c #738CA9",
"=	c #8DA9C7",
"-	c #8EAAC7",
";	c #8EABC7",
">	c #8FACC8",
",	c #3F4C59",
"'	c #404D59",
")	c #92AFCC",
"!	c #93AFCC",
"~	c #94B0CC",
"{	c #95B1CE",
"]	c #96B2CF",
"^	c #97B3D0",
"/	c #8EA9C6",
"(	c #0D1013",
"_	c #91ACC9",
":	c #97B4D0",
"<	c #90ACC9",
"[	c #687C91",
"}	c #6A7E93",
"|	c #98B4D0",
"1	c #91AECB",
"2	c #333D47",
"3	c #404C59",
"4	c #353F49",
"5	c #99B5D2",
"6	c #8AA5C1",
"7	c #050608",
"8	c #101317",
"9	c #92ADC9",
"0	c #20262C",
"a	c #8FAAC6",
"b	c #9AB6D2",
"c	c #5C6E80",
"d	c #4A5866",
"e	c #687C90",
"f	c #5F7183",
"g	c #272E36",
"h	c #293038",
"i	c #839CB6",
"j	c #010101",
"k	c #8AA3BC",
"l	c #505F6E",
"m	c #434F5C",
"n	c #3F4A56",
"o	c #536373",
"p	c #1A1F24",
"q	c #7B92A9",
"r	c #7B93A9",
"s	c #1B2126",
"t	c #9EBAD7",
"u	c #9EBBD7",
"v	c #9FBCD8",
"w	c #7690AE",
"x	c #7992AF",
" .............  ",
" +@@####$$%%&&* ",
".@=-;>,.')!~{]^.",
".@-;>/(.(_~{]^:.",
".#;><[...}{]^:|.",
".#><12.3.4]^:|5.",
".#<1678907a:|5b.",
".#11c.d{e.f|5b@.",
".$1)g.....h5b@#.",
".$)ij.....jk@#$.",
".%!l.m^:|n.o#$&.",
".&{p.q|5br.s&tu.",
".&]^:|5b@#$&tuv.",
".w^:|5b@#$&tuvx ",
"  ............  ",
"                "};
