/* XPM */
static char * database32_xpm[] = {
"32 32 188 2",
"  	c None",
". 	c #141414",
"+ 	c #3B3B3B",
"@ 	c #404040",
"# 	c #545454",
"$ 	c #555555",
"% 	c #F6F6F6",
"& 	c #FFFFFF",
"* 	c #FAFAFA",
"= 	c #D6D6D6",
"- 	c #878787",
"; 	c #242424",
"> 	c #FEFEFE",
", 	c #E6E6E6",
"' 	c #F0F0F0",
") 	c #A0A0A0",
"! 	c #000000",
"~ 	c #F8F8F8",
"{ 	c #D8D8D8",
"] 	c #F5F5F5",
"^ 	c #979797",
"/ 	c #252525",
"( 	c #FDFDFD",
"_ 	c #F7F7F7",
": 	c #C9C9C9",
"< 	c #E0E0E0",
"[ 	c #888888",
"} 	c #212121",
"| 	c #F2F2F2",
"1 	c #BEBEBE",
"2 	c #767676",
"3 	c #5F5F5F",
"4 	c #0A0A0A",
"5 	c #010101",
"6 	c #090909",
"7 	c #6E6E6E",
"8 	c #B4B4B4",
"9 	c #E7E7E7",
"0 	c #BFBFBF",
"a 	c #E1E1E1",
"b 	c #C8C8C8",
"c 	c #C2C2C2",
"d 	c #8E8E8E",
"e 	c #B1B1B1",
"f 	c #2B2B2B",
"g 	c #4E4E4E",
"h 	c #757575",
"i 	c #8C8C8C",
"j 	c #959595",
"k 	c #929292",
"l 	c #8F8F8F",
"m 	c #8A8A8A",
"n 	c #7F7F7F",
"o 	c #626262",
"p 	c #434343",
"q 	c #272727",
"r 	c #9B9B9B",
"s 	c #A7A7A7",
"t 	c #666666",
"u 	c #5D5D5D",
"v 	c #565656",
"w 	c #5A5A5A",
"x 	c #848484",
"y 	c #858585",
"z 	c #787878",
"A 	c #9D9D9D",
"B 	c #999999",
"C 	c #949494",
"D 	c #909090",
"E 	c #8D8D8D",
"F 	c #898989",
"G 	c #818181",
"H 	c #7D7D7D",
"I 	c #5C5C5C",
"J 	c #686868",
"K 	c #D2D2D2",
"L 	c #C7C7C6",
"M 	c #A6A6A6",
"N 	c #9A9A9A",
"O 	c #6C6C6C",
"P 	c #BBBBBB",
"Q 	c #A4A4A4",
"R 	c #9F9F9F",
"S 	c #8B8B8B",
"T 	c #838383",
"U 	c #808080",
"V 	c #7C7C7C",
"W 	c #676767",
"X 	c #AFAFAF",
"Y 	c #AEAEAE",
"Z 	c #585858",
"` 	c #717171",
" .	c #A2A2A2",
"..	c #7E7E7E",
"+.	c #7A7A7A",
"@.	c #777777",
"#.	c #737373",
"$.	c #F9F9F9",
"%.	c #040404",
"&.	c #A3A3A3",
"*.	c #707070",
"=.	c #6A6A6A",
"-.	c #030303",
";.	c #C4C4C4",
">.	c #F8F8F7",
",.	c #020202",
"'.	c #FEFEFD",
").	c #F5F5F4",
"!.	c #050505",
"~.	c #6F6F6F",
"{.	c #C3C3C3",
"].	c #F4F4F3",
"^.	c #1A1A1A",
"/.	c #9E9E9E",
"(.	c #464646",
"_.	c #FCFCFC",
":.	c #F2F2F1",
"<.	c #060606",
"[.	c #727272",
"}.	c #989898",
"|.	c #7B7B7B",
"1.	c #484848",
"2.	c #C3C3C2",
"3.	c #F1F1F0",
"4.	c #ABABAB",
"5.	c #BABABA",
"6.	c #353535",
"7.	c #222222",
"8.	c #EFEFEF",
"9.	c #0D0D0D",
"0.	c #797979",
"a.	c #5B5B5B",
"b.	c #696969",
"c.	c #525252",
"d.	c #454545",
"e.	c #FBFBFB",
"f.	c #EEEEED",
"g.	c #4F4F4F",
"h.	c #C2C2C1",
"i.	c #EDEDEB",
"j.	c #131313",
"k.	c #F7F7F6",
"l.	c #EBEBEA",
"m.	c #202020",
"n.	c #111111",
"o.	c #575756",
"p.	c #C1C1C0",
"q.	c #F6F6F5",
"r.	c #EAEAE8",
"s.	c #CDCDCB",
"t.	c #2E2E2D",
"u.	c #474747",
"v.	c #1C1C1C",
"w.	c #B7B7B5",
"x.	c #C0C0C0",
"y.	c #E6E6E4",
"z.	c #AAAAA8",
"A.	c #474746",
"B.	c #161616",
"C.	c #2F2F2F",
"D.	c #282828",
"E.	c #E3E3E1",
"F.	c #C0C0BF",
"G.	c #E4E4E2",
"H.	c #C1C1BF",
"I.	c #666665",
"J.	c #595959",
"K.	c #6B6B6B",
"L.	c #535353",
"M.	c #4A4A49",
"N.	c #ABABAA",
"O.	c #E1E1DF",
"P.	c #F3F3F3",
"Q.	c #DADAD9",
"R.	c #B3B3B1",
"S.	c #787877",
"T.	c #151515",
"U.	c #0F0F0F",
"V.	c #6A6A69",
"W.	c #A9A9A8",
"X.	c #D0D0CE",
"Y.	c #F3F3F2",
"Z.	c #E9E9E9",
"`.	c #B6B6B5",
" +	c #323232",
".+	c #C5C5C4",
"++	c #C1C1C1",
"@+	c #979796",
". + @ @ @ @ @ @ @ @ @ @ @ @ @ @ @ @ @ # $                       ",
"+ % & & & & & & & & & & & & & & & & & * = - ;                   ",
"@ & & & & & & & & & & & > > > > > > > * , ' ) !                 ",
"@ & & & & & & & & & > > > > > > > > > ~ { & ] ^ /               ",
"@ & & & & & & & > > > > > > > > > ( ( _ : ( ( < [ }             ",
"@ & & & & & & | 1 2 3 4 5 5 6 $ 7 8 9 % 0 a = b c d             ",
"@ & & & & ( e f g h i j k l m n o p q r s t u v w x !           ",
"@ & & & ( y ! z ) A B C D E F y G H I ! J K L M N O !           ",
"@ & * * P ! C Q R r ^ k l S - T U V z W ! X * * * Y !           ",
"@ & * * Z ` s  .A B C D E F y G ..+.@.#.g 3 * * * c !           ",
"@ > $.$.%.&.Q R r ^ k l S - T U V z h *.=.-.$.$.$.;.!           ",
"@ > >.>.,.M  .A B C D E F y G ..+.@.#.7 O 5 >.>.>.;.!           ",
"@ '.% % ,.Q R r ^ k l S - T U V z h *.O h ! % % % ;.!           ",
"@ ( ).).!.R  .B C D E F y G ..+.@.#.7 ~.W ! ).).).{.!           ",
"@ ( ].].^.V /.&.k l S - T U V z h *.@.O (.! ].].].{.!           ",
"@ _.:.:.<.[.U C e }.[ y G ..|.V G - t 1.} ! :.:.:.2.!           ",
"@ _.3.3.<.k *.7 U 4.c 0 P 5.5.Y J $ 6.7.$ ! 3.3.3.2.!           ",
"@ _.8.8.9.H C 0.a.a.b.[.h #.O o ! ! c.3 d.! 8.8.8.c !           ",
"@ e.f.f.! #.U D /.V # @ ! ! ! g.J z o 1.} ! f.f.f.h.!           ",
"@ * i.i.! D *.7 U 4.c 0 P 5.5.Y J $ 6.7.# j.i.i.i.h.!           ",
"@ k.l.l.z m.C 0.a.a.b.[.h #.O o ! ! c.3 n.o.l.l.l.p.!           ",
"@ q.r.r.s.t.u.D /.V # @ ! ! ! g.J z o q v.w.r.r.r.x.!           ",
"@ ].y.y.y.z.A.B...4.c 0 P 5.5.Y J # C.D.j E.y.y.y.F.!           ",
"@ ].G.G.G.G.H.I.! . J.` h #.K.L.! !.M.N.O.G.G.G.G.F.!           ",
"@ P.E.E.E.E.E.Q.R.S.(.T.! ! U.C.V.W.X.E.E.E.E.E.E.F.!           ",
"@ Y.O.O.O.O.O.O.O.O.O.O.O.O.O.O.O.O.O.O.O.O.O.O.O.F.!           ",
"+ Z.O.O.O.O.O.O.O.O.O.O.O.O.O.O.O.O.O.O.O.O.O.O.O.`.!           ",
" +.+++++p.p.p.p.p.p.p.p.x.x.x.x.x.x.x.x.x.x.x.x.`.@+!           ",
"  ! ! ! ! ! ! ! ! ! ! ! ! ! ! ! ! ! ! ! ! ! ! ! ! !             ",
"                                                                ",
"                                                                ",
"                                                                "};
