/* XPM */
static char * database_xpm[] = {
"16 16 5 1",
" 	c None",
".	c #000686",
"+	c #FFFFFF",
"@	c #F7F3F7",
"#	c #889CC1",
"............    ",
".+++++++++++.   ",
".++++++++++++.  ",
".++++.....@+++. ",
".+++.#####.+++. ",
".++.####+##.++. ",
".++.###+++#.++. ",
".++.####+##.++. ",
".++.#######.++. ",
".++.#######.++. ",
".+++.#####.+++. ",
".++++.....++++. ",
".+++++++++++++. ",
".+++++++++++++. ",
" .............  ",
"                "};
