/* XPM */
static const char * databaseserver_xpm[] = {
"16 16 142 2",
"  	c None",
". 	c #CDCDCD",
"+ 	c #C9C9C9",
"@ 	c #C4C4C4",
"# 	c #C0C0C0",
"$ 	c #BBBBBB",
"% 	c #B6B6B6",
"& 	c #B0B0B0",
"* 	c #ABABAB",
"= 	c #CCCCCC",
"- 	c #DCDCDC",
"; 	c #E3E3E6",
"> 	c #DCDEE1",
", 	c #DCDCDF",
"' 	c #DBDCDF",
") 	c #DBDBDE",
"! 	c #ECECEE",
"~ 	c #A5A5A5",
"{ 	c #CBCBCB",
"] 	c #DFDFDF",
"^ 	c #EAEAEA",
"/ 	c #C9CACF",
"( 	c #C5C6CB",
"_ 	c #C3C4CA",
": 	c #C1C3C8",
"< 	c #C1C1C7",
"[ 	c #D8D9DC",
"} 	c #9E9E9E",
"| 	c #E9E9E9",
"1 	c #E1E1E2",
"2 	c #C4C6CB",
"3 	c #979798",
"4 	c #959596",
"5 	c #939394",
"6 	c #919192",
"7 	c #D6D7DB",
"8 	c #989898",
"9 	c #C6C6C6",
"0 	c #EFEFEF",
"a 	c #E1E1E1",
"b 	c #DDDDDD",
"c 	c #C2C3C8",
"d 	c #C1C2C8",
"e 	c #BFC1C6",
"f 	c #BEBFC5",
"g 	c #BBBDC3",
"h 	c #D5D6DA",
"i 	c #919191",
"j 	c #ECECEC",
"k 	c #E0E0E0",
"l 	c #DCDCDD",
"m 	c #C0C1C7",
"n 	c #8F8F8F",
"o 	c #8D8D8D",
"p 	c #C9CACC",
"q 	c #AEAEAE",
"r 	c #B7B7B7",
"s 	c #B5B5B5",
"t 	c #B2B2B2",
"u 	c #D9D9DA",
"v 	c #BEBFC6",
"w 	c #BCBEC4",
"x 	c #BBBCC3",
"y 	c #B9BBC1",
"z 	c #B9BABC",
"A 	c #D6D6D6",
"B 	c #EDEDED",
"C 	c #F9F9F9",
"D 	c #FBFBFB",
"E 	c #F0F0F0",
"F 	c #D9D9D9",
"G 	c #DEDEDE",
"H 	c #D8D8D9",
"I 	c #BABBC2",
"J 	c #B9BAC1",
"K 	c #A4C8A0",
"L 	c #B1B7B1",
"M 	c #F6F6F6",
"N 	c #F4F4F4",
"O 	c #A8A8A8",
"P 	c #AFAFAF",
"Q 	c #EBEBEB",
"R 	c #D5D5D7",
"S 	c #B8B9C0",
"T 	c #B6B8BE",
"U 	c #42A13B",
"V 	c #ABB3AB",
"W 	c #F2F2F2",
"X 	c #E4E4E4",
"Y 	c #E2E2E2",
"Z 	c #C8C8C8",
"` 	c #F1F1F1",
" .	c #D3D4D5",
"..	c #B7B9C0",
"+.	c #B6B7BE",
"@.	c #B4B6BD",
"#.	c #B3B4BB",
"$.	c #B4B4B5",
"%.	c #F8F8F8",
"&.	c #DBDBDB",
"*.	c #D0D0D0",
"=.	c #FFFFFF",
"-.	c #A2A2A2",
";.	c #D2D2D4",
">.	c #B5B6BE",
",.	c #B4B5BC",
"'.	c #B2B4BB",
").	c #B1B2BA",
"!.	c #B1B1B2",
"~.	c #D5D5D5",
"{.	c #9B9B9B",
"].	c #B3B3B3",
"^.	c #D4D4D4",
"/.	c #DFDFE1",
"(.	c #BDBFC5",
"_.	c #B3B5BD",
":.	c #B0B1B9",
"<.	c #AEB1B9",
"[.	c #AEAEAF",
"}.	c #D1D1D1",
"|.	c #C5C5C5",
"1.	c #9A9A9A",
"2.	c #8A8A8A",
"3.	c #A3A3A3",
"4.	c #C4C5C6",
"5.	c #D3D4D9",
"6.	c #CECFD4",
"7.	c #CDCED3",
"8.	c #FAFAFA",
"9.	c #D7D7D7",
"0.	c #CACACA",
"a.	c #CFCFCF",
"b.	c #939393",
"c.	c #797979",
"d.	c #747474",
"e.	c #707070",
"f.	c #6B6B6B",
"g.	c #8C8C8C",
"h.	c #A0A0A0",
"i.	c #9D9D9D",
"j.	c #999999",
"k.	c #929292",
"                                ",
"      . + @ # $ % & *           ",
"    = - ; > , ' ) ! ~           ",
"  { ] ^ / ( _ : < [ }           ",
"{ | | 1 2 3 4 5 6 7 8           ",
"9 0 a b c d e f g h i           ",
"# j k l m 6 n o o p q r s t &   ",
"$ j ] u v w x y z A B C D E F * ",
"s j G H g I J K L M N C D M M O ",
"P Q b R y S T U V W F X Y Z ` ~ ",
"O ^ b  ...+.@.#.$.%.&.0 *.*.=.-.",
"-.E k ;.>.,.'.).!.%.~.0 { { =.} ",
"{.].^./.(._.:.<.[.%.}.j |.9 =.1.",
"    2.3.4.5.6.7.q 8.9.Y 0.a.=.b.",
"        c.d.e.f.b.{ ^ E W j 0.g.",
"                    h.i.j.k.g.  "};
