/* XPM */
static const char * DBTriggers_xpm[] = {
"16 16 87 1",
" 	c None",
".	c #F3F3F3",
"+	c #EDEDED",
"@	c #B7B7B7",
"#	c #DCDCDC",
"$	c #F5F5F5",
"%	c #F6F6F6",
"&	c #C2C2C2",
"*	c #F1F1F1",
"=	c #DADADA",
"-	c #EEEEEE",
";	c #EFEFEF",
">	c #F4F4F4",
",	c #E5E5E5",
"'	c #F2F2F2",
")	c #E9E9E9",
"!	c #BABABA",
"~	c #E4E4E4",
"{	c #EBEBEB",
"]	c #E8E8E8",
"^	c #D0D0D0",
"/	c #D9D9D9",
"(	c #CECECE",
"_	c #E3E3E3",
":	c #E7E7E7",
"<	c #DDDDDD",
"[	c #B5B5B5",
"}	c #DEDEDE",
"|	c #DBDBDB",
"1	c #E2E2E2",
"2	c #E1E1E1",
"3	c #D5D5D5",
"4	c #C3C3C3",
"5	c #D1D1D1",
"6	c #CDCDCD",
"7	c #D8D8D8",
"8	c #C8C8C8",
"9	c #C1C1C1",
"0	c #CBCBCB",
"a	c #D3D3D3",
"b	c #CFCFCF",
"c	c #D6D6D6",
"d	c #BFBFBF",
"e	c #CCCCCC",
"f	c #C4C4C4",
"g	c #D7D7D7",
"h	c #C5C5C5",
"i	c #D4D4D4",
"j	c #B4B2D4",
"k	c #8B82DE",
"l	c #5845E5",
"m	c #9188DD",
"n	c #988FE3",
"o	c #9A94DB",
"p	c #BBBBBB",
"q	c #C6C6C6",
"r	c #8F86DC",
"s	c #6454E5",
"t	c #8E85DB",
"u	c #4F39EC",
"v	c #C4C2D8",
"w	c #300BF0",
"x	c #938CE0",
"y	c #6656E6",
"z	c #6657DA",
"A	c #A7A7A7",
"B	c #948DE1",
"C	c #9B94E6",
"D	c #6D5EEA",
"E	c #4F38EC",
"F	c #7E76CD",
"G	c #958EE2",
"H	c #9188E8",
"I	c #9A91E4",
"J	c #B4B0DD",
"K	c #7366E5",
"L	c #B6B6B6",
"M	c #6A5CDF",
"N	c #4E38EC",
"O	c #6C5DE9",
"P	c #5F4EEC",
"Q	c #C2C2CE",
"R	c #523EE7",
"S	c #5D4BEA",
"T	c #5744E3",
"U	c #B3AFDD",
"V	c #CDCBD7",
"                ",
"       ..       ",
"   +@ #$%# &*   ",
"  =+-;>,,'-+)#  ",
"  !~{]^=/(_:<[  ",
"   }<|112}3=^   ",
"  4<5/^  67869  ",
" 0a/bc    6d3ae ",
" f6g6a    &876h ",
"  !eijkl fmnop  ",
"   q6rstuvwxyz  ",
"  AdfmB0BCwDEF  ",
"  e0^Gn|HIwJxK  ",
"   (LMNOPQwRST  ",
"       UV       ",
"                "};
