/* XPM */
static const char * DDLTrigger_xpm[] = {
"16 16 98 2",
"  	c None",
". 	c #F3F3F3",
"+ 	c #EDEDED",
"@ 	c #B7B7B7",
"# 	c #DCDCDC",
"$ 	c #F5F5F5",
"% 	c #F6F6F6",
"& 	c #C2C2C2",
"* 	c #F1F1F1",
"= 	c #DADADA",
"- 	c #EEEEEE",
"; 	c #EFEFEF",
"> 	c #F4F4F4",
", 	c #E5E5E5",
"' 	c #F2F2F2",
") 	c #E9E9E9",
"! 	c #BABABA",
"~ 	c #E4E4E4",
"{ 	c #EBEBEB",
"] 	c #E8E8E8",
"^ 	c #D0D0D0",
"/ 	c #D9D9D9",
"( 	c #CECECE",
"_ 	c #E3E3E3",
": 	c #E7E7E7",
"< 	c #DDDDDD",
"[ 	c #B5B5B5",
"} 	c #DEDEDE",
"| 	c #DBDBDB",
"1 	c #E2E2E2",
"2 	c #E1E1E1",
"3 	c #D5D5D5",
"4 	c #C3C3C3",
"5 	c #D1D1D1",
"6 	c #CDCDCD",
"7 	c #D8D8D8",
"8 	c #C8C8C8",
"9 	c #C1C1C1",
"0 	c #CBCBCB",
"a 	c #D3D3D3",
"b 	c #CFCFCF",
"c 	c #D6D6D6",
"d 	c #BFBFBF",
"e 	c #CCCCCC",
"f 	c #C4C4C4",
"g 	c #D7D7D7",
"h 	c #C5C5C5",
"i 	c #C5C3CF",
"j 	c #978EE2",
"k 	c #9289DE",
"l 	c #9D97D8",
"m 	c #877FDC",
"n 	c #9188DD",
"o 	c #CCCCD8",
"p 	c #B4B2D4",
"q 	c #A5A2C7",
"r 	c #A8A3D2",
"s 	c #4F39EC",
"t 	c #8F86DC",
"u 	c #5946E8",
"v 	c #9F99D5",
"w 	c #685AE8",
"x 	c #8277E6",
"y 	c #8D84E4",
"z 	c #5D4CEB",
"A 	c #6657DA",
"B 	c #A7A7A7",
"C 	c #A29DCE",
"D 	c #6555E6",
"E 	c #CACACA",
"F 	c #AFADDA",
"G 	c #6859E7",
"H 	c #6A5BE9",
"I 	c #B8B5E1",
"J 	c #6D5EEA",
"K 	c #6D62D6",
"L 	c #ACA8D6",
"M 	c #695BE9",
"N 	c #AAA6DF",
"O 	c #7A6DE9",
"P 	c #6E60EB",
"Q 	c #B6B2DF",
"R 	c #5F4DEB",
"S 	c #938CE0",
"T 	c #AEAAD8",
"U 	c #381AEE",
"V 	c #4B35E9",
"W 	c #4E38EC",
"X 	c #BDBADB",
"Y 	c #6C5DE9",
"Z 	c #5A47EA",
"` 	c #442BEB",
" .	c #6353E2",
"..	c #948BE0",
"+.	c #3718EE",
"@.	c #300BF0",
"#.	c #D4D4D4",
"$.	c #C4C2D8",
"                                ",
"              . .               ",
"      + @   # $ % #   & *       ",
"    = + - ; > , , ' - + ) #     ",
"    ! ~ { ] ^ = / ( _ : < [     ",
"      } < | 1 1 2 } 3 = ^       ",
"    4 < 5 / ^     6 7 8 6 9     ",
"  0 a / b c         6 d 3 a e   ",
"  f 6 g 6 a         & 8 7 6 h   ",
"    ! i j k l     m n o p q     ",
"      r s t u v w x y z t A     ",
"    B C D E F G H I # J n K     ",
"    e L M a N O P Q g R S k     ",
"      T U V W X Y Z `  ...+.@.  ",
"              #.$.              ",
"                                "};
