/* XPM */
static const char * delete24_xpm[] = {
"24 24 56 1",
" 	c None",
".	c #000000",
"+	c #A2AEBC",
"@	c #6D8196",
"#	c #8B8B8B",
"$	c #727F8C",
"%	c #7D8EA1",
"&	c #314E6C",
"*	c #5C5C5C",
"=	c #21364B",
"-	c #D6D6D6",
";	c #BFBFBF",
">	c #CECECE",
",	c #D2D2D2",
"'	c #D5D5D5",
")	c #D8D8D8",
"!	c #DCDCDC",
"~	c #DFDFDF",
"{	c #E2E2E2",
"]	c #E9E9E9",
"^	c #ECECEC",
"/	c #A8A8A8",
"(	c #D1D1D1",
"_	c #D4D4D4",
":	c #DBDBDB",
"<	c #DEDEDE",
"[	c #E5E5E5",
"}	c #EFEFEF",
"|	c #AAAAAA",
"1	c #979797",
"2	c #5F5F5F",
"3	c #404040",
"4	c #DADADA",
"5	c #FF0000",
"6	c #ADADAD",
"7	c #D9D9D9",
"8	c #CF0000",
"9	c #AFAFAF",
"0	c #FCFCFC",
"a	c #B3B3B3",
"b	c #E1E1E1",
"c	c #E4E4E4",
"d	c #F2F2F2",
"e	c #E8E8E8",
"f	c #EBEBEB",
"g	c #EEEEEE",
"h	c #F5F5F5",
"i	c #FFFFFF",
"j	c #B1B1B1",
"k	c #868686",
"l	c #9F9F9F",
"m	c #A2A2A2",
"n	c #A4A4A4",
"o	c #A6A6A6",
"p	c #A9A9A9",
"q	c #ABABAB",
"                        ",
"                        ",
"                        ",
"                        ",
"    ................    ",
"    .+@#@@@@@@@#@@$.    ",
"    .%&*&&&&&&&*&&=.    ",
"    .-;*>,')!~{*]^/.    ",
"    .-;*(_):<{[*^}|.    ",
"    .1****2..**..23.    ",
"    .-;*-4.55..55.6.    ",
"    .-;*7!.558855.9.    ",
"    .1*****.8558.*3.    ",
"    .-;*<{[.8558.0a.    ",
"    .-;*bc.558855.a.    ",
"    .1****.55..55.3.    ",
"    .-;*<{2..}d..2a.    ",
"    .-;*bcefgdh*0ia.    ",
"    .jk3lmnopq63aaa.    ",
"    ................    ",
"                        ",
"                        ",
"                        ",
"                        "};
