/* XPM */
static const char * DMLTriggers_xpm[] = {
"16 16 56 1",
" 	c None",
".	c #F3F3F3",
"+	c #ECECEC",
"@	c #B6B6B6",
"#	c #DBDBDB",
"$	c #F5F5F5",
"%	c #F6F6F6",
"&	c #C1C1C1",
"*	c #F1F1F1",
"=	c #D9D9D9",
"-	c #EDEDED",
";	c #EEEEEE",
">	c #F4F4F4",
",	c #E4E4E4",
"'	c #F2F2F2",
")	c #E8E8E8",
"!	c #B9B9B9",
"~	c #E3E3E3",
"{	c #EAEAEA",
"]	c #E7E7E7",
"^	c #CFCFCF",
"/	c #D8D8D8",
"(	c #CDCDCD",
"_	c #E2E2E2",
":	c #E6E6E6",
"<	c #DCDCDC",
"[	c #B4B4B4",
"}	c #DDDDDD",
"|	c #DADADA",
"1	c #E1E1E1",
"2	c #E0E0E0",
"3	c #D4D4D4",
"4	c #C2C2C2",
"5	c #D0D0D0",
"6	c #CCCCCC",
"7	c #D7D7D7",
"8	c #C7C7C7",
"9	c #C0C0C0",
"0	c #CACACA",
"a	c #D2D2D2",
"b	c #CECECE",
"c	c #D5D5D5",
"d	c #BEBEBE",
"e	c #CBCBCB",
"f	c #C3C3C3",
"g	c #D6D6D6",
"h	c #C4C4C4",
"i	c #D3D3D3",
"j	c #C8C8C8",
"k	c #C9C9C9",
"l	c #BABABA",
"m	c #C5C5C5",
"n	c #C6C6C6",
"o	c #A5A5A5",
"p	c #ABABAB",
"q	c #B5B5B5",
"                ",
"       ..       ",
"   +@ #$%# &*   ",
"  =+-;>,,'-+)#  ",
"  !~{]^=/(_:<[  ",
"   }<|112}3=^   ",
"  4<5/^  67869  ",
" 0a/bc    6d3ae ",
" f6g6a    &876h ",
"  !eiej  fk3el  ",
"   m6n&m6i3^n   ",
"  odfk505##7kp  ",
"  e0^a3|#7g3^e  ",
"   (q 0cc0 @b   ",
"       ii       ",
"                "};
