/* XPM */
static char * domain_xpm[] = {
"16 16 62 1",
" 	c None",
".	c #000000",
"+	c #E66253",
"@	c #F17062",
"#	c #EF6C5C",
"$	c #DF5642",
"%	c #E66455",
"&	c #F57A70",
"*	c #F88179",
"=	c #F06D5D",
"-	c #DD503B",
";	c #F27163",
">	c #FF9090",
",	c #F27162",
"'	c #EA604A",
")	c #F06D5E",
"!	c #E95E47",
"~	c #E25B49",
"{	c #EC644F",
"]	c #D94A34",
"^	c #4E9D44",
"/	c #3B8E3B",
"(	c #020602",
"_	c #DE5441",
":	c #EB614B",
"<	c #E95F48",
"[	c #DA4B35",
"}	c #4FC04F",
"|	c #51CA51",
"1	c #3F9A3F",
"2	c #163516",
"3	c #020502",
"4	c #232329",
"5	c #4D637A",
"6	c #5A7591",
"7	c #616175",
"8	c #4AB14A",
"9	c #58E058",
"0	c #4BB34B",
"a	c #459D45",
"b	c #040405",
"c	c #728EA9",
"d	c #7F9AB5",
"e	c #5A7692",
"f	c #59586D",
"g	c #48AB48",
"h	c #49AD49",
"i	c #030405",
"j	c #9DB7D1",
"k	c #617D99",
"l	c #435F7C",
"m	c #4A923F",
"n	c #469F46",
"o	c #488E3C",
"p	c #1B242C",
"q	c #3E5B77",
"r	c #49903E",
"s	c #4E4E5F",
"t	c #486481",
"u	c #4D4D61",
"v	c #59596E",
"w	c #4E4D61",
"                ",
"      ....      ",
"     .+@#$.     ",
"    .%&*&=-.    ",
"    .;*>*,'.    ",
"    .)&*&=!.    ",
"   ..~=,={].    ",
"  .^/(_:<[...   ",
" .^}|123.4567.  ",
" .8|9|0abcdcef. ",
" .g}|}haidjdkl. ",
" .mh0hnopcdceq. ",
"  .raao.seketu. ",
"   .... .vlqw.  ",
"         ....   ",
"                "};
