/* XPM */
static char * domain_xpm[] = {
"32 32 280 2",
"  	c None",
". 	c #000000",
"+ 	c #4D211C",
"@ 	c #73312A",
"# 	c #76352D",
"$ 	c #793831",
"% 	c #783730",
"& 	c #78362E",
"* 	c #743128",
"= 	c #702B21",
"- 	c #4A1D16",
"; 	c #E66253",
"> 	c #EC695B",
", 	c #F17062",
"' 	c #F06E5F",
") 	c #EF6C5C",
"! 	c #E7614F",
"~ 	c #DF5642",
"{ 	c #73322B",
"] 	c #B05046",
"^ 	c #EE6E62",
"/ 	c #F17368",
"( 	c #F5796E",
"_ 	c #F3766A",
": 	c #F27366",
"< 	c #ED6A5B",
"[ 	c #E86250",
"} 	c #AB4537",
"| 	c #6F281E",
"1 	c #4A1B14",
"2 	c #E66455",
"3 	c #EE6F63",
"4 	c #F57A70",
"5 	c #F77E75",
"6 	c #F88179",
"7 	c #F37467",
"8 	c #F06D5D",
"9 	c #E75F4C",
"0 	c #DD503B",
"a 	c #76352E",
"b 	c #EC6B5C",
"c 	c #F17468",
"d 	c #F9837D",
"e 	c #FC8985",
"f 	c #F4766A",
"g 	c #F16F60",
"h 	c #EA6451",
"i 	c #E45843",
"j 	c #722C21",
"k 	c #793932",
"l 	c #F27163",
"m 	c #FF9090",
"n 	c #F27162",
"o 	c #EE6956",
"p 	c #EA604A",
"q 	c #753025",
"r 	c #793830",
"s 	c #F16F61",
"t 	c #F4766B",
"u 	c #ED6754",
"v 	c #EA5F49",
"w 	c #753024",
"x 	c #78372F",
"y 	c #F06D5E",
"z 	c #ED6652",
"A 	c #E95E47",
"B 	c #752F24",
"C 	c #75322A",
"D 	c #E96454",
"E 	c #EE6C5D",
"F 	c #F06E5E",
"G 	c #E85E4A",
"H 	c #E1543E",
"I 	c #712A1F",
"J 	c #712E25",
"K 	c #E25B49",
"L 	c #E96453",
"M 	c #EC644F",
"N 	c #E35742",
"O 	c #D94A34",
"P 	c #6D251A",
"Q 	c #1A3417",
"R 	c #274F22",
"S 	c #224B20",
"T 	c #1E471E",
"U 	c #483C22",
"V 	c #723126",
"W 	c #AD493A",
"X 	c #EB6553",
"Y 	c #EF6957",
"Z 	c #EE6855",
"` 	c #ED6653",
" .	c #E85F4A",
"..	c #E35842",
"+.	c #A83E2E",
"@.	c #36130D",
"#.	c #4E9D44",
"$.	c #459640",
"%.	c #3B8E3B",
"&.	c #1F4A1F",
"*.	c #020602",
"=.	c #702D22",
"-.	c #DE5441",
";.	c #E55B46",
">.	c #EB614B",
",.	c #E95F48",
"'.	c #E2553F",
").	c #DA4B35",
"!.	c #6D261B",
"~.	c #3B7F36",
"{.	c #4FAF4A",
"].	c #4AAD48",
"^.	c #46AC46",
"/.	c #337E33",
"(.	c #215021",
"_.	c #4D4A26",
":.	c #7A452C",
"<.	c #783C29",
"[.	c #773327",
"}.	c #763125",
"|.	c #7A332A",
"1.	c #7F372F",
"2.	c #533436",
"3.	c #27323D",
"4.	c #2A3643",
"5.	c #2D3B49",
"6.	c #2F3642",
"7.	c #31313B",
"8.	c #202027",
"9.	c #4FC04F",
"0.	c #50C550",
"a.	c #51CA51",
"b.	c #48B248",
"c.	c #3F9A3F",
"d.	c #2B682B",
"e.	c #163516",
"f.	c #0C1D0C",
"g.	c #020502",
"h.	c #010301",
"i.	c #121215",
"j.	c #232329",
"k.	c #384352",
"l.	c #4D637A",
"m.	c #546C86",
"n.	c #5A7591",
"o.	c #5E6B83",
"p.	c #616175",
"q.	c #265424",
"r.	c #4CA747",
"s.	c #4EB64C",
"t.	c #52CD52",
"u.	c #55D555",
"v.	c #4EC44E",
"w.	c #3C933C",
"x.	c #317431",
"y.	c #2A632A",
"z.	c #245124",
"A.	c #132A13",
"B.	c #020203",
"C.	c #262D36",
"D.	c #4B5969",
"E.	c #586C80",
"F.	c #667F98",
"G.	c #66809A",
"H.	c #66829D",
"I.	c #627790",
"J.	c #5E6C84",
"K.	c #454C5D",
"L.	c #2D2C37",
"M.	c #1E1D24",
"N.	c #255925",
"O.	c #4AB14A",
"P.	c #4EBE4E",
"Q.	c #58E058",
"R.	c #4EBF4E",
"S.	c #4BB34B",
"T.	c #48A848",
"U.	c #459D45",
"V.	c #255125",
"W.	c #040405",
"X.	c #3B4957",
"Y.	c #728EA9",
"Z.	c #7994AF",
"`.	c #7F9AB5",
" +	c #66829E",
".+	c #5A7692",
"++	c #5A6780",
"@+	c #59586D",
"#+	c #255725",
"$+	c #49AE49",
"%+	c #4DBA4D",
"&+	c #4DBB4D",
"*+	c #4AB04A",
"=+	c #48A748",
"-+	c #245125",
";+	c #3E4C5A",
">+	c #839EB9",
",+	c #8EA9C3",
"'+	c #6B87A2",
")+	c #5E7A96",
"!+	c #566B85",
"~+	c #4E5C75",
"{+	c #272E3A",
"]+	c #245624",
"^+	c #48AB48",
"/+	c #4CB64C",
"(+	c #4CB74C",
"_+	c #49AD49",
":+	c #47A547",
"<+	c #030405",
"[+	c #414F5D",
"}+	c #9DB7D1",
"|+	c #708CA7",
"1+	c #617D99",
"2+	c #526E8B",
"3+	c #435F7C",
"4+	c #22303E",
"5+	c #254F22",
"6+	c #499F44",
"7+	c #4BAB48",
"8+	c #4AAE4A",
"9+	c #48A648",
"0+	c #479E44",
"a+	c #479641",
"b+	c #2B552D",
"c+	c #0F1419",
"d+	c #445464",
"e+	c #4F6B88",
"f+	c #415D7A",
"g+	c #202F3D",
"h+	c #254920",
"i+	c #4A923F",
"j+	c #4AA044",
"k+	c #469F46",
"l+	c #479741",
"m+	c #488E3C",
"n+	c #325934",
"o+	c #1B242C",
"p+	c #47596B",
"q+	c #4C6985",
"r+	c #3E5B77",
"s+	c #1F2E3C",
"t+	c #193115",
"u+	c #377432",
"v+	c #49A346",
"w+	c #366F30",
"x+	c #24471E",
"y+	c #2C4032",
"z+	c #353946",
"A+	c #4D5E72",
"B+	c #5C7894",
"C+	c #516D8A",
"D+	c #4B617B",
"E+	c #46546C",
"F+	c #232A36",
"G+	c #25481F",
"H+	c #49903E",
"I+	c #479742",
"J+	c #272730",
"K+	c #4E4E5F",
"L+	c #546279",
"M+	c #486481",
"N+	c #4B5971",
"O+	c #4D4D61",
"P+	c #272731",
"Q+	c #183015",
"R+	c #244B21",
"S+	c #234F23",
"T+	c #234B20",
"U+	c #182F14",
"V+	c #1A1A20",
"W+	c #404758",
"X+	c #5A6880",
"Y+	c #4C617B",
"Z+	c #394051",
"`+	c #2D2D37",
" @	c #59596E",
".@	c #4E4D61",
"+@	c #1E1E25",
"@@	c #272E3B",
"                                                                ",
"                                                                ",
"                          . . . . . . .                         ",
"                        . . . . . . . . .                       ",
"                      . + @ # $ % & * = - .                     ",
"                    . . @ ; > , ' ) ! ~ = . .                   ",
"                  . + { ] ^ / ( _ : < [ } | 1 .                 ",
"                . . { 2 3 4 5 6 5 4 7 8 9 0 | . .               ",
"                . . a b c 5 d e d 5 f g h i j . .               ",
"                . . k l ( 6 e m e 6 ( n o p q . .               ",
"                . . r s t 5 d e d 5 f g u v w . .               ",
"                . . x y 7 4 5 6 5 4 7 8 z A B . .               ",
"              . . . C D E 7 f ( f 7 F o G H I . .               ",
"            . . . . J K L 8 g n g 8 o M N O P . .               ",
"          . Q R S T U V W ! X Y Z `  ...+.P @.. . .             ",
"        . . R #.$.%.&.*.=.-.;.>.p ,.'.).!.. . . . . .           ",
"      . Q R ~.{.].^./.(._.:.<.[.}.w |.1.2.3.4.5.6.7.8..         ",
"    . . R #.{.9.0.a.b.c.d.e.f.g.h.. i.j.k.l.m.n.o.p.7.. .       ",
"    . . q.r.s.0.t.u.v.b.w.x.y.z.A.B.C.D.E.F.G.H.I.J.K.L.M..     ",
"    . . N.O.P.a.u.Q.u.a.R.S.T.U.V.W.X.Y.Z.`.Z.Y. +.+++@+L.. .   ",
"    . . #+$+%+0.t.u.t.0.&+*+=+U.-+W.;+Z.>+,+>+Z.'+)+!+~+{+. .   ",
"    . . ]+^+/+9.0.a.0.9.(+_+:+U.-+<+[+`.,+}+,+`.|+1+2+3+4+. .   ",
"    . . 5+6+7+(+&+R.&+(+8+9+0+a+b+c+d+Z.>+,+>+Z.'+)+e+f+g+. .   ",
"    . . h+i+j+_+*+S.*+_+9+k+l+m+n+o+p+Y.Z.`.Z.Y. +.+q+r+s+. .   ",
"      . t+h+u+6+v+T.=+:+0+l+w+x+y+z+A+ +'+|+'+ +B+C+D+E+F+. .   ",
"        . . G+H+I+U.U.U.a+m+x+. J+K+L+.+)+1+)+.+C+M+N+O+P+. .   ",
"          . Q+G+R+S+S+S+T+x+U+. V+J+W+X+!+2+e+q+Y+N+Z+P+V+.     ",
"            . . . . . . . . .   . . `+ @~+3+f+r+E+.@P+. .       ",
"              . . . . . . .       . +@`+@@4+g+s+F+P+V+.         ",
"                                    . . . . . . . . .           ",
"                                      . . . . . . .             ",
"                                                                "};
