/* XPM */
static const char * execute16_xpm[] = {
"16 16 113 2",
"   c None",
".  c #004D5E",
"+  c #004655",
"@  c #004351",
"#  c #004554",
"$  c #005264",
"%  c #005163",
"&  c #005B6F",
"*  c #006277",
"=  c #005C70",
"-  c #004C5C",
";  c #003C48",
">  c #003A46",
",  c #005D71",
"'  c #00748D",
")  c #008FAD",
"!  c #009ABA",
"~  c #009DBE",
"{  c #009ABB",
"]  c #0095B4",
"^  c #007E99",
"/  c #005062",
"(  c #003541",
"_  c #00687E",
":  c #0087A3",
"<  c #00A0C1",
"[  c #2AAFCB",
"}  c #07A1C2",
"|  c #009FC1",
"1  c #009FC0",
"2  c #009DBF",
"3  c #0092B1",
"4  c #005D72",
"5  c #003540",
"6  c #006B83",
"7  c #0085A2",
"8  c #00A0C2",
"9  c #7FCEE0",
"0  c #91D5E4",
"a  c #02A0C1",
"b  c #009EC0",
"c  c #0090AF",
"d  c #004E5F",
"e  c #003743",
"f  c #007A93",
"g  c #7ECEE0",
"h  c #FFFFFF",
"i  c #8FD5E4",
"j  c #007B95",
"k  c #003642",
"l  c #008BA8",
"m  c #00A3C5",
"n  c #FDFEFE",
"o  c #003F4D",
"p  c #007A94",
"q  c #0096B7",
"r  c #00A2C5",
"s  c #FDFEFF",
"t  c #05A1C2",
"u  c #0099BA",
"v  c #005466",
"w  c #003D49",
"x  c #007F99",
"y  c #00A4C7",
"z  c #E2F4F8",
"A  c #38B4CE",
"B  c #00586B",
"C  c #003E4C",
"D  c #0097B7",
"E  c #00A6C9",
"F  c #00A0C3",
"G  c #E1F4F8",
"H  c #36B3CE",
"I  c #07A1C3",
"J  c #0096B5",
"K  c #005061",
"L  c #008EAC",
"M  c #00A7CB",
"N  c #00A1C4",
"O  c #34B2CD",
"P  c #04A0C2",
"Q  c #0086A2",
"R  c #0088A4",
"S  c #E3F5F8",
"T  c #32B1CD",
"U  c #03A0C2",
"V  c #0097B8",
"W  c #00667C",
"X  c #004858",
"Y  c #008CAA",
"Z  c #00A5C9",
"`  c #60C3D9",
" . c #37B4CF",
".. c #03A1C2",
"+. c #009BBC",
"@. c #007892",
"#. c #008AA7",
"$. c #00A3C6",
"%. c #04A5C7",
"&. c #0093B3",
"*. c #007690",
"=. c #005A6D",
"-. c #005A6E",
";. c #00829E",
">. c #008EAD",
",. c #0088A5",
"'. c #007B96",
"). c #006A81",
"!. c #006075",
"~. c #007A95",
"{. c #00758E",
"]. c #007089",
"^. c #006D85",
"            . + @ #             ",
"        $ % & * = - ; >         ",
"      , ' ) ! ~ { ] ^ / ( @     ",
"    _ : ~ < [ } | 1 2 3 4 5     ",
"  6 7 | 8 8 9 0 a | | b c d e   ",
"  f 2 8 8 | g h i a | | 2 j k   ",
"  l m 8 | | g h n 0 a | b 3 # o ",
"p q r 8 | | g h h s 0 t b u v w ",
"x { y 8 | | g h h h z A | { B C ",
"  D E F | | g h h G H I b J K # ",
"  L M N 8 | g h G O P | b Q +   ",
"  R b E F 8 g S T U | | V W X   ",
"    Y N Z F `  ...| | +.@./     ",
"      #.! $.%.r 8 1 &.*.=.-.    ",
"        ;.7 Y >.,.'.).!.        ",
"            ~.{.].^.            "};
