/* XPM */
static const char * execute24_xpm[] = {
"24 24 44 1",
" 	c None",
".	c #000000",
"+	c #E25BFF",
"@	c #C040DB",
"#	c #B300BD",
"$	c #775979",
"%	c #B500BF",
"&	c #D92BE5",
"*	c #BE00C9",
"=	c #FFFFFF",
"-	c #F6DAF5",
";	c #C300CE",
">	c #B800C2",
",	c #FAF5FB",
"'	c #FAF3FB",
")	c #FCF7FC",
"!	c #F8D7F6",
"~	c #FAF0FA",
"{	c #FDF6FD",
"]	c #EC90F0",
"^	c #F9EFF9",
"/	c #FBF4FC",
"(	c #E177E6",
"_	c #FCF6FC",
":	c #FBECF9",
"<	c #D34EDC",
"[	c #FCF9FD",
"}	c #F8E0F6",
"|	c #FAEFFA",
"1	c #E9B9EB",
"2	c #B613C1",
"3	c #F7E7F8",
"4	c #ECC2EE",
"5	c #BE2AC7",
"6	c #CC58D2",
"7	c #F9EEFA",
"8	c #F9EBF9",
"9	c #E5AEE9",
"0	c #AC00BB",
"a	c #FAF2FB",
"b	c #E7B8EA",
"c	c #A100B8",
"d	c #EABEEC",
"e	c #C535CC",
"                        ",
" ...................... ",
" .+++++++++++++++++++@. ",
" .+##################$. ",
" .+###%##############$. ",
" .+##%&*#############$. ",
" .+###=-;>###########$. ",
" .+###,')!*##########$. ",
" .+###,==~{]>########$. ",
" .+###,====^/(#######$. ",
" .+###,======_:<#####$. ",
" .+###,========[}####$. ",
" .+###,===========###$. ",
" .+###,========|12###$. ",
" .+###,======345#####$. ",
" .+###,====336#######$. ",
" .+###,==7890########$. ",
" .+###'a,bc##########$. ",
" .+###=dc############$. ",
" .+###e0#############$. ",
" .+##################$. ",
" .@$$$$$$$$$$$$$$$$$$$. ",
" ...................... ",
"                        "};
