/* XPM */
static const char * execute24_xpm[] = {
"24 24 164 2",
"  	c None",
". 	c #BC8647",
"+ 	c #BF6813",
"@ 	c #B65606",
"# 	c #B85903",
"$ 	c #B65603",
"% 	c #B95403",
"& 	c #B65203",
"* 	c #B04903",
"= 	c #B14E07",
"- 	c #A94103",
"; 	c #922900",
"> 	c #ECAD66",
", 	c #FFF889",
"' 	c #FEF36F",
") 	c #FFF573",
"! 	c #FEF571",
"~ 	c #FEF56B",
"{ 	c #FEF464",
"] 	c #FFF465",
"^ 	c #FDEC74",
"/ 	c #B64B07",
"( 	c #FDBC40",
"_ 	c #FFF364",
": 	c #FFEB5B",
"< 	c #FFEF58",
"[ 	c #FFF051",
"} 	c #FFEE4D",
"| 	c #FFE851",
"1 	c #FFFA53",
"2 	c #F6A21F",
"3 	c #B16300",
"4 	c #FFEE7D",
"5 	c #FFDB5A",
"6 	c #FFDA58",
"7 	c #FFDC52",
"8 	c #FFDB52",
"9 	c #FFD950",
"0 	c #FFDC59",
"a 	c #FFDC2A",
"b 	c #B64102",
"c 	c #D79D04",
"d 	c #FFE880",
"e 	c #FFC753",
"f 	c #FFCF55",
"g 	c #FFD052",
"h 	c #FFD04F",
"i 	c #FFD357",
"j 	c #FFD72E",
"k 	c #F18505",
"l 	c #F19625",
"m 	c #FFCE74",
"n 	c #FFBE50",
"o 	c #FFC44D",
"p 	c #FFC852",
"q 	c #FFCC4C",
"r 	c #FFBA05",
"s 	c #B04507",
"t 	c #F89D54",
"u 	c #FFC35F",
"v 	c #FFB24E",
"w 	c #FFB54F",
"x 	c #FFB750",
"y 	c #FFBC5F",
"z 	c #FFAB03",
"A 	c #B9511B",
"B 	c #772800",
"C 	c #9E3F00",
"D 	c #FCAF59",
"E 	c #FFBF50",
"F 	c #FFB14B",
"G 	c #FFAC4C",
"H 	c #FFB55B",
"I 	c #FF991B",
"J 	c #FF9100",
"K 	c #BA6420",
"L 	c #E77924",
"M 	c #BE5A11",
"N 	c #C9834C",
"O 	c #FCC37B",
"P 	c #F9AD57",
"Q 	c #FEB654",
"R 	c #FFB450",
"S 	c #FFA93A",
"T 	c #FF8600",
"U 	c #FF8E00",
"V 	c #FFA900",
"W 	c #E06809",
"X 	c #AD6A1C",
"Y 	c #BD8040",
"Z 	c #A5460B",
"` 	c #782505",
" .	c #EFB155",
"..	c #FFC349",
"+.	c #FFA602",
"@.	c #FFA800",
"#.	c #FFA500",
"$.	c #FDA511",
"%.	c #992705",
"&.	c #B05012",
"*.	c #FFD959",
"=.	c #FFC20E",
"-.	c #FFBF00",
";.	c #FFC000",
">.	c #FFCB00",
",.	c #DE7F1A",
"'.	c #CE7931",
").	c #FFDC30",
"!.	c #FFCC0C",
"~.	c #FFCF1A",
"{.	c #FFD217",
"].	c #F8C218",
"^.	c #983406",
"/.	c #A64C01",
"(.	c #F3BD43",
"_.	c #FFD621",
":.	c #FFD736",
"<.	c #FFDB41",
"[.	c #FFDE40",
"}.	c #E4B63E",
"|.	c #BD7733",
"1.	c #BB5409",
"2.	c #CA7424",
"3.	c #F8C841",
"4.	c #F8D342",
"5.	c #FFE258",
"6.	c #FFE566",
"7.	c #FFE565",
"8.	c #FFE95E",
"9.	c #D87F20",
"0.	c #B7690E",
"a.	c #9D4F08",
"b.	c #E5BE52",
"c.	c #FFED77",
"d.	c #FFF08C",
"e.	c #FFF994",
"f.	c #E3993C",
"g.	c #A45100",
"h.	c #BA6407",
"i.	c #FFDF65",
"j.	c #FFF088",
"k.	c #FFFFB5",
"l.	c #F2C16E",
"m.	c #AF5600",
"n.	c #D68219",
"o.	c #FFE966",
"p.	c #FFF48A",
"q.	c #FAD883",
"r.	c #BF6203",
"s.	c #E19122",
"t.	c #FFE954",
"u.	c #FDDD6A",
"v.	c #CB6D0F",
"w.	c #E9A323",
"x.	c #FFDD3C",
"y.	c #CE6D18",
"z.	c #A64903",
"A.	c #F9BE15",
"B.	c #CE6D15",
"C.	c #B7560D",
"D.	c #DD7C18",
"E.	c #A04600",
"F.	c #C66E41",
"G.	c #AD500F",
"                                                ",
"                                                ",
"                . + @ # $ % & * = - ;           ",
"                > , ' ) ! ~ { ] ^ /             ",
"                ( _ : < [ } | 1 2               ",
"              3 4 5 6 7 8 9 0 a b               ",
"              c d e f g h i j k                 ",
"              l m n e o p q r s                 ",
"              t u v w x y z A B                 ",
"            C D E F G H I J K L M               ",
"            N O P Q R S T U V W                 ",
"          X Y Z `  ...+.@.#.$.%.                ",
"                &.*.=.-.;.>.,.                  ",
"                '.).!.~.{.].^.                  ",
"              /.(._.:.<.[.}.|.1.                ",
"              2.3.4.5.6.7.8.9.                  ",
"              0.a.b.c.d.e.f.g.                  ",
"                h.i.j.k.l.m.                    ",
"                n.o.p.q.r.                      ",
"                s.t.u.v.                        ",
"                w.x.y.                          ",
"              z.A.B.                            ",
"              C.D.E.                            ",
"              F.G.                              "};
