/* XPM */
static const char * execute16_xpm[] = {
"16 16 44 1",
" 	c None",
".	c #000000",
"+	c #DB8EEC",
"@	c #551C61",
"#	c #B300BD",
"$	c #4D005E",
"%	c #B400BE",
"&	c #C713D2",
"*	c #B500C0",
"=	c #FBF3FB",
"-	c #E182E6",
";	c #C630CD",
">	c #FBF7FC",
",	c #FEFCFE",
"'	c #F4D1F4",
")	c #DE77E3",
"!	c #B500BF",
"~	c #FCF8FC",
"{	c #FFFFFF",
"]	c #F6DBF8",
"^	c #D56ADA",
"/	c #BA11C4",
"(	c #FFFEFF",
"_	c #FEFAFD",
":	c #EAB2ED",
"<	c #C232CA",
"[	c #FBF4FC",
"}	c #ECC3EF",
"|	c #FDFAFD",
"1	c #F5DFF6",
"2	c #CE5CD4",
"3	c #BA19C3",
"4	c #FDF9FD",
"5	c #F5E0F6",
"6	c #D57ADB",
"7	c #B914C2",
"8	c #FBF5FB",
"9	c #DDA1E4",
"0	c #C241CC",
"a	c #B100BD",
"b	c #E4A7E8",
"c	c #B62AC5",
"d	c #B60CC0",
"e	c #B200BD",
"................",
".+++++++++++++@.",
".+############$.",
".+#%&*########$.",
".+##=-;%######$.",
".+##>,')!#####$.",
".+##~{{~]^/###$.",
".+##~{{{(_:<##$.",
".+##~{{{{{[}##$.",
".+##~{{{|123##$.",
".+##~{4567####$.",
".+##8~90a#####$.",
".+##bc########$.",
".+##de########$.",
".@$$$$$$$$$$$$$.",
"................"};
