/* XPM */

static const char * flamerobin32_xpm[] = {
"32 32 345 2",
"   c None",
".  c #C1D6E0",
"+  c #BED2DD",
"@  c #C0D6E0",
"#  c #BDD2DC",
"$  c #C0D5E0",
"%  c #C1D5DF",
"&  c #BFD5DF",
"*  c #BED4DF",
"=  c #C0D6E1",
"-  c #C0D6E2",
";  c #BFD5E1",
">  c #BDD3DF",
",  c #BDD3DE",
"'  c #BDD4DF",
")  c #BCD3DE",
"!  c #C0D4DE",
"~  c #C6DBE5",
"{  c #CCDFE9",
"]  c #D0E3EC",
"^  c #D2E3ED",
"/  c #D3E4ED",
"(  c #D1E3EC",
"_  c #C5DAE5",
":  c #BBD2DE",
"<  c #BAD1DC",
"[  c #C9DDE7",
"}  c #D4E5EE",
"|  c #D7E7EF",
"1  c #D9E8F0",
"2  c #DBE9F1",
"3  c #DBEAF1",
"4  c #DAE8F0",
"5  c #D8E7EF",
"6  c #D5E5EE",
"7  c #C8DCE7",
"8  c #BBD2DD",
"9  c #B9CFDB",
"0  c #BFD4DE",
"a  c #C4D9E4",
"b  c #D0E2EC",
"c  c #D5E6EE",
"d  c #DDEAF1",
"e  c #DFECF2",
"f  c #E1EDF3",
"g  c #DCE6EC",
"h  c #AEB6BA",
"i  c #9DA5A9",
"j  c #B4BDC1",
"k  c #DCE7ED",
"l  c #C2D8E3",
"m  c #BAD1DD",
"n  c #B7CEDA",
"o  c #BFD3DD",
"p  c #BFD4DF",
"q  c #C7DCE6",
"r  c #D2E4ED",
"s  c #D8E7F0",
"t  c #E1ECF3",
"u  c #E4EEF4",
"v  c #E7CED4",
"w  c #EA949A",
"x  c #92989B",
"y  c #000000",
"z  c #0E0E0E",
"A  c #666A6C",
"B  c #D6DFE5",
"C  c #C6DBE6",
"D  c #B9D1DC",
"E  c #B6CDD9",
"F  c #DFEBF2",
"G  c #E3EEF4",
"H  c #E6F0F5",
"I  c #EAAAAF",
"J  c #ED242B",
"K  c #EE6D74",
"L  c #828688",
"M  c #1E2020",
"N  c #C6CED3",
"O  c #D3E5ED",
"P  c #B7CFDB",
"Q  c #B0C7D2",
"R  c #E4EFF4",
"S  c #E8F1F6",
"T  c #EBBABF",
"U  c #ED1F26",
"V  c #ED1C24",
"W  c #EF696F",
"X  c #8A8D8E",
"Y  c #202121",
"Z  c #DCE4E8",
"`  c #E5EFF4",
" . c #E0ECF2",
".. c #C1D7E2",
"+. c #B1C8D3",
"@. c #BED3DE",
"#. c #BFD5E0",
"$. c #E9F2F6",
"%. c #ECE7EB",
"&. c #ED3038",
"*. c #EF4D54",
"=. c #ADAFB0",
"-. c #E4E4E4",
";. c #838384",
">. c #707375",
",. c #B0B5B8",
"'. c #A4A9AD",
"). c #DAE6EC",
"!. c #A6BCC6",
"~. c #ECF4F8",
"{. c #EE898E",
"]. c #ED222A",
"^. c #EAE0E1",
"/. c #090909",
"(. c #7D7D7E",
"_. c #414141",
":. c #131414",
"<. c #C6CCCF",
"[. c #231F20",
"}. c #515052",
"|. c #DCE9F0",
"1. c #D6E6EF",
"2. c #C5DAE4",
"3. c #A9BFCA",
"4. c #BED4DE",
"5. c #BED5E0",
"6. c #E7F0F5",
"7. c #EBF3F7",
"8. c #F0F2F5",
"9. c #EE2F36",
"0. c #F59A9E",
"a. c #737474",
"b. c #C9CED1",
"c. c #3E3C3D",
"d. c #CED5DA",
"e. c #D1E2EC",
"f. c #B1C7D2",
"g. c #9BAFB9",
"h. c #EEF5F8",
"i. c #F0BCC0",
"j. c #EE2A32",
"k. c #F4DBDD",
"l. c #424242",
"m. c #B6B9BB",
"n. c #D7DDE0",
"o. c #EAF2F6",
"p. c #9CAFBA",
"q. c #F0F6F9",
"r. c #F08489",
"s. c #EF3C43",
"t. c #F6DADB",
"u. c #7F7F80",
"v. c #0F0F0F",
"w. c #C8CBCD",
"x. c #ECF3F7",
"y. c #C7DAE4",
"z. c #9EB3BD",
"A. c #EDF4F8",
"B. c #F2F7F9",
"C. c #EF5C62",
"D. c #EE272F",
"E. c #F69195",
"F. c #F2E2E3",
"G. c #8E8E8F",
"H. c #121212",
"I. c #0E0E0F",
"J. c #F1F5F7",
"K. c #F2F7FA",
"L. c #E2EDF3",
"M. c #CEE0E9",
"N. c #A2B7C2",
"O. c #8B9CA5",
"P. c #BAD0DA",
"Q. c #BED4E0",
"R. c #E3EEF3",
"S. c #F3F7FA",
"T. c #EE3F47",
"U. c #ED242C",
"V. c #F48287",
"W. c #E5DCDD",
"X. c #3F3F40",
"Y. c #676869",
"Z. c #F7FAFC",
"`. c #F3F8FA",
" + c #D1E2EB",
".+ c #A6BBC5",
"++ c #8597A0",
"@+ c #EFF5F9",
"#+ c #EE333B",
"$+ c #EF3D44",
"%+ c #F3D7D9",
"&+ c #EAEBEC",
"*+ c #F4F8FA",
"=+ c #EAF2F7",
"-+ c #DCEAF1",
";+ c #A7BBC6",
">+ c #82939C",
",+ c #EE3037",
"'+ c #EF383F",
")+ c #F9EEEF",
"!+ c #F8FAFC",
"~+ c #A6B9C4",
"{+ c #7F9098",
"]+ c #B8CEDA",
"^+ c #EE3C43",
"/+ c #F37C80",
"(+ c #D0E1EA",
"_+ c #A0B3BD",
":+ c #7A8A92",
"<+ c #BAD2DD",
"[+ c #EF535A",
"}+ c #EE2C21",
"|+ c #F1511B",
"1+ c #EE2B22",
"2+ c #EE2830",
"3+ c #F6F4F6",
"4+ c #CCDEE7",
"5+ c #95A9B2",
"6+ c #76858D",
"7+ c #CBDFE9",
"8+ c #F0787E",
"9+ c #ED2123",
"0+ c #FCD006",
"a+ c #FEEB01",
"b+ c #F57815",
"c+ c #F3D1D4",
"d+ c #C2D5DE",
"e+ c #8A9BA4",
"f+ c #B9D0DC",
"g+ c #F0ADB2",
"h+ c #F68B11",
"i+ c #FFF200",
"j+ c #F47316",
"k+ c #F1C0C4",
"l+ c #D4E5ED",
"m+ c #B2C5CF",
"n+ c #7C8D95",
"o+ c #B5CCD8",
"p+ c #EFEAED",
"q+ c #ED252C",
"r+ c #F89F0E",
"s+ c #FEE902",
"t+ c #EF2E21",
"u+ c #EFD3D7",
"v+ c #DAE9F0",
"w+ c #CDDEE8",
"x+ c #9AADB7",
"y+ c #73828A",
"z+ c #B2C9D5",
"A+ c #EE7177",
"B+ c #F0431E",
"C+ c #FFED01",
"D+ c #F57615",
"E+ c #ED2C34",
"F+ c #EDF1F5",
"G+ c #B9CCD6",
"H+ c #83949C",
"I+ c #B5CCD7",
"J+ c #CFE2EB",
"K+ c #ECDADF",
"L+ c #F78E11",
"M+ c #F79510",
"N+ c #EC8187",
"O+ c #CADCE5",
"P+ c #98ABB5",
"Q+ c #738289",
"R+ c #A8BDC8",
"S+ c #BCD1DC",
"T+ c #D2E3EC",
"U+ c #EC9EA4",
"V+ c #F68413",
"W+ c #F68113",
"X+ c #ED383F",
"Y+ c #E9E6EA",
"Z+ c #AABDC7",
"`+ c #7C8C94",
" @ c #9CB0BA",
".@ c #A6BBC6",
"+@ c #EA8F95",
"@@ c #ED1D25",
"#@ c #EF2F21",
"$@ c #FDDA04",
"%@ c #FCD205",
"&@ c #EC363D",
"*@ c #E7D2D8",
"=@ c #B3C7D1",
"-@ c #84959D",
";@ c #6E7C84",
">@ c #95A9B3",
",@ c #BED3DD",
"'@ c #E7BBC1",
")@ c #EC4E55",
"!@ c #EE2922",
"~@ c #F46917",
"{@ c #F36717",
"]@ c #EE2622",
"^@ c #ED272F",
"/@ c #EA787F",
"(@ c #E5E1E7",
"_@ c #B3C7D0",
":@ c #8798A1",
"<@ c #707E86",
"[@ c #8FA1AB",
"}@ c #B5CAD4",
"|@ c #CCDFE8",
"1@ c #E4D9DF",
"2@ c #E6B5BC",
"3@ c #E6ACB3",
"4@ c #E5C0C6",
"5@ c #E2E7ED",
"6@ c #C9DBE5",
"7@ c #A9BCC6",
"8@ c #6F7E85",
"9@ c #A4B8C2",
"0@ c #BED1DB",
"a@ c #D4E4ED",
"b@ c #B7CAD4",
"c@ c #96A9B2",
"d@ c #7A8991",
"e@ c #6D7B83",
"f@ c #81919A",
"g@ c #8C9FA8",
"h@ c #9FB3BD",
"i@ c #C2D5DF",
"j@ c #CBDDE6",
"k@ c #CFE0E9",
"l@ c #D0E1EB",
"m@ c #BFD2DC",
"n@ c #AEC1CB",
"o@ c #96A8B2",
"p@ c #707F87",
"q@ c #788890",
"r@ c #7E8E97",
"s@ c #889AA3",
"t@ c #91A4AD",
"u@ c #99ABB5",
"v@ c #9CAEB8",
"w@ c #9BAEB8",
"x@ c #97A9B3",
"y@ c #8D9FA8",
"z@ c #77868E",
"A@ c #718087",
"B@ c #717F87",
"C@ c #707F86",
"D@ c #6D7C83",
"                          . + . @ # $                           ",
"                    % @ & * = - - ; > , ' )                     ",
"                ! & = ~ { ] ^ / / ^ ( { _ * : <                 ",
"            ! @ @ [ ( } | 1 2 3 3 2 4 5 6 ( 7 ' 8 9             ",
"          0 & a b c 1 d e f g h i j k e d 1 c b l m n           ",
"        o p q r s d t u v w x y y y z A B f d s / C D E         ",
"      0 p q / 1 F G H I J K L y y y y y M N G F 4 O C P Q       ",
"      & a r 1 e R S T U V W X y y y y y y Y Z `  .4 / ..+.      ",
"    @.#.b s F R $.%.&.V V *.=.y y y y -.;.y >.,.'.).s b E !.    ",
"    * [ c d G S ~.{.V V V ].^./.y y y (._.y :.<.[.}.|.1.2.3.    ",
"  4.5.( 1 t 6.7.8.9.V V V V 0.a.y y y y y y y b.c.d.f 4 e.f.g.  ",
"  * _ } d u $.h.i.V V V V V j.k.l.y y y y y y m.n.o.R d 6 # p.  ",
"  ) { | e H 7.q.r.V V V V V V s.t.u.v.y y y y w.q.x.H  .s y.z.  ",
"* ) ] 1 f S A.B.C.V V V V V V V D.E.F.G.H.y I.J.K.A.S L.4 M.N.O.",
"P.Q.^ 2 R.$.h.S.T.V V V V V V V V V U.V.W.X.Y.Z.`.h.$.R.2  +.+++",
") ; / 3 G $.@+`.#+V V V V V V V V V V V $+%+&+Z.*+@+=+R -+( ;+>+",
": ; / 3 G $.@+`.,+V V V V V V V V V V V V '+)+!+*+@+=+R -+( ~+{+",
"]+' ^ 2 R.$.h.S.^+V V V V V V V V V V V V V /+Z.`.h.$.R.2 (+_+:+",
"m <+b 4 L.S A.B.[+V V V V }+|+1+V V V V V V 2+3+K.A.S L.4 4+5+6+",
"  D 7+5 e H x.q.8+V V V V 9+0+a+b+V V V V V V c+q.x.H  .s d+e+  ",
"  f+a 6 d u $.h.g+V V V V V h+i+i+j+V V V V V k+h.=+R d l+m+n+  ",
"  o+<+( 4 f 6.x.p+q+V V V V r+i+i+s+t+V V V V u+x.6.f v+w+x+y+  ",
"    z+~ c d G S A.A+V V V B+C+i+i+i+D+V V V E+F+$.u d 6 G+H+    ",
"    3.I+J+s F ` $.K+U.V V L+i+i+i+i+M+V V V N+$.` e 1 O+P+Q+    ",
"      R+S+T+4  .` S U+V V V+i+i+i+i+W+V V X+Y+`  .4 (+Z+`+      ",
"       @.@p / 4 F u 6.+@@@#@$@i+i+%@1+V &@*@u e 4  +=@-@;@      ",
"        >@N.,@T+s d f R '@)@!@~@{@]@^@/@(@f d 1 (+_@:@<@        ",
"          [@g.}@|@6 4 d  .L.1@2@3@4@5@ .d v+6 6@7@H+8@          ",
"            :@[@9@0@M.l+5 4 2 -+-+2 4 5 a@4+b@c@d@e@            ",
"                f@g@h@=@i@j@k@ +l@M.O+m@n@o@{+p@                ",
"                    q@r@s@t@u@v@w@x@y@>+z@<@                    ",
"                          p@A@B@C@8@D@                          "};
