/* XPM */
static const char * functions_xpm[] = {
"16 16 73 1",
" 	c None",
".	c #A2C1EF",
"+	c #9FC0ED",
"@	c #9DBEEB",
"#	c #9ABCEB",
"$	c #96BAE9",
"%	c #93B7E7",
"&	c #7EA6DC",
"*	c #A1C1EE",
"=	c #F4F7FB",
"-	c #77A2D7",
";	c #1E1E1E",
">	c #9EBFEC",
",	c #A5D59C",
"'	c #A1D398",
")	c #9DD094",
"!	c #98CE90",
"~	c #6F9BD4",
"{	c #9BBDEB",
"]	c #FFFFFF",
"^	c #6A97D1",
"/	c #98BAE9",
"(	c #A6C3E9",
"_	c #6493CE",
":	c #94B7E7",
"<	c #EBF1F7",
"[	c #5F8FCB",
"}	c #8FB4E5",
"|	c #F2F6FA",
"1	c #AAC6E9",
"2	c #ACC6E9",
"3	c #ACC7EA",
"4	c #ADC7E9",
"5	c #DEE7F2",
"6	c #598AC8",
"7	c #8CB1E3",
"8	c #F1F6FA",
"9	c #AEC9EA",
"0	c #DBE5F1",
"a	c #5586C6",
"b	c #87AEE1",
"c	c #F0F4FA",
"d	c #B2CBEA",
"e	c #B3CCEA",
"f	c #D8E2F0",
"g	c #5486C4",
"h	c #82AADF",
"i	c #EFF3F9",
"j	c #B7CEEA",
"k	c #5F8DC8",
"l	c #7EA8DD",
"m	c #BAD0EB",
"n	c #BBD0EB",
"o	c #5C8AC6",
"p	c #7AA4D9",
"q	c #EEF3F9",
"r	c #BED2EB",
"s	c #5F8CC6",
"t	c #75A1D7",
"u	c #EDF2F8",
"v	c #EAF0F7",
"w	c #E6EDF6",
"x	c #E2EAF4",
"y	c #DEE7F3",
"z	c #5D8AC5",
"A	c #729ED6",
"B	c #6E99D3",
"C	c #6896D1",
"D	c #6392CE",
"E	c #5E8ECB",
"F	c #5B8AC9",
"G	c #5687C7",
"H	c #467BBD",
"                ",
"  .+@#$%&       ",
" *======- ;   ; ",
" >=,')!=~  ; ;  ",
" {=]]]]=^   ;   ",
" /=((((=_  ; ;  ",
" :=(]]]<[ ;   ; ",
" }|123456       ",
" 789]]]0a ;   ; ",
" bcdeeefg ;   ; ",
" hij]]]fk  ; ;  ",
" limnnnfo  ; ;  ",
" pqr]]]fs   ;   ",
" tuvwxyfz   ;   ",
" ABCDEFGH ;;    ",
"                "};
