/* XPM */
static char * function_xpm[] = {
"32 32 204 2",
"  	c None",
". 	c #000686",
"+ 	c #293094",
"@ 	c #535AA2",
"# 	c #444F97",
"$ 	c #36448D",
"% 	c #2B3881",
"& 	c #212C75",
"* 	c #38438B",
"= 	c #3A4289",
"- 	c #1D2488",
"; 	c #A5AEBD",
"> 	c #8898A9",
", 	c #6B8294",
"' 	c #576A7C",
") 	c #425163",
"! 	c #6F8090",
"~ 	c #737D8C",
"{ 	c #48529C",
"] 	c #909EB1",
"^ 	c #6F8398",
"/ 	c #4E6880",
"( 	c #3E5469",
"_ 	c #2D4153",
": 	c #4C6075",
"< 	c #4A596B",
"[ 	c #252F79",
"} 	c #3E4A96",
"| 	c #7B8EA5",
"1 	c #566E88",
"2 	c #314D6B",
"3 	c #253F57",
"4 	c #183042",
"5 	c #29415B",
"6 	c #21344A",
"7 	c #111D68",
"8 	c #414E9D",
"9 	c #8295B3",
"0 	c #6F85A5",
"a 	c #5D7596",
"b 	c #4F6176",
"c 	c #424D57",
"d 	c #616C7A",
"e 	c #808C9D",
"f 	c #808D9D",
"g 	c #808E9D",
"h 	c #828F9F",
"i 	c #8490A1",
"j 	c #8491A1",
"k 	c #8492A1",
"l 	c #8693A3",
"m 	c #8894A5",
"n 	c #8A96A7",
"o 	c #8C98A9",
"p 	c #8C99A9",
"q 	c #8C9AA9",
"r 	c #8E9BAB",
"s 	c #909CAD",
"t 	c #909DAD",
"u 	c #909EAD",
"v 	c #7C8794",
"w 	c #676F7C",
"x 	c #343B81",
"y 	c #4451A4",
"z 	c #889CC1",
"A 	c #7A8396",
"B 	c #6B696B",
"C 	c #9D9A9D",
"D 	c #CECBCE",
"E 	c #CECDCE",
"F 	c #CECFCE",
"G 	c #D2D1D2",
"H 	c #D6D3D6",
"I 	c #D6D5D6",
"J 	c #D6D7D6",
"K 	c #DAD9DA",
"L 	c #DEDBDE",
"M 	c #E3DFE3",
"N 	c #E7E3E7",
"O 	c #E7E5E7",
"P 	c #E7E7E7",
"Q 	c #EBE9EB",
"R 	c #EFEBEF",
"S 	c #EFEDEF",
"T 	c #EFEFEF",
"U 	c #ADAAAD",
"V 	c #57589A",
"W 	c #9D9B9D",
"X 	c #D0CFD0",
"Y 	c #D4D3D4",
"Z 	c #D8D7D8",
"` 	c #DCDBDC",
" .	c #DEDDDE",
"..	c #E3E0E3",
"+.	c #9D9C9D",
"@.	c #DEDFDE",
"#.	c #E3E1E3",
"$.	c #7A8496",
"%.	c #6B6B6B",
"&.	c #9F9E9F",
"*.	c #C6C5C6",
"=.	c #B5B5B5",
"-.	c #929192",
";.	c #6F6E6F",
">.	c #A9A7A9",
",.	c #E5E3E5",
"'.	c #E9E7E9",
").	c #EDEBED",
"!.	c #F1EFF1",
"~.	c #F3F1F3",
"{.	c #ADACAD",
"].	c #57599A",
"^.	c #7A8596",
"/.	c #6B6D6B",
"(.	c #A1A0A1",
"_.	c #949294",
":.	c #4A494A",
"<.	c #000000",
"[.	c #747274",
"}.	c #F7F3F7",
"|.	c #ADAEAD",
"1.	c #575A9A",
"2.	c #909090",
"3.	c #5D5C5D",
"4.	c #6F706F",
"5.	c #ABA9AB",
"6.	c #E9E6E9",
"7.	c #F5F3F5",
"8.	c #F7F5F7",
"9.	c #D2D2D2",
"0.	c #6B6C6B",
"a.	c #EBE7EB",
"b.	c #F7F7F7",
"c.	c #D2D3D2",
"d.	c #A1A1A1",
"e.	c #6D6D6D",
"f.	c #383838",
"g.	c #ABAAAB",
"h.	c #AFADAF",
"i.	c #787678",
"j.	c #787778",
"k.	c #787878",
"l.	c #A5A4A5",
"m.	c #E5E4E5",
"n.	c #A1A2A1",
"o.	c #747474",
"p.	c #575757",
"q.	c #7C8698",
"r.	c #6F6F6F",
"s.	c #3A3A3A",
"t.	c #AFAEAF",
"u.	c #767576",
"v.	c #2F302F",
"w.	c #5F5F5F",
"x.	c #5B5B5B",
"y.	c #A9A8A9",
"z.	c #FBF9FB",
"A.	c #B1B0B1",
"B.	c #595B9C",
"C.	c #7E879A",
"D.	c #737173",
"E.	c #A9A6A9",
"F.	c #BDBEBD",
"G.	c #807E80",
"H.	c #FFFBFF",
"I.	c #DAD7DA",
"J.	c #B5B2B5",
"K.	c #5B5C9E",
"L.	c #DADBDA",
"M.	c #807F80",
"N.	c #FFFDFF",
"O.	c #DAD8DA",
"P.	c #7C7C7C",
"Q.	c #808080",
"R.	c #FFFFFF",
"S.	c #E0DFE0",
"T.	c #B5B3B5",
"U.	c #7C7A7C",
"V.	c #B9B8B9",
"W.	c #BBBABB",
"X.	c #BFBEBF",
"Y.	c #758092",
"Z.	c #636363",
"`.	c #929292",
" +	c #C2C1C2",
".+	c #C4C3C4",
"++	c #C6C6C6",
"@+	c #C6C7C6",
"#+	c #CAC9CA",
"$+	c #CECCCE",
"%+	c #C8C5C8",
"&+	c #6D798A",
"*+	c #525552",
"=+	c #A5A2A5",
"-+	c #A5A6A5",
";+	c #222C95",
">+	c #373F88",
",+	c #292E6C",
"'+	c #3E4181",
")+	c #535496",
"!+	c #535596",
"~+	c #535696",
"{+	c #555798",
"]+	c #2D3192",
"                                                                ",
"                                                                ",
". . . . . . . . . . . . . . . . . . . . . . . . . . . . . . . . ",
". . . . . . . . . . . . . . . . . . . . . . . . . . . . . . . . ",
". . + @ # $ $ $ % & % $ $ $ $ $ $ $ $ $ $ $ $ $ $ $ $ $ * = - . ",
". . @ ; > , , , ' ) ' , , , , , , , , , , , , , , , , , ! ~ = . ",
". . { ] ^ / / / ( _ ( / / / / / / / / / / / / / / / / / : < [ . ",
". . } | 1 2 2 2 3 4 3 2 2 2 2 2 2 2 2 2 2 2 2 2 2 2 2 2 5 6 7 . ",
". . 8 9 0 a a a b c d e f g h i j k l m n o p q r s t u v w x . ",
". . y z z z z z A B C D E F G H I J K L M N O P Q R S T E U V . ",
". . y z z z z z A B W E X G Y I Z K `  ...N O P Q R S T E U V . ",
". . y z z z z z A B +.F G H I J K L  .@.#.N O P Q R S T E U V . ",
". . y z z z z z $.%.&.G Y I *.=.-.;.>.#.,.O '.Q ).S !.~.X {.].. ",
". . y z z z z z ^./.(.H I J =._.:.<.[.N O P Q R S T ~.}.G |.1.. ",
". . y z z z z z ^./.(.H I J 2.:.3.4.5.N 6.Q ).S !.~.7.8.9.|.1.. ",
". . y z z z z z ^./.(.H I J 0.<.4.@.#.N a.R S T ~.}.8.b.c.|.1.. ",
". . y z z z z z ^./.d.I Z K e.<.f.4.g.O h.i.j.k.l.G m.b.c.|.1.. ",
". . y z z z z z ^./.n.J K L ;.<.<.<.o.P o.<.<.<.p.|.c.b.c.|.1.. ",
". . y z z z z z q.r.l.K `  .r.<.s.o.t.Q u.<.v.w.x.p.y.z.I A.B.. ",
". . y z z z z z C.D.E.L  .@.4.<.o.P Q R i.<.w.F.w.<.G.H.I.J.K.. ",
". . y z z z z z C.D.E.L  .@.4.<.o.P Q R i.<.e.L.e.<.M.N.O.J.K.. ",
". . y z z z z z C.D.E.L  .@.4.<.o.P Q R i.<.P.b.P.<.Q.R.K J.K.. ",
". . y z z z z z C.D.>. .S.#.g.o.t.Q ).S T.U.V.b.W.G.X.R.K J.K.. ",
". . y z z z z z C.D.y.@.#.N O P Q R S T ~.}.8.b.z.H.N.R.K J.K.. ",
". . y z z z z z Y.Z.`. +.+*.++@+#+D $+E X G 9.c.I I.O.K %+J.K.. ",
". . y z z z z z &+*+P.=+l.-+-+-+y.U U U {.|.|.|.A.J.J.J.J.J.K.. ",
". . ;+y y y y y >+,+'+)+!+~+~+~+{+V V V ].1.1.1.B.K.K.K.K.K.]+. ",
". . . . . . . . . . . . . . . . . . . . . . . . . . . . . . . . ",
". . . . . . . . . . . . . . . . . . . . . . . . . . . . . . . . ",
"                                                                ",
"                                                                ",
"                                                                "};
