/* XPM */
static char * function_xpm[] = {
"16 16 37 1",
" 	c None",
".	c #000686",
"+	c #A5AEBD",
"@	c #6B8294",
"#	c #425163",
"$	c #737D8C",
"%	c #7B8EA5",
"&	c #314D6B",
"*	c #183042",
"=	c #21344A",
"-	c #889CC1",
";	c #6B696B",
">	c #CECBCE",
",	c #CECFCE",
"'	c #D6D3D6",
")	c #D6D7D6",
"!	c #DEDBDE",
"~	c #E7E3E7",
"{	c #E7E7E7",
"]	c #EFEBEF",
"^	c #EFEFEF",
"/	c #ADAAAD",
"(	c #DEDFDE",
"_	c #6B6D6B",
":	c #949294",
"<	c #000000",
"[	c #F7F3F7",
"}	c #ADAEAD",
"|	c #F7F7F7",
"1	c #737173",
"2	c #BDBEBD",
"3	c #FFFBFF",
"4	c #B5B2B5",
"5	c #FFFFFF",
"6	c #525552",
"7	c #A5A2A5",
"8	c #A5A6A5",
"                ",
"................",
".+@@#@@@@@@@@@$.",
".%&&*&&&&&&&&&=.",
".---;>,')!~{]^/.",
".---;,')!(~{]^/.",
".---_'):<~{]^[}.",
".---_')<(~]^[|}.",
".---_)!<<{<<}|}.",
".---1!(<{]<2<34.",
".---1!(<{]<|<54.",
".---1(~{]^[|354.",
".---6788//}}444.",
"................",
"                ",
"                "};
