/* XPM */
static char * generators_xpm[] = {
"16 16 13 1",
" 	c None",
".	c #000686",
"+	c #FFFFFF",
"@	c #889CC1",
"#	c #F7F3F7",
"$	c #E7E3E7",
"%	c #EFEFEF",
"&	c #EFEBEF",
"*	c #E7E7E7",
"=	c #C6C3C6",
"-	c #BDBEBD",
";	c #BDBABD",
">	c #A5A2A5",
"  .........     ",
" .++++++++@.    ",
" .+######+@+.   ",
" .+######+....  ",
" .+###.#.$+@@.  ",
" .+#......%%+.  ",
" .+%%.%.%%%%+.  ",
" .+......%%&+.  ",
" .+%.%.&.&.&+.  ",
" .+&&&......+.  ",
" .+&&&&.&.**+.  ",
" .+&*......*+.  ",
" .+***.*.***+.  ",
" .+++++++++++.  ",
" .=-----;;;;>.  ",
"  ...........   "};
