/* XPM */
static const char * generator_xpm[] = {
"16 16 41 1",
" 	c None",
".	c #509C4A",
"+	c #4E9948",
"@	c #4F9B4A",
"#	c #64A75F",
"$	c #67A862",
"%	c #4A9545",
"&	c #A2C3EE",
"*	c #4D9948",
"=	c #61A55D",
"-	c #79B375",
";	c #63A45F",
">	c #4C9447",
",	c #479143",
"'	c #499445",
")	c #5EA05A",
"!	c #64A65E",
"~	c #70AD6C",
"{	c #458F41",
"]	c #469042",
"^	c #71AD6D",
"/	c #73AE6E",
"(	c #448D40",
"_	c #A2C1EE",
":	c #57A150",
"<	c #428C3F",
"[	c #9DBFED",
"}	c #9ABCEB",
"|	c #458E41",
"1	c #438D40",
"2	c #428B3F",
"3	c #418A3E",
"4	c #8DB4E9",
"5	c #89B2E7",
"6	c #86AFE7",
"7	c #81ACE5",
"8	c #7CAAE5",
"9	c #77A6E3",
"0	c #75A5E3",
"a	c #73A3E3",
"b	c #3E72D4",
"         .+     ",
"        @#$%    ",
"   &    *=-;>  ,",
"  &&     ')!~>>{",
"   &      ]^/~~(",
"  &&_      ]^:/<",
"           ]^//<",
"      [}  ]|1223",
"        4       ",
"       5        ",
"      678       ",
"                ",
"          90a   ",
"           a    ",
"            a   ",
"          aab   "};
