/* XPM */
static char * generator_xpm[] = {
"32 32 180 2",
"  	c None",
". 	c #000000",
"+ 	c #D3D3D3",
"@ 	c #F6F6F6",
"# 	c #FFFFFF",
"$ 	c #F9F9F9",
"% 	c #DADADA",
"& 	c #585858",
"* 	c #C7C7C7",
"= 	c #D1D1D1",
"- 	c #D6D6D6",
"; 	c #FEFEFE",
"> 	c #FDFDFD",
", 	c #C0C0C0",
"' 	c #E1E1E1",
") 	c #F0F0F0",
"! 	c #9B9B9B",
"~ 	c #FCFCFB",
"{ 	c #FBFBFB",
"] 	c #AFAFAE",
"^ 	c #E9E9E9",
"/ 	c #DFDFDF",
"( 	c #8F8F8F",
"_ 	c #F4F4F3",
": 	c #656565",
"< 	c #E2E2E1",
"[ 	c #7A7A7A",
"} 	c #FAFAF9",
"| 	c #F9F9F8",
"1 	c #A4A4A3",
"2 	c #F4F4F4",
"3 	c #CFCFCF",
"4 	c #A2A2A2",
"5 	c #BBBBBA",
"6 	c #9B9B9A",
"7 	c #A2A2A1",
"8 	c #B6B6B5",
"9 	c #F8F8F7",
"0 	c #F8F7F6",
"a 	c #9E9E9E",
"b 	c #1E1E1E",
"c 	c #0D0D0D",
"d 	c #1C1C1B",
"e 	c #0B0B0B",
"f 	c #1E1E1D",
"g 	c #1E1D1D",
"h 	c #F6F6F4",
"i 	c #F4F3F2",
"j 	c #DEDDDC",
"k 	c #D3D2D0",
"l 	c #B7B7B5",
"m 	c #9F9E9D",
"n 	c #706F6F",
"o 	c #65625A",
"p 	c #626262",
"q 	c #F5F5F3",
"r 	c #626161",
"s 	c #F5F4F3",
"t 	c #F2F2F0",
"u 	c #E4E4E2",
"v 	c #DAD9D7",
"w 	c #D8D8D6",
"x 	c #CDCCCA",
"y 	c #AFAEAC",
"z 	c #88847B",
"A 	c #F7F6F5",
"B 	c #F2F1F0",
"C 	c #626261",
"D 	c #F3F3F1",
"E 	c #EFEFED",
"F 	c #EEEDEB",
"G 	c #EDECEA",
"H 	c #E9E8E6",
"I 	c #D5D4D3",
"J 	c #C4C3C2",
"K 	c #8F8A81",
"L 	c #F6F5F4",
"M 	c #1D1D1D",
"N 	c #1B1B1B",
"O 	c #0E0E0E",
"P 	c #181818",
"Q 	c #10100F",
"R 	c #F1F1EF",
"S 	c #605F5E",
"T 	c #717170",
"U 	c #E5E4E2",
"V 	c #E4E3E0",
"W 	c #D2D1CE",
"X 	c #8D887E",
"Y 	c #F3F2F1",
"Z 	c #ADADAB",
"` 	c #9E9E9D",
" .	c #949392",
"..	c #B6B5B4",
"+.	c #F1F0EE",
"@.	c #F0EFED",
"#.	c #B3B2B0",
"$.	c #939291",
"%.	c #979795",
"&.	c #A7A7A5",
"*.	c #E2E1DE",
"=.	c #E1DFDC",
"-.	c #979288",
";.	c #737372",
">.	c #D6D6D4",
",.	c #646362",
"'.	c #1D1D1C",
").	c #0D0D0C",
"!.	c #1A1A1A",
"~.	c #0A0A0A",
"{.	c #A49E93",
"].	c #F0F0EE",
"^.	c #EFEEEC",
"/.	c #5E5E5D",
"(.	c #E7E6E3",
"_.	c #5C5C5A",
":.	c #E3E2DF",
"<.	c #E2E0DD",
"[.	c #E1E0DC",
"}.	c #E0DFDB",
"|.	c #A19C90",
"1.	c #EDEDEB",
"2.	c #ECEBE9",
"3.	c #EBEAE8",
"4.	c #E9E8E5",
"5.	c #5D5C5B",
"6.	c #E3E2DE",
"7.	c #DFDEDA",
"8.	c #DEDDD9",
"9.	c #DDDCD8",
"0.	c #A19B90",
"a.	c #E8E7E5",
"b.	c #E8E7E4",
"c.	c #1A1A19",
"d.	c #171716",
"e.	c #0F0F0E",
"f.	c #1B1B1A",
"g.	c #DCDBD7",
"h.	c #E6E5E2",
"i.	c #E5E4E1",
"j.	c #E6E4E1",
"k.	c #E5E4E0",
"l.	c #A5A4A1",
"m.	c #979693",
"n.	c #8B8A88",
"o.	c #AAA9A6",
"p.	c #DBD9D5",
"q.	c #D9D7D3",
"r.	c #9F998D",
"s.	c #E4E2DF",
"t.	c #E4E3DF",
"u.	c #E2E1DD",
"v.	c #6D6D6B",
"w.	c #CAC9C5",
"x.	c #5D5D5B",
"y.	c #D7D6D3",
"z.	c #DDDBD7",
"A.	c #DCDAD6",
"B.	c #D8D6D2",
"C.	c #9E988D",
"D.	c #EDEDED",
"E.	c #E1E0DD",
"F.	c #E0DEDA",
"G.	c #D8D6D1",
"H.	c #D7D5D1",
"I.	c #9D978B",
"J.	c #E1DFDB",
"K.	c #DEDCD8",
"L.	c #D7D6D1",
"M.	c #D5D3CE",
"N.	c #9B958A",
"O.	c #999891",
"P.	c #A39E92",
"Q.	c #A39D92",
"R.	c #A39D91",
"S.	c #A29C90",
"T.	c #A19B8F",
"U.	c #9D978C",
"V.	c #9B968A",
"W.	c #676359",
"                                                                ",
"                                                                ",
"                                                                ",
"                                                                ",
"                                                                ",
"              . . . . . . . . . . . . .                         ",
"            . + @ # # # # # # # # $ % & .                       ",
"            . @ # # # # # # # # # # * = - .                     ",
"            . # # # # # # # ; # ; > , ' ) ! .                   ",
"            . # # # # # ; > ~ > ~ { ] ^ # / ( .                 ",
"            . # # # ; > _ : < [ } | 1 ) # 2 3 4 .               ",
"            . # ; > ~ { 5 6 7 8 9 0 a . . . . . . .             ",
"            . # ~ { } b c d e f g h i j k l m n o .             ",
"            . # } | 9 0 p q r h s i t u v w x y z .             ",
"            . # 9 0 A h r B C i D t E F G H I J K .             ",
"            . # L q M N O P Q M R H S I T U V W X .             ",
"            . # i Y t Z `  ...+.@.#.$.%.&.V *.=.-..             ",
"            . # i Y t ;.>.,.H +.'.).!.~.N N *.=.{..             ",
"            . # ].E E ^.F G G G G /.(._.:.<.[.}.|..             ",
"            . # 1.G 2.2.2.3.4.3.4.5.:._.6.7.8.9.0..             ",
"            . # 3.H H a.b.b.(.d c.c d.e.f.8.9.g.0..             ",
"            . # (.h.h.h.i.j.k.j.l.m.n.o.8.g.p.q.r..             ",
"            . $ V :.6.s.t.u.6.u.v.w.x.y.z.A.q.B.C..             ",
"            . D.E.=.[.}.u.}.[.}.[.7.F.z.A.q.G.H.I..             ",
"            . = J.F.7.8.}.8.F.8.F.K.K.A.A.B.L.M.N..             ",
"            . O.P.{.Q.R.Q.|.S.|.S.T.0.r.r.U.U.V.W..             ",
"              . . . . . . . . . . . . . . . . . .               ",
"                                                                ",
"                                                                ",
"                                                                ",
"                                                                ",
"                                                                "};
