/* XPM */
static const char * globaltemporaries_xpm[] = {
"16 16 116 2",
"  	c None",
". 	c #A2C1EF",
"+ 	c #9FC0ED",
"@ 	c #9DBEEB",
"# 	c #9ABCEB",
"$ 	c #96BAE9",
"% 	c #93B7E7",
"& 	c #90B5E6",
"* 	c #8CB2E4",
"= 	c #88AFE2",
"- 	c #84ACE0",
"; 	c #80A9DD",
"> 	c #7DA5DC",
", 	c #7AA3DA",
"' 	c #A1C1EE",
") 	c #F4F7FB",
"! 	c #74A0D7",
"~ 	c #9EBFEC",
"{ 	c #A5D59C",
"] 	c #A1D398",
"^ 	c #9DD094",
"/ 	c #98CE90",
"( 	c #93CB8B",
"_ 	c #8EC987",
": 	c #89C682",
"< 	c #84C37E",
"[ 	c #80C17A",
"} 	c #7CBE76",
"| 	c #6F9BD4",
"1 	c #9BBDEB",
"2 	c #FFFFFF",
"3 	c #6A97D1",
"4 	c #98BAE9",
"5 	c #A6C3E9",
"6 	c #6493CE",
"7 	c #94B7E7",
"8 	c #A9C4E8",
"9 	c #EBA8A8",
"0 	c #C73C42",
"a 	c #CE2626",
"b 	c #D03030",
"c 	c #D95A5A",
"d 	c #EBF1F7",
"e 	c #5F8FCB",
"f 	c #8FB4E5",
"g 	c #F2F6FA",
"h 	c #AAC6E9",
"i 	c #ACC6E9",
"j 	c #ACC7EA",
"k 	c #ADC7E9",
"l 	c #BA8497",
"m 	c #CD1F1F",
"n 	c #C2515A",
"o 	c #B1B8D5",
"p 	c #B2B6D3",
"q 	c #C2636E",
"r 	c #DEE7F2",
"s 	c #598AC8",
"t 	c #8CB1E3",
"u 	c #F1F6FA",
"v 	c #AEC9EA",
"w 	c #B0C9EA",
"x 	c #D44343",
"y 	c #B0AECA",
"z 	c #DBE5F1",
"A 	c #5586C6",
"B 	c #87AEE1",
"C 	c #F0F4FA",
"D 	c #B2CBEA",
"E 	c #B3CCEA",
"F 	c #CB2526",
"G 	c #ACC3E3",
"H 	c #D8E2F0",
"I 	c #5486C4",
"J 	c #82AADF",
"K 	c #EFF3F9",
"L 	c #B7CEEA",
"M 	c #BBD0EB",
"N 	c #D44141",
"O 	c #BBBBD4",
"P 	c #F2F6FB",
"Q 	c #5F8DC8",
"R 	c #7EA8DD",
"S 	c #BAD0EB",
"T 	c #C28291",
"U 	c #C16F7C",
"V 	c #B5C2DE",
"W 	c #5C8AC6",
"X 	c #7AA4D9",
"Y 	c #EEF3F9",
"Z 	c #BED2EB",
"` 	c #BFD3EB",
" .	c #FEFDFD",
"..	c #E89A9A",
"+.	c #C7373C",
"@.	c #CD2424",
"#.	c #D13737",
"$.	c #DD6C6C",
"%.	c #5F8CC6",
"&.	c #75A1D7",
"*.	c #EDF2F8",
"=.	c #EAF0F7",
"-.	c #E6EDF6",
";.	c #E2EAF4",
">.	c #DEE7F3",
",.	c #DBE4F1",
"'.	c #5D8AC5",
").	c #729ED6",
"!.	c #6E99D3",
"~.	c #6896D1",
"{.	c #6392CE",
"].	c #5E8ECB",
"^.	c #5B8AC9",
"/.	c #5687C7",
"(.	c #5284C3",
"_.	c #4277BB",
"                                ",
"    . + @ # $ % & * = - ; > ,   ",
"  ' ) ) ) ) ) ) ) ) ) ) ) ) !   ",
"  ~ ) { ] ^ / ( _ : < [ } ) |   ",
"  1 ) 2 2 2 2 2 2 2 2 2 2 ) 3   ",
"  4 ) 5 5 5 5 5 5 5 5 5 5 ) 6   ",
"  7 ) 5 2 8 2 2 9 0 a b c d e   ",
"  f g h i j k l m n o p q r s   ",
"  t u v 2 w 2 x m y 2 2 2 z A   ",
"  B C D E E E F m G m m m H I   ",
"  J K L 2 M 2 N m O P m m H Q   ",
"  R K S M M M T m U V m m H W   ",
"  X Y Z 2 ` 2  ...+.@.#.$.H %.  ",
"  &.*.=.-.;.>.,.H H H H H H '.  ",
"  ).!.~.{.].^./.(.(.(.(.(.(._.  ",
"                                "};
