/* XPM */
static char * history_xpm[] = {
"16 16 128 2",
"  	c None",
". 	c #434343",
"+ 	c #555555",
"@ 	c #575757",
"# 	c #535353",
"$ 	c #3C3C3C",
"% 	c #484848",
"& 	c #949494",
"* 	c #B9B9B9",
"= 	c #C6C6C6",
"- 	c #BEBEBE",
"; 	c #959595",
"> 	c #545454",
", 	c #181818",
"' 	c #BABABA",
") 	c #DDDDDD",
"! 	c #EAEAEA",
"~ 	c #F4F4F4",
"{ 	c #E6E6E6",
"] 	c #CFCFCF",
"^ 	c #606060",
"/ 	c #1C1C1C",
"( 	c #212121",
"_ 	c #ADADAD",
": 	c #F5F5F5",
"< 	c #FBFBFB",
"[ 	c #FCFCFC",
"} 	c #FAFAFA",
"| 	c #EBEBEB",
"1 	c #393939",
"2 	c #5B5B5B",
"3 	c #C5C5C5",
"4 	c #D9D9D9",
"5 	c #BBC2C8",
"6 	c #DFE2E5",
"7 	c #FDFDFD",
"8 	c #C6CDD4",
"9 	c #E5E7E9",
"0 	c #E2E2E2",
"a 	c #929292",
"b 	c #070707",
"c 	c #838383",
"d 	c #DADBDC",
"e 	c #93A1B0",
"f 	c #566E86",
"g 	c #C1C8CF",
"h 	c #EDEDED",
"i 	c #6D8196",
"j 	c #667B90",
"k 	c #D1D4D6",
"l 	c #C0C0C0",
"m 	c #060606",
"n 	c #090909",
"o 	c #858585",
"p 	c #7B8C9D",
"q 	c #415B77",
"r 	c #395572",
"s 	c #657A90",
"t 	c #708397",
"u 	c #687C90",
"v 	c #46607A",
"w 	c #314E6C",
"x 	c #6C7F92",
"y 	c #A1A5AA",
"z 	c #040404",
"A 	c #1A1A1A",
"B 	c #696969",
"C 	c #D9DADA",
"D 	c #B8BFC6",
"E 	c #6F8195",
"F 	c #BFC6CE",
"G 	c #ECECEC",
"H 	c #DFDFDF",
"I 	c #5C7289",
"J 	c #8C9AA8",
"K 	c #CBCCCE",
"L 	c #878787",
"M 	c #404040",
"N 	c #525252",
"O 	c #A3A3A3",
"P 	c #D6D6D5",
"Q 	c #D1D1D1",
"R 	c #CACACA",
"S 	c #C9C9C9",
"T 	c #C1C1C0",
"U 	c #2C2C2C",
"V 	c #505050",
"W 	c #B3B3B3",
"X 	c #ACACAC",
"Y 	c #CCCCCC",
"Z 	c #B6B6B6",
"` 	c #B5B5B5",
" .	c #4E4E4E",
"..	c #080808",
"+.	c #E3E3E3",
"@.	c #8B8A8A",
"#.	c #383838",
"$.	c #747474",
"%.	c #9E9E9D",
"&.	c #A4A4A3",
"*.	c #737373",
"=.	c #313131",
"-.	c #000000",
";.	c #545353",
">.	c #EFEEEE",
",.	c #DCDBDB",
"'.	c #AEAEAE",
").	c #616060",
"!.	c #414141",
"~.	c #343434",
"{.	c #363636",
"].	c #0F0F0E",
"^.	c #121212",
"/.	c #0E0E0E",
"(.	c #EFEFEF",
"_.	c #E0E0E0",
":.	c #D3D3D3",
"<.	c #D2D2D2",
"[.	c #272727",
"}.	c #EEEEEE",
"|.	c #E5E5E5",
"1.	c #E4E4E4",
"2.	c #171717",
"3.	c #494949",
"4.	c #7F7F7F",
"5.	c #7E7E7E",
"6.	c #7D7D7D",
"7.	c #717171",
"        . + @ # $               ",
"      % & * = - ; > ,           ",
"    > ' ) ! ~ ~ { ] ^ /         ",
"  ( _ ) : < [ } : | - 1         ",
"  2 3 4 5 6 7 [ 8 9 0 a         ",
"b c d e f g h < i j k l m       ",
"n o p q r s t u v w x y z       ",
"A B C D E F G H I J K L         ",
"M N O P Q R S 3 T R _ U         ",
"V W 1 X R Y R 3 Z `  ...        ",
"> +.@.#.$.%._ &.*.=.-.-.        ",
";.>.,.'.).!.~.{.].    ^./.-.    ",
"> (.{ { _.:.<.' -.      % [.-.  ",
"> }.{ |.|.1.+.S -.      2.3./.  ",
"=.4.5.5.6.6.6.7.            -.  ",
"                                "};
