/* XPM */
static const char * history24_xpm[] = {
"24 24 105 2",
"  	c None",
". 	c #191919",
"+ 	c #252525",
"@ 	c #2C2C2C",
"# 	c #343434",
"$ 	c #3A3A3A",
"% 	c #444444",
"& 	c #2D2D2D",
"* 	c #0E0E0E",
"= 	c #3C3C3C",
"- 	c #212121",
"; 	c #693510",
"> 	c #3E3E3E",
", 	c #D1D1D1",
"' 	c #FDFDFD",
") 	c #FAFAFB",
"! 	c #FBFBFB",
"~ 	c #F2F2F2",
"{ 	c #DDDDDD",
"] 	c #A1A2A2",
"^ 	c #8F9091",
"/ 	c #404040",
"( 	c #FFFFFF",
"_ 	c #FFFFFE",
": 	c #F6F7F7",
"< 	c #B8B9B9",
"[ 	c #E7E8E9",
"} 	c #EFF0F0",
"| 	c #424242",
"1 	c #FEFEFE",
"2 	c #FAFAFA",
"3 	c #F9F9F9",
"4 	c #F7F7F7",
"5 	c #F3F4F4",
"6 	c #EFF0F1",
"7 	c #EAEBEB",
"8 	c #8C8C8E",
"9 	c #8B8C8D",
"0 	c #FFFFFC",
"a 	c #D2D2D2",
"b 	c #CECFCF",
"c 	c #CDCDCD",
"d 	c #B5B5B5",
"e 	c #E5E6E7",
"f 	c #EDEDEE",
"g 	c #F2F3F3",
"h 	c #EBEBEB",
"i 	c #8F8F90",
"j 	c #8D8D8F",
"k 	c #5F5F5F",
"l 	c #FFFDFE",
"m 	c #D4D4D4",
"n 	c #D0D0D0",
"o 	c #CECECE",
"p 	c #B5B6B6",
"q 	c #DDDEE0",
"r 	c #E9E9EA",
"s 	c #9B9B9B",
"t 	c #F5F6F6",
"u 	c #FEFDFF",
"v 	c #D0D1D1",
"w 	c #EBECEC",
"x 	c #DCDDDD",
"y 	c #E9E9E9",
"z 	c #7D7D7D",
"A 	c #FCFEFF",
"B 	c #F8F8F8",
"C 	c #F6F6F6",
"D 	c #F1F2F2",
"E 	c #EEEFEF",
"F 	c #919192",
"G 	c #8E8F90",
"H 	c #FAFCFF",
"I 	c #D5D5D5",
"J 	c #D3D3D3",
"K 	c #D1D2D2",
"L 	c #CFD0D0",
"M 	c #ECEDED",
"N 	c #B5B5B6",
"O 	c #DBDCDD",
"P 	c #E8E9E9",
"Q 	c #FDFFFF",
"R 	c #F5F5F5",
"S 	c #F0F1F1",
"T 	c #919293",
"U 	c #464646",
"V 	c #F7F8F8",
"W 	c #BABABA",
"X 	c #E2E3E4",
"Y 	c #ECECEE",
"Z 	c #474747",
"` 	c #858687",
" .	c #828384",
"..	c #131313",
"+.	c #000000",
"@.	c #0B0B0B",
"#.	c #1E1E1E",
"$.	c #4B4B4B",
"%.	c #535353",
"&.	c #0D0D0D",
"*.	c #383838",
"=.	c #595959",
"-.	c #4A4A4A",
";.	c #3D3D3D",
">.	c #1D1D1D",
"                                                ",
"                                                ",
"                                                ",
"                                                ",
"                                                ",
"    . + @ # $ % & *     * & % = # @ @ + - ;     ",
"  > , ' ' ' ) ! ~ { ] ] { ~ ! ) ' ' ' ' ^ , /   ",
"  > , ( _ _ _ _ : < [ } < : _ _ _ _ _ ( ^ , |   ",
"  > , 1 2 3 4 5 6 7 8 9 7 6 5 4 3 2 2 1 ^ , |   ",
"  > , 0 a , b c 7 d e f d 7 c b , a a 0 ^ , |   ",
"  > , _ 2 3 : g } h i j h } g : 3 2 2 _ ^ , k   ",
"  > , l m a n o 7 p q r p 7 o n a m m l ^ % s k ",
"  > , ( ! 3 t 5 6 h ^ j h 6 5 t 3 ! ! ( ^ % s k ",
"  > , u m a v b w d x y d w b v a m m u ^ , % z ",
"  > , A B C 5 D E h F G h E D 5 C B B A ^ , %   ",
"  > , H I J K L M N O P N M L K J I I H ^ , %   ",
"  > , Q 4 R g S M h T ^ h M S g R 4 4 Q ^ , U   ",
"  > , ( _ _ _ _ V W X Y W V _ _ _ _ _ ( ^ , Z   ",
"  / , C C C C 4 R o `  .o R 4 C C C C C ^ , |   ",
"  ..+.@.#.& > $.%.@ &.&.&.*.=.-.;.@ @ >.* +.    ",
"                                                ",
"                                                ",
"                                                ",
"                                                "};
