/* XPM */
static const char * input_xpm[] = {
"16 16 76 1",
" 	c None",
".	c #85C427",
"+	c #83C127",
"@	c #84C327",
"#	c #80BF22",
"$	c #7BBD18",
"%	c #79BC17",
"&	c #7DBE1D",
"*	c #82C126",
"=	c #75BA10",
"-	c #7FBE20",
";	c #B2D97C",
">	c #BCDD8B",
",	c #9CCC51",
"'	c #75B90F",
")	c #7EBE1E",
"!	c #6EB704",
"~	c #C4E198",
"{	c #FFFFFF",
"]	c #D0E7AD",
"^	c #73B90C",
"/	c #86C22F",
"(	c #A4D161",
"_	c #79BC15",
":	c #BADB86",
"<	c #CFE7AE",
"[	c #77BA13",
"}	c #6AB400",
"|	c #AFD773",
"1	c #82C028",
"2	c #77BB12",
"3	c #D1E7B0",
"4	c #78BB14",
"5	c #82C026",
"6	c #70B707",
"7	c #DAECC0",
"8	c #61B000",
"9	c #98CB4A",
"0	c #C2DF95",
"a	c #6EB502",
"b	c #71B90B",
"c	c #72B80A",
"d	c #6EB703",
"e	c #7EBF1F",
"f	c #93C844",
"g	c #91C841",
"h	c #82C025",
"i	c #DBECC0",
"j	c #FBFCF8",
"k	c #FCFEFC",
"l	c #F3F9EA",
"m	c #FAFCF6",
"n	c #91C83F",
"o	c #DCEDC3",
"p	c #FEFDFD",
"q	c #FAFCF9",
"r	c #72B809",
"s	c #97CB49",
"t	c #C0DF93",
"u	c #6CB400",
"v	c #76BB0F",
"w	c #6AB500",
"x	c #6FB704",
"y	c #D3E8B5",
"z	c #7CBD1C",
"A	c #BDDD8D",
"B	c #7DBD1E",
"C	c #78BB15",
"D	c #C9E4A3",
"E	c #79BC16",
"F	c #CEE6AB",
"G	c #73B90B",
"H	c #87C231",
"I	c #A8D369",
"J	c #80BF21",
"K	c #86C528",
" .++++++++++++@ ",
".++++++++++++++@",
"++++#$%&*+++++++",
"+++=-;>,'*#)++++",
"++!~{{{{]^/()+++",
"+_:{<[}|12{34+++",
"56{7890ab{{cdc++",
"ef{gh{{ij{klm{c+",
"ef{nh{{o{{pq{{r+",
"56{78stuv{{wxr++",
"+_:{yz^ABC{DE+++",
"++!~{{{{FGHI)+++",
"+++=-;>,'*J)++++",
"++++#$%&*+++++++",
"K++++++++++++++.",
" K++++++++++++. "};
