/* XPM */
static const char * insert24_xpm[] = {
"24 24 59 1",
" 	c None",
".	c #000000",
"+	c #A2AEBC",
"@	c #6D8196",
"#	c #8B8B8B",
"$	c #727F8C",
"%	c #7D8EA1",
"&	c #314E6C",
"*	c #5C5C5C",
"=	c #21364B",
"-	c #D6D6D6",
";	c #BFBFBF",
">	c #CECECE",
",	c #D2D2D2",
"'	c #D5D5D5",
")	c #D8D8D8",
"!	c #DCDCDC",
"~	c #DFDFDF",
"{	c #E2E2E2",
"]	c #E9E9E9",
"^	c #ECECEC",
"/	c #A8A8A8",
"(	c #D1D1D1",
"_	c #D4D4D4",
":	c #DBDBDB",
"<	c #DEDEDE",
"[	c #E5E5E5",
"}	c #EFEFEF",
"|	c #AAAAAA",
"1	c #979797",
"2	c #404040",
"3	c #DADADA",
"4	c #DDDDDD",
"5	c #E0E0E0",
"6	c #8A8A8A",
"7	c #F1F1F1",
"8	c #F4F4F4",
"9	c #ADADAD",
"0	c #D9D9D9",
"a	c #E3E3E3",
"b	c #00FF18",
"c	c #F7F7F7",
"d	c #AFAFAF",
"e	c #B3B3B3",
"f	c #E1E1E1",
"g	c #E4E4E4",
"h	c #E8E8E8",
"i	c #F9F9F9",
"j	c #FCFCFC",
"k	c #EBEBEB",
"l	c #FFFFFF",
"m	c #B1B1B1",
"n	c #868686",
"o	c #9F9F9F",
"p	c #A2A2A2",
"q	c #A4A4A4",
"r	c #A6A6A6",
"s	c #A9A9A9",
"t	c #ABABAB",
"                        ",
"                        ",
"                        ",
"                        ",
"    ................    ",
"    .+@#@@@@@@@#@@$.    ",
"    .%&*&&&&&&&*&&=.    ",
"    .-;*>,')!~{*]^/.    ",
"    .-;*(_):<{[*^}|.    ",
"    .1************2.    ",
"    .-;*-3456..6789.    ",
"    .-;*0!5a.bb.8cd.    ",
"    .1****6..bb..62.    ",
"    .-;*<{.bbbbbb.e.    ",
"    .-;*fg.bbbbbb.e.    ",
"    .1****6..bb..62.    ",
"    .-;*<{[h.bb.ije.    ",
"    .-;*fghk6..6jle.    ",
"    .mn2opqrst92eee.    ",
"    ................    ",
"                        ",
"                        ",
"                        ",
"                        "};
