/* XPM */
static char * left_xpm[] = {
"16 16 26 1",
" 	c None",
".	c #000000",
"+	c #AFF0AF",
"@	c #8FE08D",
"#	c #92E190",
"$	c #95E493",
"%	c #97E495",
"&	c #98E798",
"*	c #97E697",
"=	c #5DB65B",
"-	c #87DC85",
";	c #90E18E",
">	c #8ADD88",
",	c #87DA85",
"'	c #85DA83",
")	c #4E8A4D",
"!	c #1C351C",
"~	c #B1F0B1",
"{	c #8BDE89",
"]	c #89DC87",
"^	c #508E4F",
"/	c #2C4F2C",
"(	c #477346",
"_	c #385F38",
":	c #2B4E2B",
"<	c #2F522F",
"                ",
"       .        ",
"      ..        ",
"     .+.        ",
"    .+@.......  ",
"   .+#$%&%*@=.  ",
"  .+-;@>,,>').  ",
" !~>{]]->>>>^.  ",
"  ./((((((((_.  ",
"   ./((:::::<.  ",
"    ./(.......  ",
"     ./.        ",
"      ..        ",
"       .        ",
"                ",
"                "};
