/* XPM */

static const char * load_xpm[] = {
"16 16 257 2",
"  	c None",
". 	c #000000",
"+ 	c #000040",
"@ 	c #000080",
"# 	c #0000FF",
"$ 	c #002000",
"% 	c #002040",
"& 	c #002080",
"* 	c #0020FF",
"= 	c #004000",
"- 	c #004040",
"; 	c #004080",
"> 	c #0040FF",
", 	c #006000",
"' 	c #006040",
") 	c #006080",
"! 	c #0060FF",
"~ 	c #008000",
"{ 	c #008040",
"] 	c #008080",
"^ 	c #0080FF",
"/ 	c #00A000",
"( 	c #00A040",
"_ 	c #00A080",
": 	c #00A0FF",
"< 	c #00C000",
"[ 	c #00C040",
"} 	c #00C080",
"| 	c #00C0FF",
"1 	c #00FF00",
"2 	c #00FF40",
"3 	c #00FF80",
"4 	c #00FFFF",
"5 	c #200000",
"6 	c #200040",
"7 	c #200080",
"8 	c #2000FF",
"9 	c #202000",
"0 	c #202040",
"a 	c #202080",
"b 	c #2020FF",
"c 	c #204000",
"d 	c #204040",
"e 	c #204080",
"f 	c #2040FF",
"g 	c #206000",
"h 	c #206040",
"i 	c #206080",
"j 	c #2060FF",
"k 	c #208000",
"l 	c #208040",
"m 	c #208080",
"n 	c #2080FF",
"o 	c #20A000",
"p 	c #20A040",
"q 	c #20A080",
"r 	c #20A0FF",
"s 	c #20C000",
"t 	c #20C040",
"u 	c #20C080",
"v 	c #20C0FF",
"w 	c #20FF00",
"x 	c #20FF40",
"y 	c #20FF80",
"z 	c #20FFFF",
"A 	c #400000",
"B 	c #400040",
"C 	c #400080",
"D 	c #4000FF",
"E 	c #402000",
"F 	c #402040",
"G 	c #402080",
"H 	c #4020FF",
"I 	c #404000",
"J 	c #404040",
"K 	c #404080",
"L 	c #4040FF",
"M 	c #406000",
"N 	c #406040",
"O 	c #406080",
"P 	c #4060FF",
"Q 	c #408000",
"R 	c #408040",
"S 	c #408080",
"T 	c #4080FF",
"U 	c #40A000",
"V 	c #40A040",
"W 	c #40A080",
"X 	c #40A0FF",
"Y 	c #40C000",
"Z 	c #40C040",
"` 	c #40C080",
" .	c #40C0FF",
"..	c #40FF00",
"+.	c #40FF40",
"@.	c #40FF80",
"#.	c #40FFFF",
"$.	c #600000",
"%.	c #600040",
"&.	c #600080",
"*.	c #6000FF",
"=.	c #602000",
"-.	c #602040",
";.	c #602080",
">.	c #6020FF",
",.	c #604000",
"'.	c #604040",
").	c #604080",
"!.	c #6040FF",
"~.	c #606000",
"{.	c #606040",
"].	c #606080",
"^.	c #6060FF",
"/.	c #608000",
"(.	c #608040",
"_.	c #608080",
":.	c #6080FF",
"<.	c #60A000",
"[.	c #60A040",
"}.	c #60A080",
"|.	c #60A0FF",
"1.	c #60C000",
"2.	c #60C040",
"3.	c #60C080",
"4.	c #60C0FF",
"5.	c #60FF00",
"6.	c #60FF40",
"7.	c #60FF80",
"8.	c #60FFFF",
"9.	c #800000",
"0.	c #800040",
"a.	c #800080",
"b.	c #8000FF",
"c.	c #802000",
"d.	c #802040",
"e.	c #802080",
"f.	c #8020FF",
"g.	c #804000",
"h.	c #804040",
"i.	c #804080",
"j.	c #8040FF",
"k.	c #806000",
"l.	c #806040",
"m.	c #806080",
"n.	c #8060FF",
"o.	c #808000",
"p.	c #808040",
"q.	c #808080",
"r.	c #8080FF",
"s.	c #80A000",
"t.	c #80A040",
"u.	c #80A080",
"v.	c #80A0FF",
"w.	c #80C000",
"x.	c #80C040",
"y.	c #80C080",
"z.	c #80C0FF",
"A.	c #80FF00",
"B.	c #80FF40",
"C.	c #80FF80",
"D.	c #80FFFF",
"E.	c #A00000",
"F.	c #A00040",
"G.	c #A00080",
"H.	c #A000FF",
"I.	c #A02000",
"J.	c #A02040",
"K.	c #A02080",
"L.	c #A020FF",
"M.	c #A04000",
"N.	c #A04040",
"O.	c #A04080",
"P.	c #A040FF",
"Q.	c #A06000",
"R.	c #A06040",
"S.	c #A06080",
"T.	c #A060FF",
"U.	c #A08000",
"V.	c #A08040",
"W.	c #A08080",
"X.	c #A080FF",
"Y.	c #A0A000",
"Z.	c #A0A040",
"`.	c #A0A080",
" +	c #A0A0FF",
".+	c #A0C000",
"++	c #A0C040",
"@+	c #A0C080",
"#+	c #A0C0FF",
"$+	c #A0FF00",
"%+	c #A0FF40",
"&+	c #A0FF80",
"*+	c #A0FFFF",
"=+	c #C00000",
"-+	c #C00040",
";+	c #C00080",
">+	c #C000FF",
",+	c #C02000",
"'+	c #C02040",
")+	c #C02080",
"!+	c #C020FF",
"~+	c #C04000",
"{+	c #C04040",
"]+	c #C04080",
"^+	c #C040FF",
"/+	c #C06000",
"(+	c #C06040",
"_+	c #C06080",
":+	c #C060FF",
"<+	c #C08000",
"[+	c #C08040",
"}+	c #C08080",
"|+	c #C080FF",
"1+	c #C0A000",
"2+	c #C0A040",
"3+	c #C0A080",
"4+	c #C0A0FF",
"5+	c #C0C000",
"6+	c #C0C040",
"7+	c #C0C080",
"8+	c #C0C0FF",
"9+	c #C0FF00",
"0+	c #C0FF40",
"a+	c #C0FF80",
"b+	c #C0FFFF",
"c+	c #FF0000",
"d+	c #FF0040",
"e+	c #FF0080",
"f+	c #FF00FF",
"g+	c #FF2000",
"h+	c #FF2040",
"i+	c #FF2080",
"j+	c #FF20FF",
"k+	c #FF4000",
"l+	c #FF4040",
"m+	c #FF4080",
"n+	c #FF40FF",
"o+	c #FF6000",
"p+	c #FF6040",
"q+	c #FF6080",
"r+	c #FF60FF",
"s+	c #FF8000",
"t+	c #FF8040",
"u+	c #FF8080",
"v+	c #FF80FF",
"w+	c #FFA000",
"x+	c #FFA040",
"y+	c #FFA080",
"z+	c #FFA0FF",
"A+	c #FFC000",
"B+	c #FFC040",
"C+	c #FFC080",
"D+	c #FFC0FF",
"E+	c #FFFF00",
"F+	c #FFFF40",
"G+	c #FFFF80",
"H+	c None",
"H+H+H+H+H+H+H+H+H+H+H+H+H+H+H+H+",
"H+H+H+H+H+H+H+H+H+H+H+H+H+H+H+H+",
"H+H+H+Y.Y.Y.Y.Y.H+H+H+H+H+H+H+H+",
"H+H+Y.H+H+H+H+H+Y.H+H+H+H+H+H+H+",
"H+Y.H+G+G+G+G+G+H+Y.Y.Y.Y.Y.Y.H+",
"H+Y.H+G+G+G+G+G+G+G+H+H+H+H+7+. ",
"H+Y.H+G+G+G+G+G+G+G+G+G+G+G+7+. ",
"Y.Y.Y.Y.Y.Y.Y.Y.Y.Y.Y.Y.7+G+7+. ",
"Y.H+G+G+G+G+G+G+C+G+C+7+. 7+7+. ",
"Y.H+G+G+G+G+C+G+G+C+G+7+. 7+7+. ",
"H+Y.H+G+G+G+G+G+C+G+C+C+Y.. Y.. ",
"H+Y.H+G+G+C+G+C+G+C+C+C+7+. Y.. ",
"H+H+Y.H+C+G+C+G+C+C+C+C+7+Y.. . ",
"H+H+Y.Y.Y.Y.Y.Y.Y.Y.Y.Y.Y.Y.. . ",
"H+H+H+. . . . . . . . . . . . . ",
"H+H+H+H+H+H+H+H+H+H+H+H+H+H+H+H+"};
