/* XPM */
static char * object_xpm[] = {
"16 16 34 1",
" 	c None",
".	c #000686",
"+	c #FFFFFF",
"@	c #889CC1",
"#	c #F7F3F7",
"$	c #FFFBFF",
"%	c #FFFBF7",
"&	c #F7F7F7",
"*	c #EFEFE7",
"=	c #DEDBCE",
"-	c #F7F3EF",
";	c #E7E7CE",
">	c #E7E3CE",
",	c #D6D7AD",
"'	c #C6C794",
")	c #A5A28C",
"!	c #949273",
"~	c #DEDBBD",
"{	c #C6C3AD",
"]	c #E7E3C6",
"^	c #D6D7B5",
"/	c #D6D3A5",
"(	c #BDBA9C",
"_	c #ADAE84",
":	c #84866B",
"<	c #9C9E7B",
"[	c #CECF9C",
"}	c #BDBA8C",
"|	c #E7E7D6",
"1	c #B5B68C",
"2	c #C6C3C6",
"3	c #BDBEBD",
"4	c #BDBABD",
"5	c #A5A2A5",
"    .........   ",
"   .++++++++@.  ",
"   .+##+++++@+  ",
"   .+##+++++....",
"   .+##++++++@@.",
"   .......+++++.",
" ...$%%&*...+++.",
".=-.&;>,'.)!.++.",
".*~{%]^/,(^_.++.",
".:<.-/[[}.!<.++.",
" ...|111_...+++.",
"   .......+++++.",
"   .+++++++++++.",
"   .+++++++++++.",
"   .23333344445.",
"    ........... "};
