/* XPM */
static const char * ok24_xpm[] = {
"24 24 118 2",
"  	c None",
". 	c #1B7A14",
"+ 	c #2E8228",
"@ 	c #C8DEC6",
"# 	c #387F32",
"$ 	c #2C8325",
"% 	c #BFD6BC",
"& 	c #5BCE4F",
"* 	c #B4D2B1",
"= 	c #085401",
"- 	c #2A8123",
"; 	c #BDD7BB",
"> 	c #8DBB87",
", 	c #0B4707",
"' 	c #2A8222",
") 	c #BDDABA",
"! 	c #59CC4D",
"~ 	c #449B3A",
"{ 	c #164715",
"] 	c #0C7C04",
"^ 	c #288320",
"/ 	c #BCDFB8",
"( 	c #53CA47",
"_ 	c #1F8E14",
": 	c #184B16",
"< 	c #030C02",
"[ 	c #16890C",
"} 	c #CBE8C8",
"| 	c #319429",
"1 	c #497846",
"2 	c #298921",
"3 	c #BCE4B7",
"4 	c #56CC4A",
"5 	c #229116",
"6 	c #053D01",
"7 	c #010A00",
"8 	c #000000",
"9 	c #338E2B",
"0 	c #BFE2BA",
"a 	c #E5F3E4",
"b 	c #208919",
"c 	c #184B13",
"d 	c #2D8E25",
"e 	c #BEE8BA",
"f 	c #5ACD4E",
"g 	c #29981D",
"h 	c #043E01",
"i 	c #398633",
"j 	c #ABD8A5",
"k 	c #E3F4E1",
"l 	c #228E18",
"m 	c #21531C",
"n 	c #2F9328",
"o 	c #C1EBBC",
"p 	c #2E9C24",
"q 	c #044201",
"r 	c #010B00",
"s 	c #44883F",
"t 	c #5BBC51",
"u 	c #E1F5DF",
"v 	c #1F8117",
"w 	c #568352",
"x 	c #4A9D44",
"y 	c #C1EEBC",
"z 	c #36A92B",
"A 	c #044B01",
"B 	c #011000",
"C 	c #488643",
"D 	c #36B428",
"E 	c #DFF5DD",
"F 	c #469942",
"G 	c #C8F3C4",
"H 	c #5ACE4E",
"I 	c #3DB633",
"J 	c #075203",
"K 	c #021500",
"L 	c #10410B",
"M 	c #24741D",
"N 	c #36BF27",
"O 	c #CCF6C7",
"P 	c #5BD04E",
"Q 	c #46CA3C",
"R 	c #0B5C07",
"S 	c #041A01",
"T 	c #064000",
"U 	c #15770D",
"V 	c #47D039",
"W 	c #5CD14F",
"X 	c #4BD941",
"Y 	c #10660B",
"Z 	c #071C04",
"` 	c #064B00",
" .	c #15790F",
"..	c #56DC4A",
"+.	c #5BCE4E",
"@.	c #4EDD44",
"#.	c #126E0F",
"$.	c #0A1F07",
"%.	c #0B5603",
"&.	c #187C13",
"*.	c #62E756",
"=.	c #57DF4D",
"-.	c #187014",
";.	c #0D220A",
">.	c #13600C",
",.	c #1C8416",
"'.	c #7AEE70",
").	c #68E15F",
"!.	c #22721F",
"~.	c #122510",
"{.	c #1C6A15",
"].	c #258821",
"^.	c #68D162",
"/.	c #237320",
"(.	c #182517",
"_.	c #27771F",
":.	c #186A15",
"<.	c #172E14",
"                                                ",
"                                                ",
"                                                ",
"                                      .         ",
"                                    + @ #       ",
"                                  $ % & * =     ",
"                                - ; & & & > ,   ",
"                              ' ) & & & ! ~ {   ",
"        ]                   ^ / & & & ( _ : <   ",
"      [ } | 1             2 3 & & & 4 5 6 7 8   ",
"    9 0 & a b c         d e & & & f g h 7 8     ",
"  i j & & & k l m     n o & & & & p q r 8       ",
"  s t & & & & u v w x y & & & & z A B 8         ",
"    C D & & & & E F G & & & H I J K 8           ",
"    L M N & & & & O & & & P Q R S 8             ",
"      T U V & & & & & & W X Y Z 8               ",
"        `  ...+.& & & & @.#.$.8                 ",
"          %.&.*.& & & =.-.;.8                   ",
"            >.,.'.& ).!.~.8                     ",
"              {.].^./.(.8                       ",
"                _.:.<.8                         ",
"                                                ",
"                                                ",
"                                                "};
