/* XPM */
static const char * output_xpm[] = {
"16 16 58 1",
" 	c None",
".	c #CC0000",
"+	c #D21E1E",
"@	c #E06464",
"#	c #E27171",
"$	c #D94343",
"%	c #CC0202",
"&	c #E68383",
"*	c #FEFBFB",
"=	c #FFFFFF",
"-	c #E47C7C",
";	c #DB4C4C",
">	c #CF1010",
",	c #E37575",
"'	c #E99595",
")	c #D32323",
"!	c #D01414",
"~	c #DD5757",
"{	c #D11C1C",
"]	c #EFB2B2",
"^	c #F3C7C7",
"/	c #CE0D0D",
"(	c #CD0808",
"_	c #FBEFEF",
":	c #EDA5A5",
"<	c #D94141",
"[	c #CE0E0E",
"}	c #DC5454",
"|	c #F2C0C0",
"1	c #CE0A0A",
"2	c #D63434",
"3	c #DA4747",
"4	c #F9E5E5",
"5	c #F6D2D2",
"6	c #F6D3D3",
"7	c #FEFEFE",
"8	c #F0B8B8",
"9	c #DA4646",
"0	c #FAEAEA",
"a	c #F8DBDB",
"b	c #F8DCDC",
"c	c #EDA6A6",
"d	c #DA4848",
"e	c #F3C5C5",
"f	c #CE0C0C",
"g	c #EB9B9B",
"h	c #D42C2C",
"i	c #D22121",
"j	c #E16969",
"k	c #D01717",
"l	c #EDA8A8",
"m	c #F4CACA",
"n	c #CF0F0F",
"o	c #E68484",
"p	c #E47979",
"q	c #DC5252",
"r	c #CF1111",
"s	c #D94444",
"  ............  ",
" .............. ",
"................",
"....+@#$%.......",
"...&*===-.;>....",
"..,=')!~{.]^/...",
".(_:.<#[..}=|1..",
".2=3)*=45567=8..",
".2=9)*=0aab7=|..",
".(_c.<#[..d=ef..",
"..,=ghijk.lmn...",
"...o*===p.qr....",
"....+@#s%.......",
"................",
" .............. ",
"  ............  "};
