/* XPM */
static const char * plan24_xpm[] = {
"24 24 42 1",
" 	c None",
".	c #000000",
"+	c #EB5BFF",
"@	c #C940DB",
"#	c #B400BD",
"$	c #775979",
"%	c #B600BF",
"&	c #DB2BE5",
"*	c #BF00C9",
"=	c #FFFFFF",
"-	c #F6DAF6",
";	c #C400CE",
">	c #B900C2",
",	c #FAF5FB",
"'	c #FBF3FB",
")	c #FCF7FC",
"!	c #F8D7F7",
"~	c #FDF6FD",
"{	c #EC90F0",
"]	c #F9EFF9",
"^	c #FCF4FC",
"/	c #E177E6",
"(	c #FCF6FC",
"_	c #FBECFA",
":	c #D54EDC",
"<	c #FCF9FD",
"[	c #F8E0F7",
"}	c #FAEFFA",
"|	c #E9B9EB",
"1	c #B713C1",
"2	c #F7E7F8",
"3	c #ECC2EE",
"4	c #BF2AC7",
"5	c #CD58D2",
"6	c #F9EBF9",
"7	c #E5AEE9",
"8	c #AF00BB",
"9	c #FAF2FB",
"0	c #E8B8EA",
"a	c #A800B8",
"b	c #EABEEC",
"c	c #C635CC",
"                        ",
" ...................... ",
" .+++++++++++++++++++@. ",
" .+##################$. ",
" .+###%##############$. ",
" .+##%&*#############$. ",
" .+###=-;>###########$. ",
" .+###,')!*##########$. ",
" .+###,=##~{>########$. ",
" .+###,####]^/#######$. ",
" .+###,#==##=(_:#####$. ",
" .+###,==###===<[####$. ",
" .+###,=###=======###$. ",
" .+###,=##=====}|1###$. ",
" .+###,======234#####$. ",
" .+###,=##=225#######$. ",
" .+###,=##678########$. ",
" .+###'9,0a##########$. ",
" .+###=ba############$. ",
" .+###c8#############$. ",
" .+##################$. ",
" .@$$$$$$$$$$$$$$$$$$$. ",
" ...................... ",
"                        "};
