/* XPM */
static const char * plan24_xpm[] = {
"24 24 265 2",
"  	c None",
". 	c #D8D8D9",
"+ 	c #D1D8DE",
"@ 	c #E0E0E0",
"# 	c #EAEAEA",
"$ 	c #F1F1F2",
"% 	c #F7F7F7",
"& 	c #FDFBFA",
"* 	c #F8F9FB",
"= 	c #EEF5FB",
"- 	c #E8F4FC",
"; 	c #EDF7FD",
"> 	c #B9C9D1",
", 	c #EDEDED",
"' 	c #FEFEFE",
") 	c #FFFFFF",
"! 	c #FDFEFE",
"~ 	c #ECF4FB",
"{ 	c #E5F2FB",
"] 	c #EBF7FE",
"^ 	c #EFFAFF",
"/ 	c #EAF6FB",
"( 	c #B7C7D0",
"_ 	c #FBFBFB",
": 	c #E5EEF6",
"< 	c #DEF0FB",
"[ 	c #E9F8FF",
"} 	c #E9F7FF",
"| 	c #E6F3FB",
"1 	c #B4C5D0",
"2 	c #F9F9F9",
"3 	c #FDFDFD",
"4 	c #F9F7F5",
"5 	c #D3DFEA",
"6 	c #E7F5FE",
"7 	c #E3F5FF",
"8 	c #E4F5FF",
"9 	c #E5F5FF",
"0 	c #E0F1FB",
"a 	c #AFC3D0",
"b 	c #F8F8F8",
"c 	c #F5F4F4",
"d 	c #EFEDEC",
"e 	c #BDC7D1",
"f 	c #E4F3FE",
"g 	c #DEF2FF",
"h 	c #DFF2FF",
"i 	c #DCEEFA",
"j 	c #ABC2D0",
"k 	c #D4A167",
"l 	c #DA9337",
"m 	c #D99336",
"n 	c #D79135",
"o 	c #D48D31",
"p 	c #D18930",
"q 	c #C9752D",
"r 	c #C8996F",
"s 	c #E3F3FE",
"t 	c #D8EFFF",
"u 	c #DAF0FF",
"v 	c #D9EFFE",
"w 	c #D6EBFA",
"x 	c #A7BED0",
"y 	c #FAE2AC",
"z 	c #FFFAB5",
"A 	c #FFF9B2",
"B 	c #FFF9B0",
"C 	c #FFF8AD",
"D 	c #FFF8AC",
"E 	c #E5A232",
"F 	c #E0D0C0",
"G 	c #BDC7D0",
"H 	c #E1F2FD",
"I 	c #D3EDFE",
"J 	c #D5EEFE",
"K 	c #D3EBFB",
"L 	c #D1E9F8",
"M 	c #A4BDCE",
"N 	c #A16711",
"O 	c #FFD55C",
"P 	c #FFDC5A",
"Q 	c #FFDE55",
"R 	c #FFDE51",
"S 	c #FFDD50",
"T 	c #FFCD36",
"U 	c #C7873B",
"V 	c #BCC7D0",
"W 	c #DEF0FC",
"X 	c #D0EAFC",
"Y 	c #CDE6F7",
"Z 	c #A1BACD",
"` 	c #C78B19",
" .	c #FFD061",
"..	c #FFCC56",
"+.	c #FFCE52",
"@.	c #FFCF50",
"#.	c #FFCC3C",
"$.	c #E59014",
"%.	c #DFD2C2",
"&.	c #EEECEB",
"*.	c #BBC6CF",
"=.	c #DBEEFC",
"-.	c #CBE7FB",
";.	c #C9E4F7",
">.	c #C8E3F6",
",.	c #C9E3F6",
"'.	c #98B5CB",
").	c #DD8A32",
"!.	c #FFBF5C",
"~.	c #FFBC51",
"{.	c #FFBD4E",
"].	c #FFBD47",
"^.	c #F79C15",
"/.	c #B76E31",
"(.	c #F0F0F0",
"_.	c #D9ECFA",
":.	c #C4E1F7",
"<.	c #C2DFF4",
"[.	c #C5E0F4",
"}.	c #BDDCF3",
"|.	c #88ACC8",
"1.	c #E99845",
"2.	c #FFBC56",
"3.	c #FFB14D",
"4.	c #FF9E1B",
"5.	c #E47D0D",
"6.	c #C05F14",
"7.	c #C0864C",
"8.	c #EDEBEA",
"9.	c #BAC6CF",
"0.	c #D5E9F8",
"a.	c #BDDBF2",
"b.	c #BEDBF2",
"c.	c #C2DDF2",
"d.	c #ACD2F0",
"e.	c #7FA5C5",
"f.	c #B3722A",
"g.	c #E79A59",
"h.	c #DD9242",
"i.	c #FEB450",
"j.	c #FFA92E",
"k.	c #FF9300",
"l.	c #FF9900",
"m.	c #DD7512",
"n.	c #DAC8B3",
"o.	c #B8C4CD",
"p.	c #D0E4F5",
"q.	c #B7D6F0",
"r.	c #BAD8F0",
"s.	c #B6D6EF",
"t.	c #98C6EA",
"u.	c #7CA3C3",
"v.	c #8C6233",
"w.	c #B56A29",
"x.	c #FFC844",
"y.	c #FFB503",
"z.	c #FFB400",
"A.	c #FCA80A",
"B.	c #B97037",
"C.	c #EEEEEE",
"D.	c #EAE8E6",
"E.	c #B4BFC7",
"F.	c #CBE2F4",
"G.	c #B2D3EE",
"H.	c #B5D4EE",
"I.	c #9EC8EA",
"J.	c #92C1E8",
"K.	c #7AA1C1",
"L.	c #E1CFBC",
"M.	c #E29C3A",
"N.	c #FFD31B",
"O.	c #FFCD11",
"P.	c #FFD413",
"Q.	c #C97A11",
"R.	c #CFAA86",
"S.	c #E7E5E1",
"T.	c #E1E1E0",
"U.	c #DEE0E1",
"V.	c #A6BDD0",
"W.	c #C4DCF1",
"X.	c #9CC5E8",
"Y.	c #8FBEE5",
"Z.	c #91BFE5",
"`.	c #789EBE",
" +	c #C79058",
".+	c #FCD03A",
"++	c #FFD830",
"@+	c #FFDC47",
"#+	c #FFDF47",
"$+	c #D39A39",
"%+	c #BA621D",
"&+	c #ECECEA",
"*+	c #E3E3E3",
"=+	c #E6E3E0",
"-+	c #ABBBC7",
";+	c #AFD0EC",
">+	c #8CBBE3",
",+	c #8EBBE3",
"'+	c #8DBBE2",
")+	c #759BBC",
"!+	c #C98438",
"~+	c #CA912E",
"{+	c #FCDF5E",
"]+	c #FFEC79",
"^+	c #FFF17D",
"/+	c #D98F2A",
"(+	c #E4D9CA",
"_+	c #F2F2F2",
":+	c #E5E5E5",
"<+	c #E4E2E0",
"[+	c #A6B8C6",
"}+	c #AACCE9",
"|+	c #8BB8E1",
"1+	c #8AB8E0",
"2+	c #7298BA",
"3+	c #C47D29",
"4+	c #FFEE7A",
"5+	c #FFFFAE",
"6+	c #E9B15B",
"7+	c #D2B697",
"8+	c #F1F1F1",
"9+	c #A5B7C6",
"0+	c #A8CAE8",
"a+	c #87B5DE",
"b+	c #87B4DD",
"c+	c #88B5DD",
"d+	c #7196B8",
"e+	c #EFE8E0",
"f+	c #E7A732",
"g+	c #FFF87C",
"h+	c #F4CA70",
"i+	c #C89661",
"j+	c #E4E4E4",
"k+	c #E3E1DF",
"l+	c #A4B6C5",
"m+	c #A8C9E7",
"n+	c #89B4DC",
"o+	c #80AEDA",
"p+	c #648DB3",
"q+	c #DAC0A4",
"r+	c #F1B92E",
"s+	c #FACF4C",
"t+	c #C48341",
"u+	c #F0F1F1",
"v+	c #EEECE9",
"w+	c #9ABFE2",
"x+	c #5D98D0",
"y+	c #498DCD",
"z+	c #2F7DC7",
"A+	c #575555",
"B+	c #C7935E",
"C+	c #F5B31D",
"D+	c #BF6B22",
"E+	c #D8D8D8",
"F+	c #D6D6D6",
"G+	c #AAA9A9",
"H+	c #3A5873",
"I+	c #81B1DF",
"J+	c #1B70C4",
"K+	c #B96A27",
"L+	c #C76514",
"M+	c #D1C7BC",
"N+	c #D5D5D5",
"O+	c #CCCCCC",
"P+	c #79AEE2",
"                                                ",
"                                                ",
"                                    . +         ",
"                      @ # $ % & * = - ; >       ",
"            , ' ) ) ) ) ) ) ! ~ { ] ^ / (       ",
"            _ ) ) ' ) ) ) ) : < [ } } | 1       ",
"            2 ) ' ' ' ' 3 4 5 6 7 8 9 0 a       ",
"            b ) ' ' ' ' c d e f g h h i j       ",
"            k l m n o p q r e s t u v w x       ",
"            y z A B C D E F G H I J K L M       ",
"          N O P Q R S T U d V W X X Y Y Z       ",
"          `  ...+.@.#.$.%.&.*.=.-.;.>.,.'.      ",
"          ).!.~.{.].^./.(.&.*._.:.<.[.}.|.      ",
"          1.2.3.3.4.5.6.7.8.9.0.a.b.c.d.e.      ",
"        f.g.h.i.j.k.l.m.n.8.o.p.q.r.s.t.u.      ",
"          v.w.x.y.z.A.B.C.D.E.F.G.H.I.J.K.      ",
"          L.M.N.O.P.Q.R.S.T.U.V.W.X.Y.Z.`.      ",
"           +.+++@+#+$+%+&+*+=+-+;+>+,+'+)+      ",
"          !+~+{+]+^+/+(+_+:+<+[+}+|+1+1+2+      ",
"          b 3+4+5+6+7+8+8+:+<+9+0+a+b+c+d+      ",
"          e+f+g+h+i+8+8+8+j+k+l+m+n+n+o+p+      ",
"          q+r+s+t+8+(.(.u+, v+9+w+x+y+z+        ",
"        A+B+C+D+(.(.(.E+F+G+  H+I+J+            ",
"          K+L+M+N+O+            P+              "};
