/* XPM */
static const char * plan16_xpm[] = {
"16 16 52 1",
" 	c None",
".	c #000000",
"+	c #E66FFF",
"@	c #591C61",
"#	c #B400BD",
"$	c #4D005E",
"%	c #B500BE",
"&	c #C813D2",
"*	c #B600C0",
"=	c #FBF3FC",
"-	c #E282E6",
";	c #C730CD",
">	c #FBF7FC",
",	c #DD8BE1",
"'	c #D566D9",
")	c #DE77E3",
"!	c #B600BF",
"~	c #E3A3E6",
"{	c #C539CC",
"]	c #D36AD8",
"^	c #F7DBF8",
"/	c #D66ADB",
"(	c #BB11C4",
"_	c #F3DCF5",
":	c #F7E3F8",
"<	c #FFFEFF",
"[	c #FEFAFE",
"}	c #EAB2ED",
"|	c #C332CA",
"1	c #FCF8FC",
"2	c #CD55D3",
"3	c #BC1CC4",
"4	c #EEC6F0",
"5	c #FFFFFF",
"6	c #FBF4FC",
"7	c #EDC3EF",
"8	c #FDFAFD",
"9	c #F5DFF6",
"0	c #CE5CD4",
"a	c #BB19C3",
"b	c #CC53D2",
"c	c #F5E0F6",
"d	c #D67ADB",
"e	c #BA14C2",
"f	c #FBF5FB",
"g	c #EBBFEE",
"h	c #D06CD7",
"i	c #C441CC",
"j	c #B300BD",
"k	c #E5A7E8",
"l	c #BA2AC5",
"m	c #B70CC0",
"................",
".+++++++++++++@.",
".+############$.",
".+#%&*########$.",
".+##=-;%######$.",
".+##>,')!#####$.",
".+##~{{]^/(###$.",
".+##_:{#<[}|##$.",
".+##12345567##$.",
".+##1445890a##$.",
".+##12bcde####$.",
".+##fghij#####$.",
".+##kl########$.",
".+##mj########$.",
".@$$$$$$$$$$$$$.",
"................"};
