/* XPM */
static const char * procedures_xpm[] = {
"16 16 72 1",
" 	g None",
".	g #C2C2C2",
"+	g #B3B3B3",
"@	g #A2A2A2",
"#	g #A9A9A9",
"$	g #FFFFFF",
"%	g #B1B1B1",
"&	g #D6D6D6",
"*	g #FDFDFD",
"=	g #FCFCFC",
"-	g #D3D3D3",
";	g #E0E0E0",
">	g #ACACAC",
",	g #D1D1D1",
"'	g #ABABAB",
")	g #AEAEAE",
"!	g #D5D5D5",
"~	g #C7C7C7",
"{	g #B5B5B5",
"]	g #A3A3A3",
"^	g #FBFBFB",
"/	g #D2D2D2",
"(	g #9D9D9D",
"_	g #D8D8D8",
":	g #CDCDCD",
"<	g #CECECE",
"[	g #CCCCCC",
"}	g #C1C1C1",
"|	g #BEBEBE",
"1	g #9B9B9B",
"2	g #F3F3F3",
"3	g #E9E9E9",
"4	g #DDDDDD",
"5	g #DEDEDE",
"6	g #DADADA",
"7	g #C3C3C3",
"8	g #D7D7D7",
"9	g #BBBBBB",
"0	g #CFCFCF",
"a	g #9A9A9A",
"b	g #AAAAAA",
"c	g #F1F1F1",
"d	g #EEEEEE",
"e	g #E1E1E1",
"f	g #CBCBCB",
"g	g #C0C0C0",
"h	g #999999",
"i	g #F0F0F0",
"j	g #ECECEC",
"k	g #EAEAEA",
"l	g #E4E4E4",
"m	g #C4C4C4",
"n	g #989898",
"o	g #A6A6A6",
"p	g #F5F5F5",
"q	g #F2F2F2",
"r	g #E7E7E7",
"s	g #DFDFDF",
"t	g #DBDBDB",
"u	g #BDBDBD",
"v	g #C9C9C9",
"w	g #959595",
"x	g #A5A5A5",
"y	g #E3E3E3",
"z	g #949494",
"A	g #A1A1A1",
"B	g #E8E8E8",
"C	g #EBEBEB",
"D	g #9E9E9E",
"E	g #C5C5C5",
"F	g #979797",
"G	g #969696",
"     .+@@+.     ",
"     #$$$$#     ",
" .+@@%&*=-%@@+. ",
" #$$$;>,,';$$$# ",
"))!**~{]]{~=^/)(",
">_:<,>$$$$>,[}|1",
"'2345.6**678990a",
"b2cde~f,,[%9gg<h",
"#2ijkl6_m9|.7gfn",
"opqrlst&g...u|vw",
"x|ycr46&|}}9fgoz",
"  A}BC5&99f~'z  ",
"   D(ECB[:+wz   ",
"     1a:uAw     ",
"       FG       ",
"                "};
