/* XPM */
static char * procedure_xpm[] = {
"16 16 12 1",
" 	c None",
".	c #000686",
"+	c #FFFFFF",
"@	c #889CC1",
"#	c #F7F3F7",
"$	c #4E0D00",
"%	c #BB3E25",
"&	c #6F1200",
"*	c #C6C3C6",
"=	c #BDBEBD",
"-	c #BDBABD",
";	c #A5A2A5",
"  .........     ",
" .++++++++@.    ",
" .+######+@+.   ",
" .+######+....  ",
" .++++$$$++@@.  ",
" .++$$$%$$$++.  ",
" .++$%%%%%$++.  ",
" .+$$%%&%%$$+.  ",
" .+$%%%$%%%$+.  ",
" .+$$%%%%%$$+.  ",
" .++$%%%%%$++.  ",
" .++$$$%$$$++.  ",
" .++++$$$++++.  ",
" .+++++++++++.  ",
" .*=====----;.  ",
"  ...........   "};
