/* XPM */
static char * procedure_xpm[] = {
"32 32 256 2",
"  	c None",
". 	c #141414",
"+ 	c #3B3B3B",
"@ 	c #404040",
"# 	c #545454",
"$ 	c #555555",
"% 	c #F6F6F6",
"& 	c #FFFFFF",
"* 	c #FAFAFA",
"= 	c #D6D6D6",
"- 	c #878787",
"; 	c #242424",
"> 	c #FEFEFE",
", 	c #E6E6E6",
"' 	c #F0F0F0",
") 	c #A0A0A0",
"! 	c #000000",
"~ 	c #DADADA",
"{ 	c #A9A9A9",
"] 	c #B1B1B1",
"^ 	c #B9B9B9",
"/ 	c #F2F2F2",
"( 	c #FBFBFB",
"_ 	c #F8F8F8",
": 	c #D8D8D8",
"< 	c #F5F5F5",
"[ 	c #979797",
"} 	c #252525",
"| 	c #CFCECA",
"1 	c #ACACAC",
"2 	c #FDFDFD",
"3 	c #F7F7F7",
"4 	c #C9C9C9",
"5 	c #E0E0E0",
"6 	c #888888",
"7 	c #212121",
"8 	c #E1E1E0",
"9 	c #97958F",
"0 	c #898781",
"a 	c #8E8C85",
"b 	c #838078",
"c 	c #909090",
"d 	c #DDDDDD",
"e 	c #F5F5F4",
"f 	c #FCFCFC",
"g 	c #BFBFBF",
"h 	c #E1E1E1",
"i 	c #C8C8C8",
"j 	c #C2C2C2",
"k 	c #8E8E8E",
"l 	c #7B7973",
"m 	c #67655F",
"n 	c #403F3B",
"o 	c #686661",
"p 	c #7C7A72",
"q 	c #CCCCCC",
"r 	c #EEEEEE",
"s 	c #FCFCFB",
"t 	c #F6F6F5",
"u 	c #666666",
"v 	c #5D5D5D",
"w 	c #565656",
"x 	c #5A5A5A",
"y 	c #848484",
"z 	c #DDDCDB",
"A 	c #9A9992",
"B 	c #53524E",
"C 	c #171614",
"D 	c #767573",
"E 	c #9B9993",
"F 	c #52504A",
"G 	c #BBBBBB",
"H 	c #E5E5E4",
"I 	c #C7C7C6",
"J 	c #A6A6A6",
"K 	c #9A9A9A",
"L 	c #6C6C6C",
"M 	c #7B7A75",
"N 	c #86847D",
"O 	c #9A9996",
"P 	c #B7B6B3",
"Q 	c #7D7B75",
"R 	c #B2B2B2",
"S 	c #DEDEDE",
"T 	c #AEAEAE",
"U 	c #E4E4E4",
"V 	c #8B8984",
"W 	c #6B6964",
"X 	c #78756C",
"Y 	c #5F5D56",
"Z 	c #54534D",
"` 	c #696969",
" .	c #F4F4F4",
"..	c #F9F9F9",
"+.	c #EFEFEF",
"@.	c #42413C",
"#.	c #8D8D8D",
"$.	c #C5C5C5",
"%.	c #010101",
"&.	c #C4C4C4",
"*.	c #F8F8F7",
"=.	c #E2E2E1",
"-.	c #C1C1C0",
";.	c #858584",
">.	c #070707",
",.	c #080808",
"'.	c #9D9D9C",
").	c #050505",
"!.	c #E4E3E1",
"~.	c #040404",
"{.	c #999999",
"].	c #0A0A0A",
"^.	c #0B0B0B",
"/.	c #C4C4C3",
"(.	c #EEEEED",
"_.	c #FEFEFD",
":.	c #CFCFCF",
"<.	c #BABABA",
"[.	c #AFAFAF",
"}.	c #E2E2E2",
"|.	c #B3B3B1",
"1.	c #484641",
"2.	c #9F9D96",
"3.	c #888781",
"4.	c #2A2A2A",
"5.	c #090909",
"6.	c #D5D5D5",
"7.	c #ECECEC",
"8.	c #C3C3C3",
"9.	c #F4F4F3",
"0.	c #F2F2F1",
"a.	c #EBEBEA",
"b.	c #DFDFDE",
"c.	c #D9D9D8",
"d.	c #B0AFAD",
"e.	c #A8A7A1",
"f.	c #908E86",
"g.	c #97958E",
"h.	c #807D74",
"i.	c #BEBEBD",
"j.	c #E0E0DF",
"k.	c #C1C1C1",
"l.	c #F3F3F2",
"m.	c #EDEDEC",
"n.	c #AEAEAD",
"o.	c #595854",
"p.	c #605E57",
"q.	c #898883",
"r.	c #76746B",
"s.	c #7D7D7C",
"t.	c #B8B8B7",
"u.	c #F1F1F0",
"v.	c #EFEFEE",
"w.	c #F0F0EF",
"x.	c #43423F",
"y.	c #282724",
"z.	c #363430",
"A.	c #6D6B63",
"B.	c #111111",
"C.	c #0E0E0E",
"D.	c #D5D5D4",
"E.	c #BCBCBB",
"F.	c #CECECD",
"G.	c #9F9F9F",
"H.	c #A8A8A7",
"I.	c #ADADAD",
"J.	c #B6B5AF",
"K.	c #21201E",
"L.	c #0A0908",
"M.	c #181816",
"N.	c #E6E6E4",
"O.	c #65635C",
"P.	c #0D0D0D",
"Q.	c #BDBDBD",
"R.	c #B4B4B3",
"S.	c #161614",
"T.	c #8C8B89",
"U.	c #DFDEDC",
"V.	c #0C0C0C",
"W.	c #EAEAE9",
"X.	c #7B7B7A",
"Y.	c #7F7F7F",
"Z.	c #B0AFA9",
"`.	c #D5D4D1",
" +	c #93918B",
".+	c #757575",
"++	c #A2A2A1",
"@+	c #BBBBBA",
"#+	c #B3B3B2",
"$+	c #EDEDEB",
"%+	c #D6D5D2",
"&+	c #ABA9A3",
"*+	c #5D5C55",
"=+	c #B2B2B0",
"-+	c #D0D0CE",
";+	c #F7F7F6",
">+	c #232322",
",+	c #494943",
"'+	c #202020",
")+	c #B0B0B0",
"!+	c #BDBDBC",
"~+	c #EAEAE8",
"{+	c #7A7974",
"]+	c #7F7F7E",
"^+	c #787877",
"/+	c #101010",
"(+	c #0F0F0F",
"_+	c #747473",
":+	c #878786",
"<+	c #B5B5B4",
"[+	c #D6D6D4",
"}+	c #BEBEBE",
"|+	c #D2D2D0",
"1+	c #616160",
"2+	c #A0A09F",
"3+	c #B1B1B0",
"4+	c #AFAFAE",
"5+	c #ADADAB",
"6+	c #AEAEAC",
"7+	c #B2B2B1",
"8+	c #C7C7C5",
"9+	c #DCDCDB",
"0+	c #BFBFBE",
"a+	c #E4E4E2",
"b+	c #DBDBD9",
"c+	c #848483",
"d+	c #B6B6B4",
"e+	c #CCCCCA",
"f+	c #CFCFCD",
"g+	c #C9C9C7",
"h+	c #D1D1CF",
"i+	c #E2E2E0",
"j+	c #C0C0BF",
"k+	c #F3F3F3",
"l+	c #E3E3E1",
"m+	c #E0E0DE",
"n+	c #B1B1AF",
"o+	c #90908E",
"p+	c #9B9B9A",
"q+	c #ADADAC",
"r+	c #DFDFDD",
"s+	c #DADAD9",
"t+	c #E1E1DF",
"u+	c #CDCDCB",
"v+	c #AAAAA8",
"w+	c #A1A1A0",
"x+	c #A9A9A7",
"y+	c #D8D8D6",
"z+	c #DEDEDC",
"A+	c #E9E9E9",
"B+	c #DDDDDB",
"C+	c #B6B6B5",
"D+	c #323232",
"E+	c #C5C5C4",
"F+	c #C0C0C0",
"G+	c #979796",
". + @ @ @ @ @ @ @ @ @ @ @ @ @ @ @ @ @ # $                       ",
"+ % & & & & & & & & & & & & & & & & & * = - ;                   ",
"@ & & & & & & & & & & & > > > > > > > * , ' ) !                 ",
"@ & & & & & & ~ { ! ! ! ] ^ / ( > > > _ : & < [ }               ",
"@ & & & & & > ! ! ! | ! ! ! 1 ' ( 2 2 3 4 2 2 5 6 7             ",
"@ & & & & & ( ! 8 9 0 a b ! c d e ( f % g h = i j k             ",
"@ & & & & > ! ! l m n o p ! ! q r * s t { u v w x y !           ",
"@ & & & & 2 ! z A B C D E F ! G H 3 * 3 ' = I J K L !           ",
"@ & * * * 3 ! ! M N O P Q ! ! R S % * * * * * * * T !           ",
"@ & * * * _ U ! V W X Y Z ! ` ^ h  .3 _ ..* * * * j !           ",
"@ > ......_ +.! ! ! @.! ! ! #.$.%.%.%.U ' % 3 _ ..&.!           ",
"@ > *.*.*.*.e =.-.! ! ! ;.>.,.'.).!.~.{.].^./.(.t &.!           ",
"@ _.% % % % < r 5 :.<.[.,.}.|.,.1.2.1.,.3.4.5.6.7.8.!           ",
"@ 2 e e e e e 9.0.a.b.c.].d.e.2.2.2.f.g.h.1.,.i.j.k.!           ",
"@ 2 9.9.9.9.9.9.9.l.0.m.n.5.2.2.o.p.q.h.r.>.s.t.d g !           ",
"@ f 0.0.0.0.u.v.v.v.w.%.%.1.2.p.x.y.z.2.A.1.B.C.D.E.!           ",
"@ f u.u.F.G.! ! ! H.I.%.=.J.2.o.K.L.M.N.h.O.p.P.Q.R.!           ",
"@ f +.r ! ! ! | ! ! ! %.~.1.2.q.z.S.T.U.O.1.V.P.] T !           ",
"@ ( (.W.! 8 9 0 a b ! X.Y.>.Z.h.J.N.`. +O.>..+++@+#+!           ",
"@ * $+! ! l m n o p ! ! ,.%+&+2.h.h.r.r.*+1.>.=+-+@+!           ",
"@ ;+a.! z A B C D E F ! >.>+o.).1.r.1.>.,+'+>.)+D.!+!           ",
"@ t ~+! ! {+N O P Q ! ! ]+,.,.^+/+@.(+_+>.>.:+<+[+}+!           ",
"@ 9.N.|+! V W X Y Z ! 1+2+3+4+5+(+V.^.'.5+6+7+8+9+0+!           ",
"@ 9.a+b+! ! ! @.! ! ! c+d+e+-+f+g+#+H.#+g+f+h+b+i+j+!           ",
"@ k+l+m+f+n+! ! ! o+p+q+g+b+m+r+s+|+e+|+s+r+t+i+l+j+!           ",
"@ l.t+m+c.u+!+v+w+x+E.e+y+r+t+t+m+r+z+r+m+t+t+t+t+j+!           ",
"+ A+t+t+m+z+y+u+g+u+y+B+m+t+t+t+t+t+t+t+t+t+t+t+t+C+!           ",
"D+E+k.k.-.-.-.-.-.-.-.-.F+F+F+F+F+F+F+F+F+F+F+F+C+G+!           ",
"  ! ! ! ! ! ! ! ! ! ! ! ! ! ! ! ! ! ! ! ! ! ! ! ! !             ",
"                                                                ",
"                                                                ",
"                                                                "};
