/* XPM */
static char * procedures_xpm[] = {
"16 16 6 1",
" 	c None",
".	c #424C00",
"+	c #D6DCB0",
"@	c #4E0D00",
"#	c #BB3E25",
"$	c #6F1200",
"  ....          ",
" .++++.         ",
".++++++.....    ",
".+++++++++++.   ",
".+++..........  ",
".+++.+++++++++. ",
".++.++++++++++. ",
".++.++++++@@@.  ",
".+.+++++@@@#@@@ ",
".+.+++++@#####@ ",
".++++++@@##$##@@",
" ......@###@###@",
"       @@#####@@",
"        @#####@ ",
"        @@@#@@@ ",
"          @@@   "};
