/* XPM */
static const char * redx24_xpm[] = {
"24 24 147 2",
"  	c None",
". 	c #DE848C",
"+ 	c #E56D6E",
"@ 	c #D64341",
"# 	c #DC838D",
"$ 	c #5E0000",
"% 	c #F4878A",
"& 	c #AF0000",
"* 	c #A50000",
"= 	c #FCACB3",
"- 	c #670000",
"; 	c #240000",
"> 	c #E87980",
", 	c #EA3B45",
"' 	c #B10000",
") 	c #AD0000",
"! 	c #F07E84",
"~ 	c #FB8790",
"{ 	c #330403",
"] 	c #1C0B11",
"^ 	c #D85F67",
"/ 	c #F57378",
"( 	c #B10100",
"_ 	c #A60000",
": 	c #F1666D",
"< 	c #F06A75",
"[ 	c #13090D",
"} 	c #79475B",
"| 	c #F35156",
"1 	c #AC0200",
"2 	c #9B0000",
"3 	c #EE4E55",
"4 	c #F23E48",
"5 	c #FF5F70",
"6 	c #7E4F62",
"7 	c #1F141A",
"8 	c #CC4248",
"9 	c #EE3334",
"0 	c #B72F2E",
"a 	c #AD2425",
"b 	c #E72D31",
"c 	c #ED2F34",
"d 	c #1E080D",
"e 	c #260910",
"f 	c #000000",
"g 	c #DF3136",
"h 	c #FF8E95",
"i 	c #FF7980",
"j 	c #EC1819",
"k 	c #130506",
"l 	c #020000",
"m 	c #2C0607",
"n 	c #DA1D20",
"o 	c #E00709",
"p 	c #3B0607",
"q 	c #030000",
"r 	c #180000",
"s 	c #430506",
"t 	c #D2191C",
"u 	c #CC0A0B",
"v 	c #520708",
"w 	c #170000",
"x 	c #230000",
"y 	c #680407",
"z 	c #D51A1D",
"A 	c #C90405",
"B 	c #6F0507",
"C 	c #220000",
"D 	c #350000",
"E 	c #C9494E",
"F 	c #CC2628",
"G 	c #C31315",
"H 	c #C23035",
"I 	c #3B0000",
"J 	c #870403",
"K 	c #D22224",
"L 	c #D12325",
"M 	c #890504",
"N 	c #930608",
"O 	c #D0191C",
"P 	c #D01A1C",
"Q 	c #930807",
"R 	c #990708",
"S 	c #D51A1E",
"T 	c #D61A1C",
"U 	c #9A0808",
"V 	c #9C0505",
"W 	c #D71718",
"X 	c #FC3438",
"Y 	c #FF4A4E",
"Z 	c #D71819",
"` 	c #9F0707",
" .	c #AB0B0A",
"..	c #D21212",
"+.	c #FA1414",
"@.	c #A91A1A",
"#.	c #A61C1B",
"$.	c #FC1A18",
"%.	c #D41517",
"&.	c #AB0B0B",
"*.	c #D16C71",
"=.	c #FF1C1B",
"-.	c #A20B0B",
";.	c #580000",
">.	c #400200",
",.	c #A00707",
"'.	c #FF2322",
").	c #EC3E42",
"!.	c #D0555B",
"~.	c #B32A2E",
"{.	c #C81916",
"].	c #FF1D1C",
"^.	c #A50D0D",
"/.	c #6B0000",
"(.	c #680000",
"_.	c #A10909",
":.	c #FF2726",
"<.	c #CA120F",
"[.	c #981717",
"}.	c #780000",
"|.	c #C70B0A",
"1.	c #FF191A",
"2.	c #A50C0C",
"3.	c #710000",
"4.	c #A10809",
"5.	c #FF2827",
"6.	c #CD0F0E",
"7.	c #790000",
"8.	c #830000",
"9.	c #D70906",
"0.	c #FF4042",
"a.	c #A80B09",
"b.	c #730000",
"c.	c #7B0000",
"d.	c #A30808",
"e.	c #D9100D",
"f.	c #910000",
"g.	c #F37776",
"h.	c #B04B4D",
"i.	c #7A0000",
"j.	c #800000",
"k.	c #A91D1C",
"l.	c #F76767",
"m.	c #891011",
"n.	c #A3201E",
"o.	c #9F1713",
"p.	c #921819",
"                                                ",
"          . +                     @ #           ",
"        $ % % &                 * = % -         ",
"      ; > , , % '             ) ! , , ~ {       ",
"    ] ^ , , , , / (         _ : , , , , < [     ",
"  } % , , , , , , | 1     2 3 , , , , 4 , 5 6   ",
"    7 8 , , , , , , 9 0 a b , , , , , , c d e   ",
"    f f g , , , , , , h i , , , , , , j k f f   ",
"      l m n , , , , , , , , , , , , o p q f     ",
"        r s t , , , , , , , , , , u v w f       ",
"          x y z , , , , , , , , A B C f         ",
"            D E F , , , , , , G H I f           ",
"            J K , , , , , , , , L M f           ",
"          N O , , , , , , , , , , P Q           ",
"        R S , , , , , , , , , , , , T U         ",
"      V W , , , , , , X Y , , , , , , Z `       ",
"     ..., , , , , , +.@.#.$., , , , , , %.&.    ",
"  *., , , , , , , =.-.;.>.,.'., , , , , , ).!.  ",
"  ~.{., , , , , ].^./.f   (._.:., , , , , <.[.  ",
"    }.|., , , 1.2.3.f       }.4.5., , , 6.7.f   ",
"      8.9., 0.a.b.f           c.d.'., e.8.f     ",
"        f.g.h.i.f               j.k.l.f.f       ",
"          m.n.f                   o.p.f         ",
"                                                "};
