/* XPM */
static const char * redx_xpm[] = {
"16 16 70 1",
"   c None",
".  c #000000",
"+  c #130E0D",
"@  c #422019",
"#  c #391C17",
"$  c #0D0D0D",
"%  c #090909",
"&  c #53190F",
"*  c #7E271A",
"=  c #080504",
"-  c #3B1C17",
";  c #DB8877",
">  c #D05F49",
",  c #4E1D14",
"'  c #2D1714",
")  c #C15F4C",
"!  c #962E1C",
"~  c #120502",
"{  c #0F0B09",
"]  c #C44E38",
"^  c #C64D36",
"/  c #C64D37",
"(  c #4C1B13",
"_  c #1D0F0C",
":  c #CE5E48",
"<  c #922C1B",
"[  c #4E160D",
"}  c #2F1510",
"|  c #C34C36",
"1  c #BE3B22",
"2  c #C44D36",
"3  c #CB6450",
"4  c #992F1D",
"5  c #200804",
"6  c #040404",
"7  c #150A07",
"8  c #49160C",
"9  c #C24831",
"0  c #BD3B22",
"a  c #B03720",
"b  c #2A120D",
"c  c #1B0704",
"d  c #CA6958",
"e  c #922F1E",
"f  c #C2472F",
"g  c #B43A23",
"h  c #24110E",
"i  c #3F3822",
"j  c #572119",
"k  c #C7604D",
"l  c #98311E",
"m  c #1D0A07",
"n  c #C54B34",
"o  c #C03B22",
"p  c #A23A26",
"q  c #080505",
"r  c #392013",
"s  c #B95B4A",
"t  c #94301E",
"u  c #180906",
"v  c #0A0A0A",
"w  c #C74C34",
"x  c #AB3520",
"y  c #26110D",
"z  c #332A1A",
"A  c #33120B",
"B  c #271613",
"C  c #341A15",
"D  c #311712",
"E  c #21100D",
"                ",
"                ",
"                ",
"           .    ",
"   +@#$  %&*=   ",
"   -;>,$ ')!~   ",
"   {]^/(_:<[    ",
"    }|12345     ",
"    67890ab     ",
"     cdef1gh    ",
"   ijklm(nopq   ",
"   rstu.v,wxy   ",
"   zAB   $CDE   ",
"                ",
"                ",
"                "};
