/* XPM */
static const char * redx_xpm[] = {
"16 16 100 2",
"  	c None",
". 	c #C96468",
"+ 	c #DF5F60",
"@ 	c #DD676A",
"# 	c #CB6468",
"$ 	c #8E373B",
"% 	c #EA4952",
"& 	c #EC4C54",
"* 	c #D53E41",
"= 	c #D2393D",
"- 	c #EB4A53",
"; 	c #EE4C56",
"> 	c #9E3E43",
", 	c #9F5860",
"' 	c #E6434D",
") 	c #EA3B45",
"! 	c #EC4750",
"~ 	c #D1292B",
"{ 	c #C7272A",
"] 	c #EC454E",
"^ 	c #EC3C46",
"/ 	c #ED4650",
"( 	c #A44654",
"_ 	c #150D11",
": 	c #A73035",
"< 	c #E93A43",
"[ 	c #EB3941",
"} 	c #D94649",
"| 	c #D33B3F",
"1 	c #E93841",
"2 	c #EA3740",
"3 	c #BC262B",
"4 	c #160609",
"5 	c #230708",
"6 	c #B72125",
"7 	c #EF4D57",
"8 	c #EF4952",
"9 	c #BF1418",
"0 	c #2D0506",
"a 	c #000000",
"b 	c #300203",
"c 	c #C01C21",
"d 	c #E83741",
"e 	c #E6353E",
"f 	c #BE1316",
"g 	c #310304",
"h 	c #070000",
"i 	c #731416",
"j 	c #D33136",
"k 	c #CC2125",
"l 	c #740C0E",
"m 	c #0A0000",
"n 	c #B31517",
"o 	c #E5353E",
"p 	c #E4363E",
"q 	c #B41618",
"r 	c #310302",
"s 	c #B51013",
"t 	c #E4333C",
"u 	c #E4343C",
"v 	c #B61112",
"w 	c #BE1213",
"x 	c #E6333B",
"y 	c #EC3740",
"z 	c #E52C30",
"A 	c #E6373B",
"B 	c #C01415",
"C 	c #D43B41",
"D 	c #E5323A",
"E 	c #E51E20",
"F 	c #8C0A0A",
"G 	c #810C0A",
"H 	c #E52123",
"I 	c #E5333B",
"J 	c #D5373A",
"K 	c #AF1716",
"L 	c #E23038",
"M 	c #E61F21",
"N 	c #7A0606",
"O 	c #1F0000",
"P 	c #880404",
"Q 	c #E52527",
"R 	c #EC3942",
"S 	c #E43139",
"T 	c #960D0C",
"U 	c #B00B0B",
"V 	c #E63037",
"W 	c #E72F32",
"X 	c #990808",
"Y 	c #200000",
"Z 	c #9B0808",
"` 	c #E62325",
" .	c #E63139",
"..	c #B20D0E",
"+.	c #230000",
"@.	c #C03F3F",
"#.	c #8E2829",
"$.	c #9C1413",
"%.	c #AE3333",
"&.	c #290000",
"                                ",
"      . +             @ #       ",
"    $ % & *         = - ; >     ",
"  , ' ) ) ! ~     { ] ) ^ / (   ",
"  _ : < ) ) [ } | 1 ) ) 2 3 4   ",
"    5 6 ) ) ) 7 8 ) ) ) 9 0 a   ",
"      b c d ) ) ) ) e f g h     ",
"        i j ) ) ) ) k l m       ",
"        n o ) ) ) ) p q r       ",
"      s t ) ) ) ) ) ) u v       ",
"    w x ) ) y z A y ) ) x B     ",
"  C D ) ) ) E F G H ) ) ) I J   ",
"  K L ) y M N O   P Q R ) S T   ",
"    U V W X Y       Z `  ...+.  ",
"      @.#.+.          $.%.&.    ",
"                                "};
