/* XPM */
static char * right_xpm[] = {
"16 16 26 1",
" 	c None",
".	c #000000",
"+	c #AFF0AF",
"@	c #8FE08D",
"#	c #5DB65B",
"$	c #97E697",
"%	c #97E495",
"&	c #98E798",
"*	c #95E493",
"=	c #92E190",
"-	c #4E8A4D",
";	c #85DA83",
">	c #8ADD88",
",	c #87DA85",
"'	c #90E18E",
")	c #87DC85",
"!	c #508E4F",
"~	c #89DC87",
"{	c #8BDE89",
"]	c #B1F0B1",
"^	c #1C351C",
"/	c #385F38",
"(	c #477346",
"_	c #2C4F2C",
":	c #2F522F",
"<	c #2B4E2B",
"                ",
"        .       ",
"        ..      ",
"        .+.     ",
"  .......@+.    ",
"  .#@$%&%*=+.   ",
"  .-;>,,>@')+.  ",
"  .!>>>>)~~{>]^ ",
"  ./((((((((_.  ",
"  .:<<<<<((_.   ",
"  .......(_.    ",
"        ._.     ",
"        ..      ",
"        .       ",
"                ",
"                "};
