/* XPM */
static const char * root_xpm[] = {
"16 16 7 1",
" 	c None",
".	c #891700",
"+	c #000686",
"@	c #DC3F16",
"#	c #889CC1",
"$	c #FFFFFF",
"%	c #2B5198",
"                ",
"   ... ++       ",
"   .@.+##+      ",
"   .@+#$$#+     ",
"   .+#$$$$#+    ",
"   +#$$$$$$#+   ",
"  +#$$$$$$$$#+  ",
" +++$$$$$%%%+++ ",
"   +$...$%$%+   ",
"   +$.@.$%%%+   ",
"   +$.@.$$$$+   ",
"   +$.@.$$$$+   ",
"   +$.@.$$$$+   ",
"  ++++++++++++  ",
"                ",
"                "};
