/* XPM */
static const char * server_xpm[] = {
"16 16 124 2",
"  	c None",
". 	c #CDCDCD",
"+ 	c #C9C9C9",
"@ 	c #C4C4C4",
"# 	c #C0C0C0",
"$ 	c #BBBBBB",
"% 	c #B6B6B6",
"& 	c #B0B0B0",
"* 	c #ABABAB",
"= 	c #CCCCCC",
"- 	c #DCDCDC",
"; 	c #E3E3E6",
"> 	c #DCDEE1",
", 	c #DCDCDF",
"' 	c #DBDCDF",
") 	c #DBDBDE",
"! 	c #ECECEE",
"~ 	c #A5A5A5",
"{ 	c #CBCBCB",
"] 	c #DFDFDF",
"^ 	c #EAEAEA",
"/ 	c #C9CACF",
"( 	c #C5C6CB",
"_ 	c #C3C4CA",
": 	c #C1C3C8",
"< 	c #C1C1C7",
"[ 	c #D8D9DC",
"} 	c #9E9E9E",
"| 	c #E9E9E9",
"1 	c #E1E1E2",
"2 	c #C4C6CB",
"3 	c #979798",
"4 	c #959596",
"5 	c #939394",
"6 	c #919192",
"7 	c #D6D7DB",
"8 	c #989898",
"9 	c #C6C6C6",
"0 	c #EFEFEF",
"a 	c #E1E1E1",
"b 	c #DDDDDD",
"c 	c #C2C3C8",
"d 	c #C1C2C8",
"e 	c #BFC1C6",
"f 	c #BEBFC5",
"g 	c #BBBDC3",
"h 	c #D5D6DA",
"i 	c #919191",
"j 	c #ECECEC",
"k 	c #E0E0E0",
"l 	c #DCDCDD",
"m 	c #C0C1C7",
"n 	c #8F8F8F",
"o 	c #8D8D8D",
"p 	c #8A8A8A",
"q 	c #D4D5D9",
"r 	c #8B8B8B",
"s 	c #D9D9DA",
"t 	c #BEBFC6",
"u 	c #BCBEC4",
"v 	c #BBBCC3",
"w 	c #B9BBC1",
"x 	c #B8B9C0",
"y 	c #D3D3D7",
"z 	c #848484",
"A 	c #B5B5B5",
"B 	c #DEDEDE",
"C 	c #D8D8D9",
"D 	c #BABBC2",
"E 	c #B9BAC1",
"F 	c #A4C8A0",
"G 	c #56A950",
"H 	c #D1D3D7",
"I 	c #7E7E7E",
"J 	c #AFAFAF",
"K 	c #EBEBEB",
"L 	c #D5D5D7",
"M 	c #B6B8BE",
"N 	c #42A13B",
"O 	c #379437",
"P 	c #D0D1D6",
"Q 	c #787878",
"R 	c #A8A8A8",
"S 	c #D3D4D5",
"T 	c #B7B9C0",
"U 	c #B6B7BE",
"V 	c #B4B6BD",
"W 	c #B3B4BB",
"X 	c #B1B3BB",
"Y 	c #CFD0D4",
"Z 	c #737373",
"` 	c #A2A2A2",
" .	c #F0F0F0",
"..	c #D2D2D4",
"+.	c #B5B6BE",
"@.	c #B4B5BC",
"#.	c #B2B4BB",
"$.	c #B1B2BA",
"%.	c #AFB1B9",
"&.	c #CECFD4",
"*.	c #6D6D6D",
"=.	c #9B9B9B",
"-.	c #B3B3B3",
";.	c #D4D4D4",
">.	c #DFDFE1",
",.	c #BDBFC5",
"'.	c #B3B5BD",
").	c #B0B1B9",
"!.	c #AEB1B9",
"~.	c #AEAFB7",
"{.	c #CDCED3",
"].	c #686868",
"^.	c #A3A3A3",
"/.	c #C4C5C6",
"(.	c #D3D4D9",
"_.	c #E5E5E8",
":.	c #646464",
"<.	c #797979",
"[.	c #747474",
"}.	c #707070",
"|.	c #6B6B6B",
"1.	c #676767",
"2.	c #636363",
"3.	c #606060",
"                                ",
"          . + @ # $ % & *       ",
"        = - ; > , ' ) ! ~       ",
"      { ] ^ / ( _ : < [ }       ",
"    { | | 1 2 3 4 5 6 7 8       ",
"    9 0 a b c d e f g h i       ",
"    # j k l m 6 n o p q r       ",
"    $ j ] s t u v w x y z       ",
"    A j B C g D E F G H I       ",
"    J K b L w x M N O P Q       ",
"    R ^ b S T U V W X Y Z       ",
"    `  .k ..+.@.#.$.%.&.*.      ",
"    =.-.;.>.,.'.).!.~.{.].      ",
"        p ^./.(.&.{.{._.:.      ",
"            <.[.}.|.1.2.3.      ",
"                                "};
