/* XPM */
static const char * server_xpm[] = {
"16 16 4 1",
" 	c None",
".	c #000686",
"+	c #889CC1",
"@	c #FFFFFF",
"     ......     ",
"    .++@@@@.    ",
"    ........    ",
"    .++@@@@.    ",
"    ........    ",
"    ...++++.    ",
"    .++@@@@.    ",
"    .++@@@@.    ",
"    .++@@@@.    ",
"    .++@@@@.    ",
"    .++@@@@.    ",
"    .++@@@@.    ",
"     ......     ",
"     ......     ",
"    .++++++.    ",
"    ........    "};
