/* XPM */
static char * server32_xpm[] = {
"32 32 84 1",
" 	c None",
".	c #000000",
"+	c #E4E4E4",
"@	c #FDFDFD",
"#	c #FCFCFC",
"$	c #FAFAFA",
"%	c #F9F9F9",
"&	c #F8F8F8",
"*	c #F7F7F7",
"=	c #C6C6C6",
"-	c #E3E3E3",
";	c #F6F6F6",
">	c #AEAEAE",
",	c #E7E7E7",
"'	c #E8E8E8",
")	c #E6E6E6",
"!	c #E5E5E5",
"~	c #CDCDCD",
"{	c #F3F3F3",
"]	c #E9E9E9",
"^	c #CACACA",
"/	c #DADADA",
"(	c #D9D9D9",
"_	c #D8D8D8",
":	c #D6D6D6",
"<	c #D5D5D5",
"[	c #D4D4D4",
"}	c #D3D3D3",
"|	c #D2D2D2",
"1	c #C1C1C1",
"2	c #D1D1D1",
"3	c #D0D0D0",
"4	c #EAEAEA",
"5	c #CCCCCC",
"6	c #CBCBCB",
"7	c #C9C9C9",
"8	c #C8C8C8",
"9	c #C7C7C7",
"0	c #C5C5C5",
"a	c #C4C4C4",
"b	c #C3C3C3",
"c	c #BEBEBE",
"d	c #DDDDDD",
"e	c #EBEBEB",
"f	c #E2E2E2",
"g	c #DCDCDC",
"h	c #DBDBDB",
"i	c #D7D7D7",
"j	c #E1E1E1",
"k	c #CECECE",
"l	c #E0E0E0",
"m	c #CFCFCF",
"n	c #BDBDBD",
"o	c #DFDFDF",
"p	c #A5A5A5",
"q	c #8A8A8A",
"r	c #ABABAB",
"s	c #B6B6B6",
"t	c #888888",
"u	c #B2B2B2",
"v	c #7E7E7E",
"w	c #BBBBBB",
"x	c #BABABA",
"y	c #B8B8B8",
"z	c #B7B7B7",
"A	c #BFBFBF",
"B	c #AAAAAA",
"C	c #7C7C7C",
"D	c #DEDEDE",
"E	c #C2C2C2",
"F	c #AFAFAF",
"G	c #ADADAD",
"H	c #A3A3A3",
"I	c #A7A7A7",
"J	c #BCBCBC",
"K	c #B4B4B4",
"L	c #B3B3B3",
"M	c #ACACAC",
"N	c #A9A9A9",
"O	c #A6A6A6",
"P	c #A4A4A4",
"Q	c #B5B5B5",
"R	c #9C9C9C",
"S	c #6D6D6D",
"                                ",
"                                ",
"           ...........          ",
"          .+@@#$$%&**=.         ",
"         .-@@##$$%%**;>.        ",
"         .,'''',,)))!,~.        ",
"         .,{]]',,)))!)^.        ",
"         .,]/(_:<[}||}1.        ",
"         .-]_:<[}||23|1.        ",
"         .456^789=0ab8c.        ",
"         .de)))!!++-f)6.        ",
"         .-egh//(_i::_1.        ",
"         .j!|23k~56^7~c.        ",
"         .l+2mk~56^785n.        ",
"         .gl3m6~~56^731.        ",
"         .]')!j/dh//(oa.        ",
"         .,pqr<):<[}|3s.        ",
"         .)tuv:_wxyzsAz.        ",
"         .!BC}D'!+-ff)E.        ",
"         .+Dlh_i:[}||(c.        ",
"         .f//Fbp1GbHgin.        ",
"         .j(hIjAoajn/:J.        ",
"         .li:>hs/wgKi}x.        ",
"         .D:<L<>iF:B[}y.        ",
"         .d}|G~M<N|N||z.        ",
"         .h||>:sDshKi/O.        ",
"         .z>>PPFQHLRHrS.        ",
"          .............         ",
"                                ",
"                                ",
"                                ",
"                                "};
