/* XPM */

static const char * sqlicon32_xpm[] = {
"32 32 4 1",
" 	c None",
".	c #007800",
"+	c #FFF8FF",
"@	c #FFF800",
"................................",
"................................",
"................................",
"....+++++.....++++....+.........",
"...+.....+...+....+...+.........",
"...+.....+..+......+..+.........",
"...+........+......+..+.........",
"....+++.....+......+..+.........",
".......++...+......+..+.........",
".........+..+......+..+.........",
"...+.....+..+...++.+..+.........",
"...+.....+...+....+...+.........",
"....+++++.....++++.+..++++++....",
"................................",
"................................",
"................................",
"................................",
"............@..@................",
"............@.....@.............",
"............@.....@.............",
"..@@@....@@.@..@.@@@...@@@...@.@",
".@...@..@..@@..@..@...@...@..@@.",
".@...@..@...@..@..@...@...@..@..",
".@@@@@..@...@..@..@...@...@..@..",
".@......@...@..@..@...@...@..@..",
".@...@..@...@..@..@...@...@..@..",
"..@@@....@@@@..@..@@...@@@...@..",
"................................",
"................................",
"................................",
"................................",
"................................"};
