/* XPM */
static char * systemtable32_xpm[] = {
"32 32 93 2",
"  	c None",
". 	c #141414",
"+ 	c #3B3B3B",
"@ 	c #404040",
"# 	c #545454",
"$ 	c #555555",
"% 	c #F6F6F6",
"& 	c #FFFFFF",
"* 	c #FAFAFA",
"= 	c #D6D6D6",
"- 	c #878787",
"; 	c #242424",
"> 	c #FEFEFE",
", 	c #E6E6E6",
"' 	c #F0F0F0",
") 	c #A0A0A0",
"! 	c #000000",
"~ 	c #B5B5B5",
"{ 	c #BABABA",
"] 	c #BCBCBC",
"^ 	c #BBBBBB",
"/ 	c #B6B6B6",
"( 	c #D8D8D8",
"_ 	c #F5F5F5",
": 	c #979797",
"< 	c #252525",
"[ 	c #FF0000",
"} 	c #BFBFBF",
"| 	c #C2C2C2",
"1 	c #C9C9C9",
"2 	c #FDFDFD",
"3 	c #E0E0E0",
"4 	c #888888",
"5 	c #212121",
"6 	c #B9B9B9",
"7 	c #E1E1E1",
"8 	c #C8C8C8",
"9 	c #8E8E8E",
"0 	c #BABAB9",
"a 	c #B5B5B4",
"b 	c #A9A9A9",
"c 	c #666666",
"d 	c #5D5D5D",
"e 	c #565656",
"f 	c #5A5A5A",
"g 	c #848484",
"h 	c #FCFCFC",
"i 	c #FCFCFB",
"j 	c #B8B8B8",
"k 	c #F7F7F7",
"l 	c #C7C7C6",
"m 	c #A6A6A6",
"n 	c #9A9A9A",
"o 	c #6C6C6C",
"p 	c #AEAEAE",
"q 	c #F9F9F9",
"r 	c #B7B7B7",
"s 	c #C4C4C4",
"t 	c #F8F8F7",
"u 	c #FEFEFD",
"v 	c #F5F5F4",
"w 	c #C3C3C3",
"x 	c #F4F4F3",
"y 	c #F2F2F1",
"z 	c #C3C3C2",
"A 	c #F1F1F0",
"B 	c #EFEFEF",
"C 	c #FBFBFB",
"D 	c #EEEEED",
"E 	c #C2C2C1",
"F 	c #EDEDEB",
"G 	c #F7F7F6",
"H 	c #EBEBEA",
"I 	c #C1C1C0",
"J 	c #F6F6F5",
"K 	c #EAEAE8",
"L 	c #C0C0C0",
"M 	c #E6E6E4",
"N 	c #A9A9A8",
"O 	c #C0C0BF",
"P 	c #E4E4E2",
"Q 	c #A8A8A6",
"R 	c #F3F3F3",
"S 	c #E3E3E1",
"T 	c #A7A7A5",
"U 	c #F3F3F2",
"V 	c #E1E1DF",
"W 	c #E9E9E9",
"X 	c #B6B6B5",
"Y 	c #323232",
"Z 	c #C5C5C4",
"` 	c #C1C1C1",
" .	c #979796",
". + @ @ @ @ @ @ @ @ @ @ @ @ @ @ @ @ @ # $                       ",
"+ % & & & & & & & & & & & & & & & & & * = - ;                   ",
"@ & & & & & & & & & & & > > > > > > > * , ' ) !                 ",
"@ & & ~ { { { ] ] ] ^ ^ ^ ^ ^ ^ ^ ^ ^ / ( & _ : <               ",
"@ & & ] [ [ [ } [ [ [ [ | [ [ [ [ [ { [ 1 2 2 3 4 5             ",
"@ & & ] [ [ [ { [ [ [ [ | [ [ [ [ [ 6 [ [ 7 = 8 | 9             ",
"@ & & ] } { { ] ^ ^ ^ ^ { { 0 6 6 6 6 a b c d e f g !           ",
"@ & & ] [ [ [ ^ > > 2 2 6 h h h i * j k ' = l m n o !           ",
"@ & * j [ [ [ j * * * * j * * * * * j * * * * j * p !           ",
"@ & * j / / / j j j j j j j j j j j j j j ] j j * | !           ",
"@ > q r [ [ [ ^ > > 2 2 6 h h h i * j q q q q r q s !           ",
"@ > t / [ [ [ j * * * * j * * * * * j * * * * j t s !           ",
"@ u % ~ / / / j j j j j j j j j j j j j j ] j j % s !           ",
"@ 2 v ] [ [ [ } > > 2 2 6 h h h i * j q q q q r v w !           ",
"@ 2 x ] [ [ [ { * * * * j * * * * * j * * * * j x w !           ",
"@ h y ] } { { ] j j j j j j j j j j j j j ] j j y z !           ",
"@ h A ] [ [ [ } > > 2 2 6 h h h i * j q q q q r A z !           ",
"@ h B ] [ [ [ { * * * * j * * * * * j * * * * j B | !           ",
"@ C D ] } { { ] j j j j j j j j j j j j j ] j j D E !           ",
"@ * F ] [ [ [ } > > 2 2 6 h h h i * j q q q q r F E !           ",
"@ G H ] [ [ [ { * * * * j * * * * * j * * * * j H I !           ",
"@ J K ] } { { ] j j j j j j j j j j j j j ] j j K L !           ",
"@ x M N [ [ [ ^ > > 2 2 6 h h h i * j q q q q r M O !           ",
"@ x P Q [ [ [ j * * * * j * * * * * j * * * * j P O !           ",
"@ R S T / / / j j j j j j j j j j j j j j ] j j S O !           ",
"@ U V V V V V V V V V V V V V V V V V V V V V V V O !           ",
"+ W V V V V V V V V V V V V V V V V V V V V V V V X !           ",
"Y Z ` ` I I I I I I I I L L L L L L L L L L L L X  .!           ",
"  ! ! ! ! ! ! ! ! ! ! ! ! ! ! ! ! ! ! ! ! ! ! ! ! !             ",
"                                                                ",
"                                                                ",
"                                                                "};
