/* XPM */
static const char * systemdomain32_xpm[] = {
"32 32 267 2",
"  	c None",
". 	c #FF0000",
"+ 	c #C53A47",
"@ 	c #73312A",
"# 	c #76352D",
"$ 	c #793831",
"% 	c #783730",
"& 	c #78362E",
"* 	c #743128",
"= 	c #702B21",
"- 	c #4A1D16",
"; 	c #F30F23",
"> 	c #E66253",
", 	c #EC695B",
"' 	c #F17062",
") 	c #F06E5F",
"! 	c #EF6C5C",
"~ 	c #E7614F",
"{ 	c #DF5642",
"] 	c #73322B",
"^ 	c #B05046",
"/ 	c #EE6E62",
"( 	c #F17368",
"_ 	c #F5796E",
": 	c #F3766A",
"< 	c #F27366",
"[ 	c #ED6A5B",
"} 	c #E86250",
"| 	c #AB4537",
"1 	c #6F281E",
"2 	c #4A1B14",
"3 	c #E66455",
"4 	c #EE6F63",
"5 	c #F57A70",
"6 	c #F77E75",
"7 	c #F88179",
"8 	c #F37467",
"9 	c #F06D5D",
"0 	c #E75F4C",
"a 	c #DD503B",
"b 	c #76352E",
"c 	c #EC6B5C",
"d 	c #F17468",
"e 	c #F9837D",
"f 	c #FC8985",
"g 	c #F4766A",
"h 	c #F16F60",
"i 	c #EA6451",
"j 	c #E45843",
"k 	c #722C21",
"l 	c #793932",
"m 	c #F27163",
"n 	c #FF9090",
"o 	c #F27162",
"p 	c #EE6956",
"q 	c #EA604A",
"r 	c #753025",
"s 	c #793830",
"t 	c #F16F61",
"u 	c #F4766B",
"v 	c #ED6754",
"w 	c #EA5F49",
"x 	c #753024",
"y 	c #78372F",
"z 	c #F06D5E",
"A 	c #ED6652",
"B 	c #E95E47",
"C 	c #752F24",
"D 	c #75322A",
"E 	c #E96454",
"F 	c #EE6C5D",
"G 	c #F06E5E",
"H 	c #E85E4A",
"I 	c #E1543E",
"J 	c #712A1F",
"K 	c #712E25",
"L 	c #E25B49",
"M 	c #E96453",
"N 	c #EC644F",
"O 	c #E35742",
"P 	c #D94A34",
"Q 	c #6D251A",
"R 	c #6C3019",
"S 	c #274F22",
"T 	c #224B20",
"U 	c #1E471E",
"V 	c #483C22",
"W 	c #723126",
"X 	c #AD493A",
"Y 	c #EB6553",
"Z 	c #EF6957",
"` 	c #EE6855",
" .	c #ED6653",
"..	c #E85F4A",
"+.	c #E35842",
"@.	c #A83E2E",
"#.	c #4E9D44",
"$.	c #459640",
"%.	c #3B8E3B",
"&.	c #1F4A1F",
"*.	c #702D22",
"=.	c #DE5441",
"-.	c #E55B46",
";.	c #EB614B",
">.	c #E95F48",
",.	c #E2553F",
"'.	c #DA4B35",
").	c #6D261B",
"!.	c #3B7F36",
"~.	c #4FAF4A",
"{.	c #4AAD48",
"].	c #46AC46",
"^.	c #337E33",
"/.	c #215021",
"(.	c #4D4A26",
"_.	c #7A452C",
":.	c #783C29",
"<.	c #773327",
"[.	c #763125",
"}.	c #7A332A",
"|.	c #7F372F",
"1.	c #533436",
"2.	c #27323D",
"3.	c #2A3643",
"4.	c #2D3B49",
"5.	c #2F3642",
"6.	c #31313B",
"7.	c #202027",
"8.	c #4FC04F",
"9.	c #50C550",
"0.	c #51CA51",
"a.	c #48B248",
"b.	c #3F9A3F",
"c.	c #2B682B",
"d.	c #232329",
"e.	c #384352",
"f.	c #4D637A",
"g.	c #546C86",
"h.	c #5A7591",
"i.	c #5E6B83",
"j.	c #616175",
"k.	c #265424",
"l.	c #4CA747",
"m.	c #4EB64C",
"n.	c #52CD52",
"o.	c #55D555",
"p.	c #4EC44E",
"q.	c #3C933C",
"r.	c #317431",
"s.	c #2A632A",
"t.	c #245124",
"u.	c #262D36",
"v.	c #4B5969",
"w.	c #586C80",
"x.	c #667F98",
"y.	c #66809A",
"z.	c #66829D",
"A.	c #627790",
"B.	c #5E6C84",
"C.	c #454C5D",
"D.	c #2D2C37",
"E.	c #1E1D24",
"F.	c #255925",
"G.	c #4AB14A",
"H.	c #4EBE4E",
"I.	c #58E058",
"J.	c #4EBF4E",
"K.	c #4BB34B",
"L.	c #48A848",
"M.	c #459D45",
"N.	c #255125",
"O.	c #3B4957",
"P.	c #728EA9",
"Q.	c #7994AF",
"R.	c #7F9AB5",
"S.	c #66829E",
"T.	c #5A7692",
"U.	c #5A6780",
"V.	c #59586D",
"W.	c #255725",
"X.	c #49AE49",
"Y.	c #4DBA4D",
"Z.	c #4DBB4D",
"`.	c #4AB04A",
" +	c #48A748",
".+	c #245125",
"++	c #3E4C5A",
"@+	c #839EB9",
"#+	c #8EA9C3",
"$+	c #6B87A2",
"%+	c #5E7A96",
"&+	c #566B85",
"*+	c #4E5C75",
"=+	c #272E3A",
"-+	c #245624",
";+	c #48AB48",
">+	c #4CB64C",
",+	c #4CB74C",
"'+	c #49AD49",
")+	c #47A547",
"!+	c #414F5D",
"~+	c #9DB7D1",
"{+	c #708CA7",
"]+	c #617D99",
"^+	c #526E8B",
"/+	c #435F7C",
"(+	c #22303E",
"_+	c #254F22",
":+	c #499F44",
"<+	c #4BAB48",
"[+	c #4AAE4A",
"}+	c #48A648",
"|+	c #479E44",
"1+	c #479641",
"2+	c #2B552D",
"3+	c #445464",
"4+	c #4F6B88",
"5+	c #415D7A",
"6+	c #202F3D",
"7+	c #254920",
"8+	c #4A923F",
"9+	c #4AA044",
"0+	c #469F46",
"a+	c #479741",
"b+	c #488E3C",
"c+	c #325934",
"d+	c #1B242C",
"e+	c #47596B",
"f+	c #4C6985",
"g+	c #3E5B77",
"h+	c #1F2E3C",
"i+	c #882B1A",
"j+	c #377432",
"k+	c #49A346",
"l+	c #366F30",
"m+	c #353946",
"n+	c #4D5E72",
"o+	c #5C7894",
"p+	c #516D8A",
"q+	c #4B617B",
"r+	c #46546C",
"s+	c #232A36",
"t+	c #25481F",
"u+	c #49903E",
"v+	c #479742",
"w+	c #24471E",
"x+	c #4E4E5F",
"y+	c #546279",
"z+	c #486481",
"A+	c #4B5971",
"B+	c #4D4D61",
"C+	c #272731",
"D+	c #9F271B",
"E+	c #244B21",
"F+	c #234F23",
"G+	c #234B20",
"H+	c #9F261B",
"I+	c #6C1921",
"J+	c #272730",
"K+	c #404758",
"L+	c #5A6880",
"M+	c #4C617B",
"N+	c #394051",
"O+	c #2D2D37",
"P+	c #59596E",
"Q+	c #4E4D61",
"R+	c #272E3B",
"                                                                ",
"                                                                ",
"                          . . . . . . .                         ",
"                        . . . . . . . . .                       ",
"                      . + @ # $ % & * = - ;                     ",
"                    . . @ > , ' ) ! ~ { = ; ;                   ",
"                  . + ] ^ / ( _ : < [ } | 1 2 .                 ",
"                . . ] 3 4 5 6 7 6 5 8 9 0 a 1 . .               ",
"                . . b c d 6 e f e 6 g h i j k . .               ",
"                . . l m _ 7 f n f 7 _ o p q r . .               ",
"                . . s t u 6 e f e 6 g h v w x . .               ",
"                . . y z 8 5 6 7 6 5 8 9 A B C . .               ",
"              . . . D E F 8 g _ g 8 G p H I J . .               ",
"            . . . . K L M 9 h o h 9 p N O P Q . .               ",
"          ; R S T U V W X ~ Y Z `  ...+.@.Q + . . .             ",
"        ; ; S #.$.%.&.; *.=.-.;.q >.,.'.).. . . . . .           ",
"      . R S !.~.{.].^./.(._.:.<.[.x }.|.1.2.3.4.5.6.7.;         ",
"    . . S #.~.8.9.0.a.b.c.+ ; ; ; ; ; d.e.f.g.h.i.j.6.; ;       ",
"    . . k.l.m.9.n.o.p.a.q.r.s.t.+ ; u.v.w.x.y.z.A.B.C.D.E.;     ",
"    . . F.G.H.0.o.I.o.0.J.K.L.M.N.; O.P.Q.R.Q.P.S.T.U.V.D.; ;   ",
"    . . W.X.Y.9.n.o.n.9.Z.`. +M..+; ++Q.@+#+@+Q.$+%+&+*+=+; ;   ",
"    . . -+;+>+8.9.0.9.8.,+'+)+M..+; !+R.#+~+#+R.{+]+^+/+(+; ;   ",
"    . . _+:+<+,+Z.J.Z.,+[+}+|+1+2++ 3+Q.@+#+@+Q.$+%+4+5+6+; ;   ",
"    . . 7+8+9+'+`.K.`.'+}+0+a+b+c+d+e+P.Q.R.Q.P.S.T.f+g+h+; ;   ",
"      . i+7+j+:+k+L. +)+|+a+l++ + m+n+S.$+{+$+S.o+p+q+r+s+; ;   ",
"        ; ; t+u+v+M.M.M.1+b+w+; + x+y+T.%+]+%+T.p+z+A+B+C+; ;   ",
"          ; D+t+E+F+F+F+G+w+H+; I+J+K+L+&+^+4+f+M+A+N+C+I+;     ",
"            . . . . . . . . .   . . O+P+*+/+5+g+r+Q+C+. .       ",
"              . . . . . . .       . + O+R+(+6+h+s+C+I+.         ",
"                                    . . . . . . . . .           ",
"                                      . . . . . . .             ",
"                                                                "};
