/* XPM */
static const char * systemdomains_xpm[] = {
"16 16 56 1",
" 	c None",
".	c #F30F23",
"+	c #E66253",
"@	c #F17062",
"#	c #EF6C5C",
"$	c #DF5642",
"%	c #E66455",
"&	c #F57A70",
"*	c #F88179",
"=	c #F06D5D",
"-	c #DD503B",
";	c #F27163",
">	c #FF9090",
",	c #F27162",
"'	c #EA604A",
")	c #F06D5E",
"!	c #E95E47",
"~	c #E25B49",
"{	c #EC644F",
"]	c #D94A34",
"^	c #4E9D44",
"/	c #3B8E3B",
"(	c #DE5441",
"_	c #EB614B",
":	c #E95F48",
"<	c #DA4B35",
"[	c #4FC04F",
"}	c #51CA51",
"|	c #3F9A3F",
"1	c #C53A47",
"2	c #4D637A",
"3	c #5A7591",
"4	c #616175",
"5	c #4AB14A",
"6	c #58E058",
"7	c #4BB34B",
"8	c #459D45",
"9	c #728EA9",
"0	c #7F9AB5",
"a	c #5A7692",
"b	c #59586D",
"c	c #48AB48",
"d	c #49AD49",
"e	c #9DB7D1",
"f	c #617D99",
"g	c #435F7C",
"h	c #4A923F",
"i	c #469F46",
"j	c #488E3C",
"k	c #3E5B77",
"l	c #49903E",
"m	c #4E4E5F",
"n	c #486481",
"o	c #4D4D61",
"p	c #59596E",
"q	c #4E4D61",
"                ",
"      ....      ",
"     .+@#$.     ",
"    .%&*&=-.    ",
"    .;*>*,'.    ",
"    .)&*&=!.    ",
"   ..~=,={].    ",
"  .^/.(_:<...   ",
" .^[}|1..1234.  ",
" .5}6}78.909ab. ",
" .c[}[d8.0e0fg. ",
" .hd7dij1909ak. ",
"  .l88j.mafano. ",
"   .... .pgkq.  ",
"         ....   ",
"                "};
