/* XPM */
static const char * systemtables_xpm[] = {
"16 16 89 1",
" 	c None",
".	c #A2C1EF",
"+	c #9FC0ED",
"@	c #9DBEEB",
"#	c #9ABCEB",
"$	c #96BAE9",
"%	c #93B7E7",
"&	c #90B5E6",
"*	c #8CB2E4",
"=	c #88AFE2",
"-	c #84ACE0",
";	c #80A9DD",
">	c #7DA5DC",
",	c #7AA3DA",
"'	c #A1C1EE",
")	c #F4F7FB",
"!	c #74A0D7",
"~	c #9EBFEC",
"{	c #A5D59C",
"]	c #A1D398",
"^	c #9DD094",
"/	c #98CE90",
"(	c #93CB8B",
"_	c #8EC987",
":	c #89C682",
"<	c #84C37E",
"[	c #80C17A",
"}	c #7CBE76",
"|	c #6F9BD4",
"1	c #9BBDEB",
"2	c #FFFFFF",
"3	c #6A97D1",
"4	c #98BAE9",
"5	c #A6C3E9",
"6	c #6493CE",
"7	c #94B7E7",
"8	c #A9C4E8",
"9	c #ACC7E8",
"0	c #EBF1F7",
"a	c #5F8FCB",
"b	c #8FB4E5",
"c	c #F2F6FA",
"d	c #AAC6E9",
"e	c #ACC6E9",
"f	c #ACC7EA",
"g	c #ADC7E9",
"h	c #AEC9E9",
"i	c #B0C9E9",
"j	c #B0C8E8",
"k	c #B5CCE8",
"l	c #DEE7F2",
"m	c #598AC8",
"n	c #82AADF",
"o	c #EFF3F9",
"p	c #B7CEEA",
"q	c #BBD0EB",
"r	c #BACFEA",
"s	c #F2F6FB",
"t	c #D8E2F0",
"u	c #5F8DC8",
"v	c #7EA8DD",
"w	c #BAD0EB",
"x	c #BDD1EB",
"y	c #B5CDEA",
"z	c #5C8AC6",
"A	c #7AA4D9",
"B	c #EEF3F9",
"C	c #BED2EB",
"D	c #BFD3EB",
"E	c #ADC7EA",
"F	c #5F8CC6",
"G	c #75A1D7",
"H	c #EDF2F8",
"I	c #EAF0F7",
"J	c #E6EDF6",
"K	c #E2EAF4",
"L	c #DEE7F3",
"M	c #DBE4F1",
"N	c #5D8AC5",
"O	c #729ED6",
"P	c #6E99D3",
"Q	c #6896D1",
"R	c #6392CE",
"S	c #5E8ECB",
"T	c #5B8AC9",
"U	c #5687C7",
"V	c #5284C3",
"W	c #4277BB",
"X	c #FA4225",
"                ",
"  .+@#$%&*=-;>, ",
" '))))))))))))! ",
" ~){]^/(_:<[})| ",
" 1)2222222222)3 ",
" 4)5555555555)6 ",
" 7)52822292220a ",
" bcdefghi9ijklm ",
" nop2q222rs22tu ",
" vowqqqqxyyyytz ",
" ABC2D222E222tF ",
" GHIJKLMttttttN ",
" OPQRSTUVVVVVVW ",
"                ",
" XXXXXXXXXXXXXX ",
"                "};
