/* XPM */
static const char * systempackage_xpm[] = {
"16 16 147 2",
"  	c None",
". 	c #FEBF14",
"+ 	c #F19502",
"@ 	c #FEB61B",
"# 	c #FEE451",
"$ 	c #FEFE66",
"% 	c #DEB21D",
"& 	c #FECF39",
"* 	c #FCE85D",
"= 	c #E49109",
"- 	c #FEAF19",
"; 	c #FEDD65",
"> 	c #FEFE90",
", 	c #FEFE7D",
"' 	c #FEF551",
") 	c #FEC41A",
"! 	c #FEA810",
"~ 	c #FDF575",
"{ 	c #FEFE6A",
"] 	c #FDE83E",
"^ 	c #E08709",
"/ 	c #FDA60C",
"( 	c #FEF6AC",
"_ 	c #FEFEBD",
": 	c #FEFB81",
"< 	c #FED638",
"[ 	c #FEBC16",
"} 	c #FDD027",
"| 	c #FDB512",
"1 	c #F3A917",
"2 	c #FBE642",
"3 	c #FEF040",
"4 	c #FDCF26",
"5 	c #E08006",
"6 	c #FDCB4B",
"7 	c #FEE069",
"8 	c #FEB716",
"9 	c #FEB811",
"0 	c #FED72D",
"a 	c #FEEC41",
"b 	c #FECE24",
"c 	c #FBBB17",
"d 	c #ED9F12",
"e 	c #F6BC22",
"f 	c #FECF1F",
"g 	c #FEAF0B",
"h 	c #A74900",
"i 	c #F89A00",
"j 	c #FDB729",
"k 	c #FEC02D",
"l 	c #FEA201",
"m 	c #FEBB13",
"n 	c #FED229",
"o 	c #FEE439",
"p 	c #FEF64B",
"q 	c #FEDB33",
"r 	c #FEDB2F",
"s 	c #FCD832",
"t 	c #E9A31A",
"u 	c #F0960A",
"v 	c #BF5A01",
"w 	c #FCDB4D",
"x 	c #FDD02B",
"y 	c #FBB613",
"z 	c #FEE034",
"A 	c #FEF246",
"B 	c #FEFE67",
"C 	c #FEEE4B",
"D 	c #FEF142",
"E 	c #FDF045",
"F 	c #EBB62A",
"G 	c #DA790A",
"H 	c #CE6D07",
"I 	c #B14300",
"J 	c #E68D00",
"K 	c #FCC924",
"L 	c #F8B91A",
"M 	c #F6BE21",
"N 	c #FEF64F",
"O 	c #F7CC3E",
"P 	c #F3BB22",
"Q 	c #F0C831",
"R 	c #E4A725",
"S 	c #EDBE2B",
"T 	c #F3B922",
"U 	c #CC6B07",
"V 	c #5E2000",
"W 	c #F9A207",
"X 	c #F3A30D",
"Y 	c #ED9006",
"Z 	c #E48506",
"` 	c #E07000",
" .	c #DD7D11",
"..	c #ECBF4C",
"+.	c #F1D84B",
"@.	c #E9A41D",
"#.	c #C35602",
"$.	c #F59906",
"%.	c #FEC31C",
"&.	c #FBBC19",
"*.	c #F5AC13",
"=.	c #E9930D",
"-.	c #E1840D",
";.	c #E39927",
">.	c #E4A634",
",.	c #E08B12",
"'.	c #F7AB0D",
").	c #C86C06",
"!.	c #ED9108",
"~.	c #FED830",
"{.	c #FEE033",
"].	c #FEDE32",
"^.	c #FEE339",
"/.	c #FEDB3A",
"(.	c #FDC91F",
"_.	c #F9BF1D",
":.	c #FECB22",
"<.	c #FEE027",
"[.	c #CA770F",
"}.	c #DE9216",
"|.	c #FEED46",
"1.	c #FEF74A",
"2.	c #FEF34B",
"3.	c #FEEB4B",
"4.	c #FEE338",
"5.	c #FEE639",
"6.	c #FEEC3B",
"7.	c #FEED3A",
"8.	c #C96E12",
"9.	c #E18713",
"0.	c #FDED59",
"a.	c #FEFE6F",
"b.	c #FEFC61",
"c.	c #FEFE52",
"d.	c #FEFC4F",
"e.	c #F8BE32",
"f.	c #B3590F",
"g.	c #C56411",
"h.	c #F8DD76",
"i.	c #FEFE86",
"j.	c #FCCA44",
"k.	c #C06816",
"l.	c #541600",
"m.	c #B74E0D",
"n.	c #CF6D24",
"o.	c #641D00",
"p.	c #FF0000",
"            .       +           ",
"        @ # $ %   & * =         ",
"    - ; > , ' ) ! ~ { ] ^       ",
"  / ( _ : < [ } | 1 2 3 4 5     ",
"    6 7 8 9 0 a b c d e f g h   ",
"i j k l m n o p q r s t u v     ",
"    w x y z A B C D E F G H I   ",
"    J K L M N O P Q R S T U V   ",
"      W X Y Z `  ...+.@.#.      ",
"    $.%.&.*.=.-.;.>.,.'.).      ",
"    !.~.{.].^./.(._.:.<.[.      ",
"      }.|.1.2.3.4.5.6.7.8.      ",
"        9.0.a.b.c.d.e.f.        ",
"          g.h.i.j.k.l.          ",
"p.p.p.p.p.p.m.n.o.p.p.p.p.p.p.p.",
"p.p.p.p.p.p.p.p.p.p.p.p.p.p.p.p."};
