/* XPM */
static const char * systemindex32_xpm[] = {
"16 16 77 1",
" 	c None",
".	c #FA4225",
"+	c #A2C1EF",
"@	c #9DBEEB",
"#	c #9ABCEB",
"$	c #93B7E7",
"%	c #90B5E6",
"&	c #8CB2E4",
"*	c #88AFE2",
"=	c #84ACE0",
"-	c #80A9DD",
";	c #7DA5DC",
">	c #7AA3DA",
",	c #A1C1EE",
"'	c #F4F7FB",
")	c #74A0D7",
"!	c #9EBFEC",
"~	c #A1D398",
"{	c #9DD094",
"]	c #93CB8B",
"^	c #8EC987",
"/	c #89C682",
"(	c #84C37E",
"_	c #80C17A",
":	c #7CBE76",
"<	c #6F9BD4",
"[	c #9BBDEB",
"}	c #FFFFFF",
"|	c #6A97D1",
"1	c #98BAE9",
"2	c #A6C3E9",
"3	c #6493CE",
"4	c #94B7E7",
"5	c #A9C4E8",
"6	c #ACC7E8",
"7	c #EBF1F7",
"8	c #5F8FCB",
"9	c #8FB4E5",
"0	c #F2F6FA",
"a	c #ACC6E9",
"b	c #ACC7EA",
"c	c #AEC9E9",
"d	c #B0C9E9",
"e	c #B0C8E8",
"f	c #B5CCE8",
"g	c #DEE7F2",
"h	c #598AC8",
"i	c #B0C9EA",
"j	c #DBE5F1",
"k	c #5586C6",
"l	c #B3CCEA",
"m	c #B7CEEA",
"n	c #AEC8E8",
"o	c #D8E2F0",
"p	c #5486C4",
"q	c #82AADF",
"r	c #EFF3F9",
"s	c #BBD0EB",
"t	c #BACFEA",
"u	c #F2F6FB",
"v	c #5F8DC8",
"w	c #7EA8DD",
"x	c #BDD1EB",
"y	c #B5CDEA",
"z	c #5C8AC6",
"A	c #7AA4D9",
"B	c #EEF3F9",
"C	c #BFD3EB",
"D	c #ADC7EA",
"E	c #5F8CC6",
"F	c #75A1D7",
"G	c #EDF2F8",
"H	c #E6EDF6",
"I	c #E2EAF4",
"J	c #DBE4F1",
"K	c #5D8AC5",
"L	c #FF0000",
"   ....         ",
"  +.@#.$%&*=-;> ",
" ,'.''.''''''') ",
" !'.~{.]^/(_:'< ",
" ['.}}.}}}}}}'| ",
" 1'.22.222222'3 ",
" 4'.}5.}}6}}}78 ",
" 90.ab.cd6defgh ",
" ...}i.}}6}}}jk ",
" ...ll.lm66enop ",
" qr.}s.}}tu}}ov ",
" wr.ss.sxyyyyoz ",
" AB.}C.}}D}}}oE ",
" FG.HI.JooooooK ",
" LLLLLLLLLLLLLL ",
" LLLLLLLLLLLLLL "};
