/* XPM */
static char * table_xpm[] = {
"16 16 12 1",
" 	c None",
".	c #000686",
"+	c #FFFFFF",
"@	c #DEDFDE",
"#	c #E7E3E7",
"$	c #E7E7E7",
"%	c #EFEBEF",
"&	c #EFEFEF",
"*	c #889CC1",
"=	c #F7F3F7",
"-	c #F7F7F7",
";	c #FFFBFF",
"                ",
"                ",
"  ...........   ",
"  ...........   ",
"  .+@#$$%%%&.   ",
"  .+***%***&.   ",
"  .+$$%%&&&=.   ",
"  .+***&***=.   ",
"  .+%%&&===-.   ",
"  .+***&***-.   ",
"  .+%&&===-;.   ",
"  .+***=***;.   ",
"  .+&==-;;;+.   ",
"  ...........   ",
"                ",
"                "};
