/* XPM */
static const char * tables_xpm[] = {
"16 16 100 2",
"  	c None",
". 	c #A2C1EF",
"+ 	c #9FC0ED",
"@ 	c #9DBEEB",
"# 	c #9ABCEB",
"$ 	c #96BAE9",
"% 	c #93B7E7",
"& 	c #90B5E6",
"* 	c #8CB2E4",
"= 	c #88AFE2",
"- 	c #84ACE0",
"; 	c #80A9DD",
"> 	c #7DA5DC",
", 	c #7AA3DA",
"' 	c #A1C1EE",
") 	c #F4F7FB",
"! 	c #74A0D7",
"~ 	c #9EBFEC",
"{ 	c #A5D59C",
"] 	c #A1D398",
"^ 	c #9DD094",
"/ 	c #98CE90",
"( 	c #93CB8B",
"_ 	c #8EC987",
": 	c #89C682",
"< 	c #84C37E",
"[ 	c #80C17A",
"} 	c #7CBE76",
"| 	c #6F9BD4",
"1 	c #9BBDEB",
"2 	c #FFFFFF",
"3 	c #6A97D1",
"4 	c #98BAE9",
"5 	c #A6C3E9",
"6 	c #6493CE",
"7 	c #94B7E7",
"8 	c #A9C4E8",
"9 	c #ACC7E8",
"0 	c #EBF1F7",
"a 	c #5F8FCB",
"b 	c #8FB4E5",
"c 	c #F2F6FA",
"d 	c #AAC6E9",
"e 	c #ACC6E9",
"f 	c #ACC7EA",
"g 	c #ADC7E9",
"h 	c #AEC9E9",
"i 	c #B0C9E9",
"j 	c #B0C8E8",
"k 	c #B5CCE8",
"l 	c #DEE7F2",
"m 	c #598AC8",
"n 	c #8CB1E3",
"o 	c #F1F6FA",
"p 	c #AEC9EA",
"q 	c #B0C9EA",
"r 	c #DBE5F1",
"s 	c #5586C6",
"t 	c #87AEE1",
"u 	c #F0F4FA",
"v 	c #B2CBEA",
"w 	c #B3CCEA",
"x 	c #B7CEEA",
"y 	c #AEC8E8",
"z 	c #D8E2F0",
"A 	c #5486C4",
"B 	c #82AADF",
"C 	c #EFF3F9",
"D 	c #BBD0EB",
"E 	c #BACFEA",
"F 	c #F2F6FB",
"G 	c #5F8DC8",
"H 	c #7EA8DD",
"I 	c #BAD0EB",
"J 	c #BDD1EB",
"K 	c #B5CDEA",
"L 	c #5C8AC6",
"M 	c #7AA4D9",
"N 	c #EEF3F9",
"O 	c #BED2EB",
"P 	c #BFD3EB",
"Q 	c #ADC7EA",
"R 	c #5F8CC6",
"S 	c #75A1D7",
"T 	c #EDF2F8",
"U 	c #EAF0F7",
"V 	c #E6EDF6",
"W 	c #E2EAF4",
"X 	c #DEE7F3",
"Y 	c #DBE4F1",
"Z 	c #5D8AC5",
"` 	c #729ED6",
" .	c #6E99D3",
"..	c #6896D1",
"+.	c #6392CE",
"@.	c #5E8ECB",
"#.	c #5B8AC9",
"$.	c #5687C7",
"%.	c #5284C3",
"&.	c #4277BB",
"                                ",
"    . + @ # $ % & * = - ; > ,   ",
"  ' ) ) ) ) ) ) ) ) ) ) ) ) !   ",
"  ~ ) { ] ^ / ( _ : < [ } ) |   ",
"  1 ) 2 2 2 2 2 2 2 2 2 2 ) 3   ",
"  4 ) 5 5 5 5 5 5 5 5 5 5 ) 6   ",
"  7 ) 5 2 8 2 2 2 9 2 2 2 0 a   ",
"  b c d e f g h i 9 i j k l m   ",
"  n o p 2 q 2 2 2 9 2 2 2 r s   ",
"  t u v w w w w x 9 9 j y z A   ",
"  B C x 2 D 2 2 2 E F 2 2 z G   ",
"  H C I D D D D J K K K K z L   ",
"  M N O 2 P 2 2 2 Q 2 2 2 z R   ",
"  S T U V W X Y z z z z z z Z   ",
"  `  ...+.@.#.$.%.%.%.%.%.%.&.  ",
"                                "};
