/* XPM */
static char * table_xpm[] = {
"32 32 74 1",
" 	c None",
".	c #000686",
"+	c #4044A4",
"@	c #8083C3",
"#	c #777BBA",
"$	c #6F73B2",
"%	c #7174B4",
"&	c #7475B7",
"*	c #7476B7",
"=	c #7477B7",
"-	c #7678B9",
";	c #7879BB",
">	c #787ABB",
",	c #787BBB",
"'	c #3C40A0",
")	c #FFFFFF",
"!	c #EFEFEF",
"~	c #DEDFDE",
"{	c #E3E1E3",
"]	c #E7E3E7",
"^	c #E7E5E7",
"/	c #E7E7E7",
"(	c #EBE9EB",
"_	c #EFEBEF",
":	c #EFEDEF",
"<	c #D9DEE7",
"[	c #B3BED0",
"}	c #B5BFD2",
"|	c #B8C0D4",
"1	c #B8C1D4",
"2	c #B8C2D4",
"3	c #D1D5E0",
"4	c #D3D6E2",
"5	c #BCC4D8",
"6	c #D5D9E4",
"7	c #C4CEE0",
"8	c #889CC1",
"9	c #BCC6D8",
"0	c #DBE0EA",
"a	c #BAC3D6",
"b	c #D5D7E4",
"c	c #D5D8E4",
"d	c #D7DBE6",
"e	c #F3F1F3",
"f	c #7A7CBD",
"g	c #F3F3F3",
"h	c #F7F3F7",
"i	c #7C7DBF",
"j	c #D9DCE8",
"k	c #C0C8DC",
"l	c #DDE1EC",
"m	c #BCC5D8",
"n	c #D5DAE4",
"o	c #DBDEEA",
"p	c #F7F5F7",
"q	c #7C7EBF",
"r	c #F7F7F7",
"s	c #7C7FBF",
"t	c #DBDFEA",
"u	c #C0CADC",
"v	c #C0C9DC",
"w	c #FBF9FB",
"x	c #7E80C1",
"y	c #FFFBFF",
"z	c #8081C3",
"A	c #DBDDEA",
"B	c #DFE2EE",
"C	c #C4CCE0",
"D	c #DDE2EC",
"E	c #BEC7DA",
"F	c #DDE0EC",
"G	c #E1E4F0",
"H	c #FFFDFF",
"I	c #8082C3",
"                                ",
"                                ",
"                                ",
"                                ",
"     .....................      ",
"    .......................     ",
"    .......................     ",
"    .......................     ",
"    ..+@#$%&*===-;;;;;>,'..     ",
"    ..@)!~{]^///(_____:!,..     ",
"    ..@)<[}|123(4555556!,..     ",
"    ..@)7888885_5888889!,..     ",
"    ..@)0222a5b_c99999def..     ",
"    ..@)g///(___:!!!!!ehi..     ",
"    ..@)0222a5c:699999jhi..     ",
"    ..@)7888889!988888khi..     ",
"    ..@)l555m9n!dkkkkkopq..     ",
"    ..@)p___:!!!ehhhhhprs..     ",
"    ..@)l555m9n!dkkkkktrs..     ",
"    ..@)7888889!988888urs..     ",
"    ..@)l5m999dejkkkvulwx..     ",
"    ..@)p_:!!!ehhhhhprwyz..     ",
"    ..@)l5m999jhAkkkvuByz..     ",
"    ..@)788888khk88888Cyz..     ",
"    ..@)D9EkkkopFCCCCCGHI..     ",
"    ..@)r!ehhhprwyyyyyH)@..     ",
"    ..+@s,fiiiqsxzzzzzI@+..     ",
"    .......................     ",
"     .....................      ",
"                                ",
"                                ",
"                                "};
