/* XPM */
static const char * toggle32_xpm[] = {
"32 32 190 2",
"  	c None",
". 	c #BFC4C8",
"+ 	c #A1ACB7",
"@ 	c #A1ABB6",
"# 	c #A0ABB6",
"$ 	c #A0ABB5",
"% 	c #A0AAB5",
"& 	c #9FAAB5",
"* 	c #9EA9B5",
"= 	c #9EA9B4",
"- 	c #9DA8B4",
"; 	c #C2C7CA",
"> 	c #98A4B1",
", 	c #CFD7E5",
"' 	c #C1CCDC",
") 	c #BCC7D8",
"! 	c #B6C2D5",
"~ 	c #B1BED1",
"{ 	c #ACBACE",
"] 	c #A8B6CA",
"^ 	c #A3B2C7",
"/ 	c #9EAEC4",
"( 	c #9AAAC1",
"_ 	c #96A6BE",
": 	c #92A3BB",
"< 	c #8FA0B9",
"[ 	c #8B9DB7",
"} 	c #889AB4",
"| 	c #8EA0B9",
"1 	c #91A2BA",
"2 	c #94A5BC",
"3 	c #98A8BF",
"4 	c #9CABC1",
"5 	c #A0AFC4",
"6 	c #A3B1C6",
"7 	c #D0D9E2",
"8 	c #B2BFCF",
"9 	c #CDD6E1",
"0 	c #B4C0D2",
"a 	c #C9D2DE",
"b 	c #A9B7CA",
"c 	c #A8B1BC",
"d 	c #9BA7B2",
"e 	c #B9BEC6",
"f 	c #A0A8B4",
"g 	c #9FA7B3",
"h 	c #9EA5B2",
"i 	c #9CA4B0",
"j 	c #99A3AF",
"k 	c #98A1AE",
"l 	c #97A0AD",
"m 	c #959EAC",
"n 	c #949DAB",
"o 	c #929CAA",
"p 	c #919AA9",
"q 	c #9099A9",
"r 	c #8E99A8",
"s 	c #8E97A6",
"t 	c #8E98A6",
"u 	c #8F99A8",
"v 	c #939DAB",
"w 	c #979FAD",
"x 	c #A0A7B3",
"y 	c #9EA6B2",
"z 	c #A1A8B3",
"A 	c #A3AAB4",
"B 	c #B3B9C2",
"C 	c #AAB3BD",
"D 	c #9AA5B1",
"E 	c #D2D2D2",
"F 	c #CBCCCD",
"G 	c #CDCDCE",
"H 	c #CECFCF",
"I 	c #D0D0D1",
"J 	c #D1D1D1",
"K 	c #D2D3D3",
"L 	c #D4D4D4",
"M 	c #D5D5D6",
"N 	c #D6D6D6",
"O 	c #D7D7D7",
"P 	c #D8D8D8",
"Q 	c #D9D9D9",
"R 	c #DADADA",
"S 	c #DADADB",
"T 	c #DBDBDC",
"U 	c #DCDCDB",
"V 	c #DDDDDC",
"W 	c #DDDDDD",
"X 	c #DEDEDE",
"Y 	c #DCDDDD",
"Z 	c #DEDEDF",
"` 	c #DFDFDF",
" .	c #E0E0E0",
"..	c #DBDADB",
"+.	c #AAB2BC",
"@.	c #99A5B0",
"#.	c #CFD0D2",
"$.	c #EDEDEE",
"%.	c #EDEEEE",
"&.	c #EEEEEF",
"*.	c #EEEFEF",
"=.	c #EFEFF0",
"-.	c #EFF0F0",
";.	c #F0F0F1",
">.	c #F0F1F1",
",.	c #F1F1F2",
"'.	c #F1F2F2",
").	c #F1F2F3",
"!.	c #F2F2F3",
"~.	c #F2F3F3",
"{.	c #F3F3F3",
"].	c #F3F3F4",
"^.	c #F3F4F4",
"/.	c #F4F4F5",
"(.	c #F4F5F5",
"_.	c #99A4B0",
":.	c #FFFFFF",
"<.	c #AAB1BC",
"[.	c #ACACAC",
"}.	c #BFC0C1",
"|.	c #C0C1C3",
"1.	c #BEC0C2",
"2.	c #BEBFC2",
"3.	c #BCBEC1",
"4.	c #BBBDC0",
"5.	c #BABCC0",
"6.	c #B9BCBE",
"7.	c #B8BABE",
"8.	c #B7BABE",
"9.	c #B6B9BD",
"0.	c #B5B9BC",
"a.	c #B5B8BC",
"b.	c #B4B7BB",
"c.	c #B4B7BC",
"d.	c #B6B9BC",
"e.	c #B7B9BD",
"f.	c #B9BBBE",
"g.	c #BABCBF",
"h.	c #BCBEC0",
"i.	c #BDBEC1",
"j.	c #FEFEFE",
"k.	c #FDFDFD",
"l.	c #ABB4BD",
"m.	c #FCFCFC",
"n.	c #FBFBFB",
"o.	c #FAFBFB",
"p.	c #FAFAFA",
"q.	c #FAFAFB",
"r.	c #ACB4BE",
"s.	c #9CA7B3",
"t.	c #DDDEE4",
"u.	c #C9CFD5",
"v.	c #C2C8D1",
"w.	c #C0C4CE",
"x.	c #BDC5CE",
"y.	c #BEC5CF",
"z.	c #BCC3CE",
"A.	c #BAC2CD",
"B.	c #B7C0CB",
"C.	c #B2BBC9",
"D.	c #B0B9C6",
"E.	c #ABB6C4",
"F.	c #A9B3C2",
"G.	c #A6B1C0",
"H.	c #A3AEBD",
"I.	c #A4AFBD",
"J.	c #A6B0C0",
"K.	c #AFB8C6",
"L.	c #A8B3C2",
"M.	c #ADB6C4",
"N.	c #B0B8C8",
"O.	c #B8BDCE",
"P.	c #BABFD0",
"Q.	c #C4C5D7",
"R.	c #C2C6CF",
"S.	c #C3CAD1",
"T.	c #CACDD4",
"U.	c #D1D4D8",
"V.	c #ACB5BE",
"W.	c #C6CACC",
"X.	c #AEB7C0",
"Y.	c #ADB6BF",
"Z.	c #ADB5BF",
"`.	c #ACB5BF",
" +	c #ACB4BF",
".+	c #ABB4BF",
"++	c #AEB7C1",
"@+	c #AEB6C1",
"#+	c #AEB6C0",
"$+	c #C9CDCF",
"                                                                ",
"                                                                ",
"                                                                ",
". + @ # # $ % & & * * * = = = - - = = = = * * * & $ $ # # # # ; ",
"> , ' ) ! ~ { ] ^ / ( _ : < [ } } [ | 1 2 3 4 5 6 7 8 9 0 a b c ",
"d e f g h i j k l m n o p q r s t u q p o v m w l x y z x A B C ",
"D E F F G G H I J E K L M N O P Q Q R S T U V W X Y Z `  .F ..+.",
"@.#.$.$.%.%.&.&.*.=.=.-.;.;.>.>.,.,.'.).!.~.{.].^.^././.(.$.#.+.",
"_.#.:.:.:.:.:.:.:.:.:.:.:.:.:.:.:.:.:.:.:.:.:.:.:.:.:.:.:.:.#.<.",
"_.#.:.:.:.:.:.:.:.:.:.:.:.:.:.:.:.:.:.:.:.:.:.:.:.:.:.:.:.:.#.<.",
"_.#.:.:.:.:.:.:.:.:.:.:.:.:.:.:.:.:.:.:.:.:.:.:.:.:.:.:.:.:.#.<.",
"_.#.:.:.:.:.:.:.:.:.:.:.:.:.:.:.:.:.:.:.:.:.:.:.:.:.:.:.:.:.#.<.",
"_.#.:.:.:.:.:.:.:.:.:.:.:.:.:.:.:.:.:.:.:.:.:.:.:.:.:.:.:.:.#.<.",
"_.#.:.:.:.:.:.:.:.:.:.:.:.:.:.:.:.:.:.:.:.:.:.:.:.:.:.:.:.:.#.<.",
"_.#.:.:.:.:.:.:.:.:.:.:.:.:.:.:.:.:.:.:.:.:.:.:.:.:.:.:.:.:.#.<.",
"_.#.:.:.:.:.:.:.:.:.:.:.:.:.:.:.:.:.:.:.:.:.:.:.:.:.:.:.:.:.#.<.",
"_.[.[.[.[.[.[.[.[.[.[.[.[.[.[.[.[.[.[.[.[.[.[.[.[.[.[.[.[.[.[.<.",
"_.}.|.|.1.2.3.4.5.6.7.8.9.0.a.b.b.c.a.d.e.8.7.f.g.4.h.i.1.}.|.<.",
"_.#.:.:.:.:.:.:.:.:.:.:.:.:.:.:.:.:.:.:.:.:.:.:.:.:.:.:.:.:.#.<.",
"_.#.:.j.j.j.j.j.j.j.j.j.j.:.:.:.:.:.:.:.:.:.:.:.:.:.:.:.:.:.#.<.",
"_.#.:.k.k.k.k.k.k.k.k.k.k.:.:.:.:.:.:.:.:.:.:.:.:.:.:.:.:.:.#.l.",
"_.#.:.k.k.k.k.k.k.k.k.k.k.:.:.:.:.:.:.:.:.:.:.:.:.:.:.:.:.:.#.<.",
"_.#.:.m.m.m.m.m.m.m.m.m.m.:.:.:.:.:.:.:.:.:.:.:.:.:.:.:.:.:.#.<.",
"_.#.:.n.n.n.n.n.n.n.n.n.n.:.:.:.:.:.:.:.:.:.:.:.:.:.:.:.:.:.#.<.",
"_.#.:.o.o.o.o.o.o.o.o.o.o.:.:.:.:.:.:.:.:.:.:.:.:.:.:.:.:.:.#.<.",
"_.#.:.p.p.p.p.p.p.p.p.p.p.:.:.:.:.:.:.:.:.:.:.:.:.:.:.:.:.:.#.<.",
"_.#.:.q.q.q.q.q.q.q.q.q.q.:.:.:.:.:.:.:.:.:.:.:.:.:.:.:.:.:.#.l.",
"_.#.o.o.o.o.o.o.o.o.o.o.o.o.o.o.o.o.o.o.o.o.o.o.o.o.o.o.o.o.#.r.",
"s.t.u.v.w.x.y.z.A.B.C.D.E.F.G.H.I.J.F.K.L.E.M.N.O.P.Q.R.S.T.U.V.",
"W.X.Y.Y.Y.Y.Y.Y.Z.Z.`.`.`. + +.+.+ + +++ + +.+.+ + +++@+Y.Y.#+$+",
"                                                                ",
"                                                                "};
