/* XPM */
static const char * toggle24_xpm[] = {
"24 24 117 2",
"  	c None",
". 	c #B8C2CA",
"+ 	c #808D9D",
"@ 	c #7E8B9C",
"# 	c #7C8B9A",
"$ 	c #7B8999",
"% 	c #788797",
"& 	c #778597",
"* 	c #758395",
"= 	c #738294",
"- 	c #708092",
"; 	c #6F7F91",
"> 	c #728192",
", 	c #748394",
"' 	c #758495",
") 	c #7F8C9C",
"! 	c #7E8B9B",
"~ 	c #7E8C9B",
"{ 	c #BEC6CF",
"] 	c #8B95A3",
"^ 	c #D0D5DD",
"/ 	c #C8CED8",
"( 	c #C4CBD5",
"_ 	c #BFC7D2",
": 	c #BBC3CF",
"< 	c #B7C0CD",
"[ 	c #B3BCCA",
"} 	c #B0B9C8",
"| 	c #ACB6C6",
"1 	c #A9B3C3",
"2 	c #A6B0C1",
"3 	c #A6B1C1",
"4 	c #ACB6C5",
"5 	c #AFB8C7",
"6 	c #E5E8EC",
"7 	c #BDC5D1",
"8 	c #ECEEF2",
"9 	c #CAD0D9",
"0 	c #ECEFF2",
"a 	c #D1D6DD",
"b 	c #919BA7",
"c 	c #88929E",
"d 	c #B6BFCC",
"e 	c #CBD1DA",
"f 	c #CCD2DA",
"g 	c #919AA4",
"h 	c #89949F",
"i 	c #E4E7ED",
"j 	c #FFFFFF",
"k 	c #FBFBFB",
"l 	c #FBFBFC",
"m 	c #FBFCFC",
"n 	c #FCFCFC",
"o 	c #FCFCFD",
"p 	c #FCFDFD",
"q 	c #FDFDFD",
"r 	c #929BA5",
"s 	c #ACACAC",
"t 	c #C0C1C2",
"u 	c #BEC0C2",
"v 	c #BDBEC1",
"w 	c #BBBDC0",
"x 	c #BABCBF",
"y 	c #B9BBBE",
"z 	c #B7BABE",
"A 	c #B6B9BD",
"B 	c #B5B8BC",
"C 	c #B4B7BB",
"D 	c #B3B7BB",
"E 	c #B5B9BC",
"F 	c #B7B9BD",
"G 	c #B8BABE",
"H 	c #BCBDC0",
"I 	c #FEFEFF",
"J 	c #FDFEFE",
"K 	c #929BA7",
"L 	c #89939F",
"M 	c #FAFAFA",
"N 	c #89939E",
"O 	c #F1F2F3",
"P 	c #8B95A1",
"Q 	c #CBCDCE",
"R 	c #CACBD0",
"S 	c #C7CACF",
"T 	c #C5C8CD",
"U 	c #C2C6CC",
"V 	c #BEC2C8",
"W 	c #BBBFC5",
"X 	c #B5BAC2",
"Y 	c #AEB4BB",
"Z 	c #A7AEB7",
"` 	c #AEB1C0",
" .	c #B6B6C8",
"..	c #B7B7CA",
"+.	c #BBB8CF",
"@.	c #C6C0D9",
"#.	c #C1BDD1",
"$.	c #C4BECC",
"%.	c #CDC3D4",
"&.	c #CBC1CF",
"*.	c #DCC7EB",
"=.	c #D2C8D9",
"-.	c #D3CCD7",
";.	c #939CA6",
">.	c #B9C2C9",
",.	c #8E99A4",
"'.	c #8D98A4",
").	c #8C98A4",
"!.	c #8C97A3",
"~.	c #8B96A3",
"{.	c #8A96A3",
"].	c #8995A2",
"^.	c #8994A2",
"/.	c #8994A1",
"(.	c #8D99A6",
"_.	c #9099A8",
":.	c #BEC5CC",
"                                                ",
"                                                ",
"                                                ",
". + @ # $ % & * = = - ; ; - > = , ' % ) ! ~ + { ",
"] ^ / ( _ : < [ } | 1 2 3 1 4 5 [ 6 7 8 9 0 a b ",
"c ^ / ( _ : < [ } | 1 2 3 1 4 5 [ d 7 e 9 f a g ",
"h i j k l m n n n n n n n o o p q q q q q j i r ",
"h i j j j j j j j j j j j j j j j j j j j j i r ",
"h i j j j j j j j j j j j j j j j j j j j j i r ",
"h i j j j j j j j j j j j j j j j j j j j j i r ",
"h i j j j j j j j j j j j j j j j j j j j j i r ",
"h i j j j j j j j j j j j j j j j j j j j j i r ",
"h s s s s s s s s s s s s s s s s s s s s s s r ",
"h t u u v w x y z A B C D B E F G y x H v t u r ",
"h i j I I I I I I I j j j j j j j j j j j j i r ",
"h i j J J J J J J J j j j j j j j j j j j j i K ",
"h i j q q q q q q q j j j j j j j j j j j j i r ",
"L i j m m m m m m m j j j j j j j j j j j j i r ",
"L i j k k k k k k k j j j j j j j j j j j j i r ",
"L i j M M M M M M M j j j j j j j j j j j j i r ",
"N i O O O O O O O O O O O O O O O O O O O O i K ",
"P Q R S T U V W X Y Z `  ...+.@.#.$.%.&.*.=.-.;.",
">.,.'.).!.!.~.~.{.].^././.].(.^././.].(._.'.'.:.",
"                                                "};
