/* XPM */
static const char * toggle16_xpm[] = {
"16 16 87 1",
" 	c None",
".	c #B6BEC7",
"+	c #A5ADB9",
"@	c #A3ABB8",
"#	c #A1AAB6",
"$	c #9FA8B5",
"%	c #9DA7B4",
"&	c #9CA5B3",
"*	c #9AA4B2",
"=	c #9DA6B3",
"-	c #9EA8B4",
";	c #A2ABB7",
">	c #A4ACB8",
",	c #A6AEBA",
"'	c #B2BAC4",
")	c #8791A0",
"!	c #BEC7D2",
"~	c #B6C0CD",
"{	c #AFBAC8",
"]	c #A8B4C4",
"^	c #A3AFBF",
"/	c #9DAABC",
"(	c #98A6B9",
"_	c #99A6B9",
":	c #9EAABC",
"<	c #A3AEBF",
"[	c #A7B3C3",
"}	c #B7C0CD",
"|	c #BFC7D2",
"1	c #C6CDD7",
"2	c #929DAB",
"3	c #9096A2",
"4	c #E2E1E1",
"5	c #E2E2E3",
"6	c #E4E4E4",
"7	c #E5E5E5",
"8	c #E7E7E6",
"9	c #E8E7E8",
"0	c #E9E9E9",
"a	c #EAEAEA",
"b	c #EBEBEB",
"c	c #ECECEB",
"d	c #ECECEC",
"e	c #ECEDEC",
"f	c #EDEDED",
"g	c #F1F1F0",
"h	c #9EA6AF",
"i	c #959CA7",
"j	c #FFFFFF",
"k	c #A0A9B3",
"l	c #949BA7",
"m	c #BEBFC0",
"n	c #BEC0C2",
"o	c #BCBEC0",
"p	c #BABCBF",
"q	c #B8BABE",
"r	c #B6B9BC",
"s	c #B4B7BC",
"t	c #B4B7BB",
"u	c #B5B8BC",
"v	c #B7BABD",
"w	c #B9BBBE",
"x	c #BABCC0",
"y	c #BCBEC1",
"z	c #BDBEC0",
"A	c #FEFEFE",
"B	c #A1AAB4",
"C	c #949BA6",
"D	c #FDFDFD",
"E	c #FBFBFC",
"F	c #FEFDFD",
"G	c #FBFBFB",
"H	c #9299A5",
"I	c #FBF9F9",
"J	c #F8F7F7",
"K	c #F7F7F7",
"L	c #F7F6F6",
"M	c #B4BBC4",
"N	c #A5ADB8",
"O	c #A2ABB6",
"P	c #A0A9B5",
"Q	c #9EA7B3",
"R	c #9BA4B2",
"S	c #9EA6B4",
"T	c #A2A9B6",
"U	c #A9AFBD",
"V	c #B0B8C2",
"                ",
".+@#$%&**&=-;>,'",
")!~{]^/(_:<[}|12",
"34567890abcdefgh",
"ijjjjjjjjjjjjjjk",
"ljjjjjjjjjjjjjjk",
"ljjjjjjjjjjjjjjk",
"ljjjjjjjjjjjjjjk",
"lmnopqrstuvwxyzk",
"ljAAAAjjjjjjjjjB",
"CjDDDDjjjjjjjjjk",
"CAEEEEjjjjjjjjjk",
"CFGGGGjjjjjjjjjk",
"HIJKLLjjjjjjjjjB",
"MNOPQ=RRS=RRSTUV",
"                "};
