/* XPM */
static char * trigger_xpm[] = {
"32 32 58 1",
" 	c None",
".	c #000000",
"+	c #E2E2E2",
"@	c #F2F2F2",
"#	c #F3F3F3",
"$	c #F4F4F4",
"%	c #F5F5F5",
"&	c #F6F6F6",
"*	c #F7F7F7",
"=	c #DBDBDB",
"-	c #F0F0F0",
";	c #E0E0E0",
">	c #E1E1E1",
",	c #E3E3E3",
"'	c #E4E4E4",
")	c #E5E5E5",
"!	c #E6E6E6",
"~	c #E7E7E7",
"{	c #E8E8E8",
"]	c #E9E9E9",
"^	c #EAEAEA",
"/	c #EBEBEB",
"(	c #ECECEC",
"_	c #EDEDED",
":	c #EEEEEE",
"<	c #EFEFEF",
"[	c #494066",
"}	c #314E6C",
"|	c #A2A2A2",
"1	c #A3A3A3",
"2	c #A4A4A4",
"3	c #A5A5A5",
"4	c #A6A6A6",
"5	c #A7A7A7",
"6	c #F1F1F1",
"7	c #A1A1A1",
"8	c #A8A8A8",
"9	c #A9A9A9",
"0	c #AAAAAA",
"a	c #ABABAB",
"b	c #ACACAC",
"c	c #ADADAD",
"d	c #F8F8F8",
"e	c #F9F9F9",
"f	c #FAFAFA",
"g	c #AEAEAE",
"h	c #FBFBFB",
"i	c #FCFCFC",
"j	c #FDFDFD",
"k	c #FEFEFE",
"l	c #FFFFFF",
"m	c #B0B0B0",
"n	c #B1B1B1",
"o	c #B2B2B2",
"p	c #D9D9D9",
"q	c #C9C9C9",
"r	c #DADADA",
"s	c #BDBDBD",
"                                ",
"                                ",
"                                ",
"                                ",
"     ....................       ",
"    .+@@@@###$$$%%%&&**$=.      ",
"    .-;;>+,')!~{{]^/(_:<,.      ",
"    .@>[[[}}}~|1222345<-~.      ",
"    .@+,,')!~{]^/((_:<-6{.      ",
"    .#,'})7||1223445586@].      ",
"    .#')}~~{]^/(_:<<-6@#^.      ",
"    .#)!}{112234558999#$/.      ",
"    .$!~}]^^/(_:<-6@##$%(.      ",
"    .$~{}^2334558990aa%&_.      ",
"    .%{]}/(_::<-6@#$%&**:.      ",
"    .%]^}(45588990aabcdd<.      ",
"    .%^/}_:<-6@@#$%&*def-.      ",
"    .&/(}:589@}$$abcggfh@.      ",
"    .*__}<-6@#}}%&*defhi#.      ",
"    .*:<}}}}}}}}}*}}}}ij$.      ",
"    .d-6@@#$%&}}efhhijkl%.      ",
"    .d6@0aaab*}efmmnnoll%.      ",
"    .@@#$%&&*defhijkllllp.      ",
"    .qr:/(_::<-6@#$%%%%'s.      ",
"     ....................       ",
"                                ",
"                                ",
"                                ",
"                                ",
"                                ",
"                                ",
"                                "};
