/* XPM */
static char * trigger_xpm[] = {
"16 16 11 1",
" 	c None",
".	c #000686",
"+	c #FFFFFF",
"@	c #F7F7F7",
"#	c #FFFBFF",
"$	c #E7E3E7",
"%	c #E7E7E7",
"&	c #EFEBEF",
"*	c #EFEFEF",
"=	c #889CC1",
"-	c #F7F3F7",
" .............  ",
".+@@@@@@@@####. ",
".+$$$%%%&&&&***.",
".+$...%======*-.",
".+$%%%&&&&***--.",
".+%%.&=======--.",
".+%%.&&&***---@.",
".+%&.&=======@@.",
".+&&.&***---@@@.",
".+&&.***-====@@.",
".+&&.**.--@@@@#.",
".+**.....@===##.",
".+**---.@@@###+.",
".+*---@@@@###+. ",
" .............  ",
"                "};
