/* XPM */
static const char * UDF_xpm[] = {
"16 16 139 2",
"  	c None",
". 	c #3D3D3D",
"+ 	c #3F3F3F",
"@ 	c #414141",
"# 	c #424242",
"$ 	c #434343",
"% 	c #313131",
"& 	c #373737",
"* 	c #3A3A3A",
"= 	c #3C3C3C",
"- 	c #3E3E3E",
"; 	c #454545",
"> 	c #484848",
", 	c #474747",
"' 	c #444444",
") 	c #343434",
"! 	c #323232",
"~ 	c #393939",
"{ 	c #464646",
"] 	c #494949",
"^ 	c #4E4E4E",
"/ 	c #565656",
"( 	c #545454",
"_ 	c #525252",
": 	c #4D4D4D",
"< 	c #303030",
"[ 	c #363636",
"} 	c #404040",
"| 	c #505050",
"1 	c #4C4C4C",
"2 	c #2D2D2D",
"3 	c #383838",
"4 	c #4A4A4A",
"5 	c #4B4B4B",
"6 	c #3C4040",
"7 	c #2B2B2B",
"8 	c #3A3F40",
"9 	c #A9442E",
"0 	c #6D382F",
"a 	c #282828",
"b 	c #2E2E2E",
"c 	c #333333",
"d 	c #343636",
"e 	c #363839",
"f 	c #3B3B3B",
"g 	c #383D3F",
"h 	c #B45137",
"i 	c #DE4C2B",
"j 	c #DB3E21",
"k 	c #C0341A",
"l 	c #262626",
"m 	c #292F30",
"n 	c #914B37",
"o 	c #98523D",
"p 	c #313637",
"q 	c #363A3C",
"r 	c #B55A3F",
"s 	c #E45C38",
"t 	c #DD4D2B",
"u 	c #CF3E21",
"v 	c #480F06",
"w 	c #242424",
"x 	c #232829",
"y 	c #AE462D",
"z 	c #E55C38",
"A 	c #ED6B42",
"B 	c #96553F",
"C 	c #2F3335",
"D 	c #353535",
"E 	c #2E3234",
"F 	c #B55F41",
"G 	c #E96740",
"H 	c #E15936",
"I 	c #D84B2A",
"J 	c #4D170D",
"K 	c #141414",
"L 	c #212121",
"M 	c #242727",
"N 	c #762313",
"O 	c #E35A36",
"P 	c #E5623D",
"Q 	c #EE6E44",
"R 	c #94543E",
"S 	c #262E30",
"T 	c #B35E40",
"U 	c #EA6B43",
"V 	c #E5603B",
"W 	c #DE5532",
"X 	c #5B1A0D",
"Y 	c #141617",
"Z 	c #161616",
"` 	c #101010",
" .	c #1E1E1E",
"..	c #0F0D0D",
"+.	c #852917",
"@.	c #E55C39",
"#.	c #E5613C",
"$.	c #EC6940",
"%.	c #CE603E",
"&.	c #E9673F",
"*.	c #E4603B",
"=.	c #E15937",
"-.	c #681E0F",
";.	c #0D0F0F",
">.	c #131313",
",.	c #0D0D0D",
"'.	c #1C1C1C",
").	c #202020",
"!.	c #1E1D1D",
"~.	c #0A0505",
"{.	c #922F1C",
"].	c #E45835",
"^.	c #E25B37",
"/.	c #E15935",
"(.	c #E15735",
"_.	c #722112",
":.	c #060707",
"<.	c #070707",
"[.	c #151515",
"}.	c #090100",
"|.	c #9B3420",
"1.	c #E04D2C",
"2.	c #DC4C2B",
"3.	c #DF4F2F",
"4.	c #782415",
"5.	c #010000",
"6.	c #111111",
"7.	c #080808",
"8.	c #000000",
"9.	c #020202",
"0.	c #050505",
"a.	c #160401",
"b.	c #A03523",
"c.	c #DF4527",
"d.	c #822818",
"e.	c #030000",
"f.	c #040404",
"g.	c #010101",
"h.	c #742215",
"    . + @ # # $ @               ",
"  % & * = - @ # ; > , ' # - )   ",
"  ! ~ + # { > ] ^ / ( _ : ] '   ",
"  < [ = } # ; { , _ | 1 ] ' +   ",
"  2 ) 3 . } @ $ # 4 5 > ' 6 *   ",
"  7 % [ * . + } } $ { $ 8 9 0   ",
"  a b c d e f = = = @ g h i j k ",
"  l 7 m n o p ~ ~ & q r s t u v ",
"  w x y z A B C D E F G H I J   ",
"K L M N O P Q R S T U V W X Y Z ",
"`  .w ..+.@.#.$.%.&.*.=.-.;.L >.",
",.'.).!.~.{.].H ^./.(._.:.). .` ",
"<.` >.[.` }.|.1.2.3.4.5.>.K 6.7.",
"  8.8.9.0.9.a.b.c.d.e.f.f.g.8.  ",
"                h.              ",
"                                "};
