/* XPM */
static const char * users_xpm[] = {
"16 16 140 2",
"  	c None",
". 	c #75A1E1",
"+ 	c #8DB1EB",
"@ 	c #87ADE9",
"# 	c #5B8DD1",
"$ 	c #8DB3EB",
"% 	c #CCDDF6",
"& 	c #D6E2F9",
"* 	c #D3E1F8",
"= 	c #C2D6F4",
"- 	c #6795DB",
"; 	c #73A1E1",
"> 	c #DBE7F9",
", 	c #CDDDF7",
"' 	c #C9DBF6",
") 	c #D0E0F7",
"! 	c #B9D0F3",
"~ 	c #3369B9",
"{ 	c #89AFE9",
"] 	c #D4E2F9",
"^ 	c #C8DAF7",
"/ 	c #C4D7F5",
"( 	c #BFD4F4",
"_ 	c #C5D8F4",
": 	c #5189D5",
"< 	c #81A9E9",
"[ 	c #D1DFF8",
"} 	c #C8D9F6",
"| 	c #C3D7F5",
"1 	c #BFD4F5",
"2 	c #BBD1F4",
"3 	c #C1D6F4",
"4 	c #4981D1",
"5 	c #5183CF",
"6 	c #BFD5F3",
"7 	c #CFDFF7",
"8 	c #BCD2F4",
"9 	c #B7CFF4",
"0 	c #C5D8F5",
"a 	c #AAC7F0",
"b 	c #0947A5",
"c 	c #5B8DD5",
"d 	c #C1D6F5",
"e 	c #B3CCF2",
"f 	c #AEC9F1",
"g 	c #B9D1F3",
"h 	c #336DC1",
"i 	c #00116D",
"j 	c #6D9BDD",
"k 	c #A3B8DE",
"l 	c #A1BAE0",
"m 	c #88ACE4",
"n 	c #84A8E2",
"o 	c #94AFD8",
"p 	c #98ADD2",
"q 	c #3F75C3",
"r 	c #6B99DB",
"s 	c #C4D8F4",
"t 	c #D7E4F8",
"u 	c #CCDEF7",
"v 	c #CBDCF6",
"w 	c #C6D8F5",
"x 	c #BBD0F1",
"y 	c #C1D5EF",
"z 	c #ADC6E8",
"A 	c #235DB7",
"B 	c #3D75C7",
"C 	c #B6CEF1",
"D 	c #D5E2F7",
"E 	c #C2D6F5",
"F 	c #CCDDF7",
"G 	c #CBDCF7",
"H 	c #B5CCF0",
"I 	c #9EBBE8",
"J 	c #B4CBEB",
"K 	c #88A9DB",
"L 	c #00298F",
"M 	c #618FD9",
"N 	c #C5D9F3",
"O 	c #BFD2F2",
"P 	c #C2D5F4",
"Q 	c #CADCF6",
"R 	c #C9DAF6",
"S 	c #C0D5F4",
"T 	c #B3CBEF",
"U 	c #9DBAE9",
"V 	c #8FADE1",
"W 	c #A2BCE3",
"X 	c #053FA7",
"Y 	c #6D9BE1",
"Z 	c #CBDAF5",
"` 	c #A3BBE9",
" .	c #C0D4F4",
"..	c #C7D9F6",
"+.	c #BBD1F3",
"@.	c #AFC7EF",
"#.	c #9BB8E9",
"$.	c #81A0DD",
"%.	c #A8BFE6",
"&.	c #0B47B1",
"*.	c #6795DD",
"=.	c #C6D9F5",
"-.	c #A5BDEA",
";.	c #BDD2F3",
">.	c #BFD3F4",
",.	c #B4CCF1",
"'.	c #AAC5ED",
").	c #99B8EA",
"!.	c #7FA0DE",
"~.	c #A6C0E8",
"{.	c #0945B1",
"].	c #4579CF",
"^.	c #A3BFEB",
"/.	c #B1C6EB",
"(.	c #C0D5F3",
"_.	c #B9D0F2",
":.	c #ADC7EF",
"<.	c #A6C2ED",
"[.	c #9EBBEA",
"}.	c #9DB5E3",
"|.	c #759FDD",
"1.	c #0033A1",
"2.	c #0B57C9",
"3.	c #6991D9",
"4.	c #BCD0F2",
"5.	c #C5D7F4",
"6.	c #C2D6F2",
"7.	c #B8CEF0",
"8.	c #ACC6ED",
"9.	c #9CBAE9",
"0.	c #4874CC",
"a.	c #054BC1",
"b.	c #1B57BB",
"c.	c #336DCB",
"d.	c #477BD1",
"e.	c #3F77D1",
"f.	c #2565C7",
"g.	c #0B51C1",
"h.	c #0035B3",
"i.	c #0029A9",
"            . + @ #             ",
"          $ % & * = -           ",
"        ; % > , ' ) ! ~         ",
"        { ] , ^ / ( _ :         ",
"        < [ } | 1 2 3 4         ",
"        5 6 7 8 9 0 a b         ",
"          c d e f g h i         ",
"        j k l m n o p q         ",
"      r s t u v w x y z A       ",
"    B C D E F G / H I J K L     ",
"    M N O P Q R S T U V W X     ",
"    Y Z `  ...0 +.@.#.$.%.&.    ",
"    *.=.-.;.| >.,.'.).!.~.{.    ",
"    ].^./.;.(._.:.<.[.}.|.1.    ",
"      2.3.4.5.6.7.8.9.0.a.      ",
"        b.c.d.e.f.g.h.i.        "};
