/* XPM */
static const char * views_xpm[] = {
"16 16 152 2",
"  	c None",
". 	c #A2C1EF",
"+ 	c #9FC0ED",
"@ 	c #9DBEEB",
"# 	c #9ABCEB",
"$ 	c #96BAE9",
"% 	c #93B7E7",
"& 	c #90B5E6",
"* 	c #8CB2E4",
"= 	c #88AFE2",
"- 	c #84ACE0",
"; 	c #80A9DD",
"> 	c #7DA5DC",
", 	c #7AA3DA",
"' 	c #A1C1EE",
") 	c #F4F7FB",
"! 	c #74A0D7",
"~ 	c #9EBFEC",
"{ 	c #A5D59C",
"] 	c #A1D398",
"^ 	c #9DD094",
"/ 	c #98CE90",
"( 	c #93CB8B",
"_ 	c #8EC987",
": 	c #89C682",
"< 	c #84C37E",
"[ 	c #80C17A",
"} 	c #7CBE76",
"| 	c #6F9BD4",
"1 	c #9BBDEB",
"2 	c #FFFFFF",
"3 	c #6A97D1",
"4 	c #98BAE9",
"5 	c #A6C3E9",
"6 	c #6493CE",
"7 	c #94B7E7",
"8 	c #A9C4E8",
"9 	c #ACC7E8",
"0 	c #EBF1F7",
"a 	c #5F8FCB",
"b 	c #8FB4E5",
"c 	c #F2F6FA",
"d 	c #AAC6E9",
"e 	c #ACC6E9",
"f 	c #ACC7EA",
"g 	c #ADC7E9",
"h 	c #AEC9E9",
"i 	c #ABC3E1",
"j 	c #646E77",
"k 	c #666D75",
"l 	c #D1D5D9",
"m 	c #5F676F",
"n 	c #62666B",
"o 	c #598AC8",
"p 	c #8CB1E3",
"q 	c #F1F6FA",
"r 	c #AEC9EA",
"s 	c #B0C9EA",
"t 	c #F5F6F6",
"u 	c #B7BEC5",
"v 	c #838F9C",
"w 	c #484C52",
"x 	c #C4C6C9",
"y 	c #474D54",
"z 	c #7B8690",
"A 	c #939698",
"B 	c #87AEE1",
"C 	c #F0F4FA",
"D 	c #B2CBEA",
"E 	c #B3CCEA",
"F 	c #ACC4E0",
"G 	c #5A636C",
"H 	c #6F7885",
"I 	c #3B414A",
"J 	c #7D8895",
"K 	c #404A56",
"L 	c #748392",
"M 	c #40474F",
"N 	c #82AADF",
"O 	c #EFF3F9",
"P 	c #B7CEEA",
"Q 	c #BBD0EB",
"R 	c #95979A",
"S 	c #4D545B",
"T 	c #90A0B0",
"U 	c #515D69",
"V 	c #657486",
"W 	c #4E5863",
"X 	c #8898AA",
"Y 	c #4A515A",
"Z 	c #828384",
"` 	c #7EA8DD",
" .	c #BAD0EB",
"..	c #5C656E",
"+.	c #586169",
"@.	c #484F56",
"#.	c #484A4D",
"$.	c #8A8A8B",
"%.	c #393C40",
"&.	c #3C4246",
"*.	c #33383D",
"=.	c #2A2B2C",
"-.	c #7AA4D9",
";.	c #EEF3F9",
">.	c #BED2EB",
",.	c #BFD3EB",
"'.	c #677078",
").	c #AFB9C4",
"!.	c #8D9AA7",
"~.	c #787C80",
"{.	c #D3D4D4",
"].	c #5E646C",
"^.	c #A4AFBB",
"/.	c #8B98A6",
"(.	c #4F5153",
"_.	c #75A1D7",
":.	c #EDF2F8",
"<.	c #EAF0F7",
"[.	c #E6EDF6",
"}.	c #E2EAF4",
"|.	c #DEE7F3",
"1.	c #5F6871",
"2.	c #ABB6C1",
"3.	c #667079",
"4.	c #595D62",
"5.	c #B7B8B8",
"6.	c #5D666E",
"7.	c #A5B1BD",
"8.	c #6A747E",
"9.	c #2E3033",
"0.	c #729ED6",
"a.	c #6E99D3",
"b.	c #6896D1",
"c.	c #6392CE",
"d.	c #5E8ECB",
"e.	c #5B8AC9",
"f.	c #545B63",
"g.	c #5E6770",
"h.	c #3B4045",
"i.	c #ABABAC",
"j.	c #4E555C",
"k.	c #7F8A96",
"l.	c #565E66",
"m.	c #18191B",
"n.	c #383D42",
"o.	c #3C4248",
"p.	c #2C3135",
"q.	c #555759",
"r.	c #393B3D",
"s.	c #3D3F42",
"t.	c #343637",
"u.	c #3B3C3C",
"                                ",
"    . + @ # $ % & * = - ; > ,   ",
"  ' ) ) ) ) ) ) ) ) ) ) ) ) !   ",
"  ~ ) { ] ^ / ( _ : < [ } ) |   ",
"  1 ) 2 2 2 2 2 2 2 2 2 2 ) 3   ",
"  4 ) 5 5 5 5 5 5 5 5 5 5 ) 6   ",
"  7 ) 5 2 8 2 2 2 9 2 2 2 0 a   ",
"  b c d e f g h i j k l m n o   ",
"  p q r 2 s 2 t u v w x y z A   ",
"  B C D E E E F G H I J K L M   ",
"  N O P 2 Q 2 R S T U V W X Y Z ",
"  ` O  .Q Q Q ..+.@.#.$.%.&.*.=.",
"  -.;.>.2 ,.2 '.).!.~.{.].^./.(.",
"  _.:.<.[.}.|.1.2.3.4.5.6.7.8.9.",
"  0.a.b.c.d.e.f.!.g.h.i.j.k.l.m.",
"              n.o.p.q.  r.s.t.u."};
