/* XPM */
static char * view_xpm[] = {
"32 32 250 2",
"  	c None",
". 	c #000686",
"+ 	c #5559AE",
"@ 	c #7F82C2",
"# 	c #777ABA",
"$ 	c #7073B3",
"% 	c #5A62AB",
"& 	c #4451A4",
"* 	c #2D389A",
"= 	c #FEFEFE",
"- 	c #FDFDFD",
"; 	c #EFEFEF",
"> 	c #E0E0E0",
", 	c #B4BED1",
"' 	c #889CC1",
") 	c #FBFBFB",
"! 	c #F8F8F8",
"~ 	c #F7F7F7",
"{ 	c #E4E4E4",
"] 	c #D2D2D2",
"^ 	c #ADB7C9",
"/ 	c #7F8BBD",
"( 	c #7679B9",
"_ 	c #4F53A8",
": 	c #F1F1F1",
"< 	c #DADADA",
"[ 	c #C3C3C3",
"} 	c #A6B0C2",
"| 	c #BAC4D7",
"1 	c #ECECEC",
"2 	c #D5D5D5",
"3 	c #B8B8B8",
"4 	c #7E85AE",
"5 	c #5D65AE",
"6 	c #3B40A0",
"7 	c #CFCFCF",
"8 	c #ADADAD",
"9 	c #575A9A",
"0 	c #7376B6",
"a 	c #E6E6E6",
"b 	c #DDDDDD",
"c 	c #D3D3D3",
"d 	c #D4D4D4",
"e 	c #D6D6D6",
"f 	c #CECECE",
"g 	c #C8C8C8",
"h 	c #9FA0C0",
"i 	c #222C95",
"j 	c #676AAA",
"k 	c #C2C2C2",
"l 	c #B5B5B5",
"m 	c #BABABA",
"n 	c #B9B9B9",
"o 	c #E2E2E2",
"p 	c #E7E7E7",
"q 	c #5C5F9F",
"r 	c #8A8BAB",
"s 	c #5B5E9E",
"t 	c #5D60A0",
"u 	c #9799B9",
"v 	c #EDEDED",
"w 	c #D4D9E2",
"x 	c #BBC5D8",
"y 	c #AEB8CB",
"z 	c #A2ACBE",
"A 	c #5159A2",
"B 	c #525595",
"C 	c #A3A3A3",
"D 	c #6164A4",
"E 	c #D8D8D8",
"F 	c #EEEEEE",
"G 	c #BBBBBB",
"H 	c #5E61A1",
"I 	c #292D8D",
"J 	c #565999",
"K 	c #374186",
"L 	c #13236F",
"M 	c #12226D",
"N 	c #12216C",
"O 	c #13236E",
"P 	c #172671",
"Q 	c #1C2A75",
"R 	c #263179",
"S 	c #30397E",
"T 	c #494E91",
"U 	c #9C9EBE",
"V 	c #B6B6B6",
"W 	c #6E7B87",
"X 	c #264057",
"Y 	c #253E54",
"Z 	c #233B51",
"` 	c #243D54",
" .	c #253F56",
"..	c #2E475D",
"+.	c #374E63",
"@.	c #4C5D6D",
"#.	c #606B76",
"$.	c #C1C1C1",
"%.	c #D7D7D7",
"&.	c #333797",
"*.	c #6568A8",
"=.	c #6D759C",
"-.	c #75838F",
";.	c #7E8B97",
">.	c #87949F",
",.	c #8C98A4",
"'.	c #919DA8",
").	c #525E6A",
"!.	c #13202B",
"~.	c #233749",
"{.	c #344E68",
"].	c #485E73",
"^.	c #5D6E7F",
"/.	c #5C668E",
"(.	c #9B9CBC",
"_.	c #CACACA",
":.	c #7F8D99",
"<.	c #334F68",
"[.	c #8D9BA8",
"}.	c #F3F3F3",
"|.	c #FFFFFF",
"1.	c #808080",
"2.	c #000000",
"3.	c #192736",
"4.	c #314E6C",
"5.	c #45607A",
"6.	c #597187",
"7.	c #88949F",
"8.	c #5F62A2",
"9.	c #BEBEBE",
"0.	c #BDBDBD",
"a.	c #4A4EA4",
"b.	c #A8A9C9",
"c.	c #8B99A7",
"d.	c #37536E",
"e.	c #95A3B0",
"f.	c #F9F9F9",
"g.	c #435D78",
"h.	c #556D84",
"i.	c #909CA8",
"j.	c #CCCCCC",
"k.	c #8E8FAF",
"l.	c #505393",
"m.	c #585B9B",
"n.	c #8D8FAF",
"o.	c #DFDFDF",
"p.	c #EAEAEA",
"q.	c #F5F5F5",
"r.	c #98A6B4",
"s.	c #3B5673",
"t.	c #9DABB9",
"u.	c #415B77",
"v.	c #506881",
"w.	c #99A5B1",
"x.	c #E1E1E1",
"y.	c #A0A0A0",
"z.	c #B1B3D3",
"A.	c #A8B3BF",
"B.	c #5E748B",
"C.	c #7B8DA0",
"D.	c #98A7B6",
"E.	c #586776",
"F.	c #2C4055",
"G.	c #3F5A75",
"H.	c #506780",
"I.	c #60758C",
"J.	c #9FAAB5",
"K.	c #6F72B2",
"L.	c #9596B6",
"M.	c #787BBB",
"N.	c #F0F0F0",
"O.	c #B8C1CA",
"P.	c #8091A3",
"Q.	c #597088",
"R.	c #4D657D",
"S.	c #5F748A",
"T.	c #708296",
"U.	c #A6AFB9",
"V.	c #DCDCDC",
"W.	c #6E71B1",
"X.	c #3B3E7E",
"Y.	c #595C9C",
"Z.	c #979DC1",
"`.	c #B6BEC7",
" +	c #8696A7",
".+	c #576E86",
"++	c #46607B",
"@+	c #36526F",
"#+	c #475F79",
"$+	c #586D84",
"%+	c #78889A",
"&+	c #99A3B0",
"*+	c #838AB0",
"=+	c #6A6EAE",
"-+	c #676AAC",
";+	c #A5A7C8",
">+	c #D0D0D0",
",+	c #757575",
"'+	c #EBEBEB",
")+	c #B4BDC6",
"!+	c #7D8EA0",
"~+	c #5C7289",
"{+	c #3A5572",
"]+	c #4E657E",
"^+	c #62748A",
"/+	c #929CAA",
"(+	c #C1C4C9",
"_+	c #6165A8",
":+	c #CDCED1",
"<+	c #DCDDDE",
"[+	c #666666",
"}+	c #6C6D8D",
"|+	c #7275B5",
"1+	c #7477B7",
"2+	c #5A61A6",
"3+	c #3F4A93",
"4+	c #2E3C88",
"5+	c #1D2E7C",
"6+	c #273582",
"7+	c #313D88",
"8+	c #495198",
"9+	c #6266A7",
"0+	c #6467A7",
"a+	c #A0A1C2",
"b+	c #DCDCDE",
"c+	c #E2E2E3",
"d+	c #E8E8E8",
"e+	c #575757",
"f+	c #9D9D9D",
"g+	c #E3E3E3",
"h+	c #C7C7C7",
"i+	c #D9D9D9",
"j+	c #E5E5E5",
"k+	c #2C2F6F",
"l+	c #B6B7D7",
"m+	c #7B7EBE",
"n+	c #7A7DBD",
"o+	c #797CBC",
"p+	c #A8AACA",
"q+	c #FAFAFA",
"r+	c #F6F6F6",
"s+	c #F4F4F4",
"t+	c #F2F2F2",
"u+	c #D1D1D1",
"v+	c #AEAEAE",
"w+	c #C0C0C0",
"x+	c #BCBCBC",
"y+	c #41459A",
"z+	c #6063A3",
"A+	c #35398F",
"            . . . . . . . . . . . . . . . . . . .               ",
"            . . . . . . . . . . . . . . . . . . .               ",
"          . + @ @ @ @ @ @ @ @ @ @ @ @ @ # $ % & * .             ",
"        . . @ = = = = = = = = = = = = - ; > , ' & . .           ",
"        . . @ = ) ! ! ! ! ! ! ! ! ! ~ ~ { ] ^ ' / ( _ .         ",
"        . . @ = ! : : : : : : : : : : : < [ } ' | 1 ( . .       ",
"        . . @ = ! : : : : : : : : : : : 2 3 4 & 5 ( 6 . . .     ",
"        . . @ = ! : : : : : : : : : : : 7 8 9 . . . . . . . .   ",
"        . . 0 a b c d e e e e e e e 2 2 f g h ( 5 & & & i . .   ",
"        . . j f k l 3 m m m m m m m m n f o p 1 | ' ' ' & . .   ",
"        . . q n r s q t t t t t t t t t u ] > v w x y z A . .   ",
"        . . B C B . . . . . . . . . . . D k E F F F 2 G H . .   ",
"        . . I B J s K L M N M O P Q R S T D U E o v d G H . .   ",
"        . . . . s V W X Y Z `  ...+.@.#.S . D $.%.1 d G H . .   ",
"        . . &.*.=.-.;.>.,.'.).!.~.{.].^./.s H D (.2 g G H . .   ",
"        . . *._.:.<.[.p }.|.1.2.3.4.5.6.7.V s . 8.9.0.G H . .   ",
"      . a.$ b.> c.d.e.}.f.|.1.2.3.4.g.h.i.j.k.l.m.8.n.G H . .   ",
"    . . $ o.p.q.r.s.t.|.|.|.1.2.3.4.u.v.w.x.$.y.l.. H G H . .   ",
"      . a.$ z.}.A.B.C.D.D.D.E.3.F.G.H.I.J.o.u l.8.K.L.G H . .   ",
"        . . M.N.O.P.Q.4.4.4.4.4.G.R.S.T.U.V.W.. K.b j.G H . .   ",
"        X.X.Y.M.Z.`. +.+++@+@+@+#+$+%+&+*+W.=+-+;+{ >+G H . .   ",
"        ,+,+X.. ( '+)+!+~+{+{+{+]+^+/+(+_+. -+:+<+'+c G H . .   ",
"        [+[+}+|+1+( 2+3+4+5+5+5+6+7+8+_+9+0+a+b+c+d+] G H . .   ",
"        e+e+f+g+|+. . . . . . . . . . . 0+h+i+p.d+j+>+G H . .   ",
"        k+k+k.N.l+m+m+n+n+n+n+m+n+n+n+o+p+%.o.p a j+>+G H . .   ",
"        . . @ - q+r+q.s+s+s+q.q.q.s+}.t+v p a { { { >+G H . .   ",
"        . . @ - r+F v v v v v v v 1 1 '+d+j+{ { { { 7 G H . .   ",
"        . . @ - t+a a j+j+j+j+j+j+{ { { { g+g+g+g+g+7 G H . .   ",
"        . . $ > i+] u+u+u+u+u+u+>+>+>+>+7 7 7 7 7 7 9.v+9 . .   ",
"        . . D k w+0.0.0.0.0.0.x+x+x+x+G G G G G G G v+y.l.. .   ",
"          . y+D z+8.8.8.8.8.H H H H H H H H H H H H 9 l.A+.     ",
"            . . . . . . . . . . . . . . . . . . . . . . .       "};
