/* XPM */
static char * view_xpm[] = {
"16 16 65 1",
" 	c None",
".	c #000686",
"+	c #FEFEFE",
"@	c #FDFDFD",
"#	c #E0E0E0",
"$	c #889CC1",
"%	c #F1F1F1",
"&	c #C3C3C3",
"*	c #ECECEC",
"=	c #ADADAD",
"-	c #CECECE",
";	c #B5B5B5",
">	c #BABABA",
",	c #B9B9B9",
"'	c #E2E2E2",
")	c #A3A3A3",
"!	c #C2C2C2",
"~	c #EEEEEE",
"{	c #BBBBBB",
"]	c #B6B6B6",
"^	c #264057",
"/	c #233B51",
"(	c #253F56",
"_	c #374E63",
":	c #606B76",
"<	c #C1C1C1",
"[	c #CACACA",
"}	c #334F68",
"|	c #E7E7E7",
"1	c #FFFFFF",
"2	c #000000",
"3	c #314E6C",
"4	c #597187",
"5	c #BEBEBE",
"6	c #DFDFDF",
"7	c #F5F5F5",
"8	c #3B5673",
"9	c #506881",
"0	c #E1E1E1",
"a	c #A0A0A0",
"b	c #F0F0F0",
"c	c #8091A3",
"d	c #4D657D",
"e	c #708296",
"f	c #DCDCDC",
"g	c #DDDDDD",
"h	c #757575",
"i	c #EBEBEB",
"j	c #7D8EA0",
"k	c #3A5572",
"l	c #62748A",
"m	c #C1C4C9",
"n	c #CDCED1",
"o	c #575757",
"p	c #E3E3E3",
"q	c #C7C7C7",
"r	c #EAEAEA",
"s	c #E5E5E5",
"t	c #F6F6F6",
"u	c #F4F4F4",
"v	c #F2F2F2",
"w	c #E4E4E4",
"x	c #E6E6E6",
"y	c #BDBDBD",
"z	c #BCBCBC",
"   .........    ",
"  .++++++@#$.   ",
"  .+%%%%%%&$*.  ",
"  .+%%%%%%=.... ",
"  .-;>>>>,'*$$. ",
"  .)......!~~{. ",
"  ..]^/(_:.<*{. ",
"  .[}|1234].5{. ",
" .678112390a.{. ",
"  .bc333def.g{. ",
"  h.ijkklm.ni{. ",
"  op......qrs{. ",
"  .@tuu7uv|ww{. ",
"  .@xssswwppp{. ",
"  .!yyyzz{{{{a. ",
"   ...........  "};
