<svg width="16" height="16" viewBox="0 0 32 32" fill="none" xmlns="http://www.w3.org/2000/svg" shape-rendering="crispEdges">
  <rect x="0" y="0" width="1" height="1" fill="#141414" />
  <rect x="1" y="0" width="1" height="1" fill="#3B3B3B" />
  <rect x="2" y="0" width="17" height="1" fill="#404040" />
  <rect x="19" y="0" width="1" height="1" fill="#545454" />
  <rect x="20" y="0" width="1" height="1" fill="#555555" />
  <rect x="0" y="1" width="1" height="1" fill="#3B3B3B" />
  <rect x="1" y="1" width="1" height="1" fill="#F6F6F6" />
  <rect x="2" y="1" width="17" height="1" fill="#FFFFFF" />
  <rect x="19" y="1" width="1" height="1" fill="#FAFAFA" />
  <rect x="20" y="1" width="1" height="1" fill="#D6D6D6" />
  <rect x="21" y="1" width="1" height="1" fill="#878787" />
  <rect x="22" y="1" width="1" height="1" fill="#242424" />
  <rect x="0" y="2" width="1" height="1" fill="#404040" />
  <rect x="1" y="2" width="11" height="1" fill="#FFFFFF" />
  <rect x="12" y="2" width="7" height="1" fill="#FEFEFE" />
  <rect x="19" y="2" width="1" height="1" fill="#FAFAFA" />
  <rect x="20" y="2" width="1" height="1" fill="#E6E6E6" />
  <rect x="21" y="2" width="1" height="1" fill="#F0F0F0" />
  <rect x="22" y="2" width="1" height="1" fill="#A0A0A0" />
  <rect x="23" y="2" width="1" height="1" fill="#000000" />
  <rect x="0" y="3" width="1" height="1" fill="#404040" />
  <rect x="1" y="3" width="9" height="1" fill="#FFFFFF" />
  <rect x="10" y="3" width="9" height="1" fill="#FEFEFE" />
  <rect x="19" y="3" width="1" height="1" fill="#F8F8F8" />
  <rect x="20" y="3" width="1" height="1" fill="#D8D8D8" />
  <rect x="21" y="3" width="1" height="1" fill="#FFFFFF" />
  <rect x="22" y="3" width="1" height="1" fill="#F5F5F5" />
  <rect x="23" y="3" width="1" height="1" fill="#979797" />
  <rect x="24" y="3" width="1" height="1" fill="#252525" />
  <rect x="0" y="4" width="1" height="1" fill="#404040" />
  <rect x="1" y="4" width="7" height="1" fill="#FFFFFF" />
  <rect x="8" y="4" width="9" height="1" fill="#FEFEFE" />
  <rect x="17" y="4" width="2" height="1" fill="#FDFDFD" />
  <rect x="19" y="4" width="1" height="1" fill="#F7F7F7" />
  <rect x="20" y="4" width="1" height="1" fill="#C9C9C9" />
  <rect x="21" y="4" width="2" height="1" fill="#FDFDFD" />
  <rect x="23" y="4" width="1" height="1" fill="#E0E0E0" />
  <rect x="24" y="4" width="1" height="1" fill="#888888" />
  <rect x="25" y="4" width="1" height="1" fill="#212121" />
  <rect x="0" y="5" width="1" height="1" fill="#404040" />
  <rect x="1" y="5" width="6" height="1" fill="#FFFFFF" />
  <rect x="7" y="5" width="1" height="1" fill="#F2F2F2" />
  <rect x="8" y="5" width="1" height="1" fill="#BEBEBE" />
  <rect x="9" y="5" width="1" height="1" fill="#767676" />
  <rect x="10" y="5" width="1" height="1" fill="#5F5F5F" />
  <rect x="11" y="5" width="1" height="1" fill="#0A0A0A" />
  <rect x="12" y="5" width="2" height="1" fill="#010101" />
  <rect x="14" y="5" width="1" height="1" fill="#090909" />
  <rect x="15" y="5" width="1" height="1" fill="#555555" />
  <rect x="16" y="5" width="1" height="1" fill="#6E6E6E" />
  <rect x="17" y="5" width="1" height="1" fill="#B4B4B4" />
  <rect x="18" y="5" width="1" height="1" fill="#E7E7E7" />
  <rect x="19" y="5" width="1" height="1" fill="#F6F6F6" />
  <rect x="20" y="5" width="1" height="1" fill="#BFBFBF" />
  <rect x="21" y="5" width="1" height="1" fill="#E1E1E1" />
  <rect x="22" y="5" width="1" height="1" fill="#D6D6D6" />
  <rect x="23" y="5" width="1" height="1" fill="#C8C8C8" />
  <rect x="24" y="5" width="1" height="1" fill="#C2C2C2" />
  <rect x="25" y="5" width="1" height="1" fill="#8E8E8E" />
  <rect x="0" y="6" width="1" height="1" fill="#404040" />
  <rect x="1" y="6" width="4" height="1" fill="#FFFFFF" />
  <rect x="5" y="6" width="1" height="1" fill="#FDFDFD" />
  <rect x="6" y="6" width="1" height="1" fill="#B1B1B1" />
  <rect x="7" y="6" width="1" height="1" fill="#2B2B2B" />
  <rect x="8" y="6" width="1" height="1" fill="#4E4E4E" />
  <rect x="9" y="6" width="1" height="1" fill="#757575" />
  <rect x="10" y="6" width="1" height="1" fill="#8C8C8C" />
  <rect x="11" y="6" width="1" height="1" fill="#959595" />
  <rect x="12" y="6" width="1" height="1" fill="#929292" />
  <rect x="13" y="6" width="1" height="1" fill="#8F8F8F" />
  <rect x="14" y="6" width="1" height="1" fill="#8A8A8A" />
  <rect x="15" y="6" width="1" height="1" fill="#7F7F7F" />
  <rect x="16" y="6" width="1" height="1" fill="#626262" />
  <rect x="17" y="6" width="1" height="1" fill="#434343" />
  <rect x="18" y="6" width="1" height="1" fill="#272727" />
  <rect x="19" y="6" width="1" height="1" fill="#9B9B9B" />
  <rect x="20" y="6" width="1" height="1" fill="#A7A7A7" />
  <rect x="21" y="6" width="1" height="1" fill="#666666" />
  <rect x="22" y="6" width="1" height="1" fill="#5D5D5D" />
  <rect x="23" y="6" width="1" height="1" fill="#565656" />
  <rect x="24" y="6" width="1" height="1" fill="#5A5A5A" />
  <rect x="25" y="6" width="1" height="1" fill="#848484" />
  <rect x="26" y="6" width="1" height="1" fill="#000000" />
  <rect x="0" y="7" width="1" height="1" fill="#404040" />
  <rect x="1" y="7" width="3" height="1" fill="#FFFFFF" />
  <rect x="4" y="7" width="1" height="1" fill="#FDFDFD" />
  <rect x="5" y="7" width="1" height="1" fill="#858585" />
  <rect x="6" y="7" width="1" height="1" fill="#000000" />
  <rect x="7" y="7" width="1" height="1" fill="#787878" />
  <rect x="8" y="7" width="1" height="1" fill="#A0A0A0" />
  <rect x="9" y="7" width="1" height="1" fill="#9D9D9D" />
  <rect x="10" y="7" width="1" height="1" fill="#999999" />
  <rect x="11" y="7" width="1" height="1" fill="#949494" />
  <rect x="12" y="7" width="1" height="1" fill="#909090" />
  <rect x="13" y="7" width="1" height="1" fill="#8D8D8D" />
  <rect x="14" y="7" width="1" height="1" fill="#898989" />
  <rect x="15" y="7" width="1" height="1" fill="#858585" />
  <rect x="16" y="7" width="1" height="1" fill="#818181" />
  <rect x="17" y="7" width="1" height="1" fill="#7D7D7D" />
  <rect x="18" y="7" width="1" height="1" fill="#5C5C5C" />
  <rect x="19" y="7" width="1" height="1" fill="#000000" />
  <rect x="20" y="7" width="1" height="1" fill="#686868" />
  <rect x="21" y="7" width="1" height="1" fill="#D2D2D2" />
  <rect x="22" y="7" width="1" height="1" fill="#C7C7C6" />
  <rect x="23" y="7" width="1" height="1" fill="#A6A6A6" />
  <rect x="24" y="7" width="1" height="1" fill="#9A9A9A" />
  <rect x="25" y="7" width="1" height="1" fill="#6C6C6C" />
  <rect x="26" y="7" width="1" height="1" fill="#000000" />
  <rect x="0" y="8" width="1" height="1" fill="#404040" />
  <rect x="1" y="8" width="1" height="1" fill="#FFFFFF" />
  <rect x="2" y="8" width="2" height="1" fill="#FAFAFA" />
  <rect x="4" y="8" width="1" height="1" fill="#BBBBBB" />
  <rect x="5" y="8" width="1" height="1" fill="#000000" />
  <rect x="6" y="8" width="1" height="1" fill="#949494" />
  <rect x="7" y="8" width="1" height="1" fill="#A4A4A4" />
  <rect x="8" y="8" width="1" height="1" fill="#9F9F9F" />
  <rect x="9" y="8" width="1" height="1" fill="#9B9B9B" />
  <rect x="10" y="8" width="1" height="1" fill="#979797" />
  <rect x="11" y="8" width="1" height="1" fill="#929292" />
  <rect x="12" y="8" width="1" height="1" fill="#8F8F8F" />
  <rect x="13" y="8" width="1" height="1" fill="#8B8B8B" />
  <rect x="14" y="8" width="1" height="1" fill="#878787" />
  <rect x="15" y="8" width="1" height="1" fill="#838383" />
  <rect x="16" y="8" width="1" height="1" fill="#808080" />
  <rect x="17" y="8" width="1" height="1" fill="#7C7C7C" />
  <rect x="18" y="8" width="1" height="1" fill="#787878" />
  <rect x="19" y="8" width="1" height="1" fill="#676767" />
  <rect x="20" y="8" width="1" height="1" fill="#000000" />
  <rect x="21" y="8" width="1" height="1" fill="#AFAFAF" />
  <rect x="22" y="8" width="3" height="1" fill="#FAFAFA" />
  <rect x="25" y="8" width="1" height="1" fill="#AEAEAE" />
  <rect x="26" y="8" width="1" height="1" fill="#000000" />
  <rect x="0" y="9" width="1" height="1" fill="#404040" />
  <rect x="1" y="9" width="1" height="1" fill="#FFFFFF" />
  <rect x="2" y="9" width="2" height="1" fill="#FAFAFA" />
  <rect x="4" y="9" width="1" height="1" fill="#585858" />
  <rect x="5" y="9" width="1" height="1" fill="#717171" />
  <rect x="6" y="9" width="1" height="1" fill="#A7A7A7" />
  <rect x="7" y="9" width="1" height="1" fill="#A2A2A2" />
  <rect x="8" y="9" width="1" height="1" fill="#9D9D9D" />
  <rect x="9" y="9" width="1" height="1" fill="#999999" />
  <rect x="10" y="9" width="1" height="1" fill="#949494" />
  <rect x="11" y="9" width="1" height="1" fill="#909090" />
  <rect x="12" y="9" width="1" height="1" fill="#8D8D8D" />
  <rect x="13" y="9" width="1" height="1" fill="#898989" />
  <rect x="14" y="9" width="1" height="1" fill="#858585" />
  <rect x="15" y="9" width="1" height="1" fill="#818181" />
  <rect x="16" y="9" width="1" height="1" fill="#7E7E7E" />
  <rect x="17" y="9" width="1" height="1" fill="#7A7A7A" />
  <rect x="18" y="9" width="1" height="1" fill="#777777" />
  <rect x="19" y="9" width="1" height="1" fill="#737373" />
  <rect x="20" y="9" width="1" height="1" fill="#4E4E4E" />
  <rect x="21" y="9" width="1" height="1" fill="#5F5F5F" />
  <rect x="22" y="9" width="3" height="1" fill="#FAFAFA" />
  <rect x="25" y="9" width="1" height="1" fill="#C2C2C2" />
  <rect x="26" y="9" width="1" height="1" fill="#000000" />
  <rect x="0" y="10" width="1" height="1" fill="#404040" />
  <rect x="1" y="10" width="1" height="1" fill="#FEFEFE" />
  <rect x="2" y="10" width="2" height="1" fill="#F9F9F9" />
  <rect x="4" y="10" width="1" height="1" fill="#040404" />
  <rect x="5" y="10" width="1" height="1" fill="#A3A3A3" />
  <rect x="6" y="10" width="1" height="1" fill="#A4A4A4" />
  <rect x="7" y="10" width="1" height="1" fill="#9F9F9F" />
  <rect x="8" y="10" width="1" height="1" fill="#9B9B9B" />
  <rect x="9" y="10" width="1" height="1" fill="#979797" />
  <rect x="10" y="10" width="1" height="1" fill="#929292" />
  <rect x="11" y="10" width="1" height="1" fill="#8F8F8F" />
  <rect x="12" y="10" width="1" height="1" fill="#8B8B8B" />
  <rect x="13" y="10" width="1" height="1" fill="#878787" />
  <rect x="14" y="10" width="1" height="1" fill="#838383" />
  <rect x="15" y="10" width="1" height="1" fill="#808080" />
  <rect x="16" y="10" width="1" height="1" fill="#7C7C7C" />
  <rect x="17" y="10" width="1" height="1" fill="#787878" />
  <rect x="18" y="10" width="1" height="1" fill="#757575" />
  <rect x="19" y="10" width="1" height="1" fill="#707070" />
  <rect x="20" y="10" width="1" height="1" fill="#6A6A6A" />
  <rect x="21" y="10" width="1" height="1" fill="#030303" />
  <rect x="22" y="10" width="3" height="1" fill="#F9F9F9" />
  <rect x="25" y="10" width="1" height="1" fill="#C4C4C4" />
  <rect x="26" y="10" width="1" height="1" fill="#000000" />
  <rect x="0" y="11" width="1" height="1" fill="#404040" />
  <rect x="1" y="11" width="1" height="1" fill="#FEFEFE" />
  <rect x="2" y="11" width="2" height="1" fill="#F8F8F7" />
  <rect x="4" y="11" width="1" height="1" fill="#020202" />
  <rect x="5" y="11" width="1" height="1" fill="#A6A6A6" />
  <rect x="6" y="11" width="1" height="1" fill="#A2A2A2" />
  <rect x="7" y="11" width="1" height="1" fill="#9D9D9D" />
  <rect x="8" y="11" width="1" height="1" fill="#999999" />
  <rect x="9" y="11" width="1" height="1" fill="#949494" />
  <rect x="10" y="11" width="1" height="1" fill="#909090" />
  <rect x="11" y="11" width="1" height="1" fill="#8D8D8D" />
  <rect x="12" y="11" width="1" height="1" fill="#898989" />
  <rect x="13" y="11" width="1" height="1" fill="#858585" />
  <rect x="14" y="11" width="1" height="1" fill="#818181" />
  <rect x="15" y="11" width="1" height="1" fill="#7E7E7E" />
  <rect x="16" y="11" width="1" height="1" fill="#7A7A7A" />
  <rect x="17" y="11" width="1" height="1" fill="#777777" />
  <rect x="18" y="11" width="1" height="1" fill="#737373" />
  <rect x="19" y="11" width="1" height="1" fill="#6E6E6E" />
  <rect x="20" y="11" width="1" height="1" fill="#6C6C6C" />
  <rect x="21" y="11" width="1" height="1" fill="#010101" />
  <rect x="22" y="11" width="3" height="1" fill="#F8F8F7" />
  <rect x="25" y="11" width="1" height="1" fill="#C4C4C4" />
  <rect x="26" y="11" width="1" height="1" fill="#000000" />
  <rect x="0" y="12" width="1" height="1" fill="#404040" />
  <rect x="1" y="12" width="1" height="1" fill="#FEFEFD" />
  <rect x="2" y="12" width="2" height="1" fill="#F6F6F6" />
  <rect x="4" y="12" width="1" height="1" fill="#020202" />
  <rect x="5" y="12" width="1" height="1" fill="#A4A4A4" />
  <rect x="6" y="12" width="1" height="1" fill="#9F9F9F" />
  <rect x="7" y="12" width="1" height="1" fill="#9B9B9B" />
  <rect x="8" y="12" width="1" height="1" fill="#979797" />
  <rect x="9" y="12" width="1" height="1" fill="#929292" />
  <rect x="10" y="12" width="1" height="1" fill="#8F8F8F" />
  <rect x="11" y="12" width="1" height="1" fill="#8B8B8B" />
  <rect x="12" y="12" width="1" height="1" fill="#878787" />
  <rect x="13" y="12" width="1" height="1" fill="#838383" />
  <rect x="14" y="12" width="1" height="1" fill="#808080" />
  <rect x="15" y="12" width="1" height="1" fill="#7C7C7C" />
  <rect x="16" y="12" width="1" height="1" fill="#787878" />
  <rect x="17" y="12" width="1" height="1" fill="#757575" />
  <rect x="18" y="12" width="1" height="1" fill="#707070" />
  <rect x="19" y="12" width="1" height="1" fill="#6C6C6C" />
  <rect x="20" y="12" width="1" height="1" fill="#757575" />
  <rect x="21" y="12" width="1" height="1" fill="#000000" />
  <rect x="22" y="12" width="3" height="1" fill="#F6F6F6" />
  <rect x="25" y="12" width="1" height="1" fill="#C4C4C4" />
  <rect x="26" y="12" width="1" height="1" fill="#000000" />
  <rect x="0" y="13" width="1" height="1" fill="#404040" />
  <rect x="1" y="13" width="1" height="1" fill="#FDFDFD" />
  <rect x="2" y="13" width="2" height="1" fill="#F5F5F4" />
  <rect x="4" y="13" width="1" height="1" fill="#050505" />
  <rect x="5" y="13" width="1" height="1" fill="#9F9F9F" />
  <rect x="6" y="13" width="1" height="1" fill="#A2A2A2" />
  <rect x="7" y="13" width="1" height="1" fill="#999999" />
  <rect x="8" y="13" width="1" height="1" fill="#949494" />
  <rect x="9" y="13" width="1" height="1" fill="#909090" />
  <rect x="10" y="13" width="1" height="1" fill="#8D8D8D" />
  <rect x="11" y="13" width="1" height="1" fill="#898989" />
  <rect x="12" y="13" width="1" height="1" fill="#858585" />
  <rect x="13" y="13" width="1" height="1" fill="#818181" />
  <rect x="14" y="13" width="1" height="1" fill="#7E7E7E" />
  <rect x="15" y="13" width="1" height="1" fill="#7A7A7A" />
  <rect x="16" y="13" width="1" height="1" fill="#777777" />
  <rect x="17" y="13" width="1" height="1" fill="#737373" />
  <rect x="18" y="13" width="1" height="1" fill="#6E6E6E" />
  <rect x="19" y="13" width="1" height="1" fill="#6F6F6F" />
  <rect x="20" y="13" width="1" height="1" fill="#676767" />
  <rect x="21" y="13" width="1" height="1" fill="#000000" />
  <rect x="22" y="13" width="3" height="1" fill="#F5F5F4" />
  <rect x="25" y="13" width="1" height="1" fill="#C3C3C3" />
  <rect x="26" y="13" width="1" height="1" fill="#000000" />
  <rect x="0" y="14" width="1" height="1" fill="#404040" />
  <rect x="1" y="14" width="1" height="1" fill="#FDFDFD" />
  <rect x="2" y="14" width="2" height="1" fill="#F4F4F3" />
  <rect x="4" y="14" width="1" height="1" fill="#1A1A1A" />
  <rect x="5" y="14" width="1" height="1" fill="#7C7C7C" />
  <rect x="6" y="14" width="1" height="1" fill="#9E9E9E" />
  <rect x="7" y="14" width="1" height="1" fill="#A3A3A3" />
  <rect x="8" y="14" width="1" height="1" fill="#929292" />
  <rect x="9" y="14" width="1" height="1" fill="#8F8F8F" />
  <rect x="10" y="14" width="1" height="1" fill="#8B8B8B" />
  <rect x="11" y="14" width="1" height="1" fill="#878787" />
  <rect x="12" y="14" width="1" height="1" fill="#838383" />
  <rect x="13" y="14" width="1" height="1" fill="#808080" />
  <rect x="14" y="14" width="1" height="1" fill="#7C7C7C" />
  <rect x="15" y="14" width="1" height="1" fill="#787878" />
  <rect x="16" y="14" width="1" height="1" fill="#757575" />
  <rect x="17" y="14" width="1" height="1" fill="#707070" />
  <rect x="18" y="14" width="1" height="1" fill="#777777" />
  <rect x="19" y="14" width="1" height="1" fill="#6C6C6C" />
  <rect x="20" y="14" width="1" height="1" fill="#464646" />
  <rect x="21" y="14" width="1" height="1" fill="#000000" />
  <rect x="22" y="14" width="3" height="1" fill="#F4F4F3" />
  <rect x="25" y="14" width="1" height="1" fill="#C3C3C3" />
  <rect x="26" y="14" width="1" height="1" fill="#000000" />
  <rect x="0" y="15" width="1" height="1" fill="#404040" />
  <rect x="1" y="15" width="1" height="1" fill="#FCFCFC" />
  <rect x="2" y="15" width="2" height="1" fill="#F2F2F1" />
  <rect x="4" y="15" width="1" height="1" fill="#060606" />
  <rect x="5" y="15" width="1" height="1" fill="#727272" />
  <rect x="6" y="15" width="1" height="1" fill="#808080" />
  <rect x="7" y="15" width="1" height="1" fill="#949494" />
  <rect x="8" y="15" width="1" height="1" fill="#B1B1B1" />
  <rect x="9" y="15" width="1" height="1" fill="#989898" />
  <rect x="10" y="15" width="1" height="1" fill="#888888" />
  <rect x="11" y="15" width="1" height="1" fill="#858585" />
  <rect x="12" y="15" width="1" height="1" fill="#818181" />
  <rect x="13" y="15" width="1" height="1" fill="#7E7E7E" />
  <rect x="14" y="15" width="1" height="1" fill="#7B7B7B" />
  <rect x="15" y="15" width="1" height="1" fill="#7C7C7C" />
  <rect x="16" y="15" width="1" height="1" fill="#818181" />
  <rect x="17" y="15" width="1" height="1" fill="#878787" />
  <rect x="18" y="15" width="1" height="1" fill="#666666" />
  <rect x="19" y="15" width="1" height="1" fill="#484848" />
  <rect x="20" y="15" width="1" height="1" fill="#212121" />
  <rect x="21" y="15" width="1" height="1" fill="#000000" />
  <rect x="22" y="15" width="3" height="1" fill="#F2F2F1" />
  <rect x="25" y="15" width="1" height="1" fill="#C3C3C2" />
  <rect x="26" y="15" width="1" height="1" fill="#000000" />
  <rect x="0" y="16" width="1" height="1" fill="#404040" />
  <rect x="1" y="16" width="1" height="1" fill="#FCFCFC" />
  <rect x="2" y="16" width="2" height="1" fill="#F1F1F0" />
  <rect x="4" y="16" width="1" height="1" fill="#060606" />
  <rect x="5" y="16" width="1" height="1" fill="#929292" />
  <rect x="6" y="16" width="1" height="1" fill="#707070" />
  <rect x="7" y="16" width="1" height="1" fill="#6E6E6E" />
  <rect x="8" y="16" width="1" height="1" fill="#808080" />
  <rect x="9" y="16" width="1" height="1" fill="#ABABAB" />
  <rect x="10" y="16" width="1" height="1" fill="#C2C2C2" />
  <rect x="11" y="16" width="1" height="1" fill="#BFBFBF" />
  <rect x="12" y="16" width="1" height="1" fill="#BBBBBB" />
  <rect x="13" y="16" width="2" height="1" fill="#BABABA" />
  <rect x="15" y="16" width="1" height="1" fill="#AEAEAE" />
  <rect x="16" y="16" width="1" height="1" fill="#686868" />
  <rect x="17" y="16" width="1" height="1" fill="#555555" />
  <rect x="18" y="16" width="1" height="1" fill="#353535" />
  <rect x="19" y="16" width="1" height="1" fill="#222222" />
  <rect x="20" y="16" width="1" height="1" fill="#555555" />
  <rect x="21" y="16" width="1" height="1" fill="#000000" />
  <rect x="22" y="16" width="3" height="1" fill="#F1F1F0" />
  <rect x="25" y="16" width="1" height="1" fill="#C3C3C2" />
  <rect x="26" y="16" width="1" height="1" fill="#000000" />
  <rect x="0" y="17" width="1" height="1" fill="#404040" />
  <rect x="1" y="17" width="1" height="1" fill="#FCFCFC" />
  <rect x="2" y="17" width="2" height="1" fill="#EFEFEF" />
  <rect x="4" y="17" width="1" height="1" fill="#0D0D0D" />
  <rect x="5" y="17" width="1" height="1" fill="#7D7D7D" />
  <rect x="6" y="17" width="1" height="1" fill="#949494" />
  <rect x="7" y="17" width="1" height="1" fill="#797979" />
  <rect x="8" y="17" width="2" height="1" fill="#5B5B5B" />
  <rect x="10" y="17" width="1" height="1" fill="#696969" />
  <rect x="11" y="17" width="1" height="1" fill="#727272" />
  <rect x="12" y="17" width="1" height="1" fill="#757575" />
  <rect x="13" y="17" width="1" height="1" fill="#737373" />
  <rect x="14" y="17" width="1" height="1" fill="#6C6C6C" />
  <rect x="15" y="17" width="1" height="1" fill="#626262" />
  <rect x="16" y="17" width="2" height="1" fill="#000000" />
  <rect x="18" y="17" width="1" height="1" fill="#525252" />
  <rect x="19" y="17" width="1" height="1" fill="#5F5F5F" />
  <rect x="20" y="17" width="1" height="1" fill="#454545" />
  <rect x="21" y="17" width="1" height="1" fill="#000000" />
  <rect x="22" y="17" width="3" height="1" fill="#EFEFEF" />
  <rect x="25" y="17" width="1" height="1" fill="#C2C2C2" />
  <rect x="26" y="17" width="1" height="1" fill="#000000" />
  <rect x="0" y="18" width="1" height="1" fill="#404040" />
  <rect x="1" y="18" width="1" height="1" fill="#FBFBFB" />
  <rect x="2" y="18" width="2" height="1" fill="#EEEEED" />
  <rect x="4" y="18" width="1" height="1" fill="#000000" />
  <rect x="5" y="18" width="1" height="1" fill="#737373" />
  <rect x="6" y="18" width="1" height="1" fill="#808080" />
  <rect x="7" y="18" width="1" height="1" fill="#909090" />
  <rect x="8" y="18" width="1" height="1" fill="#9E9E9E" />
  <rect x="9" y="18" width="1" height="1" fill="#7C7C7C" />
  <rect x="10" y="18" width="1" height="1" fill="#545454" />
  <rect x="11" y="18" width="1" height="1" fill="#404040" />
  <rect x="12" y="18" width="3" height="1" fill="#000000" />
  <rect x="15" y="18" width="1" height="1" fill="#4F4F4F" />
  <rect x="16" y="18" width="1" height="1" fill="#686868" />
  <rect x="17" y="18" width="1" height="1" fill="#787878" />
  <rect x="18" y="18" width="1" height="1" fill="#626262" />
  <rect x="19" y="18" width="1" height="1" fill="#484848" />
  <rect x="20" y="18" width="1" height="1" fill="#212121" />
  <rect x="21" y="18" width="1" height="1" fill="#000000" />
  <rect x="22" y="18" width="3" height="1" fill="#EEEEED" />
  <rect x="25" y="18" width="1" height="1" fill="#C2C2C1" />
  <rect x="26" y="18" width="1" height="1" fill="#000000" />
  <rect x="0" y="19" width="1" height="1" fill="#404040" />
  <rect x="1" y="19" width="1" height="1" fill="#FAFAFA" />
  <rect x="2" y="19" width="2" height="1" fill="#EDEDEB" />
  <rect x="4" y="19" width="1" height="1" fill="#000000" />
  <rect x="5" y="19" width="1" height="1" fill="#909090" />
  <rect x="6" y="19" width="1" height="1" fill="#707070" />
  <rect x="7" y="19" width="1" height="1" fill="#6E6E6E" />
  <rect x="8" y="19" width="1" height="1" fill="#808080" />
  <rect x="9" y="19" width="1" height="1" fill="#ABABAB" />
  <rect x="10" y="19" width="1" height="1" fill="#C2C2C2" />
  <rect x="11" y="19" width="1" height="1" fill="#BFBFBF" />
  <rect x="12" y="19" width="1" height="1" fill="#BBBBBB" />
  <rect x="13" y="19" width="2" height="1" fill="#BABABA" />
  <rect x="15" y="19" width="1" height="1" fill="#AEAEAE" />
  <rect x="16" y="19" width="1" height="1" fill="#686868" />
  <rect x="17" y="19" width="1" height="1" fill="#555555" />
  <rect x="18" y="19" width="1" height="1" fill="#353535" />
  <rect x="19" y="19" width="1" height="1" fill="#222222" />
  <rect x="20" y="19" width="1" height="1" fill="#545454" />
  <rect x="21" y="19" width="1" height="1" fill="#131313" />
  <rect x="22" y="19" width="3" height="1" fill="#EDEDEB" />
  <rect x="25" y="19" width="1" height="1" fill="#C2C2C1" />
  <rect x="26" y="19" width="1" height="1" fill="#000000" />
  <rect x="0" y="20" width="1" height="1" fill="#404040" />
  <rect x="1" y="20" width="1" height="1" fill="#F7F7F6" />
  <rect x="2" y="20" width="2" height="1" fill="#EBEBEA" />
  <rect x="4" y="20" width="1" height="1" fill="#787878" />
  <rect x="5" y="20" width="1" height="1" fill="#202020" />
  <rect x="6" y="20" width="1" height="1" fill="#949494" />
  <rect x="7" y="20" width="1" height="1" fill="#797979" />
  <rect x="8" y="20" width="2" height="1" fill="#5B5B5B" />
  <rect x="10" y="20" width="1" height="1" fill="#696969" />
  <rect x="11" y="20" width="1" height="1" fill="#727272" />
  <rect x="12" y="20" width="1" height="1" fill="#757575" />
  <rect x="13" y="20" width="1" height="1" fill="#737373" />
  <rect x="14" y="20" width="1" height="1" fill="#6C6C6C" />
  <rect x="15" y="20" width="1" height="1" fill="#626262" />
  <rect x="16" y="20" width="2" height="1" fill="#000000" />
  <rect x="18" y="20" width="1" height="1" fill="#525252" />
  <rect x="19" y="20" width="1" height="1" fill="#5F5F5F" />
  <rect x="20" y="20" width="1" height="1" fill="#111111" />
  <rect x="21" y="20" width="1" height="1" fill="#575756" />
  <rect x="22" y="20" width="3" height="1" fill="#EBEBEA" />
  <rect x="25" y="20" width="1" height="1" fill="#C1C1C0" />
  <rect x="26" y="20" width="1" height="1" fill="#000000" />
  <rect x="0" y="21" width="1" height="1" fill="#404040" />
  <rect x="1" y="21" width="1" height="1" fill="#F6F6F5" />
  <rect x="2" y="21" width="2" height="1" fill="#EAEAE8" />
  <rect x="4" y="21" width="1" height="1" fill="#CDCDCB" />
  <rect x="5" y="21" width="1" height="1" fill="#2E2E2D" />
  <rect x="6" y="21" width="1" height="1" fill="#474747" />
  <rect x="7" y="21" width="1" height="1" fill="#909090" />
  <rect x="8" y="21" width="1" height="1" fill="#9E9E9E" />
  <rect x="9" y="21" width="1" height="1" fill="#7C7C7C" />
  <rect x="10" y="21" width="1" height="1" fill="#545454" />
  <rect x="11" y="21" width="1" height="1" fill="#404040" />
  <rect x="12" y="21" width="3" height="1" fill="#000000" />
  <rect x="15" y="21" width="1" height="1" fill="#4F4F4F" />
  <rect x="16" y="21" width="1" height="1" fill="#686868" />
  <rect x="17" y="21" width="1" height="1" fill="#787878" />
  <rect x="18" y="21" width="1" height="1" fill="#626262" />
  <rect x="19" y="21" width="1" height="1" fill="#272727" />
  <rect x="20" y="21" width="1" height="1" fill="#1C1C1C" />
  <rect x="21" y="21" width="1" height="1" fill="#B7B7B5" />
  <rect x="22" y="21" width="3" height="1" fill="#EAEAE8" />
  <rect x="25" y="21" width="1" height="1" fill="#C0C0C0" />
  <rect x="26" y="21" width="1" height="1" fill="#000000" />
  <rect x="0" y="22" width="1" height="1" fill="#404040" />
  <rect x="1" y="22" width="1" height="1" fill="#F4F4F3" />
  <rect x="2" y="22" width="3" height="1" fill="#E6E6E4" />
  <rect x="5" y="22" width="1" height="1" fill="#AAAAA8" />
  <rect x="6" y="22" width="1" height="1" fill="#474746" />
  <rect x="7" y="22" width="1" height="1" fill="#161616" />
  <rect x="8" y="22" width="1" height="1" fill="#7E7E7E" />
  <rect x="9" y="22" width="1" height="1" fill="#ABABAB" />
  <rect x="10" y="22" width="1" height="1" fill="#C2C2C2" />
  <rect x="11" y="22" width="1" height="1" fill="#BFBFBF" />
  <rect x="12" y="22" width="1" height="1" fill="#BBBBBB" />
  <rect x="13" y="22" width="2" height="1" fill="#BABABA" />
  <rect x="15" y="22" width="1" height="1" fill="#AEAEAE" />
  <rect x="16" y="22" width="1" height="1" fill="#686868" />
  <rect x="17" y="22" width="1" height="1" fill="#545454" />
  <rect x="18" y="22" width="1" height="1" fill="#2F2F2F" />
  <rect x="19" y="22" width="1" height="1" fill="#282828" />
  <rect x="20" y="22" width="1" height="1" fill="#959595" />
  <rect x="21" y="22" width="1" height="1" fill="#E3E3E1" />
  <rect x="22" y="22" width="3" height="1" fill="#E6E6E4" />
  <rect x="25" y="22" width="1" height="1" fill="#C0C0BF" />
  <rect x="26" y="22" width="1" height="1" fill="#000000" />
  <rect x="0" y="23" width="1" height="1" fill="#404040" />
  <rect x="1" y="23" width="1" height="1" fill="#F4F4F3" />
  <rect x="2" y="23" width="4" height="1" fill="#E4E4E2" />
  <rect x="6" y="23" width="1" height="1" fill="#C1C1BF" />
  <rect x="7" y="23" width="1" height="1" fill="#666665" />
  <rect x="8" y="23" width="1" height="1" fill="#000000" />
  <rect x="9" y="23" width="1" height="1" fill="#141414" />
  <rect x="10" y="23" width="1" height="1" fill="#595959" />
  <rect x="11" y="23" width="1" height="1" fill="#717171" />
  <rect x="12" y="23" width="1" height="1" fill="#757575" />
  <rect x="13" y="23" width="1" height="1" fill="#737373" />
  <rect x="14" y="23" width="1" height="1" fill="#6B6B6B" />
  <rect x="15" y="23" width="1" height="1" fill="#535353" />
  <rect x="16" y="23" width="1" height="1" fill="#000000" />
  <rect x="17" y="23" width="1" height="1" fill="#050505" />
  <rect x="18" y="23" width="1" height="1" fill="#4A4A49" />
  <rect x="19" y="23" width="1" height="1" fill="#ABABAA" />
  <rect x="20" y="23" width="1" height="1" fill="#E1E1DF" />
  <rect x="21" y="23" width="4" height="1" fill="#E4E4E2" />
  <rect x="25" y="23" width="1" height="1" fill="#C0C0BF" />
  <rect x="26" y="23" width="1" height="1" fill="#000000" />
  <rect x="0" y="24" width="1" height="1" fill="#404040" />
  <rect x="1" y="24" width="1" height="1" fill="#F3F3F3" />
  <rect x="2" y="24" width="5" height="1" fill="#E3E3E1" />
  <rect x="7" y="24" width="1" height="1" fill="#DADAD9" />
  <rect x="8" y="24" width="1" height="1" fill="#B3B3B1" />
  <rect x="9" y="24" width="1" height="1" fill="#787877" />
  <rect x="10" y="24" width="1" height="1" fill="#464646" />
  <rect x="11" y="24" width="1" height="1" fill="#151515" />
  <rect x="12" y="24" width="2" height="1" fill="#000000" />
  <rect x="14" y="24" width="1" height="1" fill="#0F0F0F" />
  <rect x="15" y="24" width="1" height="1" fill="#2F2F2F" />
  <rect x="16" y="24" width="1" height="1" fill="#6A6A69" />
  <rect x="17" y="24" width="1" height="1" fill="#A9A9A8" />
  <rect x="18" y="24" width="1" height="1" fill="#D0D0CE" />
  <rect x="19" y="24" width="6" height="1" fill="#E3E3E1" />
  <rect x="25" y="24" width="1" height="1" fill="#C0C0BF" />
  <rect x="26" y="24" width="1" height="1" fill="#000000" />
  <rect x="0" y="25" width="1" height="1" fill="#404040" />
  <rect x="1" y="25" width="1" height="1" fill="#F3F3F2" />
  <rect x="2" y="25" width="23" height="1" fill="#E1E1DF" />
  <rect x="25" y="25" width="1" height="1" fill="#C0C0BF" />
  <rect x="26" y="25" width="1" height="1" fill="#000000" />
  <rect x="0" y="26" width="1" height="1" fill="#3B3B3B" />
  <rect x="1" y="26" width="1" height="1" fill="#E9E9E9" />
  <rect x="2" y="26" width="23" height="1" fill="#E1E1DF" />
  <rect x="25" y="26" width="1" height="1" fill="#B6B6B5" />
  <rect x="26" y="26" width="1" height="1" fill="#000000" />
  <rect x="0" y="27" width="1" height="1" fill="#323232" />
  <rect x="1" y="27" width="1" height="1" fill="#C5C5C4" />
  <rect x="2" y="27" width="2" height="1" fill="#C1C1C1" />
  <rect x="4" y="27" width="8" height="1" fill="#C1C1C0" />
  <rect x="12" y="27" width="12" height="1" fill="#C0C0C0" />
  <rect x="24" y="27" width="1" height="1" fill="#B6B6B5" />
  <rect x="25" y="27" width="1" height="1" fill="#979796" />
  <rect x="26" y="27" width="1" height="1" fill="#000000" />
  <rect x="1" y="28" width="25" height="1" fill="#000000" />
</svg>