<svg width="16" height="16" viewBox="0 0 16 16" fill="none" xmlns="http://www.w3.org/2000/svg" shape-rendering="crispEdges">
  <rect x="9" y="4" width="1" height="1" fill="#FA1111" />
  <rect x="10" y="4" width="1" height="1" fill="#F91010" />
  <rect x="11" y="4" width="1" height="1" fill="#F91111" />
  <rect x="8" y="5" width="1" height="1" fill="#FA1010" />
  <rect x="11" y="5" width="1" height="1" fill="#F91111" />
  <rect x="8" y="6" width="1" height="1" fill="#F91010" />
  <rect x="11" y="6" width="1" height="1" fill="#F91010" />
  <rect x="3" y="7" width="2" height="1" fill="#F81111" />
  <rect x="5" y="7" width="1" height="1" fill="#F91010" />
  <rect x="8" y="7" width="1" height="1" fill="#F91010" />
  <rect x="10" y="7" width="1" height="1" fill="#FA1111" />
  <rect x="2" y="8" width="1" height="1" fill="#F91111" />
  <rect x="5" y="8" width="1" height="1" fill="#FA1010" />
  <rect x="8" y="8" width="1" height="1" fill="#F91010" />
  <rect x="11" y="8" width="1" height="1" fill="#FA1111" />
  <rect x="2" y="9" width="1" height="1" fill="#F91111" />
  <rect x="5" y="9" width="1" height="1" fill="#F91010" />
  <rect x="8" y="9" width="1" height="1" fill="#F91010" />
  <rect x="12" y="9" width="1" height="1" fill="#F91010" />
  <rect x="2" y="10" width="1" height="1" fill="#F91111" />
  <rect x="5" y="10" width="1" height="1" fill="#F91111" />
  <rect x="8" y="10" width="1" height="1" fill="#FA1111" />
  <rect x="11" y="10" width="1" height="1" fill="#F91010" />
  <rect x="2" y="11" width="1" height="1" fill="#FA1111" />
  <rect x="3" y="11" width="3" height="1" fill="#F91010" />
  <rect x="8" y="11" width="1" height="1" fill="#F91111" />
  <rect x="9" y="11" width="1" height="1" fill="#FA1010" />
  <rect x="10" y="11" width="2" height="1" fill="#F91010" />
  <rect x="8" y="12" width="1" height="1" fill="#F91010" />
  <rect x="8" y="13" width="1" height="1" fill="#F91010" />
</svg>