<svg width="16" height="16" viewBox="0 0 16 16" fill="none" xmlns="http://www.w3.org/2000/svg" shape-rendering="crispEdges">
  <rect x="1" y="0" width="13" height="1" fill="#000000" />
  <rect x="1" y="1" width="1" height="1" fill="#7791AE" />
  <rect x="2" y="1" width="2" height="1" fill="#9AB7D3" />
  <rect x="4" y="1" width="4" height="1" fill="#9BB8D4" />
  <rect x="8" y="1" width="2" height="1" fill="#9BB8D5" />
  <rect x="10" y="1" width="2" height="1" fill="#9CB9D5" />
  <rect x="12" y="1" width="2" height="1" fill="#9DBAD6" />
  <rect x="14" y="1" width="1" height="1" fill="#738CA9" />
  <rect x="0" y="2" width="1" height="1" fill="#000000" />
  <rect x="1" y="2" width="1" height="1" fill="#9AB7D3" />
  <rect x="2" y="2" width="1" height="1" fill="#8DA9C7" />
  <rect x="3" y="2" width="1" height="1" fill="#8EAAC7" />
  <rect x="4" y="2" width="1" height="1" fill="#8EABC7" />
  <rect x="5" y="2" width="1" height="1" fill="#8FACC8" />
  <rect x="6" y="2" width="1" height="1" fill="#3F4C59" />
  <rect x="7" y="2" width="1" height="1" fill="#000000" />
  <rect x="8" y="2" width="1" height="1" fill="#404D59" />
  <rect x="9" y="2" width="1" height="1" fill="#92AFCC" />
  <rect x="10" y="2" width="1" height="1" fill="#93AFCC" />
  <rect x="11" y="2" width="1" height="1" fill="#94B0CC" />
  <rect x="12" y="2" width="1" height="1" fill="#95B1CE" />
  <rect x="13" y="2" width="1" height="1" fill="#96B2CF" />
  <rect x="14" y="2" width="1" height="1" fill="#97B3D0" />
  <rect x="15" y="2" width="1" height="1" fill="#000000" />
  <rect x="0" y="3" width="1" height="1" fill="#000000" />
  <rect x="1" y="3" width="1" height="1" fill="#9AB7D3" />
  <rect x="2" y="3" width="1" height="1" fill="#8EAAC7" />
  <rect x="3" y="3" width="1" height="1" fill="#8EABC7" />
  <rect x="4" y="3" width="1" height="1" fill="#8FACC8" />
  <rect x="5" y="3" width="1" height="1" fill="#8EA9C6" />
  <rect x="6" y="3" width="1" height="1" fill="#0D1013" />
  <rect x="7" y="3" width="1" height="1" fill="#000000" />
  <rect x="8" y="3" width="1" height="1" fill="#0D1013" />
  <rect x="9" y="3" width="1" height="1" fill="#91ACC9" />
  <rect x="10" y="3" width="1" height="1" fill="#94B0CC" />
  <rect x="11" y="3" width="1" height="1" fill="#95B1CE" />
  <rect x="12" y="3" width="1" height="1" fill="#96B2CF" />
  <rect x="13" y="3" width="1" height="1" fill="#97B3D0" />
  <rect x="14" y="3" width="1" height="1" fill="#97B4D0" />
  <rect x="15" y="3" width="1" height="1" fill="#000000" />
  <rect x="0" y="4" width="1" height="1" fill="#000000" />
  <rect x="1" y="4" width="1" height="1" fill="#9BB8D4" />
  <rect x="2" y="4" width="1" height="1" fill="#8EABC7" />
  <rect x="3" y="4" width="1" height="1" fill="#8FACC8" />
  <rect x="4" y="4" width="1" height="1" fill="#90ACC9" />
  <rect x="5" y="4" width="1" height="1" fill="#687C91" />
  <rect x="6" y="4" width="3" height="1" fill="#000000" />
  <rect x="9" y="4" width="1" height="1" fill="#6A7E93" />
  <rect x="10" y="4" width="1" height="1" fill="#95B1CE" />
  <rect x="11" y="4" width="1" height="1" fill="#96B2CF" />
  <rect x="12" y="4" width="1" height="1" fill="#97B3D0" />
  <rect x="13" y="4" width="1" height="1" fill="#97B4D0" />
  <rect x="14" y="4" width="1" height="1" fill="#98B4D0" />
  <rect x="15" y="4" width="1" height="1" fill="#000000" />
  <rect x="0" y="5" width="1" height="1" fill="#000000" />
  <rect x="1" y="5" width="1" height="1" fill="#9BB8D4" />
  <rect x="2" y="5" width="1" height="1" fill="#8FACC8" />
  <rect x="3" y="5" width="1" height="1" fill="#90ACC9" />
  <rect x="4" y="5" width="1" height="1" fill="#91AECB" />
  <rect x="5" y="5" width="1" height="1" fill="#333D47" />
  <rect x="6" y="5" width="1" height="1" fill="#000000" />
  <rect x="7" y="5" width="1" height="1" fill="#404C59" />
  <rect x="8" y="5" width="1" height="1" fill="#000000" />
  <rect x="9" y="5" width="1" height="1" fill="#353F49" />
  <rect x="10" y="5" width="1" height="1" fill="#96B2CF" />
  <rect x="11" y="5" width="1" height="1" fill="#97B3D0" />
  <rect x="12" y="5" width="1" height="1" fill="#97B4D0" />
  <rect x="13" y="5" width="1" height="1" fill="#98B4D0" />
  <rect x="14" y="5" width="1" height="1" fill="#99B5D2" />
  <rect x="15" y="5" width="1" height="1" fill="#000000" />
  <rect x="0" y="6" width="1" height="1" fill="#000000" />
  <rect x="1" y="6" width="1" height="1" fill="#9BB8D4" />
  <rect x="2" y="6" width="1" height="1" fill="#90ACC9" />
  <rect x="3" y="6" width="1" height="1" fill="#91AECB" />
  <rect x="4" y="6" width="1" height="1" fill="#8AA5C1" />
  <rect x="5" y="6" width="1" height="1" fill="#050608" />
  <rect x="6" y="6" width="1" height="1" fill="#101317" />
  <rect x="7" y="6" width="1" height="1" fill="#92ADC9" />
  <rect x="8" y="6" width="1" height="1" fill="#20262C" />
  <rect x="9" y="6" width="1" height="1" fill="#050608" />
  <rect x="10" y="6" width="1" height="1" fill="#8FAAC6" />
  <rect x="11" y="6" width="1" height="1" fill="#97B4D0" />
  <rect x="12" y="6" width="1" height="1" fill="#98B4D0" />
  <rect x="13" y="6" width="1" height="1" fill="#99B5D2" />
  <rect x="14" y="6" width="1" height="1" fill="#9AB6D2" />
  <rect x="15" y="6" width="1" height="1" fill="#000000" />
  <rect x="0" y="7" width="1" height="1" fill="#000000" />
  <rect x="1" y="7" width="1" height="1" fill="#9BB8D4" />
  <rect x="2" y="7" width="2" height="1" fill="#91AECB" />
  <rect x="4" y="7" width="1" height="1" fill="#5C6E80" />
  <rect x="5" y="7" width="1" height="1" fill="#000000" />
  <rect x="6" y="7" width="1" height="1" fill="#4A5866" />
  <rect x="7" y="7" width="1" height="1" fill="#95B1CE" />
  <rect x="8" y="7" width="1" height="1" fill="#687C90" />
  <rect x="9" y="7" width="1" height="1" fill="#000000" />
  <rect x="10" y="7" width="1" height="1" fill="#5F7183" />
  <rect x="11" y="7" width="1" height="1" fill="#98B4D0" />
  <rect x="12" y="7" width="1" height="1" fill="#99B5D2" />
  <rect x="13" y="7" width="1" height="1" fill="#9AB6D2" />
  <rect x="14" y="7" width="1" height="1" fill="#9AB7D3" />
  <rect x="15" y="7" width="1" height="1" fill="#000000" />
  <rect x="0" y="8" width="1" height="1" fill="#000000" />
  <rect x="1" y="8" width="1" height="1" fill="#9BB8D5" />
  <rect x="2" y="8" width="1" height="1" fill="#91AECB" />
  <rect x="3" y="8" width="1" height="1" fill="#92AFCC" />
  <rect x="4" y="8" width="1" height="1" fill="#272E36" />
  <rect x="5" y="8" width="5" height="1" fill="#000000" />
  <rect x="10" y="8" width="1" height="1" fill="#293038" />
  <rect x="11" y="8" width="1" height="1" fill="#99B5D2" />
  <rect x="12" y="8" width="1" height="1" fill="#9AB6D2" />
  <rect x="13" y="8" width="1" height="1" fill="#9AB7D3" />
  <rect x="14" y="8" width="1" height="1" fill="#9BB8D4" />
  <rect x="15" y="8" width="1" height="1" fill="#000000" />
  <rect x="0" y="9" width="1" height="1" fill="#000000" />
  <rect x="1" y="9" width="1" height="1" fill="#9BB8D5" />
  <rect x="2" y="9" width="1" height="1" fill="#92AFCC" />
  <rect x="3" y="9" width="1" height="1" fill="#839CB6" />
  <rect x="4" y="9" width="1" height="1" fill="#010101" />
  <rect x="5" y="9" width="5" height="1" fill="#000000" />
  <rect x="10" y="9" width="1" height="1" fill="#010101" />
  <rect x="11" y="9" width="1" height="1" fill="#8AA3BC" />
  <rect x="12" y="9" width="1" height="1" fill="#9AB7D3" />
  <rect x="13" y="9" width="1" height="1" fill="#9BB8D4" />
  <rect x="14" y="9" width="1" height="1" fill="#9BB8D5" />
  <rect x="15" y="9" width="1" height="1" fill="#000000" />
  <rect x="0" y="10" width="1" height="1" fill="#000000" />
  <rect x="1" y="10" width="1" height="1" fill="#9CB9D5" />
  <rect x="2" y="10" width="1" height="1" fill="#93AFCC" />
  <rect x="3" y="10" width="1" height="1" fill="#505F6E" />
  <rect x="4" y="10" width="1" height="1" fill="#000000" />
  <rect x="5" y="10" width="1" height="1" fill="#434F5C" />
  <rect x="6" y="10" width="1" height="1" fill="#97B3D0" />
  <rect x="7" y="10" width="1" height="1" fill="#97B4D0" />
  <rect x="8" y="10" width="1" height="1" fill="#98B4D0" />
  <rect x="9" y="10" width="1" height="1" fill="#3F4A56" />
  <rect x="10" y="10" width="1" height="1" fill="#000000" />
  <rect x="11" y="10" width="1" height="1" fill="#536373" />
  <rect x="12" y="10" width="1" height="1" fill="#9BB8D4" />
  <rect x="13" y="10" width="1" height="1" fill="#9BB8D5" />
  <rect x="14" y="10" width="1" height="1" fill="#9DBAD6" />
  <rect x="15" y="10" width="1" height="1" fill="#000000" />
  <rect x="0" y="11" width="1" height="1" fill="#000000" />
  <rect x="1" y="11" width="1" height="1" fill="#9DBAD6" />
  <rect x="2" y="11" width="1" height="1" fill="#95B1CE" />
  <rect x="3" y="11" width="1" height="1" fill="#1A1F24" />
  <rect x="4" y="11" width="1" height="1" fill="#000000" />
  <rect x="5" y="11" width="1" height="1" fill="#7B92A9" />
  <rect x="6" y="11" width="1" height="1" fill="#98B4D0" />
  <rect x="7" y="11" width="1" height="1" fill="#99B5D2" />
  <rect x="8" y="11" width="1" height="1" fill="#9AB6D2" />
  <rect x="9" y="11" width="1" height="1" fill="#7B93A9" />
  <rect x="10" y="11" width="1" height="1" fill="#000000" />
  <rect x="11" y="11" width="1" height="1" fill="#1B2126" />
  <rect x="12" y="11" width="1" height="1" fill="#9DBAD6" />
  <rect x="13" y="11" width="1" height="1" fill="#9EBAD7" />
  <rect x="14" y="11" width="1" height="1" fill="#9EBBD7" />
  <rect x="15" y="11" width="1" height="1" fill="#000000" />
  <rect x="0" y="12" width="1" height="1" fill="#000000" />
  <rect x="1" y="12" width="1" height="1" fill="#9DBAD6" />
  <rect x="2" y="12" width="1" height="1" fill="#96B2CF" />
  <rect x="3" y="12" width="1" height="1" fill="#97B3D0" />
  <rect x="4" y="12" width="1" height="1" fill="#97B4D0" />
  <rect x="5" y="12" width="1" height="1" fill="#98B4D0" />
  <rect x="6" y="12" width="1" height="1" fill="#99B5D2" />
  <rect x="7" y="12" width="1" height="1" fill="#9AB6D2" />
  <rect x="8" y="12" width="1" height="1" fill="#9AB7D3" />
  <rect x="9" y="12" width="1" height="1" fill="#9BB8D4" />
  <rect x="10" y="12" width="1" height="1" fill="#9BB8D5" />
  <rect x="11" y="12" width="1" height="1" fill="#9DBAD6" />
  <rect x="12" y="12" width="1" height="1" fill="#9EBAD7" />
  <rect x="13" y="12" width="1" height="1" fill="#9EBBD7" />
  <rect x="14" y="12" width="1" height="1" fill="#9FBCD8" />
  <rect x="15" y="12" width="1" height="1" fill="#000000" />
  <rect x="0" y="13" width="1" height="1" fill="#000000" />
  <rect x="1" y="13" width="1" height="1" fill="#7690AE" />
  <rect x="2" y="13" width="1" height="1" fill="#97B3D0" />
  <rect x="3" y="13" width="1" height="1" fill="#97B4D0" />
  <rect x="4" y="13" width="1" height="1" fill="#98B4D0" />
  <rect x="5" y="13" width="1" height="1" fill="#99B5D2" />
  <rect x="6" y="13" width="1" height="1" fill="#9AB6D2" />
  <rect x="7" y="13" width="1" height="1" fill="#9AB7D3" />
  <rect x="8" y="13" width="1" height="1" fill="#9BB8D4" />
  <rect x="9" y="13" width="1" height="1" fill="#9BB8D5" />
  <rect x="10" y="13" width="1" height="1" fill="#9DBAD6" />
  <rect x="11" y="13" width="1" height="1" fill="#9EBAD7" />
  <rect x="12" y="13" width="1" height="1" fill="#9EBBD7" />
  <rect x="13" y="13" width="1" height="1" fill="#9FBCD8" />
  <rect x="14" y="13" width="1" height="1" fill="#7992AF" />
  <rect x="2" y="14" width="12" height="1" fill="#000000" />
</svg>