<svg width="16" height="16" viewBox="0 0 16 16" fill="none" xmlns="http://www.w3.org/2000/svg" shape-rendering="crispEdges">
  <rect x="12" y="3" width="2" height="1" fill="#000000" />
  <rect x="11" y="4" width="1" height="1" fill="#000000" />
  <rect x="12" y="4" width="1" height="1" fill="#C8D7E5" />
  <rect x="13" y="4" width="1" height="1" fill="#8EA8C0" />
  <rect x="14" y="4" width="1" height="1" fill="#000000" />
  <rect x="10" y="5" width="1" height="1" fill="#000000" />
  <rect x="11" y="5" width="1" height="1" fill="#C8D7E5" />
  <rect x="12" y="5" width="1" height="1" fill="#9DB8D2" />
  <rect x="13" y="5" width="1" height="1" fill="#7E94AA" />
  <rect x="14" y="5" width="1" height="1" fill="#000000" />
  <rect x="2" y="6" width="2" height="1" fill="#000000" />
  <rect x="9" y="6" width="1" height="1" fill="#000000" />
  <rect x="10" y="6" width="1" height="1" fill="#C8D7E5" />
  <rect x="11" y="6" width="1" height="1" fill="#9DB8D2" />
  <rect x="12" y="6" width="1" height="1" fill="#8299AF" />
  <rect x="13" y="6" width="1" height="1" fill="#000000" />
  <rect x="1" y="7" width="1" height="1" fill="#000000" />
  <rect x="2" y="7" width="2" height="1" fill="#D6E1EB" />
  <rect x="4" y="7" width="1" height="1" fill="#000000" />
  <rect x="8" y="7" width="1" height="1" fill="#000000" />
  <rect x="9" y="7" width="1" height="1" fill="#C8D7E5" />
  <rect x="10" y="7" width="1" height="1" fill="#9DB8D2" />
  <rect x="11" y="7" width="1" height="1" fill="#8299AF" />
  <rect x="12" y="7" width="1" height="1" fill="#000000" />
  <rect x="1" y="8" width="1" height="1" fill="#000000" />
  <rect x="2" y="8" width="1" height="1" fill="#C4CED6" />
  <rect x="3" y="8" width="1" height="1" fill="#9DB8D2" />
  <rect x="4" y="8" width="1" height="1" fill="#ACBED0" />
  <rect x="5" y="8" width="1" height="1" fill="#000000" />
  <rect x="7" y="8" width="1" height="1" fill="#000000" />
  <rect x="8" y="8" width="1" height="1" fill="#C8D7E5" />
  <rect x="9" y="8" width="1" height="1" fill="#9DB8D2" />
  <rect x="10" y="8" width="1" height="1" fill="#8299AF" />
  <rect x="11" y="8" width="1" height="1" fill="#000000" />
  <rect x="2" y="9" width="1" height="1" fill="#404040" />
  <rect x="3" y="9" width="1" height="1" fill="#ACBED0" />
  <rect x="4" y="9" width="1" height="1" fill="#9DB8D2" />
  <rect x="5" y="9" width="1" height="1" fill="#ACBED0" />
  <rect x="6" y="9" width="1" height="1" fill="#000000" />
  <rect x="7" y="9" width="1" height="1" fill="#D6E1EB" />
  <rect x="8" y="9" width="1" height="1" fill="#9DB8D2" />
  <rect x="9" y="9" width="1" height="1" fill="#8299AF" />
  <rect x="10" y="9" width="1" height="1" fill="#000000" />
  <rect x="2" y="10" width="1" height="1" fill="#000000" />
  <rect x="3" y="10" width="1" height="1" fill="#ACB9C5" />
  <rect x="4" y="10" width="4" height="1" fill="#9DB8D2" />
  <rect x="8" y="10" width="1" height="1" fill="#8299AF" />
  <rect x="9" y="10" width="1" height="1" fill="#000000" />
  <rect x="3" y="11" width="1" height="1" fill="#727272" />
  <rect x="4" y="11" width="1" height="1" fill="#889FB6" />
  <rect x="5" y="11" width="2" height="1" fill="#9DB8D2" />
  <rect x="7" y="11" width="1" height="1" fill="#8299AF" />
  <rect x="8" y="11" width="1" height="1" fill="#000000" />
  <rect x="3" y="12" width="1" height="1" fill="#000000" />
  <rect x="4" y="12" width="1" height="1" fill="#B1BFCB" />
  <rect x="5" y="12" width="1" height="1" fill="#98B2CC" />
  <rect x="6" y="12" width="1" height="1" fill="#7E94AA" />
  <rect x="7" y="12" width="1" height="1" fill="#000000" />
  <rect x="4" y="13" width="3" height="1" fill="#000000" />
</svg>