<svg width="16" height="16" viewBox="0 0 16 16" fill="none" xmlns="http://www.w3.org/2000/svg" shape-rendering="crispEdges">
  <rect x="5" y="1" width="1" height="1" fill="#BABABA" />
  <rect x="6" y="1" width="1" height="1" fill="#B8B8B8" />
  <rect x="7" y="1" width="1" height="1" fill="#B7B7B7" />
  <rect x="8" y="1" width="1" height="1" fill="#B6B6B6" />
  <rect x="9" y="1" width="1" height="1" fill="#B4B4B4" />
  <rect x="10" y="1" width="1" height="1" fill="#B3B3B3" />
  <rect x="3" y="2" width="1" height="1" fill="#BBBBBB" />
  <rect x="4" y="2" width="1" height="1" fill="#D0D0D0" />
  <rect x="5" y="2" width="1" height="1" fill="#E8E8E8" />
  <rect x="6" y="2" width="1" height="1" fill="#F3F3F3" />
  <rect x="7" y="2" width="1" height="1" fill="#FDFDFD" />
  <rect x="8" y="2" width="1" height="1" fill="#FCFCFC" />
  <rect x="9" y="2" width="1" height="1" fill="#EDEDED" />
  <rect x="10" y="2" width="1" height="1" fill="#E0E0E0" />
  <rect x="11" y="2" width="1" height="1" fill="#C2C2C2" />
  <rect x="12" y="2" width="1" height="1" fill="#ADADAD" />
  <rect x="2" y="3" width="1" height="1" fill="#BABABA" />
  <rect x="3" y="3" width="1" height="1" fill="#E1E1E1" />
  <rect x="4" y="3" width="1" height="1" fill="#FEFEFE" />
  <rect x="5" y="3" width="6" height="1" fill="#FFFFFF" />
  <rect x="11" y="3" width="1" height="1" fill="#FBFBFB" />
  <rect x="12" y="3" width="1" height="1" fill="#CFCFCF" />
  <rect x="13" y="3" width="1" height="1" fill="#A9A9A9" />
  <rect x="2" y="4" width="1" height="1" fill="#B9B9B9" />
  <rect x="3" y="4" width="1" height="1" fill="#F8F8F8" />
  <rect x="4" y="4" width="1" height="1" fill="#FEFEFE" />
  <rect x="5" y="4" width="6" height="1" fill="#FFFFFF" />
  <rect x="11" y="4" width="1" height="1" fill="#FBFBFB" />
  <rect x="12" y="4" width="1" height="1" fill="#EAEAEA" />
  <rect x="13" y="4" width="1" height="1" fill="#A7A7A7" />
  <rect x="2" y="5" width="1" height="1" fill="#B7B7B7" />
  <rect x="3" y="5" width="1" height="1" fill="#F7F7F7" />
  <rect x="4" y="5" width="1" height="1" fill="#E7E7E7" />
  <rect x="5" y="5" width="1" height="1" fill="#EFEFEF" />
  <rect x="6" y="5" width="1" height="1" fill="#F6F6F6" />
  <rect x="7" y="5" width="1" height="1" fill="#FBFBFB" />
  <rect x="8" y="5" width="1" height="1" fill="#FAFAFA" />
  <rect x="9" y="5" width="1" height="1" fill="#F0F0F0" />
  <rect x="10" y="5" width="1" height="1" fill="#DEDEDE" />
  <rect x="11" y="5" width="1" height="1" fill="#C3C3C3" />
  <rect x="12" y="5" width="1" height="1" fill="#E6E6E6" />
  <rect x="13" y="5" width="1" height="1" fill="#A5A5A5" />
  <rect x="2" y="6" width="1" height="1" fill="#B5B5B5" />
  <rect x="3" y="6" width="1" height="1" fill="#F6F6F6" />
  <rect x="4" y="6" width="1" height="1" fill="#EBEBEB" />
  <rect x="5" y="6" width="1" height="1" fill="#DEDEDE" />
  <rect x="6" y="6" width="1" height="1" fill="#D6D6D6" />
  <rect x="7" y="6" width="1" height="1" fill="#D5D5D5" />
  <rect x="8" y="6" width="1" height="1" fill="#D1D1D1" />
  <rect x="9" y="6" width="1" height="1" fill="#C3C3C3" />
  <rect x="10" y="6" width="1" height="1" fill="#BCBCBC" />
  <rect x="11" y="6" width="1" height="1" fill="#C0C0C0" />
  <rect x="12" y="6" width="1" height="1" fill="#E5E5E5" />
  <rect x="13" y="6" width="1" height="1" fill="#A3A3A3" />
  <rect x="2" y="7" width="1" height="1" fill="#B4B4B4" />
  <rect x="3" y="7" width="1" height="1" fill="#F5F5F5" />
  <rect x="4" y="7" width="1" height="1" fill="#EEEEEE" />
  <rect x="5" y="7" width="1" height="1" fill="#E6E6E6" />
  <rect x="6" y="7" width="1" height="1" fill="#E2E2E2" />
  <rect x="7" y="7" width="1" height="1" fill="#E6E6E6" />
  <rect x="8" y="7" width="1" height="1" fill="#E1E1E1" />
  <rect x="9" y="7" width="1" height="1" fill="#CDCDCD" />
  <rect x="10" y="7" width="2" height="1" fill="#C2C2C2" />
  <rect x="12" y="7" width="1" height="1" fill="#E3E3E3" />
  <rect x="13" y="7" width="1" height="1" fill="#A0A0A0" />
  <rect x="2" y="8" width="1" height="1" fill="#B2B2B2" />
  <rect x="3" y="8" width="1" height="1" fill="#F4F4F4" />
  <rect x="4" y="8" width="1" height="1" fill="#EAEAEA" />
  <rect x="5" y="8" width="1" height="1" fill="#E1E1E1" />
  <rect x="6" y="8" width="1" height="1" fill="#DDDDDD" />
  <rect x="7" y="8" width="1" height="1" fill="#E3E3E3" />
  <rect x="8" y="8" width="1" height="1" fill="#DEDEDE" />
  <rect x="9" y="8" width="1" height="1" fill="#C9C9C9" />
  <rect x="10" y="8" width="1" height="1" fill="#BDBDBD" />
  <rect x="11" y="8" width="1" height="1" fill="#BFBFBF" />
  <rect x="12" y="8" width="1" height="1" fill="#E2E2E2" />
  <rect x="13" y="8" width="1" height="1" fill="#9E9E9E" />
  <rect x="2" y="9" width="1" height="1" fill="#B0B0B0" />
  <rect x="3" y="9" width="1" height="1" fill="#F3F3F3" />
  <rect x="4" y="9" width="1" height="1" fill="#E7E7E7" />
  <rect x="5" y="9" width="1" height="1" fill="#DDDDDD" />
  <rect x="6" y="9" width="1" height="1" fill="#D9D9D9" />
  <rect x="7" y="9" width="1" height="1" fill="#E0E0E0" />
  <rect x="8" y="9" width="1" height="1" fill="#DBDBDB" />
  <rect x="9" y="9" width="1" height="1" fill="#C4C4C4" />
  <rect x="10" y="9" width="1" height="1" fill="#B8B8B8" />
  <rect x="11" y="9" width="1" height="1" fill="#BBBBBB" />
  <rect x="12" y="9" width="1" height="1" fill="#E1E1E1" />
  <rect x="13" y="9" width="1" height="1" fill="#9B9B9B" />
  <rect x="2" y="10" width="1" height="1" fill="#AEAEAE" />
  <rect x="3" y="10" width="1" height="1" fill="#F2F2F2" />
  <rect x="4" y="10" width="1" height="1" fill="#E2E2E2" />
  <rect x="5" y="10" width="1" height="1" fill="#D8D8D8" />
  <rect x="6" y="10" width="1" height="1" fill="#D5D5D5" />
  <rect x="7" y="10" width="1" height="1" fill="#DCDCDC" />
  <rect x="8" y="10" width="1" height="1" fill="#D8D8D8" />
  <rect x="9" y="10" width="1" height="1" fill="#C0C0C0" />
  <rect x="10" y="10" width="1" height="1" fill="#B3B3B3" />
  <rect x="11" y="10" width="1" height="1" fill="#B7B7B7" />
  <rect x="12" y="10" width="1" height="1" fill="#E0E0E0" />
  <rect x="13" y="10" width="1" height="1" fill="#969696" />
  <rect x="2" y="11" width="1" height="1" fill="#ACACAC" />
  <rect x="3" y="11" width="1" height="1" fill="#F0F0F0" />
  <rect x="4" y="11" width="1" height="1" fill="#DEDEDE" />
  <rect x="5" y="11" width="1" height="1" fill="#D4D4D4" />
  <rect x="6" y="11" width="1" height="1" fill="#D2D2D2" />
  <rect x="7" y="11" width="1" height="1" fill="#DBDBDB" />
  <rect x="8" y="11" width="1" height="1" fill="#D6D6D6" />
  <rect x="9" y="11" width="1" height="1" fill="#BFBFBF" />
  <rect x="10" y="11" width="1" height="1" fill="#B0B0B0" />
  <rect x="11" y="11" width="1" height="1" fill="#B3B3B3" />
  <rect x="12" y="11" width="1" height="1" fill="#DEDEDE" />
  <rect x="13" y="11" width="1" height="1" fill="#909090" />
  <rect x="2" y="12" width="1" height="1" fill="#A9A9A9" />
  <rect x="3" y="12" width="1" height="1" fill="#DEDEDE" />
  <rect x="4" y="12" width="1" height="1" fill="#F3F3F3" />
  <rect x="5" y="12" width="1" height="1" fill="#DBDBDB" />
  <rect x="6" y="12" width="1" height="1" fill="#D2D2D2" />
  <rect x="7" y="12" width="1" height="1" fill="#DBDBDB" />
  <rect x="8" y="12" width="1" height="1" fill="#D6D6D6" />
  <rect x="9" y="12" width="1" height="1" fill="#C0C0C0" />
  <rect x="10" y="12" width="1" height="1" fill="#C9C9C9" />
  <rect x="11" y="12" width="1" height="1" fill="#E6E6E6" />
  <rect x="12" y="12" width="1" height="1" fill="#C4C4C4" />
  <rect x="13" y="12" width="1" height="1" fill="#8B8B8B" />
  <rect x="3" y="13" width="1" height="1" fill="#A5A5A5" />
  <rect x="4" y="13" width="1" height="1" fill="#CECECE" />
  <rect x="5" y="13" width="1" height="1" fill="#EDEDED" />
  <rect x="6" y="13" width="1" height="1" fill="#F4F4F4" />
  <rect x="7" y="13" width="1" height="1" fill="#F5F5F5" />
  <rect x="8" y="13" width="1" height="1" fill="#F4F4F4" />
  <rect x="9" y="13" width="1" height="1" fill="#EFEFEF" />
  <rect x="10" y="13" width="1" height="1" fill="#E2E2E2" />
  <rect x="11" y="13" width="1" height="1" fill="#BABABA" />
  <rect x="12" y="13" width="1" height="1" fill="#8A8A8A" />
  <rect x="4" y="14" width="1" height="1" fill="#A1A1A1" />
  <rect x="5" y="14" width="1" height="1" fill="#9F9F9F" />
  <rect x="6" y="14" width="1" height="1" fill="#A1A1A1" />
  <rect x="7" y="14" width="1" height="1" fill="#ABABAB" />
  <rect x="8" y="14" width="1" height="1" fill="#A7A7A7" />
  <rect x="9" y="14" width="1" height="1" fill="#959595" />
  <rect x="10" y="14" width="1" height="1" fill="#8D8D8D" />
  <rect x="11" y="14" width="1" height="1" fill="#898989" />
</svg>