<svg width="16" height="16" viewBox="0 0 16 16" fill="none" xmlns="http://www.w3.org/2000/svg" shape-rendering="crispEdges">
  <rect x="6" y="1" width="4" height="1" fill="#000000" />
  <rect x="5" y="2" width="1" height="1" fill="#000000" />
  <rect x="6" y="2" width="1" height="1" fill="#E66253" />
  <rect x="7" y="2" width="1" height="1" fill="#F17062" />
  <rect x="8" y="2" width="1" height="1" fill="#EF6C5C" />
  <rect x="9" y="2" width="1" height="1" fill="#DF5642" />
  <rect x="10" y="2" width="1" height="1" fill="#000000" />
  <rect x="4" y="3" width="1" height="1" fill="#000000" />
  <rect x="5" y="3" width="1" height="1" fill="#E66455" />
  <rect x="6" y="3" width="1" height="1" fill="#F57A70" />
  <rect x="7" y="3" width="1" height="1" fill="#F88179" />
  <rect x="8" y="3" width="1" height="1" fill="#F57A70" />
  <rect x="9" y="3" width="1" height="1" fill="#F06D5D" />
  <rect x="10" y="3" width="1" height="1" fill="#DD503B" />
  <rect x="11" y="3" width="1" height="1" fill="#000000" />
  <rect x="4" y="4" width="1" height="1" fill="#000000" />
  <rect x="5" y="4" width="1" height="1" fill="#F27163" />
  <rect x="6" y="4" width="1" height="1" fill="#F88179" />
  <rect x="7" y="4" width="1" height="1" fill="#FF9090" />
  <rect x="8" y="4" width="1" height="1" fill="#F88179" />
  <rect x="9" y="4" width="1" height="1" fill="#F27162" />
  <rect x="10" y="4" width="1" height="1" fill="#EA604A" />
  <rect x="11" y="4" width="1" height="1" fill="#000000" />
  <rect x="4" y="5" width="1" height="1" fill="#000000" />
  <rect x="5" y="5" width="1" height="1" fill="#F06D5E" />
  <rect x="6" y="5" width="1" height="1" fill="#F57A70" />
  <rect x="7" y="5" width="1" height="1" fill="#F88179" />
  <rect x="8" y="5" width="1" height="1" fill="#F57A70" />
  <rect x="9" y="5" width="1" height="1" fill="#F06D5D" />
  <rect x="10" y="5" width="1" height="1" fill="#E95E47" />
  <rect x="11" y="5" width="1" height="1" fill="#000000" />
  <rect x="3" y="6" width="2" height="1" fill="#000000" />
  <rect x="5" y="6" width="1" height="1" fill="#E25B49" />
  <rect x="6" y="6" width="1" height="1" fill="#F06D5D" />
  <rect x="7" y="6" width="1" height="1" fill="#F27162" />
  <rect x="8" y="6" width="1" height="1" fill="#F06D5D" />
  <rect x="9" y="6" width="1" height="1" fill="#EC644F" />
  <rect x="10" y="6" width="1" height="1" fill="#D94A34" />
  <rect x="11" y="6" width="1" height="1" fill="#000000" />
  <rect x="2" y="7" width="1" height="1" fill="#000000" />
  <rect x="3" y="7" width="1" height="1" fill="#4E9D44" />
  <rect x="4" y="7" width="1" height="1" fill="#3B8E3B" />
  <rect x="5" y="7" width="1" height="1" fill="#020602" />
  <rect x="6" y="7" width="1" height="1" fill="#DE5441" />
  <rect x="7" y="7" width="1" height="1" fill="#EB614B" />
  <rect x="8" y="7" width="1" height="1" fill="#E95F48" />
  <rect x="9" y="7" width="1" height="1" fill="#DA4B35" />
  <rect x="10" y="7" width="3" height="1" fill="#000000" />
  <rect x="1" y="8" width="1" height="1" fill="#000000" />
  <rect x="2" y="8" width="1" height="1" fill="#4E9D44" />
  <rect x="3" y="8" width="1" height="1" fill="#4FC04F" />
  <rect x="4" y="8" width="1" height="1" fill="#51CA51" />
  <rect x="5" y="8" width="1" height="1" fill="#3F9A3F" />
  <rect x="6" y="8" width="1" height="1" fill="#163516" />
  <rect x="7" y="8" width="1" height="1" fill="#020502" />
  <rect x="8" y="8" width="1" height="1" fill="#000000" />
  <rect x="9" y="8" width="1" height="1" fill="#232329" />
  <rect x="10" y="8" width="1" height="1" fill="#4D637A" />
  <rect x="11" y="8" width="1" height="1" fill="#5A7591" />
  <rect x="12" y="8" width="1" height="1" fill="#616175" />
  <rect x="13" y="8" width="1" height="1" fill="#000000" />
  <rect x="1" y="9" width="1" height="1" fill="#000000" />
  <rect x="2" y="9" width="1" height="1" fill="#4AB14A" />
  <rect x="3" y="9" width="1" height="1" fill="#51CA51" />
  <rect x="4" y="9" width="1" height="1" fill="#58E058" />
  <rect x="5" y="9" width="1" height="1" fill="#51CA51" />
  <rect x="6" y="9" width="1" height="1" fill="#4BB34B" />
  <rect x="7" y="9" width="1" height="1" fill="#459D45" />
  <rect x="8" y="9" width="1" height="1" fill="#040405" />
  <rect x="9" y="9" width="1" height="1" fill="#728EA9" />
  <rect x="10" y="9" width="1" height="1" fill="#7F9AB5" />
  <rect x="11" y="9" width="1" height="1" fill="#728EA9" />
  <rect x="12" y="9" width="1" height="1" fill="#5A7692" />
  <rect x="13" y="9" width="1" height="1" fill="#59586D" />
  <rect x="14" y="9" width="1" height="1" fill="#000000" />
  <rect x="1" y="10" width="1" height="1" fill="#000000" />
  <rect x="2" y="10" width="1" height="1" fill="#48AB48" />
  <rect x="3" y="10" width="1" height="1" fill="#4FC04F" />
  <rect x="4" y="10" width="1" height="1" fill="#51CA51" />
  <rect x="5" y="10" width="1" height="1" fill="#4FC04F" />
  <rect x="6" y="10" width="1" height="1" fill="#49AD49" />
  <rect x="7" y="10" width="1" height="1" fill="#459D45" />
  <rect x="8" y="10" width="1" height="1" fill="#030405" />
  <rect x="9" y="10" width="1" height="1" fill="#7F9AB5" />
  <rect x="10" y="10" width="1" height="1" fill="#9DB7D1" />
  <rect x="11" y="10" width="1" height="1" fill="#7F9AB5" />
  <rect x="12" y="10" width="1" height="1" fill="#617D99" />
  <rect x="13" y="10" width="1" height="1" fill="#435F7C" />
  <rect x="14" y="10" width="1" height="1" fill="#000000" />
  <rect x="1" y="11" width="1" height="1" fill="#000000" />
  <rect x="2" y="11" width="1" height="1" fill="#4A923F" />
  <rect x="3" y="11" width="1" height="1" fill="#49AD49" />
  <rect x="4" y="11" width="1" height="1" fill="#4BB34B" />
  <rect x="5" y="11" width="1" height="1" fill="#49AD49" />
  <rect x="6" y="11" width="1" height="1" fill="#469F46" />
  <rect x="7" y="11" width="1" height="1" fill="#488E3C" />
  <rect x="8" y="11" width="1" height="1" fill="#1B242C" />
  <rect x="9" y="11" width="1" height="1" fill="#728EA9" />
  <rect x="10" y="11" width="1" height="1" fill="#7F9AB5" />
  <rect x="11" y="11" width="1" height="1" fill="#728EA9" />
  <rect x="12" y="11" width="1" height="1" fill="#5A7692" />
  <rect x="13" y="11" width="1" height="1" fill="#3E5B77" />
  <rect x="14" y="11" width="1" height="1" fill="#000000" />
  <rect x="2" y="12" width="1" height="1" fill="#000000" />
  <rect x="3" y="12" width="1" height="1" fill="#49903E" />
  <rect x="4" y="12" width="2" height="1" fill="#459D45" />
  <rect x="6" y="12" width="1" height="1" fill="#488E3C" />
  <rect x="7" y="12" width="1" height="1" fill="#000000" />
  <rect x="8" y="12" width="1" height="1" fill="#4E4E5F" />
  <rect x="9" y="12" width="1" height="1" fill="#5A7692" />
  <rect x="10" y="12" width="1" height="1" fill="#617D99" />
  <rect x="11" y="12" width="1" height="1" fill="#5A7692" />
  <rect x="12" y="12" width="1" height="1" fill="#486481" />
  <rect x="13" y="12" width="1" height="1" fill="#4D4D61" />
  <rect x="14" y="12" width="1" height="1" fill="#000000" />
  <rect x="3" y="13" width="4" height="1" fill="#000000" />
  <rect x="8" y="13" width="1" height="1" fill="#000000" />
  <rect x="9" y="13" width="1" height="1" fill="#59596E" />
  <rect x="10" y="13" width="1" height="1" fill="#435F7C" />
  <rect x="11" y="13" width="1" height="1" fill="#3E5B77" />
  <rect x="12" y="13" width="1" height="1" fill="#4E4D61" />
  <rect x="13" y="13" width="1" height="1" fill="#000000" />
  <rect x="9" y="14" width="4" height="1" fill="#000000" />
</svg>