<svg width="16" height="16" viewBox="0 0 16 16" fill="none" xmlns="http://www.w3.org/2000/svg" shape-rendering="crispEdges">
  <rect x="7" y="0" width="1" height="1" fill="#a26222" fill-opacity="0.204" />
  <rect x="8" y="0" width="1" height="1" fill="#925013" fill-opacity="0.157" />
  <rect x="6" y="1" width="1" height="1" fill="#752900" fill-opacity="0.047" />
  <rect x="7" y="1" width="1" height="1" fill="#db9741" fill-opacity="0.953" />
  <rect x="8" y="1" width="1" height="1" fill="#c77f2e" fill-opacity="0.843" />
  <rect x="9" y="1" width="1" height="1" fill="#3d0e00" fill-opacity="0.004" />
  <rect x="6" y="2" width="1" height="1" fill="#994f0d" fill-opacity="0.529" />
  <rect x="7" y="2" width="1" height="1" fill="#ffbf5d" fill-opacity="1.000" />
  <rect x="8" y="2" width="1" height="1" fill="#fdbb54" fill-opacity="1.000" />
  <rect x="9" y="2" width="1" height="1" fill="#743305" fill-opacity="0.392" />
  <rect x="5" y="3" width="1" height="1" fill="#752b00" fill-opacity="0.106" />
  <rect x="6" y="3" width="1" height="1" fill="#d39340" fill-opacity="1.000" />
  <rect x="7" y="3" width="2" height="1" fill="#f79d26" fill-opacity="1.000" />
  <rect x="9" y="3" width="1" height="1" fill="#cf822a" fill-opacity="0.945" />
  <rect x="10" y="3" width="1" height="1" fill="#4e1600" fill-opacity="0.039" />
  <rect x="5" y="4" width="1" height="1" fill="#9b5514" fill-opacity="0.627" />
  <rect x="6" y="4" width="4" height="1" fill="#f79d26" fill-opacity="1.000" />
  <rect x="10" y="4" width="1" height="1" fill="#793606" fill-opacity="0.486" />
  <rect x="4" y="5" width="1" height="1" fill="#782e00" fill-opacity="0.161" />
  <rect x="5" y="5" width="1" height="1" fill="#d29343" fill-opacity="1.000" />
  <rect x="6" y="5" width="1" height="1" fill="#f79d26" fill-opacity="1.000" />
  <rect x="7" y="5" width="1" height="1" fill="#f2cf93" fill-opacity="1.000" />
  <rect x="8" y="5" width="1" height="1" fill="#f7ca81" fill-opacity="1.000" />
  <rect x="9" y="5" width="1" height="1" fill="#f79d26" fill-opacity="1.000" />
  <rect x="10" y="5" width="1" height="1" fill="#d68826" fill-opacity="1.000" />
  <rect x="11" y="5" width="1" height="1" fill="#3f1100" fill-opacity="0.071" />
  <rect x="4" y="6" width="1" height="1" fill="#a15d19" fill-opacity="0.722" />
  <rect x="5" y="6" width="1" height="1" fill="#edaa4a" fill-opacity="1.000" />
  <rect x="6" y="6" width="1" height="1" fill="#f79d26" fill-opacity="1.000" />
  <rect x="7" y="6" width="1" height="1" fill="#fcf7ee" fill-opacity="1.000" />
  <rect x="8" y="6" width="1" height="1" fill="#fcf4e4" fill-opacity="1.000" />
  <rect x="9" y="6" width="1" height="1" fill="#fc9314" fill-opacity="1.000" />
  <rect x="10" y="6" width="1" height="1" fill="#feac2c" fill-opacity="1.000" />
  <rect x="11" y="6" width="1" height="1" fill="#873f06" fill-opacity="0.588" />
  <rect x="3" y="7" width="1" height="1" fill="#7b3201" fill-opacity="0.243" />
  <rect x="4" y="7" width="1" height="1" fill="#dc9742" fill-opacity="1.000" />
  <rect x="5" y="7" width="2" height="1" fill="#f79d26" fill-opacity="1.000" />
  <rect x="7" y="7" width="1" height="1" fill="#fcf7ec" fill-opacity="1.000" />
  <rect x="8" y="7" width="1" height="1" fill="#fbf3e5" fill-opacity="1.000" />
  <rect x="9" y="7" width="2" height="1" fill="#f79d26" fill-opacity="1.000" />
  <rect x="11" y="7" width="1" height="1" fill="#e27b0f" fill-opacity="1.000" />
  <rect x="12" y="7" width="1" height="1" fill="#391000" fill-opacity="0.129" />
  <rect x="3" y="8" width="1" height="1" fill="#a9641c" fill-opacity="0.812" />
  <rect x="4" y="8" width="1" height="1" fill="#f1a742" fill-opacity="1.000" />
  <rect x="5" y="8" width="2" height="1" fill="#f79d26" fill-opacity="1.000" />
  <rect x="7" y="8" width="1" height="1" fill="#fef8f3" fill-opacity="1.000" />
  <rect x="8" y="8" width="1" height="1" fill="#fcf1e1" fill-opacity="1.000" />
  <rect x="9" y="8" width="2" height="1" fill="#f79d26" fill-opacity="1.000" />
  <rect x="11" y="8" width="1" height="1" fill="#ff970a" fill-opacity="1.000" />
  <rect x="12" y="8" width="1" height="1" fill="#893e04" fill-opacity="0.690" />
  <rect x="2" y="9" width="1" height="1" fill="#7e3503" fill-opacity="0.329" />
  <rect x="3" y="9" width="1" height="1" fill="#e49b3c" fill-opacity="1.000" />
  <rect x="4" y="9" width="1" height="1" fill="#f5a230" fill-opacity="1.000" />
  <rect x="5" y="9" width="2" height="1" fill="#f79d26" fill-opacity="1.000" />
  <rect x="7" y="9" width="1" height="1" fill="#fff8ee" fill-opacity="1.000" />
  <rect x="8" y="9" width="1" height="1" fill="#fef4e8" fill-opacity="1.000" />
  <rect x="9" y="9" width="2" height="1" fill="#f79d26" fill-opacity="1.000" />
  <rect x="11" y="9" width="1" height="1" fill="#ff9003" fill-opacity="1.000" />
  <rect x="12" y="9" width="1" height="1" fill="#e88010" fill-opacity="1.000" />
  <rect x="13" y="9" width="1" height="1" fill="#521c00" fill-opacity="0.212" />
  <rect x="1" y="10" width="1" height="1" fill="#722700" fill-opacity="0.008" />
  <rect x="2" y="10" width="1" height="1" fill="#b76b1c" fill-opacity="0.898" />
  <rect x="3" y="10" width="1" height="1" fill="#faaa39" fill-opacity="1.000" />
  <rect x="4" y="10" width="1" height="1" fill="#fa9619" fill-opacity="1.000" />
  <rect x="5" y="10" width="8" height="1" fill="#f79d26" fill-opacity="1.000" />
  <rect x="13" y="10" width="1" height="1" fill="#944404" fill-opacity="0.788" />
  <rect x="1" y="11" width="1" height="1" fill="#8b3e05" fill-opacity="0.424" />
  <rect x="2" y="11" width="1" height="1" fill="#ef992b" fill-opacity="1.000" />
  <rect x="3" y="11" width="4" height="1" fill="#f79d26" fill-opacity="1.000" />
  <rect x="7" y="11" width="1" height="1" fill="#fcf8ee" fill-opacity="1.000" />
  <rect x="8" y="11" width="1" height="1" fill="#fcf5e5" fill-opacity="1.000" />
  <rect x="9" y="11" width="3" height="1" fill="#f79d26" fill-opacity="1.000" />
  <rect x="12" y="11" width="1" height="1" fill="#ff970a" fill-opacity="1.000" />
  <rect x="13" y="11" width="1" height="1" fill="#ec810d" fill-opacity="1.000" />
  <rect x="14" y="11" width="1" height="1" fill="#5d2000" fill-opacity="0.298" />
  <rect x="0" y="12" width="1" height="1" fill="#7c2c00" fill-opacity="0.047" />
  <rect x="1" y="12" width="1" height="1" fill="#c06007" fill-opacity="0.976" />
  <rect x="2" y="12" width="5" height="1" fill="#f79d26" fill-opacity="1.000" />
  <rect x="7" y="12" width="1" height="1" fill="#ffd798" fill-opacity="1.000" />
  <rect x="8" y="12" width="1" height="1" fill="#ffd38c" fill-opacity="1.000" />
  <rect x="9" y="12" width="4" height="1" fill="#f79d26" fill-opacity="1.000" />
  <rect x="13" y="12" width="1" height="1" fill="#ff960a" fill-opacity="1.000" />
  <rect x="14" y="12" width="1" height="1" fill="#a34a02" fill-opacity="0.871" />
  <rect x="15" y="12" width="1" height="1" fill="#461300" fill-opacity="0.008" />
  <rect x="0" y="13" width="1" height="1" fill="#9f4805" fill-opacity="0.506" />
  <rect x="1" y="13" width="1" height="1" fill="#f27600" fill-opacity="1.000" />
  <rect x="2" y="13" width="12" height="1" fill="#f79d26" fill-opacity="1.000" />
  <rect x="14" y="13" width="1" height="1" fill="#f88707" fill-opacity="1.000" />
  <rect x="15" y="13" width="1" height="1" fill="#632c07" fill-opacity="0.384" />
  <rect x="0" y="14" width="1" height="1" fill="#91490e" fill-opacity="0.482" />
  <rect x="1" y="14" width="1" height="1" fill="#b45604" fill-opacity="0.922" />
  <rect x="2" y="14" width="1" height="1" fill="#b55201" fill-opacity="0.910" />
  <rect x="3" y="14" width="1" height="1" fill="#bc5b06" fill-opacity="0.918" />
  <rect x="4" y="14" width="1" height="1" fill="#be630d" fill-opacity="0.925" />
  <rect x="5" y="14" width="1" height="1" fill="#be6a16" fill-opacity="0.929" />
  <rect x="6" y="14" width="1" height="1" fill="#bf721e" fill-opacity="0.925" />
  <rect x="7" y="14" width="1" height="1" fill="#be7525" fill-opacity="0.925" />
  <rect x="8" y="14" width="1" height="1" fill="#be7626" fill-opacity="0.914" />
  <rect x="9" y="14" width="1" height="1" fill="#bb7020" fill-opacity="0.914" />
  <rect x="10" y="14" width="1" height="1" fill="#ba6818" fill-opacity="0.914" />
  <rect x="11" y="14" width="1" height="1" fill="#b7610e" fill-opacity="0.918" />
  <rect x="12" y="14" width="1" height="1" fill="#c36107" fill-opacity="0.945" />
  <rect x="13" y="14" width="1" height="1" fill="#c65c01" fill-opacity="0.953" />
  <rect x="14" y="14" width="1" height="1" fill="#cb6a08" fill-opacity="0.965" />
  <rect x="15" y="14" width="1" height="1" fill="#723c12" fill-opacity="0.443" />
  <rect x="0" y="15" width="1" height="1" fill="#280c00" fill-opacity="0.059" />
  <rect x="1" y="15" width="1" height="1" fill="#2e0e00" fill-opacity="0.176" />
  <rect x="2" y="15" width="1" height="1" fill="#2b0a00" fill-opacity="0.161" />
  <rect x="3" y="15" width="1" height="1" fill="#2b0a00" fill-opacity="0.157" />
  <rect x="4" y="15" width="1" height="1" fill="#2a0a00" fill-opacity="0.157" />
  <rect x="5" y="15" width="1" height="1" fill="#2b0900" fill-opacity="0.161" />
  <rect x="6" y="15" width="1" height="1" fill="#2d0900" fill-opacity="0.165" />
  <rect x="7" y="15" width="2" height="1" fill="#2e0900" fill-opacity="0.169" />
  <rect x="9" y="15" width="1" height="1" fill="#2d0900" fill-opacity="0.165" />
  <rect x="10" y="15" width="1" height="1" fill="#2b0900" fill-opacity="0.173" />
  <rect x="11" y="15" width="1" height="1" fill="#280900" fill-opacity="0.169" />
  <rect x="12" y="15" width="1" height="1" fill="#491500" fill-opacity="0.204" />
  <rect x="13" y="15" width="1" height="1" fill="#531a00" fill-opacity="0.220" />
  <rect x="14" y="15" width="1" height="1" fill="#531b00" fill-opacity="0.224" />
  <rect x="15" y="15" width="1" height="1" fill="#240900" fill-opacity="0.075" />
</svg>