<svg width="16" height="16" viewBox="0 0 16 16" fill="none" xmlns="http://www.w3.org/2000/svg" shape-rendering="crispEdges">
  <rect x="0" y="0" width="16" height="1" fill="#000000" />
  <rect x="0" y="1" width="1" height="1" fill="#000000" />
  <rect x="1" y="1" width="13" height="1" fill="#DB8EEC" />
  <rect x="14" y="1" width="1" height="1" fill="#551C61" />
  <rect x="15" y="1" width="1" height="1" fill="#000000" />
  <rect x="0" y="2" width="1" height="1" fill="#000000" />
  <rect x="1" y="2" width="1" height="1" fill="#DB8EEC" />
  <rect x="2" y="2" width="12" height="1" fill="#B300BD" />
  <rect x="14" y="2" width="1" height="1" fill="#4D005E" />
  <rect x="15" y="2" width="1" height="1" fill="#000000" />
  <rect x="0" y="3" width="1" height="1" fill="#000000" />
  <rect x="1" y="3" width="1" height="1" fill="#DB8EEC" />
  <rect x="2" y="3" width="1" height="1" fill="#B300BD" />
  <rect x="3" y="3" width="1" height="1" fill="#B400BE" />
  <rect x="4" y="3" width="1" height="1" fill="#C713D2" />
  <rect x="5" y="3" width="1" height="1" fill="#B500C0" />
  <rect x="6" y="3" width="8" height="1" fill="#B300BD" />
  <rect x="14" y="3" width="1" height="1" fill="#4D005E" />
  <rect x="15" y="3" width="1" height="1" fill="#000000" />
  <rect x="0" y="4" width="1" height="1" fill="#000000" />
  <rect x="1" y="4" width="1" height="1" fill="#DB8EEC" />
  <rect x="2" y="4" width="2" height="1" fill="#B300BD" />
  <rect x="4" y="4" width="1" height="1" fill="#FBF3FB" />
  <rect x="5" y="4" width="1" height="1" fill="#E182E6" />
  <rect x="6" y="4" width="1" height="1" fill="#C630CD" />
  <rect x="7" y="4" width="1" height="1" fill="#B400BE" />
  <rect x="8" y="4" width="6" height="1" fill="#B300BD" />
  <rect x="14" y="4" width="1" height="1" fill="#4D005E" />
  <rect x="15" y="4" width="1" height="1" fill="#000000" />
  <rect x="0" y="5" width="1" height="1" fill="#000000" />
  <rect x="1" y="5" width="1" height="1" fill="#DB8EEC" />
  <rect x="2" y="5" width="2" height="1" fill="#B300BD" />
  <rect x="4" y="5" width="1" height="1" fill="#FBF7FC" />
  <rect x="5" y="5" width="1" height="1" fill="#FEFCFE" />
  <rect x="6" y="5" width="1" height="1" fill="#F4D1F4" />
  <rect x="7" y="5" width="1" height="1" fill="#DE77E3" />
  <rect x="8" y="5" width="1" height="1" fill="#B500BF" />
  <rect x="9" y="5" width="5" height="1" fill="#B300BD" />
  <rect x="14" y="5" width="1" height="1" fill="#4D005E" />
  <rect x="15" y="5" width="1" height="1" fill="#000000" />
  <rect x="0" y="6" width="1" height="1" fill="#000000" />
  <rect x="1" y="6" width="1" height="1" fill="#DB8EEC" />
  <rect x="2" y="6" width="2" height="1" fill="#B300BD" />
  <rect x="4" y="6" width="1" height="1" fill="#FCF8FC" />
  <rect x="5" y="6" width="2" height="1" fill="#FFFFFF" />
  <rect x="7" y="6" width="1" height="1" fill="#FCF8FC" />
  <rect x="8" y="6" width="1" height="1" fill="#F6DBF8" />
  <rect x="9" y="6" width="1" height="1" fill="#D56ADA" />
  <rect x="10" y="6" width="1" height="1" fill="#BA11C4" />
  <rect x="11" y="6" width="3" height="1" fill="#B300BD" />
  <rect x="14" y="6" width="1" height="1" fill="#4D005E" />
  <rect x="15" y="6" width="1" height="1" fill="#000000" />
  <rect x="0" y="7" width="1" height="1" fill="#000000" />
  <rect x="1" y="7" width="1" height="1" fill="#DB8EEC" />
  <rect x="2" y="7" width="2" height="1" fill="#B300BD" />
  <rect x="4" y="7" width="1" height="1" fill="#FCF8FC" />
  <rect x="5" y="7" width="3" height="1" fill="#FFFFFF" />
  <rect x="8" y="7" width="1" height="1" fill="#FFFEFF" />
  <rect x="9" y="7" width="1" height="1" fill="#FEFAFD" />
  <rect x="10" y="7" width="1" height="1" fill="#EAB2ED" />
  <rect x="11" y="7" width="1" height="1" fill="#C232CA" />
  <rect x="12" y="7" width="2" height="1" fill="#B300BD" />
  <rect x="14" y="7" width="1" height="1" fill="#4D005E" />
  <rect x="15" y="7" width="1" height="1" fill="#000000" />
  <rect x="0" y="8" width="1" height="1" fill="#000000" />
  <rect x="1" y="8" width="1" height="1" fill="#DB8EEC" />
  <rect x="2" y="8" width="2" height="1" fill="#B300BD" />
  <rect x="4" y="8" width="1" height="1" fill="#FCF8FC" />
  <rect x="5" y="8" width="5" height="1" fill="#FFFFFF" />
  <rect x="10" y="8" width="1" height="1" fill="#FBF4FC" />
  <rect x="11" y="8" width="1" height="1" fill="#ECC3EF" />
  <rect x="12" y="8" width="2" height="1" fill="#B300BD" />
  <rect x="14" y="8" width="1" height="1" fill="#4D005E" />
  <rect x="15" y="8" width="1" height="1" fill="#000000" />
  <rect x="0" y="9" width="1" height="1" fill="#000000" />
  <rect x="1" y="9" width="1" height="1" fill="#DB8EEC" />
  <rect x="2" y="9" width="2" height="1" fill="#B300BD" />
  <rect x="4" y="9" width="1" height="1" fill="#FCF8FC" />
  <rect x="5" y="9" width="3" height="1" fill="#FFFFFF" />
  <rect x="8" y="9" width="1" height="1" fill="#FDFAFD" />
  <rect x="9" y="9" width="1" height="1" fill="#F5DFF6" />
  <rect x="10" y="9" width="1" height="1" fill="#CE5CD4" />
  <rect x="11" y="9" width="1" height="1" fill="#BA19C3" />
  <rect x="12" y="9" width="2" height="1" fill="#B300BD" />
  <rect x="14" y="9" width="1" height="1" fill="#4D005E" />
  <rect x="15" y="9" width="1" height="1" fill="#000000" />
  <rect x="0" y="10" width="1" height="1" fill="#000000" />
  <rect x="1" y="10" width="1" height="1" fill="#DB8EEC" />
  <rect x="2" y="10" width="2" height="1" fill="#B300BD" />
  <rect x="4" y="10" width="1" height="1" fill="#FCF8FC" />
  <rect x="5" y="10" width="1" height="1" fill="#FFFFFF" />
  <rect x="6" y="10" width="1" height="1" fill="#FDF9FD" />
  <rect x="7" y="10" width="1" height="1" fill="#F5E0F6" />
  <rect x="8" y="10" width="1" height="1" fill="#D57ADB" />
  <rect x="9" y="10" width="1" height="1" fill="#B914C2" />
  <rect x="10" y="10" width="4" height="1" fill="#B300BD" />
  <rect x="14" y="10" width="1" height="1" fill="#4D005E" />
  <rect x="15" y="10" width="1" height="1" fill="#000000" />
  <rect x="0" y="11" width="1" height="1" fill="#000000" />
  <rect x="1" y="11" width="1" height="1" fill="#DB8EEC" />
  <rect x="2" y="11" width="2" height="1" fill="#B300BD" />
  <rect x="4" y="11" width="1" height="1" fill="#FBF5FB" />
  <rect x="5" y="11" width="1" height="1" fill="#FCF8FC" />
  <rect x="6" y="11" width="1" height="1" fill="#DDA1E4" />
  <rect x="7" y="11" width="1" height="1" fill="#C241CC" />
  <rect x="8" y="11" width="1" height="1" fill="#B100BD" />
  <rect x="9" y="11" width="5" height="1" fill="#B300BD" />
  <rect x="14" y="11" width="1" height="1" fill="#4D005E" />
  <rect x="15" y="11" width="1" height="1" fill="#000000" />
  <rect x="0" y="12" width="1" height="1" fill="#000000" />
  <rect x="1" y="12" width="1" height="1" fill="#DB8EEC" />
  <rect x="2" y="12" width="2" height="1" fill="#B300BD" />
  <rect x="4" y="12" width="1" height="1" fill="#E4A7E8" />
  <rect x="5" y="12" width="1" height="1" fill="#B62AC5" />
  <rect x="6" y="12" width="8" height="1" fill="#B300BD" />
  <rect x="14" y="12" width="1" height="1" fill="#4D005E" />
  <rect x="15" y="12" width="1" height="1" fill="#000000" />
  <rect x="0" y="13" width="1" height="1" fill="#000000" />
  <rect x="1" y="13" width="1" height="1" fill="#DB8EEC" />
  <rect x="2" y="13" width="2" height="1" fill="#B300BD" />
  <rect x="4" y="13" width="1" height="1" fill="#B60CC0" />
  <rect x="5" y="13" width="1" height="1" fill="#B200BD" />
  <rect x="6" y="13" width="8" height="1" fill="#B300BD" />
  <rect x="14" y="13" width="1" height="1" fill="#4D005E" />
  <rect x="15" y="13" width="1" height="1" fill="#000000" />
  <rect x="0" y="14" width="1" height="1" fill="#000000" />
  <rect x="1" y="14" width="1" height="1" fill="#551C61" />
  <rect x="2" y="14" width="13" height="1" fill="#4D005E" />
  <rect x="15" y="14" width="1" height="1" fill="#000000" />
  <rect x="0" y="15" width="16" height="1" fill="#000000" />
</svg>