<svg width="16" height="16" viewBox="0 0 16 16" fill="none" xmlns="http://www.w3.org/2000/svg" shape-rendering="crispEdges">
  <rect x="1" y="0" width="14" height="1" fill="#000000" />
  <rect x="0" y="1" width="1" height="1" fill="#000000" />
  <rect x="1" y="1" width="1" height="1" fill="#F7F8FA" />
  <rect x="2" y="1" width="1" height="1" fill="#CBDDEB" />
  <rect x="3" y="1" width="1" height="1" fill="#C88A80" />
  <rect x="4" y="1" width="4" height="1" fill="#D18F84" />
  <rect x="8" y="1" width="1" height="1" fill="#CF8D82" />
  <rect x="9" y="1" width="1" height="1" fill="#000000" />
  <rect x="10" y="1" width="1" height="1" fill="#A49626" />
  <rect x="11" y="1" width="1" height="1" fill="#634A1E" />
  <rect x="12" y="1" width="1" height="1" fill="#000000" />
  <rect x="13" y="1" width="1" height="1" fill="#A8BBCC" />
  <rect x="14" y="1" width="1" height="1" fill="#BFD5E8" />
  <rect x="15" y="1" width="1" height="1" fill="#000000" />
  <rect x="0" y="2" width="1" height="1" fill="#000000" />
  <rect x="1" y="2" width="1" height="1" fill="#DBE7F1" />
  <rect x="2" y="2" width="1" height="1" fill="#8DA9BE" />
  <rect x="3" y="2" width="1" height="1" fill="#B7877E" />
  <rect x="4" y="2" width="1" height="1" fill="#C77568" />
  <rect x="5" y="2" width="2" height="1" fill="#C77467" />
  <rect x="7" y="2" width="1" height="1" fill="#C57366" />
  <rect x="8" y="2" width="1" height="1" fill="#000000" />
  <rect x="9" y="2" width="1" height="1" fill="#FCEB3D" />
  <rect x="10" y="2" width="1" height="1" fill="#F7B544" />
  <rect x="11" y="2" width="1" height="1" fill="#61522E" />
  <rect x="12" y="2" width="1" height="1" fill="#000000" />
  <rect x="13" y="2" width="1" height="1" fill="#72899A" />
  <rect x="14" y="2" width="1" height="1" fill="#54697C" />
  <rect x="15" y="2" width="1" height="1" fill="#000000" />
  <rect x="0" y="3" width="1" height="1" fill="#000000" />
  <rect x="1" y="3" width="1" height="1" fill="#CFE0ED" />
  <rect x="2" y="3" width="1" height="1" fill="#8DA9BE" />
  <rect x="3" y="3" width="1" height="1" fill="#D7D7D7" />
  <rect x="4" y="3" width="2" height="1" fill="#FEFEFE" />
  <rect x="6" y="3" width="1" height="1" fill="#FCFCFC" />
  <rect x="7" y="3" width="1" height="1" fill="#000000" />
  <rect x="8" y="3" width="1" height="1" fill="#F9DF39" />
  <rect x="9" y="3" width="1" height="1" fill="#F7B545" />
  <rect x="10" y="3" width="1" height="1" fill="#6C5F34" />
  <rect x="11" y="3" width="1" height="1" fill="#000000" />
  <rect x="12" y="3" width="1" height="1" fill="#B4B4B4" />
  <rect x="13" y="3" width="1" height="1" fill="#84A0B5" />
  <rect x="14" y="3" width="1" height="1" fill="#4F6475" />
  <rect x="15" y="3" width="1" height="1" fill="#000000" />
  <rect x="0" y="4" width="1" height="1" fill="#000000" />
  <rect x="1" y="4" width="1" height="1" fill="#CFE0ED" />
  <rect x="2" y="4" width="1" height="1" fill="#8DA9BE" />
  <rect x="3" y="4" width="2" height="1" fill="#D7D7D7" />
  <rect x="5" y="4" width="1" height="1" fill="#D6D6D6" />
  <rect x="6" y="4" width="1" height="1" fill="#000000" />
  <rect x="7" y="4" width="1" height="1" fill="#F8D837" />
  <rect x="8" y="4" width="1" height="1" fill="#EFB44D" />
  <rect x="9" y="4" width="1" height="1" fill="#584D2B" />
  <rect x="10" y="4" width="1" height="1" fill="#000000" />
  <rect x="11" y="4" width="1" height="1" fill="#8F8F8F" />
  <rect x="12" y="4" width="1" height="1" fill="#F1F1F1" />
  <rect x="13" y="4" width="1" height="1" fill="#819AAE" />
  <rect x="14" y="4" width="1" height="1" fill="#496072" />
  <rect x="15" y="4" width="1" height="1" fill="#000000" />
  <rect x="0" y="5" width="1" height="1" fill="#000000" />
  <rect x="1" y="5" width="1" height="1" fill="#CFE0ED" />
  <rect x="2" y="5" width="1" height="1" fill="#8DA9BE" />
  <rect x="3" y="5" width="1" height="1" fill="#D7D7D7" />
  <rect x="4" y="5" width="1" height="1" fill="#FDFDFD" />
  <rect x="5" y="5" width="1" height="1" fill="#000000" />
  <rect x="6" y="5" width="1" height="1" fill="#F6D236" />
  <rect x="7" y="5" width="1" height="1" fill="#EDA43E" />
  <rect x="8" y="5" width="1" height="1" fill="#584E2B" />
  <rect x="9" y="5" width="1" height="1" fill="#000000" />
  <rect x="10" y="5" width="1" height="1" fill="#AAAAAA" />
  <rect x="11" y="5" width="1" height="1" fill="#D3D3D3" />
  <rect x="12" y="5" width="1" height="1" fill="#F1F1F1" />
  <rect x="13" y="5" width="1" height="1" fill="#819AAE" />
  <rect x="14" y="5" width="1" height="1" fill="#485F71" />
  <rect x="15" y="5" width="1" height="1" fill="#000000" />
  <rect x="0" y="6" width="1" height="1" fill="#000000" />
  <rect x="1" y="6" width="1" height="1" fill="#CFE0ED" />
  <rect x="2" y="6" width="1" height="1" fill="#8DA9BE" />
  <rect x="3" y="6" width="1" height="1" fill="#D7D7D7" />
  <rect x="4" y="6" width="1" height="1" fill="#D5D5D5" />
  <rect x="5" y="6" width="1" height="1" fill="#000000" />
  <rect x="6" y="6" width="1" height="1" fill="#D7AE74" />
  <rect x="7" y="6" width="1" height="1" fill="#61562F" />
  <rect x="8" y="6" width="1" height="1" fill="#000000" />
  <rect x="9" y="6" width="1" height="1" fill="#737373" />
  <rect x="10" y="6" width="1" height="1" fill="#C5C5C5" />
  <rect x="11" y="6" width="1" height="1" fill="#B0B0B0" />
  <rect x="12" y="6" width="1" height="1" fill="#F1F1F1" />
  <rect x="13" y="6" width="1" height="1" fill="#7F98AC" />
  <rect x="14" y="6" width="1" height="1" fill="#496072" />
  <rect x="15" y="6" width="1" height="1" fill="#000000" />
  <rect x="0" y="7" width="1" height="1" fill="#000000" />
  <rect x="1" y="7" width="1" height="1" fill="#CFE0ED" />
  <rect x="2" y="7" width="1" height="1" fill="#8DA9BE" />
  <rect x="3" y="7" width="1" height="1" fill="#EDEDED" />
  <rect x="4" y="7" width="1" height="1" fill="#000000" />
  <rect x="5" y="7" width="1" height="1" fill="#4F4115" />
  <rect x="6" y="7" width="2" height="1" fill="#000000" />
  <rect x="8" y="7" width="1" height="1" fill="#8D8D8D" />
  <rect x="9" y="7" width="1" height="1" fill="#D3D3D3" />
  <rect x="10" y="7" width="2" height="1" fill="#EBEBEB" />
  <rect x="12" y="7" width="1" height="1" fill="#ECECEC" />
  <rect x="13" y="7" width="1" height="1" fill="#819AAE" />
  <rect x="14" y="7" width="1" height="1" fill="#496072" />
  <rect x="15" y="7" width="1" height="1" fill="#000000" />
  <rect x="0" y="8" width="1" height="1" fill="#000000" />
  <rect x="1" y="8" width="1" height="1" fill="#CFE0ED" />
  <rect x="2" y="8" width="1" height="1" fill="#8DA9BE" />
  <rect x="3" y="8" width="1" height="1" fill="#ACBDCB" />
  <rect x="4" y="8" width="2" height="1" fill="#000000" />
  <rect x="6" y="8" width="1" height="1" fill="#6F767D" />
  <rect x="7" y="8" width="1" height="1" fill="#9AA3AC" />
  <rect x="8" y="8" width="3" height="1" fill="#BFCBD6" />
  <rect x="11" y="8" width="1" height="1" fill="#BDC9D4" />
  <rect x="12" y="8" width="1" height="1" fill="#A1B6C4" />
  <rect x="13" y="8" width="1" height="1" fill="#819AAE" />
  <rect x="14" y="8" width="1" height="1" fill="#496072" />
  <rect x="15" y="8" width="1" height="1" fill="#000000" />
  <rect x="0" y="9" width="1" height="1" fill="#000000" />
  <rect x="1" y="9" width="1" height="1" fill="#CFE0ED" />
  <rect x="2" y="9" width="1" height="1" fill="#8DA9BE" />
  <rect x="3" y="9" width="1" height="1" fill="#8BA7BC" />
  <rect x="4" y="9" width="1" height="1" fill="#809CB0" />
  <rect x="5" y="9" width="1" height="1" fill="#6C8394" />
  <rect x="6" y="9" width="4" height="1" fill="#819AAE" />
  <rect x="10" y="9" width="1" height="1" fill="#7D97AB" />
  <rect x="11" y="9" width="1" height="1" fill="#7D97AC" />
  <rect x="12" y="9" width="2" height="1" fill="#819AAE" />
  <rect x="14" y="9" width="1" height="1" fill="#496072" />
  <rect x="15" y="9" width="1" height="1" fill="#000000" />
  <rect x="0" y="10" width="1" height="1" fill="#000000" />
  <rect x="1" y="10" width="1" height="1" fill="#CFE0ED" />
  <rect x="2" y="10" width="1" height="1" fill="#8DA9BE" />
  <rect x="3" y="10" width="1" height="1" fill="#8BA7BC" />
  <rect x="4" y="10" width="1" height="1" fill="#A4ACB8" />
  <rect x="5" y="10" width="2" height="1" fill="#B9B9B9" />
  <rect x="7" y="10" width="1" height="1" fill="#C7C7C7" />
  <rect x="8" y="10" width="1" height="1" fill="#E1E1E1" />
  <rect x="9" y="10" width="1" height="1" fill="#D4D4D4" />
  <rect x="10" y="10" width="1" height="1" fill="#9C9D9D" />
  <rect x="11" y="10" width="1" height="1" fill="#2F4656" />
  <rect x="12" y="10" width="1" height="1" fill="#80868C" />
  <rect x="13" y="10" width="1" height="1" fill="#819AAE" />
  <rect x="14" y="10" width="1" height="1" fill="#496072" />
  <rect x="15" y="10" width="1" height="1" fill="#000000" />
  <rect x="0" y="11" width="1" height="1" fill="#000000" />
  <rect x="1" y="11" width="1" height="1" fill="#CFE0ED" />
  <rect x="2" y="11" width="1" height="1" fill="#8DA9BE" />
  <rect x="3" y="11" width="1" height="1" fill="#84A0B5" />
  <rect x="4" y="11" width="2" height="1" fill="#C5C5C5" />
  <rect x="6" y="11" width="1" height="1" fill="#183042" />
  <rect x="7" y="11" width="1" height="1" fill="#33495A" />
  <rect x="8" y="11" width="1" height="1" fill="#D5D5D5" />
  <rect x="9" y="11" width="1" height="1" fill="#C5C5C5" />
  <rect x="10" y="11" width="1" height="1" fill="#B9B9B9" />
  <rect x="11" y="11" width="1" height="1" fill="#132D3C" />
  <rect x="12" y="11" width="1" height="1" fill="#586D80" />
  <rect x="13" y="11" width="1" height="1" fill="#97A5B0" />
  <rect x="14" y="11" width="1" height="1" fill="#496072" />
  <rect x="15" y="11" width="1" height="1" fill="#000000" />
  <rect x="0" y="12" width="1" height="1" fill="#000000" />
  <rect x="1" y="12" width="1" height="1" fill="#CFE0ED" />
  <rect x="2" y="12" width="1" height="1" fill="#86A4B9" />
  <rect x="3" y="12" width="1" height="1" fill="#819AAE" />
  <rect x="4" y="12" width="1" height="1" fill="#C5C5C5" />
  <rect x="5" y="12" width="1" height="1" fill="#CDCDCD" />
  <rect x="6" y="12" width="1" height="1" fill="#2E4353" />
  <rect x="7" y="12" width="1" height="1" fill="#5A7082" />
  <rect x="8" y="12" width="2" height="1" fill="#C5C5C5" />
  <rect x="10" y="12" width="1" height="1" fill="#BFBFBF" />
  <rect x="11" y="12" width="1" height="1" fill="#112835" />
  <rect x="12" y="12" width="1" height="1" fill="#5A7082" />
  <rect x="13" y="12" width="1" height="1" fill="#9DA9B0" />
  <rect x="14" y="12" width="1" height="1" fill="#496072" />
  <rect x="15" y="12" width="1" height="1" fill="#000000" />
  <rect x="0" y="13" width="1" height="1" fill="#000000" />
  <rect x="1" y="13" width="1" height="1" fill="#6B7882" />
  <rect x="2" y="13" width="1" height="1" fill="#829DB1" />
  <rect x="3" y="13" width="1" height="1" fill="#7F98AC" />
  <rect x="4" y="13" width="1" height="1" fill="#CBCBCB" />
  <rect x="5" y="13" width="1" height="1" fill="#E5E5E5" />
  <rect x="6" y="13" width="1" height="1" fill="#213648" />
  <rect x="7" y="13" width="1" height="1" fill="#5F7989" />
  <rect x="8" y="13" width="1" height="1" fill="#C5C5C5" />
  <rect x="9" y="13" width="1" height="1" fill="#C2C2C2" />
  <rect x="10" y="13" width="1" height="1" fill="#B2B2B2" />
  <rect x="11" y="13" width="1" height="1" fill="#112C3A" />
  <rect x="12" y="13" width="1" height="1" fill="#5A7082" />
  <rect x="13" y="13" width="1" height="1" fill="#9FA9B0" />
  <rect x="14" y="13" width="1" height="1" fill="#496072" />
  <rect x="15" y="13" width="1" height="1" fill="#000000" />
  <rect x="0" y="14" width="2" height="1" fill="#000000" />
  <rect x="2" y="14" width="1" height="1" fill="#59636D" />
  <rect x="3" y="14" width="1" height="1" fill="#4F6475" />
  <rect x="4" y="14" width="1" height="1" fill="#A1A1A1" />
  <rect x="5" y="14" width="1" height="1" fill="#C0C0C0" />
  <rect x="6" y="14" width="2" height="1" fill="#909090" />
  <rect x="8" y="14" width="1" height="1" fill="#868686" />
  <rect x="9" y="14" width="1" height="1" fill="#6E6E6E" />
  <rect x="10" y="14" width="1" height="1" fill="#7A7A7A" />
  <rect x="11" y="14" width="1" height="1" fill="#2D3949" />
  <rect x="12" y="14" width="1" height="1" fill="#3E4F5C" />
  <rect x="13" y="14" width="1" height="1" fill="#80878F" />
  <rect x="14" y="14" width="1" height="1" fill="#1A3140" />
  <rect x="15" y="14" width="1" height="1" fill="#000000" />
  <rect x="1" y="15" width="14" height="1" fill="#000000" />
</svg>