<svg width="16" height="16" viewBox="0 0 16 16" fill="none" xmlns="http://www.w3.org/2000/svg" shape-rendering="crispEdges">
  <rect x="3" y="2" width="5" height="1" fill="#A0A000" />
  <rect x="2" y="3" width="1" height="1" fill="#A0A000" />
  <rect x="8" y="3" width="1" height="1" fill="#A0A000" />
  <rect x="1" y="4" width="1" height="1" fill="#A0A000" />
  <rect x="3" y="4" width="5" height="1" fill="#FFFF80" />
  <rect x="9" y="4" width="6" height="1" fill="#A0A000" />
  <rect x="1" y="5" width="1" height="1" fill="#A0A000" />
  <rect x="3" y="5" width="7" height="1" fill="#FFFF80" />
  <rect x="14" y="5" width="1" height="1" fill="#C0C080" />
  <rect x="15" y="5" width="1" height="1" fill="#000000" />
  <rect x="1" y="6" width="1" height="1" fill="#A0A000" />
  <rect x="3" y="6" width="11" height="1" fill="#FFFF80" />
  <rect x="14" y="6" width="1" height="1" fill="#C0C080" />
  <rect x="15" y="6" width="1" height="1" fill="#000000" />
  <rect x="0" y="7" width="12" height="1" fill="#A0A000" />
  <rect x="12" y="7" width="1" height="1" fill="#C0C080" />
  <rect x="13" y="7" width="1" height="1" fill="#FFFF80" />
  <rect x="14" y="7" width="1" height="1" fill="#C0C080" />
  <rect x="15" y="7" width="1" height="1" fill="#000000" />
  <rect x="0" y="8" width="1" height="1" fill="#A0A000" />
  <rect x="2" y="8" width="6" height="1" fill="#FFFF80" />
  <rect x="8" y="8" width="1" height="1" fill="#FFC080" />
  <rect x="9" y="8" width="1" height="1" fill="#FFFF80" />
  <rect x="10" y="8" width="1" height="1" fill="#FFC080" />
  <rect x="11" y="8" width="1" height="1" fill="#C0C080" />
  <rect x="12" y="8" width="1" height="1" fill="#000000" />
  <rect x="13" y="8" width="2" height="1" fill="#C0C080" />
  <rect x="15" y="8" width="1" height="1" fill="#000000" />
  <rect x="0" y="9" width="1" height="1" fill="#A0A000" />
  <rect x="2" y="9" width="4" height="1" fill="#FFFF80" />
  <rect x="6" y="9" width="1" height="1" fill="#FFC080" />
  <rect x="7" y="9" width="2" height="1" fill="#FFFF80" />
  <rect x="9" y="9" width="1" height="1" fill="#FFC080" />
  <rect x="10" y="9" width="1" height="1" fill="#FFFF80" />
  <rect x="11" y="9" width="1" height="1" fill="#C0C080" />
  <rect x="12" y="9" width="1" height="1" fill="#000000" />
  <rect x="13" y="9" width="2" height="1" fill="#C0C080" />
  <rect x="15" y="9" width="1" height="1" fill="#000000" />
  <rect x="1" y="10" width="1" height="1" fill="#A0A000" />
  <rect x="3" y="10" width="5" height="1" fill="#FFFF80" />
  <rect x="8" y="10" width="1" height="1" fill="#FFC080" />
  <rect x="9" y="10" width="1" height="1" fill="#FFFF80" />
  <rect x="10" y="10" width="2" height="1" fill="#FFC080" />
  <rect x="12" y="10" width="1" height="1" fill="#A0A000" />
  <rect x="13" y="10" width="1" height="1" fill="#000000" />
  <rect x="14" y="10" width="1" height="1" fill="#A0A000" />
  <rect x="15" y="10" width="1" height="1" fill="#000000" />
  <rect x="1" y="11" width="1" height="1" fill="#A0A000" />
  <rect x="3" y="11" width="2" height="1" fill="#FFFF80" />
  <rect x="5" y="11" width="1" height="1" fill="#FFC080" />
  <rect x="6" y="11" width="1" height="1" fill="#FFFF80" />
  <rect x="7" y="11" width="1" height="1" fill="#FFC080" />
  <rect x="8" y="11" width="1" height="1" fill="#FFFF80" />
  <rect x="9" y="11" width="3" height="1" fill="#FFC080" />
  <rect x="12" y="11" width="1" height="1" fill="#C0C080" />
  <rect x="13" y="11" width="1" height="1" fill="#000000" />
  <rect x="14" y="11" width="1" height="1" fill="#A0A000" />
  <rect x="15" y="11" width="1" height="1" fill="#000000" />
  <rect x="2" y="12" width="1" height="1" fill="#A0A000" />
  <rect x="4" y="12" width="1" height="1" fill="#FFC080" />
  <rect x="5" y="12" width="1" height="1" fill="#FFFF80" />
  <rect x="6" y="12" width="1" height="1" fill="#FFC080" />
  <rect x="7" y="12" width="1" height="1" fill="#FFFF80" />
  <rect x="8" y="12" width="4" height="1" fill="#FFC080" />
  <rect x="12" y="12" width="1" height="1" fill="#C0C080" />
  <rect x="13" y="12" width="1" height="1" fill="#A0A000" />
  <rect x="14" y="12" width="2" height="1" fill="#000000" />
  <rect x="2" y="13" width="12" height="1" fill="#A0A000" />
  <rect x="14" y="13" width="2" height="1" fill="#000000" />
  <rect x="3" y="14" width="13" height="1" fill="#000000" />
</svg>