<svg width="16" height="16" viewBox="0 0 16 16" fill="none" xmlns="http://www.w3.org/2000/svg" shape-rendering="crispEdges">
  <rect x="3" y="1" width="1" height="1" fill="#0000ff" fill-opacity="0.004" />
  <rect x="4" y="1" width="1" height="1" fill="#443cd2" fill-opacity="0.353" />
  <rect x="5" y="1" width="1" height="1" fill="#4041d0" fill-opacity="0.612" />
  <rect x="6" y="1" width="1" height="1" fill="#3f41d1" fill-opacity="0.631" />
  <rect x="7" y="1" width="1" height="1" fill="#443acf" fill-opacity="0.294" />
  <rect x="2" y="2" width="1" height="1" fill="#3b3bd8" fill-opacity="0.051" />
  <rect x="3" y="2" width="1" height="1" fill="#403fd1" fill-opacity="0.839" />
  <rect x="4" y="2" width="1" height="1" fill="#3753d2" fill-opacity="0.949" />
  <rect x="5" y="2" width="1" height="1" fill="#2a6cd4" fill-opacity="1.000" />
  <rect x="6" y="2" width="1" height="1" fill="#2c6ad4" fill-opacity="1.000" />
  <rect x="7" y="2" width="1" height="1" fill="#3a52d1" fill-opacity="0.941" />
  <rect x="8" y="2" width="1" height="1" fill="#4141d0" fill-opacity="0.741" />
  <rect x="9" y="2" width="1" height="1" fill="#4040df" fill-opacity="0.031" />
  <rect x="2" y="3" width="1" height="1" fill="#4041d0" fill-opacity="0.722" />
  <rect x="3" y="3" width="1" height="1" fill="#2f64d3" fill-opacity="0.984" />
  <rect x="4" y="3" width="1" height="1" fill="#335cd2" fill-opacity="1.000" />
  <rect x="5" y="3" width="1" height="1" fill="#3b6bd5" fill-opacity="1.000" />
  <rect x="6" y="3" width="1" height="1" fill="#4592db" fill-opacity="1.000" />
  <rect x="7" y="3" width="1" height="1" fill="#4f98dd" fill-opacity="1.000" />
  <rect x="8" y="3" width="1" height="1" fill="#4965d6" fill-opacity="0.969" />
  <rect x="9" y="3" width="1" height="1" fill="#4540d1" fill-opacity="0.435" />
  <rect x="1" y="4" width="1" height="1" fill="#4040cf" fill-opacity="0.063" />
  <rect x="2" y="4" width="1" height="1" fill="#3e45d1" fill-opacity="0.918" />
  <rect x="3" y="4" width="1" height="1" fill="#3165d3" fill-opacity="1.000" />
  <rect x="4" y="4" width="1" height="1" fill="#4153d3" fill-opacity="1.000" />
  <rect x="5" y="4" width="1" height="1" fill="#4545d1" fill-opacity="1.000" />
  <rect x="6" y="4" width="1" height="1" fill="#629ae0" fill-opacity="1.000" />
  <rect x="7" y="4" width="1" height="1" fill="#73ade4" fill-opacity="1.000" />
  <rect x="8" y="4" width="1" height="1" fill="#72a4e3" fill-opacity="1.000" />
  <rect x="9" y="4" width="1" height="1" fill="#4743d2" fill-opacity="0.890" />
  <rect x="10" y="4" width="1" height="1" fill="#0000ff" fill-opacity="0.004" />
  <rect x="1" y="5" width="1" height="1" fill="#4239d0" fill-opacity="0.212" />
  <rect x="2" y="5" width="1" height="1" fill="#3750d1" fill-opacity="0.922" />
  <rect x="3" y="5" width="1" height="1" fill="#3b7ed7" fill-opacity="1.000" />
  <rect x="4" y="5" width="1" height="1" fill="#4647d2" fill-opacity="1.000" />
  <rect x="5" y="5" width="1" height="1" fill="#4d54d4" fill-opacity="1.000" />
  <rect x="6" y="5" width="1" height="1" fill="#85b7e7" fill-opacity="1.000" />
  <rect x="7" y="5" width="1" height="1" fill="#95c1eb" fill-opacity="1.000" />
  <rect x="8" y="5" width="1" height="1" fill="#9cc5ec" fill-opacity="1.000" />
  <rect x="9" y="5" width="1" height="1" fill="#4d4bd4" fill-opacity="0.925" />
  <rect x="10" y="5" width="1" height="1" fill="#3939c6" fill-opacity="0.035" />
  <rect x="1" y="6" width="1" height="1" fill="#4040cc" fill-opacity="0.078" />
  <rect x="2" y="6" width="1" height="1" fill="#3f45d1" fill-opacity="0.925" />
  <rect x="3" y="6" width="1" height="1" fill="#4894dc" fill-opacity="1.000" />
  <rect x="4" y="6" width="1" height="1" fill="#67a5e2" fill-opacity="1.000" />
  <rect x="5" y="6" width="1" height="1" fill="#85b8e7" fill-opacity="1.000" />
  <rect x="6" y="6" width="1" height="1" fill="#a1c8ed" fill-opacity="1.000" />
  <rect x="7" y="6" width="1" height="1" fill="#b6d4f1" fill-opacity="1.000" />
  <rect x="8" y="6" width="1" height="1" fill="#bcd5f2" fill-opacity="1.000" />
  <rect x="9" y="6" width="1" height="1" fill="#4e48d4" fill-opacity="0.875" />
  <rect x="2" y="7" width="1" height="1" fill="#4141d2" fill-opacity="0.749" />
  <rect x="3" y="7" width="1" height="1" fill="#4c7cda" fill-opacity="0.996" />
  <rect x="4" y="7" width="1" height="1" fill="#71ace4" fill-opacity="1.000" />
  <rect x="5" y="7" width="1" height="1" fill="#92bfea" fill-opacity="1.000" />
  <rect x="6" y="7" width="1" height="1" fill="#b3d2f0" fill-opacity="1.000" />
  <rect x="7" y="7" width="1" height="1" fill="#d1e4f6" fill-opacity="1.000" />
  <rect x="8" y="7" width="1" height="1" fill="#d4dcf6" fill-opacity="1.000" />
  <rect x="9" y="7" width="1" height="1" fill="#4f48d3" fill-opacity="0.871" />
  <rect x="10" y="7" width="1" height="1" fill="#4040df" fill-opacity="0.031" />
  <rect x="2" y="8" width="1" height="1" fill="#453bce" fill-opacity="0.102" />
  <rect x="3" y="8" width="1" height="1" fill="#4443d0" fill-opacity="0.792" />
  <rect x="4" y="8" width="1" height="1" fill="#505bd5" fill-opacity="0.933" />
  <rect x="5" y="8" width="1" height="1" fill="#7f9ee3" fill-opacity="1.000" />
  <rect x="6" y="8" width="1" height="1" fill="#8c9be5" fill-opacity="1.000" />
  <rect x="7" y="8" width="1" height="1" fill="#888be3" fill-opacity="0.961" />
  <rect x="8" y="8" width="1" height="1" fill="#dfe3f7" fill-opacity="1.000" />
  <rect x="9" y="8" width="1" height="1" fill="#a3a9e9" fill-opacity="0.973" />
  <rect x="10" y="8" width="1" height="1" fill="#4f49d3" fill-opacity="0.749" />
  <rect x="11" y="8" width="1" height="1" fill="#5555aa" fill-opacity="0.012" />
  <rect x="4" y="9" width="1" height="1" fill="#413dd0" fill-opacity="0.278" />
  <rect x="5" y="9" width="1" height="1" fill="#4a47d3" fill-opacity="0.686" />
  <rect x="6" y="9" width="1" height="1" fill="#4a42d3" fill-opacity="0.498" />
  <rect x="7" y="9" width="1" height="1" fill="#443dd1" fill-opacity="0.412" />
  <rect x="8" y="9" width="1" height="1" fill="#5b58d6" fill-opacity="0.933" />
  <rect x="9" y="9" width="1" height="1" fill="#c7def4" fill-opacity="1.000" />
  <rect x="10" y="9" width="1" height="1" fill="#7a86e0" fill-opacity="0.957" />
  <rect x="11" y="9" width="1" height="1" fill="#4845d2" fill-opacity="0.663" />
  <rect x="7" y="10" width="1" height="1" fill="#423ace" fill-opacity="0.122" />
  <rect x="8" y="10" width="1" height="1" fill="#4e4bd3" fill-opacity="0.953" />
  <rect x="9" y="10" width="1" height="1" fill="#8297e3" fill-opacity="1.000" />
  <rect x="10" y="10" width="1" height="1" fill="#93bcea" fill-opacity="1.000" />
  <rect x="11" y="10" width="1" height="1" fill="#5a6ad8" fill-opacity="0.945" />
  <rect x="12" y="10" width="1" height="1" fill="#4543d2" fill-opacity="0.553" />
  <rect x="7" y="11" width="1" height="1" fill="#4937c8" fill-opacity="0.055" />
  <rect x="8" y="11" width="1" height="1" fill="#4a44d3" fill-opacity="0.584" />
  <rect x="9" y="11" width="1" height="1" fill="#4740d3" fill-opacity="0.608" />
  <rect x="10" y="11" width="1" height="1" fill="#5562d7" fill-opacity="0.933" />
  <rect x="11" y="11" width="1" height="1" fill="#64a3e1" fill-opacity="1.000" />
  <rect x="12" y="11" width="1" height="1" fill="#4655d4" fill-opacity="0.937" />
  <rect x="13" y="11" width="1" height="1" fill="#433fce" fill-opacity="0.447" />
  <rect x="9" y="12" width="1" height="1" fill="#423ad3" fill-opacity="0.137" />
  <rect x="10" y="12" width="1" height="1" fill="#474fd3" fill-opacity="0.925" />
  <rect x="11" y="12" width="1" height="1" fill="#4686d9" fill-opacity="1.000" />
  <rect x="12" y="12" width="1" height="1" fill="#3581d7" fill-opacity="1.000" />
  <rect x="13" y="12" width="1" height="1" fill="#423cd0" fill-opacity="0.973" />
  <rect x="14" y="12" width="1" height="1" fill="#3b3bd8" fill-opacity="0.051" />
  <rect x="9" y="13" width="1" height="1" fill="#463ed3" fill-opacity="0.114" />
  <rect x="10" y="13" width="1" height="1" fill="#4141d1" fill-opacity="0.780" />
  <rect x="11" y="13" width="1" height="1" fill="#4140d0" fill-opacity="0.827" />
  <rect x="12" y="13" width="1" height="1" fill="#413ed0" fill-opacity="0.961" />
  <rect x="13" y="13" width="1" height="1" fill="#433bcf" fill-opacity="0.373" />
  <rect x="11" y="14" width="1" height="1" fill="#5555aa" fill-opacity="0.012" />
  <rect x="12" y="14" width="1" height="1" fill="#463ed3" fill-opacity="0.114" />
</svg>