<svg width="16" height="16" viewBox="0 0 32 32" fill="none" xmlns="http://www.w3.org/2000/svg" shape-rendering="crispEdges">
  <rect x="13" y="0" width="1" height="1" fill="#C1D6E0" />
  <rect x="14" y="0" width="1" height="1" fill="#BED2DD" />
  <rect x="15" y="0" width="1" height="1" fill="#C1D6E0" />
  <rect x="16" y="0" width="1" height="1" fill="#C0D6E0" />
  <rect x="17" y="0" width="1" height="1" fill="#BDD2DC" />
  <rect x="18" y="0" width="1" height="1" fill="#C0D5E0" />
  <rect x="10" y="1" width="1" height="1" fill="#C1D5DF" />
  <rect x="11" y="1" width="1" height="1" fill="#C0D6E0" />
  <rect x="12" y="1" width="1" height="1" fill="#BFD5DF" />
  <rect x="13" y="1" width="1" height="1" fill="#BED4DF" />
  <rect x="14" y="1" width="1" height="1" fill="#C0D6E1" />
  <rect x="15" y="1" width="2" height="1" fill="#C0D6E2" />
  <rect x="17" y="1" width="1" height="1" fill="#BFD5E1" />
  <rect x="18" y="1" width="1" height="1" fill="#BDD3DF" />
  <rect x="19" y="1" width="1" height="1" fill="#BDD3DE" />
  <rect x="20" y="1" width="1" height="1" fill="#BDD4DF" />
  <rect x="21" y="1" width="1" height="1" fill="#BCD3DE" />
  <rect x="8" y="2" width="1" height="1" fill="#C0D4DE" />
  <rect x="9" y="2" width="1" height="1" fill="#BFD5DF" />
  <rect x="10" y="2" width="1" height="1" fill="#C0D6E1" />
  <rect x="11" y="2" width="1" height="1" fill="#C6DBE5" />
  <rect x="12" y="2" width="1" height="1" fill="#CCDFE9" />
  <rect x="13" y="2" width="1" height="1" fill="#D0E3EC" />
  <rect x="14" y="2" width="1" height="1" fill="#D2E3ED" />
  <rect x="15" y="2" width="2" height="1" fill="#D3E4ED" />
  <rect x="17" y="2" width="1" height="1" fill="#D2E3ED" />
  <rect x="18" y="2" width="1" height="1" fill="#D1E3EC" />
  <rect x="19" y="2" width="1" height="1" fill="#CCDFE9" />
  <rect x="20" y="2" width="1" height="1" fill="#C5DAE5" />
  <rect x="21" y="2" width="1" height="1" fill="#BED4DF" />
  <rect x="22" y="2" width="1" height="1" fill="#BBD2DE" />
  <rect x="23" y="2" width="1" height="1" fill="#BAD1DC" />
  <rect x="6" y="3" width="1" height="1" fill="#C0D4DE" />
  <rect x="7" y="3" width="2" height="1" fill="#C0D6E0" />
  <rect x="9" y="3" width="1" height="1" fill="#C9DDE7" />
  <rect x="10" y="3" width="1" height="1" fill="#D1E3EC" />
  <rect x="11" y="3" width="1" height="1" fill="#D4E5EE" />
  <rect x="12" y="3" width="1" height="1" fill="#D7E7EF" />
  <rect x="13" y="3" width="1" height="1" fill="#D9E8F0" />
  <rect x="14" y="3" width="1" height="1" fill="#DBE9F1" />
  <rect x="15" y="3" width="2" height="1" fill="#DBEAF1" />
  <rect x="17" y="3" width="1" height="1" fill="#DBE9F1" />
  <rect x="18" y="3" width="1" height="1" fill="#DAE8F0" />
  <rect x="19" y="3" width="1" height="1" fill="#D8E7EF" />
  <rect x="20" y="3" width="1" height="1" fill="#D5E5EE" />
  <rect x="21" y="3" width="1" height="1" fill="#D1E3EC" />
  <rect x="22" y="3" width="1" height="1" fill="#C8DCE7" />
  <rect x="23" y="3" width="1" height="1" fill="#BDD4DF" />
  <rect x="24" y="3" width="1" height="1" fill="#BBD2DD" />
  <rect x="25" y="3" width="1" height="1" fill="#B9CFDB" />
  <rect x="5" y="4" width="1" height="1" fill="#BFD4DE" />
  <rect x="6" y="4" width="1" height="1" fill="#BFD5DF" />
  <rect x="7" y="4" width="1" height="1" fill="#C4D9E4" />
  <rect x="8" y="4" width="1" height="1" fill="#D0E2EC" />
  <rect x="9" y="4" width="1" height="1" fill="#D5E6EE" />
  <rect x="10" y="4" width="1" height="1" fill="#D9E8F0" />
  <rect x="11" y="4" width="1" height="1" fill="#DDEAF1" />
  <rect x="12" y="4" width="1" height="1" fill="#DFECF2" />
  <rect x="13" y="4" width="1" height="1" fill="#E1EDF3" />
  <rect x="14" y="4" width="1" height="1" fill="#DCE6EC" />
  <rect x="15" y="4" width="1" height="1" fill="#AEB6BA" />
  <rect x="16" y="4" width="1" height="1" fill="#9DA5A9" />
  <rect x="17" y="4" width="1" height="1" fill="#B4BDC1" />
  <rect x="18" y="4" width="1" height="1" fill="#DCE7ED" />
  <rect x="19" y="4" width="1" height="1" fill="#DFECF2" />
  <rect x="20" y="4" width="1" height="1" fill="#DDEAF1" />
  <rect x="21" y="4" width="1" height="1" fill="#D9E8F0" />
  <rect x="22" y="4" width="1" height="1" fill="#D5E6EE" />
  <rect x="23" y="4" width="1" height="1" fill="#D0E2EC" />
  <rect x="24" y="4" width="1" height="1" fill="#C2D8E3" />
  <rect x="25" y="4" width="1" height="1" fill="#BAD1DD" />
  <rect x="26" y="4" width="1" height="1" fill="#B7CEDA" />
  <rect x="4" y="5" width="1" height="1" fill="#BFD3DD" />
  <rect x="5" y="5" width="1" height="1" fill="#BFD4DF" />
  <rect x="6" y="5" width="1" height="1" fill="#C7DCE6" />
  <rect x="7" y="5" width="1" height="1" fill="#D2E4ED" />
  <rect x="8" y="5" width="1" height="1" fill="#D8E7F0" />
  <rect x="9" y="5" width="1" height="1" fill="#DDEAF1" />
  <rect x="10" y="5" width="1" height="1" fill="#E1ECF3" />
  <rect x="11" y="5" width="1" height="1" fill="#E4EEF4" />
  <rect x="12" y="5" width="1" height="1" fill="#E7CED4" />
  <rect x="13" y="5" width="1" height="1" fill="#EA949A" />
  <rect x="14" y="5" width="1" height="1" fill="#92989B" />
  <rect x="15" y="5" width="3" height="1" fill="#000000" />
  <rect x="18" y="5" width="1" height="1" fill="#0E0E0E" />
  <rect x="19" y="5" width="1" height="1" fill="#666A6C" />
  <rect x="20" y="5" width="1" height="1" fill="#D6DFE5" />
  <rect x="21" y="5" width="1" height="1" fill="#E1EDF3" />
  <rect x="22" y="5" width="1" height="1" fill="#DDEAF1" />
  <rect x="23" y="5" width="1" height="1" fill="#D8E7F0" />
  <rect x="24" y="5" width="1" height="1" fill="#D3E4ED" />
  <rect x="25" y="5" width="1" height="1" fill="#C6DBE6" />
  <rect x="26" y="5" width="1" height="1" fill="#B9D1DC" />
  <rect x="27" y="5" width="1" height="1" fill="#B6CDD9" />
  <rect x="3" y="6" width="1" height="1" fill="#BFD4DE" />
  <rect x="4" y="6" width="1" height="1" fill="#BFD4DF" />
  <rect x="5" y="6" width="1" height="1" fill="#C7DCE6" />
  <rect x="6" y="6" width="1" height="1" fill="#D3E4ED" />
  <rect x="7" y="6" width="1" height="1" fill="#D9E8F0" />
  <rect x="8" y="6" width="1" height="1" fill="#DFEBF2" />
  <rect x="9" y="6" width="1" height="1" fill="#E3EEF4" />
  <rect x="10" y="6" width="1" height="1" fill="#E6F0F5" />
  <rect x="11" y="6" width="1" height="1" fill="#EAAAAF" />
  <rect x="12" y="6" width="1" height="1" fill="#ED242B" />
  <rect x="13" y="6" width="1" height="1" fill="#EE6D74" />
  <rect x="14" y="6" width="1" height="1" fill="#828688" />
  <rect x="15" y="6" width="5" height="1" fill="#000000" />
  <rect x="20" y="6" width="1" height="1" fill="#1E2020" />
  <rect x="21" y="6" width="1" height="1" fill="#C6CED3" />
  <rect x="22" y="6" width="1" height="1" fill="#E3EEF4" />
  <rect x="23" y="6" width="1" height="1" fill="#DFEBF2" />
  <rect x="24" y="6" width="1" height="1" fill="#DAE8F0" />
  <rect x="25" y="6" width="1" height="1" fill="#D3E5ED" />
  <rect x="26" y="6" width="1" height="1" fill="#C6DBE6" />
  <rect x="27" y="6" width="1" height="1" fill="#B7CFDB" />
  <rect x="28" y="6" width="1" height="1" fill="#B0C7D2" />
  <rect x="3" y="7" width="1" height="1" fill="#BFD5DF" />
  <rect x="4" y="7" width="1" height="1" fill="#C4D9E4" />
  <rect x="5" y="7" width="1" height="1" fill="#D2E4ED" />
  <rect x="6" y="7" width="1" height="1" fill="#D9E8F0" />
  <rect x="7" y="7" width="1" height="1" fill="#DFECF2" />
  <rect x="8" y="7" width="1" height="1" fill="#E4EFF4" />
  <rect x="9" y="7" width="1" height="1" fill="#E8F1F6" />
  <rect x="10" y="7" width="1" height="1" fill="#EBBABF" />
  <rect x="11" y="7" width="1" height="1" fill="#ED1F26" />
  <rect x="12" y="7" width="1" height="1" fill="#ED1C24" />
  <rect x="13" y="7" width="1" height="1" fill="#EF696F" />
  <rect x="14" y="7" width="1" height="1" fill="#8A8D8E" />
  <rect x="15" y="7" width="6" height="1" fill="#000000" />
  <rect x="21" y="7" width="1" height="1" fill="#202121" />
  <rect x="22" y="7" width="1" height="1" fill="#DCE4E8" />
  <rect x="23" y="7" width="1" height="1" fill="#E5EFF4" />
  <rect x="24" y="7" width="1" height="1" fill="#E0ECF2" />
  <rect x="25" y="7" width="1" height="1" fill="#DAE8F0" />
  <rect x="26" y="7" width="1" height="1" fill="#D3E4ED" />
  <rect x="27" y="7" width="1" height="1" fill="#C1D7E2" />
  <rect x="28" y="7" width="1" height="1" fill="#B1C8D3" />
  <rect x="2" y="8" width="1" height="1" fill="#BED3DE" />
  <rect x="3" y="8" width="1" height="1" fill="#BFD5E0" />
  <rect x="4" y="8" width="1" height="1" fill="#D0E2EC" />
  <rect x="5" y="8" width="1" height="1" fill="#D8E7F0" />
  <rect x="6" y="8" width="1" height="1" fill="#DFEBF2" />
  <rect x="7" y="8" width="1" height="1" fill="#E4EFF4" />
  <rect x="8" y="8" width="1" height="1" fill="#E9F2F6" />
  <rect x="9" y="8" width="1" height="1" fill="#ECE7EB" />
  <rect x="10" y="8" width="1" height="1" fill="#ED3038" />
  <rect x="11" y="8" width="2" height="1" fill="#ED1C24" />
  <rect x="13" y="8" width="1" height="1" fill="#EF4D54" />
  <rect x="14" y="8" width="1" height="1" fill="#ADAFB0" />
  <rect x="15" y="8" width="4" height="1" fill="#000000" />
  <rect x="19" y="8" width="1" height="1" fill="#E4E4E4" />
  <rect x="20" y="8" width="1" height="1" fill="#838384" />
  <rect x="21" y="8" width="1" height="1" fill="#000000" />
  <rect x="22" y="8" width="1" height="1" fill="#707375" />
  <rect x="23" y="8" width="1" height="1" fill="#B0B5B8" />
  <rect x="24" y="8" width="1" height="1" fill="#A4A9AD" />
  <rect x="25" y="8" width="1" height="1" fill="#DAE6EC" />
  <rect x="26" y="8" width="1" height="1" fill="#D8E7F0" />
  <rect x="27" y="8" width="1" height="1" fill="#D0E2EC" />
  <rect x="28" y="8" width="1" height="1" fill="#B6CDD9" />
  <rect x="29" y="8" width="1" height="1" fill="#A6BCC6" />
  <rect x="2" y="9" width="1" height="1" fill="#BED4DF" />
  <rect x="3" y="9" width="1" height="1" fill="#C9DDE7" />
  <rect x="4" y="9" width="1" height="1" fill="#D5E6EE" />
  <rect x="5" y="9" width="1" height="1" fill="#DDEAF1" />
  <rect x="6" y="9" width="1" height="1" fill="#E3EEF4" />
  <rect x="7" y="9" width="1" height="1" fill="#E8F1F6" />
  <rect x="8" y="9" width="1" height="1" fill="#ECF4F8" />
  <rect x="9" y="9" width="1" height="1" fill="#EE898E" />
  <rect x="10" y="9" width="3" height="1" fill="#ED1C24" />
  <rect x="13" y="9" width="1" height="1" fill="#ED222A" />
  <rect x="14" y="9" width="1" height="1" fill="#EAE0E1" />
  <rect x="15" y="9" width="1" height="1" fill="#090909" />
  <rect x="16" y="9" width="3" height="1" fill="#000000" />
  <rect x="19" y="9" width="1" height="1" fill="#7D7D7E" />
  <rect x="20" y="9" width="1" height="1" fill="#414141" />
  <rect x="21" y="9" width="1" height="1" fill="#000000" />
  <rect x="22" y="9" width="1" height="1" fill="#131414" />
  <rect x="23" y="9" width="1" height="1" fill="#C6CCCF" />
  <rect x="24" y="9" width="1" height="1" fill="#231F20" />
  <rect x="25" y="9" width="1" height="1" fill="#515052" />
  <rect x="26" y="9" width="1" height="1" fill="#DCE9F0" />
  <rect x="27" y="9" width="1" height="1" fill="#D6E6EF" />
  <rect x="28" y="9" width="1" height="1" fill="#C5DAE4" />
  <rect x="29" y="9" width="1" height="1" fill="#A9BFCA" />
  <rect x="1" y="10" width="1" height="1" fill="#BED4DE" />
  <rect x="2" y="10" width="1" height="1" fill="#BED5E0" />
  <rect x="3" y="10" width="1" height="1" fill="#D1E3EC" />
  <rect x="4" y="10" width="1" height="1" fill="#D9E8F0" />
  <rect x="5" y="10" width="1" height="1" fill="#E1ECF3" />
  <rect x="6" y="10" width="1" height="1" fill="#E7F0F5" />
  <rect x="7" y="10" width="1" height="1" fill="#EBF3F7" />
  <rect x="8" y="10" width="1" height="1" fill="#F0F2F5" />
  <rect x="9" y="10" width="1" height="1" fill="#EE2F36" />
  <rect x="10" y="10" width="4" height="1" fill="#ED1C24" />
  <rect x="14" y="10" width="1" height="1" fill="#F59A9E" />
  <rect x="15" y="10" width="1" height="1" fill="#737474" />
  <rect x="16" y="10" width="7" height="1" fill="#000000" />
  <rect x="23" y="10" width="1" height="1" fill="#C9CED1" />
  <rect x="24" y="10" width="1" height="1" fill="#3E3C3D" />
  <rect x="25" y="10" width="1" height="1" fill="#CED5DA" />
  <rect x="26" y="10" width="1" height="1" fill="#E1EDF3" />
  <rect x="27" y="10" width="1" height="1" fill="#DAE8F0" />
  <rect x="28" y="10" width="1" height="1" fill="#D1E2EC" />
  <rect x="29" y="10" width="1" height="1" fill="#B1C7D2" />
  <rect x="30" y="10" width="1" height="1" fill="#9BAFB9" />
  <rect x="1" y="11" width="1" height="1" fill="#BED4DF" />
  <rect x="2" y="11" width="1" height="1" fill="#C5DAE5" />
  <rect x="3" y="11" width="1" height="1" fill="#D4E5EE" />
  <rect x="4" y="11" width="1" height="1" fill="#DDEAF1" />
  <rect x="5" y="11" width="1" height="1" fill="#E4EEF4" />
  <rect x="6" y="11" width="1" height="1" fill="#E9F2F6" />
  <rect x="7" y="11" width="1" height="1" fill="#EEF5F8" />
  <rect x="8" y="11" width="1" height="1" fill="#F0BCC0" />
  <rect x="9" y="11" width="5" height="1" fill="#ED1C24" />
  <rect x="14" y="11" width="1" height="1" fill="#EE2A32" />
  <rect x="15" y="11" width="1" height="1" fill="#F4DBDD" />
  <rect x="16" y="11" width="1" height="1" fill="#424242" />
  <rect x="17" y="11" width="6" height="1" fill="#000000" />
  <rect x="23" y="11" width="1" height="1" fill="#B6B9BB" />
  <rect x="24" y="11" width="1" height="1" fill="#D7DDE0" />
  <rect x="25" y="11" width="1" height="1" fill="#EAF2F6" />
  <rect x="26" y="11" width="1" height="1" fill="#E4EFF4" />
  <rect x="27" y="11" width="1" height="1" fill="#DDEAF1" />
  <rect x="28" y="11" width="1" height="1" fill="#D5E5EE" />
  <rect x="29" y="11" width="1" height="1" fill="#BDD2DC" />
  <rect x="30" y="11" width="1" height="1" fill="#9CAFBA" />
  <rect x="1" y="12" width="1" height="1" fill="#BCD3DE" />
  <rect x="2" y="12" width="1" height="1" fill="#CCDFE9" />
  <rect x="3" y="12" width="1" height="1" fill="#D7E7EF" />
  <rect x="4" y="12" width="1" height="1" fill="#DFECF2" />
  <rect x="5" y="12" width="1" height="1" fill="#E6F0F5" />
  <rect x="6" y="12" width="1" height="1" fill="#EBF3F7" />
  <rect x="7" y="12" width="1" height="1" fill="#F0F6F9" />
  <rect x="8" y="12" width="1" height="1" fill="#F08489" />
  <rect x="9" y="12" width="6" height="1" fill="#ED1C24" />
  <rect x="15" y="12" width="1" height="1" fill="#EF3C43" />
  <rect x="16" y="12" width="1" height="1" fill="#F6DADB" />
  <rect x="17" y="12" width="1" height="1" fill="#7F7F80" />
  <rect x="18" y="12" width="1" height="1" fill="#0F0F0F" />
  <rect x="19" y="12" width="4" height="1" fill="#000000" />
  <rect x="23" y="12" width="1" height="1" fill="#C8CBCD" />
  <rect x="24" y="12" width="1" height="1" fill="#F0F6F9" />
  <rect x="25" y="12" width="1" height="1" fill="#ECF3F7" />
  <rect x="26" y="12" width="1" height="1" fill="#E6F0F5" />
  <rect x="27" y="12" width="1" height="1" fill="#E0ECF2" />
  <rect x="28" y="12" width="1" height="1" fill="#D8E7F0" />
  <rect x="29" y="12" width="1" height="1" fill="#C7DAE4" />
  <rect x="30" y="12" width="1" height="1" fill="#9EB3BD" />
  <rect x="0" y="13" width="1" height="1" fill="#BED4DF" />
  <rect x="1" y="13" width="1" height="1" fill="#BCD3DE" />
  <rect x="2" y="13" width="1" height="1" fill="#D0E3EC" />
  <rect x="3" y="13" width="1" height="1" fill="#D9E8F0" />
  <rect x="4" y="13" width="1" height="1" fill="#E1EDF3" />
  <rect x="5" y="13" width="1" height="1" fill="#E8F1F6" />
  <rect x="6" y="13" width="1" height="1" fill="#EDF4F8" />
  <rect x="7" y="13" width="1" height="1" fill="#F2F7F9" />
  <rect x="8" y="13" width="1" height="1" fill="#EF5C62" />
  <rect x="9" y="13" width="7" height="1" fill="#ED1C24" />
  <rect x="16" y="13" width="1" height="1" fill="#EE272F" />
  <rect x="17" y="13" width="1" height="1" fill="#F69195" />
  <rect x="18" y="13" width="1" height="1" fill="#F2E2E3" />
  <rect x="19" y="13" width="1" height="1" fill="#8E8E8F" />
  <rect x="20" y="13" width="1" height="1" fill="#121212" />
  <rect x="21" y="13" width="1" height="1" fill="#000000" />
  <rect x="22" y="13" width="1" height="1" fill="#0E0E0F" />
  <rect x="23" y="13" width="1" height="1" fill="#F1F5F7" />
  <rect x="24" y="13" width="1" height="1" fill="#F2F7FA" />
  <rect x="25" y="13" width="1" height="1" fill="#EDF4F8" />
  <rect x="26" y="13" width="1" height="1" fill="#E8F1F6" />
  <rect x="27" y="13" width="1" height="1" fill="#E2EDF3" />
  <rect x="28" y="13" width="1" height="1" fill="#DAE8F0" />
  <rect x="29" y="13" width="1" height="1" fill="#CEE0E9" />
  <rect x="30" y="13" width="1" height="1" fill="#A2B7C2" />
  <rect x="31" y="13" width="1" height="1" fill="#8B9CA5" />
  <rect x="0" y="14" width="1" height="1" fill="#BAD0DA" />
  <rect x="1" y="14" width="1" height="1" fill="#BED4E0" />
  <rect x="2" y="14" width="1" height="1" fill="#D2E3ED" />
  <rect x="3" y="14" width="1" height="1" fill="#DBE9F1" />
  <rect x="4" y="14" width="1" height="1" fill="#E3EEF3" />
  <rect x="5" y="14" width="1" height="1" fill="#E9F2F6" />
  <rect x="6" y="14" width="1" height="1" fill="#EEF5F8" />
  <rect x="7" y="14" width="1" height="1" fill="#F3F7FA" />
  <rect x="8" y="14" width="1" height="1" fill="#EE3F47" />
  <rect x="9" y="14" width="9" height="1" fill="#ED1C24" />
  <rect x="18" y="14" width="1" height="1" fill="#ED242C" />
  <rect x="19" y="14" width="1" height="1" fill="#F48287" />
  <rect x="20" y="14" width="1" height="1" fill="#E5DCDD" />
  <rect x="21" y="14" width="1" height="1" fill="#3F3F40" />
  <rect x="22" y="14" width="1" height="1" fill="#676869" />
  <rect x="23" y="14" width="1" height="1" fill="#F7FAFC" />
  <rect x="24" y="14" width="1" height="1" fill="#F3F8FA" />
  <rect x="25" y="14" width="1" height="1" fill="#EEF5F8" />
  <rect x="26" y="14" width="1" height="1" fill="#E9F2F6" />
  <rect x="27" y="14" width="1" height="1" fill="#E3EEF3" />
  <rect x="28" y="14" width="1" height="1" fill="#DBE9F1" />
  <rect x="29" y="14" width="1" height="1" fill="#D1E2EB" />
  <rect x="30" y="14" width="1" height="1" fill="#A6BBC5" />
  <rect x="31" y="14" width="1" height="1" fill="#8597A0" />
  <rect x="0" y="15" width="1" height="1" fill="#BCD3DE" />
  <rect x="1" y="15" width="1" height="1" fill="#BFD5E1" />
  <rect x="2" y="15" width="1" height="1" fill="#D3E4ED" />
  <rect x="3" y="15" width="1" height="1" fill="#DBEAF1" />
  <rect x="4" y="15" width="1" height="1" fill="#E3EEF4" />
  <rect x="5" y="15" width="1" height="1" fill="#E9F2F6" />
  <rect x="6" y="15" width="1" height="1" fill="#EFF5F9" />
  <rect x="7" y="15" width="1" height="1" fill="#F3F8FA" />
  <rect x="8" y="15" width="1" height="1" fill="#EE333B" />
  <rect x="9" y="15" width="11" height="1" fill="#ED1C24" />
  <rect x="20" y="15" width="1" height="1" fill="#EF3D44" />
  <rect x="21" y="15" width="1" height="1" fill="#F3D7D9" />
  <rect x="22" y="15" width="1" height="1" fill="#EAEBEC" />
  <rect x="23" y="15" width="1" height="1" fill="#F7FAFC" />
  <rect x="24" y="15" width="1" height="1" fill="#F4F8FA" />
  <rect x="25" y="15" width="1" height="1" fill="#EFF5F9" />
  <rect x="26" y="15" width="1" height="1" fill="#EAF2F7" />
  <rect x="27" y="15" width="1" height="1" fill="#E4EFF4" />
  <rect x="28" y="15" width="1" height="1" fill="#DCEAF1" />
  <rect x="29" y="15" width="1" height="1" fill="#D1E3EC" />
  <rect x="30" y="15" width="1" height="1" fill="#A7BBC6" />
  <rect x="31" y="15" width="1" height="1" fill="#82939C" />
  <rect x="0" y="16" width="1" height="1" fill="#BBD2DE" />
  <rect x="1" y="16" width="1" height="1" fill="#BFD5E1" />
  <rect x="2" y="16" width="1" height="1" fill="#D3E4ED" />
  <rect x="3" y="16" width="1" height="1" fill="#DBEAF1" />
  <rect x="4" y="16" width="1" height="1" fill="#E3EEF4" />
  <rect x="5" y="16" width="1" height="1" fill="#E9F2F6" />
  <rect x="6" y="16" width="1" height="1" fill="#EFF5F9" />
  <rect x="7" y="16" width="1" height="1" fill="#F3F8FA" />
  <rect x="8" y="16" width="1" height="1" fill="#EE3037" />
  <rect x="9" y="16" width="12" height="1" fill="#ED1C24" />
  <rect x="21" y="16" width="1" height="1" fill="#EF383F" />
  <rect x="22" y="16" width="1" height="1" fill="#F9EEEF" />
  <rect x="23" y="16" width="1" height="1" fill="#F8FAFC" />
  <rect x="24" y="16" width="1" height="1" fill="#F4F8FA" />
  <rect x="25" y="16" width="1" height="1" fill="#EFF5F9" />
  <rect x="26" y="16" width="1" height="1" fill="#EAF2F7" />
  <rect x="27" y="16" width="1" height="1" fill="#E4EFF4" />
  <rect x="28" y="16" width="1" height="1" fill="#DCEAF1" />
  <rect x="29" y="16" width="1" height="1" fill="#D1E3EC" />
  <rect x="30" y="16" width="1" height="1" fill="#A6B9C4" />
  <rect x="31" y="16" width="1" height="1" fill="#7F9098" />
  <rect x="0" y="17" width="1" height="1" fill="#B8CEDA" />
  <rect x="1" y="17" width="1" height="1" fill="#BDD4DF" />
  <rect x="2" y="17" width="1" height="1" fill="#D2E3ED" />
  <rect x="3" y="17" width="1" height="1" fill="#DBE9F1" />
  <rect x="4" y="17" width="1" height="1" fill="#E3EEF3" />
  <rect x="5" y="17" width="1" height="1" fill="#E9F2F6" />
  <rect x="6" y="17" width="1" height="1" fill="#EEF5F8" />
  <rect x="7" y="17" width="1" height="1" fill="#F3F7FA" />
  <rect x="8" y="17" width="1" height="1" fill="#EE3C43" />
  <rect x="9" y="17" width="13" height="1" fill="#ED1C24" />
  <rect x="22" y="17" width="1" height="1" fill="#F37C80" />
  <rect x="23" y="17" width="1" height="1" fill="#F7FAFC" />
  <rect x="24" y="17" width="1" height="1" fill="#F3F8FA" />
  <rect x="25" y="17" width="1" height="1" fill="#EEF5F8" />
  <rect x="26" y="17" width="1" height="1" fill="#E9F2F6" />
  <rect x="27" y="17" width="1" height="1" fill="#E3EEF3" />
  <rect x="28" y="17" width="1" height="1" fill="#DBE9F1" />
  <rect x="29" y="17" width="1" height="1" fill="#D0E1EA" />
  <rect x="30" y="17" width="1" height="1" fill="#A0B3BD" />
  <rect x="31" y="17" width="1" height="1" fill="#7A8A92" />
  <rect x="0" y="18" width="1" height="1" fill="#BAD1DD" />
  <rect x="1" y="18" width="1" height="1" fill="#BAD2DD" />
  <rect x="2" y="18" width="1" height="1" fill="#D0E2EC" />
  <rect x="3" y="18" width="1" height="1" fill="#DAE8F0" />
  <rect x="4" y="18" width="1" height="1" fill="#E2EDF3" />
  <rect x="5" y="18" width="1" height="1" fill="#E8F1F6" />
  <rect x="6" y="18" width="1" height="1" fill="#EDF4F8" />
  <rect x="7" y="18" width="1" height="1" fill="#F2F7F9" />
  <rect x="8" y="18" width="1" height="1" fill="#EF535A" />
  <rect x="9" y="18" width="4" height="1" fill="#ED1C24" />
  <rect x="13" y="18" width="1" height="1" fill="#EE2C21" />
  <rect x="14" y="18" width="1" height="1" fill="#F1511B" />
  <rect x="15" y="18" width="1" height="1" fill="#EE2B22" />
  <rect x="16" y="18" width="6" height="1" fill="#ED1C24" />
  <rect x="22" y="18" width="1" height="1" fill="#EE2830" />
  <rect x="23" y="18" width="1" height="1" fill="#F6F4F6" />
  <rect x="24" y="18" width="1" height="1" fill="#F2F7FA" />
  <rect x="25" y="18" width="1" height="1" fill="#EDF4F8" />
  <rect x="26" y="18" width="1" height="1" fill="#E8F1F6" />
  <rect x="27" y="18" width="1" height="1" fill="#E2EDF3" />
  <rect x="28" y="18" width="1" height="1" fill="#DAE8F0" />
  <rect x="29" y="18" width="1" height="1" fill="#CCDEE7" />
  <rect x="30" y="18" width="1" height="1" fill="#95A9B2" />
  <rect x="31" y="18" width="1" height="1" fill="#76858D" />
  <rect x="1" y="19" width="1" height="1" fill="#B9D1DC" />
  <rect x="2" y="19" width="1" height="1" fill="#CBDFE9" />
  <rect x="3" y="19" width="1" height="1" fill="#D8E7EF" />
  <rect x="4" y="19" width="1" height="1" fill="#DFECF2" />
  <rect x="5" y="19" width="1" height="1" fill="#E6F0F5" />
  <rect x="6" y="19" width="1" height="1" fill="#ECF3F7" />
  <rect x="7" y="19" width="1" height="1" fill="#F0F6F9" />
  <rect x="8" y="19" width="1" height="1" fill="#F0787E" />
  <rect x="9" y="19" width="4" height="1" fill="#ED1C24" />
  <rect x="13" y="19" width="1" height="1" fill="#ED2123" />
  <rect x="14" y="19" width="1" height="1" fill="#FCD006" />
  <rect x="15" y="19" width="1" height="1" fill="#FEEB01" />
  <rect x="16" y="19" width="1" height="1" fill="#F57815" />
  <rect x="17" y="19" width="6" height="1" fill="#ED1C24" />
  <rect x="23" y="19" width="1" height="1" fill="#F3D1D4" />
  <rect x="24" y="19" width="1" height="1" fill="#F0F6F9" />
  <rect x="25" y="19" width="1" height="1" fill="#ECF3F7" />
  <rect x="26" y="19" width="1" height="1" fill="#E6F0F5" />
  <rect x="27" y="19" width="1" height="1" fill="#E0ECF2" />
  <rect x="28" y="19" width="1" height="1" fill="#D8E7F0" />
  <rect x="29" y="19" width="1" height="1" fill="#C2D5DE" />
  <rect x="30" y="19" width="1" height="1" fill="#8A9BA4" />
  <rect x="1" y="20" width="1" height="1" fill="#B9D0DC" />
  <rect x="2" y="20" width="1" height="1" fill="#C4D9E4" />
  <rect x="3" y="20" width="1" height="1" fill="#D5E5EE" />
  <rect x="4" y="20" width="1" height="1" fill="#DDEAF1" />
  <rect x="5" y="20" width="1" height="1" fill="#E4EEF4" />
  <rect x="6" y="20" width="1" height="1" fill="#E9F2F6" />
  <rect x="7" y="20" width="1" height="1" fill="#EEF5F8" />
  <rect x="8" y="20" width="1" height="1" fill="#F0ADB2" />
  <rect x="9" y="20" width="5" height="1" fill="#ED1C24" />
  <rect x="14" y="20" width="1" height="1" fill="#F68B11" />
  <rect x="15" y="20" width="2" height="1" fill="#FFF200" />
  <rect x="17" y="20" width="1" height="1" fill="#F47316" />
  <rect x="18" y="20" width="5" height="1" fill="#ED1C24" />
  <rect x="23" y="20" width="1" height="1" fill="#F1C0C4" />
  <rect x="24" y="20" width="1" height="1" fill="#EEF5F8" />
  <rect x="25" y="20" width="1" height="1" fill="#EAF2F7" />
  <rect x="26" y="20" width="1" height="1" fill="#E4EFF4" />
  <rect x="27" y="20" width="1" height="1" fill="#DDEAF1" />
  <rect x="28" y="20" width="1" height="1" fill="#D4E5ED" />
  <rect x="29" y="20" width="1" height="1" fill="#B2C5CF" />
  <rect x="30" y="20" width="1" height="1" fill="#7C8D95" />
  <rect x="1" y="21" width="1" height="1" fill="#B5CCD8" />
  <rect x="2" y="21" width="1" height="1" fill="#BAD2DD" />
  <rect x="3" y="21" width="1" height="1" fill="#D1E3EC" />
  <rect x="4" y="21" width="1" height="1" fill="#DAE8F0" />
  <rect x="5" y="21" width="1" height="1" fill="#E1EDF3" />
  <rect x="6" y="21" width="1" height="1" fill="#E7F0F5" />
  <rect x="7" y="21" width="1" height="1" fill="#ECF3F7" />
  <rect x="8" y="21" width="1" height="1" fill="#EFEAED" />
  <rect x="9" y="21" width="1" height="1" fill="#ED252C" />
  <rect x="10" y="21" width="4" height="1" fill="#ED1C24" />
  <rect x="14" y="21" width="1" height="1" fill="#F89F0E" />
  <rect x="15" y="21" width="2" height="1" fill="#FFF200" />
  <rect x="17" y="21" width="1" height="1" fill="#FEE902" />
  <rect x="18" y="21" width="1" height="1" fill="#EF2E21" />
  <rect x="19" y="21" width="4" height="1" fill="#ED1C24" />
  <rect x="23" y="21" width="1" height="1" fill="#EFD3D7" />
  <rect x="24" y="21" width="1" height="1" fill="#ECF3F7" />
  <rect x="25" y="21" width="1" height="1" fill="#E7F0F5" />
  <rect x="26" y="21" width="1" height="1" fill="#E1EDF3" />
  <rect x="27" y="21" width="1" height="1" fill="#DAE9F0" />
  <rect x="28" y="21" width="1" height="1" fill="#CDDEE8" />
  <rect x="29" y="21" width="1" height="1" fill="#9AADB7" />
  <rect x="30" y="21" width="1" height="1" fill="#73828A" />
  <rect x="2" y="22" width="1" height="1" fill="#B2C9D5" />
  <rect x="3" y="22" width="1" height="1" fill="#C6DBE5" />
  <rect x="4" y="22" width="1" height="1" fill="#D5E6EE" />
  <rect x="5" y="22" width="1" height="1" fill="#DDEAF1" />
  <rect x="6" y="22" width="1" height="1" fill="#E3EEF4" />
  <rect x="7" y="22" width="1" height="1" fill="#E8F1F6" />
  <rect x="8" y="22" width="1" height="1" fill="#EDF4F8" />
  <rect x="9" y="22" width="1" height="1" fill="#EE7177" />
  <rect x="10" y="22" width="3" height="1" fill="#ED1C24" />
  <rect x="13" y="22" width="1" height="1" fill="#F0431E" />
  <rect x="14" y="22" width="1" height="1" fill="#FFED01" />
  <rect x="15" y="22" width="3" height="1" fill="#FFF200" />
  <rect x="18" y="22" width="1" height="1" fill="#F57615" />
  <rect x="19" y="22" width="3" height="1" fill="#ED1C24" />
  <rect x="22" y="22" width="1" height="1" fill="#ED2C34" />
  <rect x="23" y="22" width="1" height="1" fill="#EDF1F5" />
  <rect x="24" y="22" width="1" height="1" fill="#E9F2F6" />
  <rect x="25" y="22" width="1" height="1" fill="#E4EEF4" />
  <rect x="26" y="22" width="1" height="1" fill="#DDEAF1" />
  <rect x="27" y="22" width="1" height="1" fill="#D5E5EE" />
  <rect x="28" y="22" width="1" height="1" fill="#B9CCD6" />
  <rect x="29" y="22" width="1" height="1" fill="#83949C" />
  <rect x="2" y="23" width="1" height="1" fill="#A9BFCA" />
  <rect x="3" y="23" width="1" height="1" fill="#B5CCD7" />
  <rect x="4" y="23" width="1" height="1" fill="#CFE2EB" />
  <rect x="5" y="23" width="1" height="1" fill="#D8E7F0" />
  <rect x="6" y="23" width="1" height="1" fill="#DFEBF2" />
  <rect x="7" y="23" width="1" height="1" fill="#E5EFF4" />
  <rect x="8" y="23" width="1" height="1" fill="#E9F2F6" />
  <rect x="9" y="23" width="1" height="1" fill="#ECDADF" />
  <rect x="10" y="23" width="1" height="1" fill="#ED242C" />
  <rect x="11" y="23" width="2" height="1" fill="#ED1C24" />
  <rect x="13" y="23" width="1" height="1" fill="#F78E11" />
  <rect x="14" y="23" width="4" height="1" fill="#FFF200" />
  <rect x="18" y="23" width="1" height="1" fill="#F79510" />
  <rect x="19" y="23" width="3" height="1" fill="#ED1C24" />
  <rect x="22" y="23" width="1" height="1" fill="#EC8187" />
  <rect x="23" y="23" width="1" height="1" fill="#E9F2F6" />
  <rect x="24" y="23" width="1" height="1" fill="#E5EFF4" />
  <rect x="25" y="23" width="1" height="1" fill="#DFECF2" />
  <rect x="26" y="23" width="1" height="1" fill="#D9E8F0" />
  <rect x="27" y="23" width="1" height="1" fill="#CADCE5" />
  <rect x="28" y="23" width="1" height="1" fill="#98ABB5" />
  <rect x="29" y="23" width="1" height="1" fill="#738289" />
  <rect x="3" y="24" width="1" height="1" fill="#A8BDC8" />
  <rect x="4" y="24" width="1" height="1" fill="#BCD1DC" />
  <rect x="5" y="24" width="1" height="1" fill="#D2E3EC" />
  <rect x="6" y="24" width="1" height="1" fill="#DAE8F0" />
  <rect x="7" y="24" width="1" height="1" fill="#E0ECF2" />
  <rect x="8" y="24" width="1" height="1" fill="#E5EFF4" />
  <rect x="9" y="24" width="1" height="1" fill="#E8F1F6" />
  <rect x="10" y="24" width="1" height="1" fill="#EC9EA4" />
  <rect x="11" y="24" width="2" height="1" fill="#ED1C24" />
  <rect x="13" y="24" width="1" height="1" fill="#F68413" />
  <rect x="14" y="24" width="4" height="1" fill="#FFF200" />
  <rect x="18" y="24" width="1" height="1" fill="#F68113" />
  <rect x="19" y="24" width="2" height="1" fill="#ED1C24" />
  <rect x="21" y="24" width="1" height="1" fill="#ED383F" />
  <rect x="22" y="24" width="1" height="1" fill="#E9E6EA" />
  <rect x="23" y="24" width="1" height="1" fill="#E5EFF4" />
  <rect x="24" y="24" width="1" height="1" fill="#E0ECF2" />
  <rect x="25" y="24" width="1" height="1" fill="#DAE8F0" />
  <rect x="26" y="24" width="1" height="1" fill="#D0E1EA" />
  <rect x="27" y="24" width="1" height="1" fill="#AABDC7" />
  <rect x="28" y="24" width="1" height="1" fill="#7C8C94" />
  <rect x="3" y="25" width="1" height="1" fill="#9CB0BA" />
  <rect x="4" y="25" width="1" height="1" fill="#A6BBC6" />
  <rect x="5" y="25" width="1" height="1" fill="#BFD4DF" />
  <rect x="6" y="25" width="1" height="1" fill="#D3E4ED" />
  <rect x="7" y="25" width="1" height="1" fill="#DAE8F0" />
  <rect x="8" y="25" width="1" height="1" fill="#DFEBF2" />
  <rect x="9" y="25" width="1" height="1" fill="#E4EEF4" />
  <rect x="10" y="25" width="1" height="1" fill="#E7F0F5" />
  <rect x="11" y="25" width="1" height="1" fill="#EA8F95" />
  <rect x="12" y="25" width="1" height="1" fill="#ED1D25" />
  <rect x="13" y="25" width="1" height="1" fill="#EF2F21" />
  <rect x="14" y="25" width="1" height="1" fill="#FDDA04" />
  <rect x="15" y="25" width="2" height="1" fill="#FFF200" />
  <rect x="17" y="25" width="1" height="1" fill="#FCD205" />
  <rect x="18" y="25" width="1" height="1" fill="#EE2B22" />
  <rect x="19" y="25" width="1" height="1" fill="#ED1C24" />
  <rect x="20" y="25" width="1" height="1" fill="#EC363D" />
  <rect x="21" y="25" width="1" height="1" fill="#E7D2D8" />
  <rect x="22" y="25" width="1" height="1" fill="#E4EEF4" />
  <rect x="23" y="25" width="1" height="1" fill="#DFECF2" />
  <rect x="24" y="25" width="1" height="1" fill="#DAE8F0" />
  <rect x="25" y="25" width="1" height="1" fill="#D1E2EB" />
  <rect x="26" y="25" width="1" height="1" fill="#B3C7D1" />
  <rect x="27" y="25" width="1" height="1" fill="#84959D" />
  <rect x="28" y="25" width="1" height="1" fill="#6E7C84" />
  <rect x="4" y="26" width="1" height="1" fill="#95A9B3" />
  <rect x="5" y="26" width="1" height="1" fill="#A2B7C2" />
  <rect x="6" y="26" width="1" height="1" fill="#BED3DD" />
  <rect x="7" y="26" width="1" height="1" fill="#D2E3EC" />
  <rect x="8" y="26" width="1" height="1" fill="#D8E7F0" />
  <rect x="9" y="26" width="1" height="1" fill="#DDEAF1" />
  <rect x="10" y="26" width="1" height="1" fill="#E1EDF3" />
  <rect x="11" y="26" width="1" height="1" fill="#E4EFF4" />
  <rect x="12" y="26" width="1" height="1" fill="#E7BBC1" />
  <rect x="13" y="26" width="1" height="1" fill="#EC4E55" />
  <rect x="14" y="26" width="1" height="1" fill="#EE2922" />
  <rect x="15" y="26" width="1" height="1" fill="#F46917" />
  <rect x="16" y="26" width="1" height="1" fill="#F36717" />
  <rect x="17" y="26" width="1" height="1" fill="#EE2622" />
  <rect x="18" y="26" width="1" height="1" fill="#ED272F" />
  <rect x="19" y="26" width="1" height="1" fill="#EA787F" />
  <rect x="20" y="26" width="1" height="1" fill="#E5E1E7" />
  <rect x="21" y="26" width="1" height="1" fill="#E1EDF3" />
  <rect x="22" y="26" width="1" height="1" fill="#DDEAF1" />
  <rect x="23" y="26" width="1" height="1" fill="#D9E8F0" />
  <rect x="24" y="26" width="1" height="1" fill="#D0E1EA" />
  <rect x="25" y="26" width="1" height="1" fill="#B3C7D0" />
  <rect x="26" y="26" width="1" height="1" fill="#8798A1" />
  <rect x="27" y="26" width="1" height="1" fill="#707E86" />
  <rect x="5" y="27" width="1" height="1" fill="#8FA1AB" />
  <rect x="6" y="27" width="1" height="1" fill="#9BAFB9" />
  <rect x="7" y="27" width="1" height="1" fill="#B5CAD4" />
  <rect x="8" y="27" width="1" height="1" fill="#CCDFE8" />
  <rect x="9" y="27" width="1" height="1" fill="#D5E5EE" />
  <rect x="10" y="27" width="1" height="1" fill="#DAE8F0" />
  <rect x="11" y="27" width="1" height="1" fill="#DDEAF1" />
  <rect x="12" y="27" width="1" height="1" fill="#E0ECF2" />
  <rect x="13" y="27" width="1" height="1" fill="#E2EDF3" />
  <rect x="14" y="27" width="1" height="1" fill="#E4D9DF" />
  <rect x="15" y="27" width="1" height="1" fill="#E6B5BC" />
  <rect x="16" y="27" width="1" height="1" fill="#E6ACB3" />
  <rect x="17" y="27" width="1" height="1" fill="#E5C0C6" />
  <rect x="18" y="27" width="1" height="1" fill="#E2E7ED" />
  <rect x="19" y="27" width="1" height="1" fill="#E0ECF2" />
  <rect x="20" y="27" width="1" height="1" fill="#DDEAF1" />
  <rect x="21" y="27" width="1" height="1" fill="#DAE9F0" />
  <rect x="22" y="27" width="1" height="1" fill="#D5E5EE" />
  <rect x="23" y="27" width="1" height="1" fill="#C9DBE5" />
  <rect x="24" y="27" width="1" height="1" fill="#A9BCC6" />
  <rect x="25" y="27" width="1" height="1" fill="#83949C" />
  <rect x="26" y="27" width="1" height="1" fill="#6F7E85" />
  <rect x="6" y="28" width="1" height="1" fill="#8798A1" />
  <rect x="7" y="28" width="1" height="1" fill="#8FA1AB" />
  <rect x="8" y="28" width="1" height="1" fill="#A4B8C2" />
  <rect x="9" y="28" width="1" height="1" fill="#BED1DB" />
  <rect x="10" y="28" width="1" height="1" fill="#CEE0E9" />
  <rect x="11" y="28" width="1" height="1" fill="#D4E5ED" />
  <rect x="12" y="28" width="1" height="1" fill="#D8E7EF" />
  <rect x="13" y="28" width="1" height="1" fill="#DAE8F0" />
  <rect x="14" y="28" width="1" height="1" fill="#DBE9F1" />
  <rect x="15" y="28" width="2" height="1" fill="#DCEAF1" />
  <rect x="17" y="28" width="1" height="1" fill="#DBE9F1" />
  <rect x="18" y="28" width="1" height="1" fill="#DAE8F0" />
  <rect x="19" y="28" width="1" height="1" fill="#D8E7EF" />
  <rect x="20" y="28" width="1" height="1" fill="#D4E4ED" />
  <rect x="21" y="28" width="1" height="1" fill="#CCDEE7" />
  <rect x="22" y="28" width="1" height="1" fill="#B7CAD4" />
  <rect x="23" y="28" width="1" height="1" fill="#96A9B2" />
  <rect x="24" y="28" width="1" height="1" fill="#7A8991" />
  <rect x="25" y="28" width="1" height="1" fill="#6D7B83" />
  <rect x="8" y="29" width="1" height="1" fill="#81919A" />
  <rect x="9" y="29" width="1" height="1" fill="#8C9FA8" />
  <rect x="10" y="29" width="1" height="1" fill="#9FB3BD" />
  <rect x="11" y="29" width="1" height="1" fill="#B3C7D1" />
  <rect x="12" y="29" width="1" height="1" fill="#C2D5DF" />
  <rect x="13" y="29" width="1" height="1" fill="#CBDDE6" />
  <rect x="14" y="29" width="1" height="1" fill="#CFE0E9" />
  <rect x="15" y="29" width="1" height="1" fill="#D1E2EB" />
  <rect x="16" y="29" width="1" height="1" fill="#D0E1EB" />
  <rect x="17" y="29" width="1" height="1" fill="#CEE0E9" />
  <rect x="18" y="29" width="1" height="1" fill="#CADCE5" />
  <rect x="19" y="29" width="1" height="1" fill="#BFD2DC" />
  <rect x="20" y="29" width="1" height="1" fill="#AEC1CB" />
  <rect x="21" y="29" width="1" height="1" fill="#96A8B2" />
  <rect x="22" y="29" width="1" height="1" fill="#7F9098" />
  <rect x="23" y="29" width="1" height="1" fill="#707F87" />
  <rect x="10" y="30" width="1" height="1" fill="#788890" />
  <rect x="11" y="30" width="1" height="1" fill="#7E8E97" />
  <rect x="12" y="30" width="1" height="1" fill="#889AA3" />
  <rect x="13" y="30" width="1" height="1" fill="#91A4AD" />
  <rect x="14" y="30" width="1" height="1" fill="#99ABB5" />
  <rect x="15" y="30" width="1" height="1" fill="#9CAEB8" />
  <rect x="16" y="30" width="1" height="1" fill="#9BAEB8" />
  <rect x="17" y="30" width="1" height="1" fill="#97A9B3" />
  <rect x="18" y="30" width="1" height="1" fill="#8D9FA8" />
  <rect x="19" y="30" width="1" height="1" fill="#82939C" />
  <rect x="20" y="30" width="1" height="1" fill="#77868E" />
  <rect x="21" y="30" width="1" height="1" fill="#707E86" />
  <rect x="13" y="31" width="1" height="1" fill="#707F87" />
  <rect x="14" y="31" width="1" height="1" fill="#718087" />
  <rect x="15" y="31" width="1" height="1" fill="#717F87" />
  <rect x="16" y="31" width="1" height="1" fill="#707F86" />
  <rect x="17" y="31" width="1" height="1" fill="#6F7E85" />
  <rect x="18" y="31" width="1" height="1" fill="#6D7C83" />
</svg>