<svg width="16" height="16" viewBox="0 0 16 16" fill="none" xmlns="http://www.w3.org/2000/svg" shape-rendering="crispEdges">
  <rect x="9" y="0" width="1" height="1" fill="#509C4A" />
  <rect x="10" y="0" width="1" height="1" fill="#4E9948" />
  <rect x="8" y="1" width="1" height="1" fill="#4F9B4A" />
  <rect x="9" y="1" width="1" height="1" fill="#64A75F" />
  <rect x="10" y="1" width="1" height="1" fill="#67A862" />
  <rect x="11" y="1" width="1" height="1" fill="#4A9545" />
  <rect x="3" y="2" width="1" height="1" fill="#A2C3EE" />
  <rect x="8" y="2" width="1" height="1" fill="#4D9948" />
  <rect x="9" y="2" width="1" height="1" fill="#61A55D" />
  <rect x="10" y="2" width="1" height="1" fill="#79B375" />
  <rect x="11" y="2" width="1" height="1" fill="#63A45F" />
  <rect x="12" y="2" width="1" height="1" fill="#4C9447" />
  <rect x="15" y="2" width="1" height="1" fill="#479143" />
  <rect x="2" y="3" width="2" height="1" fill="#A2C3EE" />
  <rect x="9" y="3" width="1" height="1" fill="#499445" />
  <rect x="10" y="3" width="1" height="1" fill="#5EA05A" />
  <rect x="11" y="3" width="1" height="1" fill="#64A65E" />
  <rect x="12" y="3" width="1" height="1" fill="#70AD6C" />
  <rect x="13" y="3" width="2" height="1" fill="#4C9447" />
  <rect x="15" y="3" width="1" height="1" fill="#458F41" />
  <rect x="3" y="4" width="1" height="1" fill="#A2C3EE" />
  <rect x="10" y="4" width="1" height="1" fill="#469042" />
  <rect x="11" y="4" width="1" height="1" fill="#71AD6D" />
  <rect x="12" y="4" width="1" height="1" fill="#73AE6E" />
  <rect x="13" y="4" width="2" height="1" fill="#70AD6C" />
  <rect x="15" y="4" width="1" height="1" fill="#448D40" />
  <rect x="2" y="5" width="2" height="1" fill="#A2C3EE" />
  <rect x="4" y="5" width="1" height="1" fill="#A2C1EE" />
  <rect x="11" y="5" width="1" height="1" fill="#469042" />
  <rect x="12" y="5" width="1" height="1" fill="#71AD6D" />
  <rect x="13" y="5" width="1" height="1" fill="#57A150" />
  <rect x="14" y="5" width="1" height="1" fill="#73AE6E" />
  <rect x="15" y="5" width="1" height="1" fill="#428C3F" />
  <rect x="11" y="6" width="1" height="1" fill="#469042" />
  <rect x="12" y="6" width="1" height="1" fill="#71AD6D" />
  <rect x="13" y="6" width="2" height="1" fill="#73AE6E" />
  <rect x="15" y="6" width="1" height="1" fill="#428C3F" />
  <rect x="6" y="7" width="1" height="1" fill="#9DBFED" />
  <rect x="7" y="7" width="1" height="1" fill="#9ABCEB" />
  <rect x="10" y="7" width="1" height="1" fill="#469042" />
  <rect x="11" y="7" width="1" height="1" fill="#458E41" />
  <rect x="12" y="7" width="1" height="1" fill="#438D40" />
  <rect x="13" y="7" width="2" height="1" fill="#428B3F" />
  <rect x="15" y="7" width="1" height="1" fill="#418A3E" />
  <rect x="8" y="8" width="1" height="1" fill="#8DB4E9" />
  <rect x="7" y="9" width="1" height="1" fill="#89B2E7" />
  <rect x="6" y="10" width="1" height="1" fill="#86AFE7" />
  <rect x="7" y="10" width="1" height="1" fill="#81ACE5" />
  <rect x="8" y="10" width="1" height="1" fill="#7CAAE5" />
  <rect x="10" y="12" width="1" height="1" fill="#77A6E3" />
  <rect x="11" y="12" width="1" height="1" fill="#75A5E3" />
  <rect x="12" y="12" width="1" height="1" fill="#73A3E3" />
  <rect x="11" y="13" width="1" height="1" fill="#73A3E3" />
  <rect x="12" y="14" width="1" height="1" fill="#73A3E3" />
  <rect x="10" y="15" width="2" height="1" fill="#73A3E3" />
  <rect x="12" y="15" width="1" height="1" fill="#3E72D4" />
</svg>