<svg width="16" height="16" viewBox="0 0 16 16" fill="none" xmlns="http://www.w3.org/2000/svg" shape-rendering="crispEdges">
  <rect x="7" y="1" width="1" height="1" fill="#000000" />
  <rect x="6" y="2" width="2" height="1" fill="#000000" />
  <rect x="5" y="3" width="1" height="1" fill="#000000" />
  <rect x="6" y="3" width="1" height="1" fill="#AFF0AF" />
  <rect x="7" y="3" width="1" height="1" fill="#000000" />
  <rect x="4" y="4" width="1" height="1" fill="#000000" />
  <rect x="5" y="4" width="1" height="1" fill="#AFF0AF" />
  <rect x="6" y="4" width="1" height="1" fill="#8FE08D" />
  <rect x="7" y="4" width="7" height="1" fill="#000000" />
  <rect x="3" y="5" width="1" height="1" fill="#000000" />
  <rect x="4" y="5" width="1" height="1" fill="#AFF0AF" />
  <rect x="5" y="5" width="1" height="1" fill="#92E190" />
  <rect x="6" y="5" width="1" height="1" fill="#95E493" />
  <rect x="7" y="5" width="1" height="1" fill="#97E495" />
  <rect x="8" y="5" width="1" height="1" fill="#98E798" />
  <rect x="9" y="5" width="1" height="1" fill="#97E495" />
  <rect x="10" y="5" width="1" height="1" fill="#97E697" />
  <rect x="11" y="5" width="1" height="1" fill="#8FE08D" />
  <rect x="12" y="5" width="1" height="1" fill="#5DB65B" />
  <rect x="13" y="5" width="1" height="1" fill="#000000" />
  <rect x="2" y="6" width="1" height="1" fill="#000000" />
  <rect x="3" y="6" width="1" height="1" fill="#AFF0AF" />
  <rect x="4" y="6" width="1" height="1" fill="#87DC85" />
  <rect x="5" y="6" width="1" height="1" fill="#90E18E" />
  <rect x="6" y="6" width="1" height="1" fill="#8FE08D" />
  <rect x="7" y="6" width="1" height="1" fill="#8ADD88" />
  <rect x="8" y="6" width="2" height="1" fill="#87DA85" />
  <rect x="10" y="6" width="1" height="1" fill="#8ADD88" />
  <rect x="11" y="6" width="1" height="1" fill="#85DA83" />
  <rect x="12" y="6" width="1" height="1" fill="#4E8A4D" />
  <rect x="13" y="6" width="1" height="1" fill="#000000" />
  <rect x="1" y="7" width="1" height="1" fill="#1C351C" />
  <rect x="2" y="7" width="1" height="1" fill="#B1F0B1" />
  <rect x="3" y="7" width="1" height="1" fill="#8ADD88" />
  <rect x="4" y="7" width="1" height="1" fill="#8BDE89" />
  <rect x="5" y="7" width="2" height="1" fill="#89DC87" />
  <rect x="7" y="7" width="1" height="1" fill="#87DC85" />
  <rect x="8" y="7" width="4" height="1" fill="#8ADD88" />
  <rect x="12" y="7" width="1" height="1" fill="#508E4F" />
  <rect x="13" y="7" width="1" height="1" fill="#000000" />
  <rect x="2" y="8" width="1" height="1" fill="#000000" />
  <rect x="3" y="8" width="1" height="1" fill="#2C4F2C" />
  <rect x="4" y="8" width="8" height="1" fill="#477346" />
  <rect x="12" y="8" width="1" height="1" fill="#385F38" />
  <rect x="13" y="8" width="1" height="1" fill="#000000" />
  <rect x="3" y="9" width="1" height="1" fill="#000000" />
  <rect x="4" y="9" width="1" height="1" fill="#2C4F2C" />
  <rect x="5" y="9" width="2" height="1" fill="#477346" />
  <rect x="7" y="9" width="5" height="1" fill="#2B4E2B" />
  <rect x="12" y="9" width="1" height="1" fill="#2F522F" />
  <rect x="13" y="9" width="1" height="1" fill="#000000" />
  <rect x="4" y="10" width="1" height="1" fill="#000000" />
  <rect x="5" y="10" width="1" height="1" fill="#2C4F2C" />
  <rect x="6" y="10" width="1" height="1" fill="#477346" />
  <rect x="7" y="10" width="7" height="1" fill="#000000" />
  <rect x="5" y="11" width="1" height="1" fill="#000000" />
  <rect x="6" y="11" width="1" height="1" fill="#2C4F2C" />
  <rect x="7" y="11" width="1" height="1" fill="#000000" />
  <rect x="6" y="12" width="2" height="1" fill="#000000" />
  <rect x="7" y="13" width="1" height="1" fill="#000000" />
</svg>