<svg width="16" height="16" viewBox="0 0 16 16" fill="none" xmlns="http://www.w3.org/2000/svg" shape-rendering="crispEdges">
  <rect x="4" y="2" width="7" height="1" fill="#000000" />
  <rect x="4" y="3" width="1" height="1" fill="#000000" />
  <rect x="5" y="3" width="1" height="1" fill="#B5C9DC" />
  <rect x="6" y="3" width="1" height="1" fill="#9BB6D0" />
  <rect x="7" y="3" width="1" height="1" fill="#91B0CC" />
  <rect x="8" y="3" width="1" height="1" fill="#49749C" />
  <rect x="9" y="3" width="1" height="1" fill="#456F96" />
  <rect x="10" y="3" width="1" height="1" fill="#000000" />
  <rect x="4" y="4" width="1" height="1" fill="#000000" />
  <rect x="5" y="4" width="1" height="1" fill="#AFC5DA" />
  <rect x="6" y="4" width="1" height="1" fill="#A0BAD3" />
  <rect x="7" y="4" width="1" height="1" fill="#9EB8D1" />
  <rect x="8" y="4" width="1" height="1" fill="#3F6588" />
  <rect x="9" y="4" width="1" height="1" fill="#375978" />
  <rect x="10" y="4" width="1" height="1" fill="#000000" />
  <rect x="4" y="5" width="1" height="1" fill="#000000" />
  <rect x="5" y="5" width="1" height="1" fill="#B2C7DB" />
  <rect x="6" y="5" width="1" height="1" fill="#9CB7D1" />
  <rect x="7" y="5" width="1" height="1" fill="#9AB5CF" />
  <rect x="8" y="5" width="1" height="1" fill="#3F6588" />
  <rect x="9" y="5" width="1" height="1" fill="#375978" />
  <rect x="10" y="5" width="1" height="1" fill="#000000" />
  <rect x="4" y="6" width="1" height="1" fill="#000000" />
  <rect x="5" y="6" width="1" height="1" fill="#B6CADD" />
  <rect x="6" y="6" width="1" height="1" fill="#9CB7D1" />
  <rect x="7" y="6" width="1" height="1" fill="#9AB5CF" />
  <rect x="8" y="6" width="1" height="1" fill="#3F6588" />
  <rect x="9" y="6" width="1" height="1" fill="#375978" />
  <rect x="10" y="6" width="1" height="1" fill="#000000" />
  <rect x="4" y="7" width="1" height="1" fill="#000000" />
  <rect x="5" y="7" width="1" height="1" fill="#B6CADD" />
  <rect x="6" y="7" width="2" height="1" fill="#9BB6D0" />
  <rect x="8" y="7" width="1" height="1" fill="#3F6588" />
  <rect x="9" y="7" width="1" height="1" fill="#375978" />
  <rect x="10" y="7" width="1" height="1" fill="#000000" />
  <rect x="1" y="8" width="4" height="1" fill="#000000" />
  <rect x="5" y="8" width="1" height="1" fill="#B6CADD" />
  <rect x="6" y="8" width="1" height="1" fill="#9AB5CF" />
  <rect x="7" y="8" width="1" height="1" fill="#9CB7D1" />
  <rect x="8" y="8" width="1" height="1" fill="#3F6588" />
  <rect x="9" y="8" width="1" height="1" fill="#375978" />
  <rect x="10" y="8" width="4" height="1" fill="#000000" />
  <rect x="2" y="9" width="1" height="1" fill="#000000" />
  <rect x="3" y="9" width="1" height="1" fill="#5B88B2" />
  <rect x="4" y="9" width="1" height="1" fill="#9EB8D1" />
  <rect x="5" y="9" width="1" height="1" fill="#A4BDD5" />
  <rect x="6" y="9" width="1" height="1" fill="#A0BAD3" />
  <rect x="7" y="9" width="1" height="1" fill="#9CB7D1" />
  <rect x="8" y="9" width="3" height="1" fill="#3F6588" />
  <rect x="11" y="9" width="1" height="1" fill="#2A435B" />
  <rect x="12" y="9" width="1" height="1" fill="#000000" />
  <rect x="3" y="10" width="1" height="1" fill="#000000" />
  <rect x="4" y="10" width="1" height="1" fill="#5080AD" />
  <rect x="5" y="10" width="3" height="1" fill="#9CB7D1" />
  <rect x="8" y="10" width="2" height="1" fill="#3F6588" />
  <rect x="10" y="10" width="1" height="1" fill="#2A435B" />
  <rect x="11" y="10" width="1" height="1" fill="#000000" />
  <rect x="4" y="11" width="1" height="1" fill="#000000" />
  <rect x="5" y="11" width="1" height="1" fill="#5080AD" />
  <rect x="6" y="11" width="1" height="1" fill="#97B3CE" />
  <rect x="7" y="11" width="1" height="1" fill="#A0BAD3" />
  <rect x="8" y="11" width="1" height="1" fill="#3F6588" />
  <rect x="9" y="11" width="1" height="1" fill="#2A435B" />
  <rect x="10" y="11" width="1" height="1" fill="#000000" />
  <rect x="5" y="12" width="1" height="1" fill="#080D11" />
  <rect x="6" y="12" width="1" height="1" fill="#5F8BB4" />
  <rect x="7" y="12" width="1" height="1" fill="#95B2CE" />
  <rect x="8" y="12" width="1" height="1" fill="#2A435B" />
  <rect x="9" y="12" width="1" height="1" fill="#000000" />
  <rect x="6" y="13" width="1" height="1" fill="#000000" />
  <rect x="7" y="13" width="1" height="1" fill="#4C79A3" />
  <rect x="8" y="13" width="1" height="1" fill="#000000" />
  <rect x="7" y="14" width="1" height="1" fill="#000000" />
</svg>