<svg width="16" height="16" viewBox="0 0 16 16" fill="none" xmlns="http://www.w3.org/2000/svg" shape-rendering="crispEdges">
  <rect x="4" y="0" width="1" height="1" fill="#434343" />
  <rect x="5" y="0" width="1" height="1" fill="#555555" />
  <rect x="6" y="0" width="1" height="1" fill="#575757" />
  <rect x="7" y="0" width="1" height="1" fill="#535353" />
  <rect x="8" y="0" width="1" height="1" fill="#3C3C3C" />
  <rect x="3" y="1" width="1" height="1" fill="#484848" />
  <rect x="4" y="1" width="1" height="1" fill="#949494" />
  <rect x="5" y="1" width="1" height="1" fill="#B9B9B9" />
  <rect x="6" y="1" width="1" height="1" fill="#C6C6C6" />
  <rect x="7" y="1" width="1" height="1" fill="#BEBEBE" />
  <rect x="8" y="1" width="1" height="1" fill="#959595" />
  <rect x="9" y="1" width="1" height="1" fill="#545454" />
  <rect x="10" y="1" width="1" height="1" fill="#181818" />
  <rect x="2" y="2" width="1" height="1" fill="#545454" />
  <rect x="3" y="2" width="1" height="1" fill="#BABABA" />
  <rect x="4" y="2" width="1" height="1" fill="#DDDDDD" />
  <rect x="5" y="2" width="1" height="1" fill="#EAEAEA" />
  <rect x="6" y="2" width="2" height="1" fill="#F4F4F4" />
  <rect x="8" y="2" width="1" height="1" fill="#E6E6E6" />
  <rect x="9" y="2" width="1" height="1" fill="#CFCFCF" />
  <rect x="10" y="2" width="1" height="1" fill="#606060" />
  <rect x="11" y="2" width="1" height="1" fill="#1C1C1C" />
  <rect x="1" y="3" width="1" height="1" fill="#212121" />
  <rect x="2" y="3" width="1" height="1" fill="#ADADAD" />
  <rect x="3" y="3" width="1" height="1" fill="#DDDDDD" />
  <rect x="4" y="3" width="1" height="1" fill="#F5F5F5" />
  <rect x="5" y="3" width="1" height="1" fill="#FBFBFB" />
  <rect x="6" y="3" width="1" height="1" fill="#FCFCFC" />
  <rect x="7" y="3" width="1" height="1" fill="#FAFAFA" />
  <rect x="8" y="3" width="1" height="1" fill="#F5F5F5" />
  <rect x="9" y="3" width="1" height="1" fill="#EBEBEB" />
  <rect x="10" y="3" width="1" height="1" fill="#BEBEBE" />
  <rect x="11" y="3" width="1" height="1" fill="#393939" />
  <rect x="1" y="4" width="1" height="1" fill="#5B5B5B" />
  <rect x="2" y="4" width="1" height="1" fill="#C5C5C5" />
  <rect x="3" y="4" width="1" height="1" fill="#D9D9D9" />
  <rect x="4" y="4" width="1" height="1" fill="#BBC2C8" />
  <rect x="5" y="4" width="1" height="1" fill="#DFE2E5" />
  <rect x="6" y="4" width="1" height="1" fill="#FDFDFD" />
  <rect x="7" y="4" width="1" height="1" fill="#FCFCFC" />
  <rect x="8" y="4" width="1" height="1" fill="#C6CDD4" />
  <rect x="9" y="4" width="1" height="1" fill="#E5E7E9" />
  <rect x="10" y="4" width="1" height="1" fill="#E2E2E2" />
  <rect x="11" y="4" width="1" height="1" fill="#929292" />
  <rect x="0" y="5" width="1" height="1" fill="#070707" />
  <rect x="1" y="5" width="1" height="1" fill="#838383" />
  <rect x="2" y="5" width="1" height="1" fill="#DADBDC" />
  <rect x="3" y="5" width="1" height="1" fill="#93A1B0" />
  <rect x="4" y="5" width="1" height="1" fill="#566E86" />
  <rect x="5" y="5" width="1" height="1" fill="#C1C8CF" />
  <rect x="6" y="5" width="1" height="1" fill="#EDEDED" />
  <rect x="7" y="5" width="1" height="1" fill="#FBFBFB" />
  <rect x="8" y="5" width="1" height="1" fill="#6D8196" />
  <rect x="9" y="5" width="1" height="1" fill="#667B90" />
  <rect x="10" y="5" width="1" height="1" fill="#D1D4D6" />
  <rect x="11" y="5" width="1" height="1" fill="#C0C0C0" />
  <rect x="12" y="5" width="1" height="1" fill="#060606" />
  <rect x="0" y="6" width="1" height="1" fill="#090909" />
  <rect x="1" y="6" width="1" height="1" fill="#858585" />
  <rect x="2" y="6" width="1" height="1" fill="#7B8C9D" />
  <rect x="3" y="6" width="1" height="1" fill="#415B77" />
  <rect x="4" y="6" width="1" height="1" fill="#395572" />
  <rect x="5" y="6" width="1" height="1" fill="#657A90" />
  <rect x="6" y="6" width="1" height="1" fill="#708397" />
  <rect x="7" y="6" width="1" height="1" fill="#687C90" />
  <rect x="8" y="6" width="1" height="1" fill="#46607A" />
  <rect x="9" y="6" width="1" height="1" fill="#314E6C" />
  <rect x="10" y="6" width="1" height="1" fill="#6C7F92" />
  <rect x="11" y="6" width="1" height="1" fill="#A1A5AA" />
  <rect x="12" y="6" width="1" height="1" fill="#040404" />
  <rect x="0" y="7" width="1" height="1" fill="#1A1A1A" />
  <rect x="1" y="7" width="1" height="1" fill="#696969" />
  <rect x="2" y="7" width="1" height="1" fill="#D9DADA" />
  <rect x="3" y="7" width="1" height="1" fill="#B8BFC6" />
  <rect x="4" y="7" width="1" height="1" fill="#6F8195" />
  <rect x="5" y="7" width="1" height="1" fill="#BFC6CE" />
  <rect x="6" y="7" width="1" height="1" fill="#ECECEC" />
  <rect x="7" y="7" width="1" height="1" fill="#DFDFDF" />
  <rect x="8" y="7" width="1" height="1" fill="#5C7289" />
  <rect x="9" y="7" width="1" height="1" fill="#8C9AA8" />
  <rect x="10" y="7" width="1" height="1" fill="#CBCCCE" />
  <rect x="11" y="7" width="1" height="1" fill="#878787" />
  <rect x="0" y="8" width="1" height="1" fill="#404040" />
  <rect x="1" y="8" width="1" height="1" fill="#525252" />
  <rect x="2" y="8" width="1" height="1" fill="#A3A3A3" />
  <rect x="3" y="8" width="1" height="1" fill="#D6D6D5" />
  <rect x="4" y="8" width="1" height="1" fill="#D1D1D1" />
  <rect x="5" y="8" width="1" height="1" fill="#CACACA" />
  <rect x="6" y="8" width="1" height="1" fill="#C9C9C9" />
  <rect x="7" y="8" width="1" height="1" fill="#C5C5C5" />
  <rect x="8" y="8" width="1" height="1" fill="#C1C1C0" />
  <rect x="9" y="8" width="1" height="1" fill="#CACACA" />
  <rect x="10" y="8" width="1" height="1" fill="#ADADAD" />
  <rect x="11" y="8" width="1" height="1" fill="#2C2C2C" />
  <rect x="0" y="9" width="1" height="1" fill="#505050" />
  <rect x="1" y="9" width="1" height="1" fill="#B3B3B3" />
  <rect x="2" y="9" width="1" height="1" fill="#393939" />
  <rect x="3" y="9" width="1" height="1" fill="#ACACAC" />
  <rect x="4" y="9" width="1" height="1" fill="#CACACA" />
  <rect x="5" y="9" width="1" height="1" fill="#CCCCCC" />
  <rect x="6" y="9" width="1" height="1" fill="#CACACA" />
  <rect x="7" y="9" width="1" height="1" fill="#C5C5C5" />
  <rect x="8" y="9" width="1" height="1" fill="#B6B6B6" />
  <rect x="9" y="9" width="1" height="1" fill="#B5B5B5" />
  <rect x="10" y="9" width="1" height="1" fill="#4E4E4E" />
  <rect x="11" y="9" width="1" height="1" fill="#080808" />
  <rect x="0" y="10" width="1" height="1" fill="#545454" />
  <rect x="1" y="10" width="1" height="1" fill="#E3E3E3" />
  <rect x="2" y="10" width="1" height="1" fill="#8B8A8A" />
  <rect x="3" y="10" width="1" height="1" fill="#383838" />
  <rect x="4" y="10" width="1" height="1" fill="#747474" />
  <rect x="5" y="10" width="1" height="1" fill="#9E9E9D" />
  <rect x="6" y="10" width="1" height="1" fill="#ADADAD" />
  <rect x="7" y="10" width="1" height="1" fill="#A4A4A3" />
  <rect x="8" y="10" width="1" height="1" fill="#737373" />
  <rect x="9" y="10" width="1" height="1" fill="#313131" />
  <rect x="10" y="10" width="2" height="1" fill="#000000" />
  <rect x="0" y="11" width="1" height="1" fill="#545353" />
  <rect x="1" y="11" width="1" height="1" fill="#EFEEEE" />
  <rect x="2" y="11" width="1" height="1" fill="#DCDBDB" />
  <rect x="3" y="11" width="1" height="1" fill="#AEAEAE" />
  <rect x="4" y="11" width="1" height="1" fill="#616060" />
  <rect x="5" y="11" width="1" height="1" fill="#414141" />
  <rect x="6" y="11" width="1" height="1" fill="#343434" />
  <rect x="7" y="11" width="1" height="1" fill="#363636" />
  <rect x="8" y="11" width="1" height="1" fill="#0F0F0E" />
  <rect x="11" y="11" width="1" height="1" fill="#121212" />
  <rect x="12" y="11" width="1" height="1" fill="#0E0E0E" />
  <rect x="13" y="11" width="1" height="1" fill="#000000" />
  <rect x="0" y="12" width="1" height="1" fill="#545454" />
  <rect x="1" y="12" width="1" height="1" fill="#EFEFEF" />
  <rect x="2" y="12" width="2" height="1" fill="#E6E6E6" />
  <rect x="4" y="12" width="1" height="1" fill="#E0E0E0" />
  <rect x="5" y="12" width="1" height="1" fill="#D3D3D3" />
  <rect x="6" y="12" width="1" height="1" fill="#D2D2D2" />
  <rect x="7" y="12" width="1" height="1" fill="#BABABA" />
  <rect x="8" y="12" width="1" height="1" fill="#000000" />
  <rect x="12" y="12" width="1" height="1" fill="#484848" />
  <rect x="13" y="12" width="1" height="1" fill="#272727" />
  <rect x="14" y="12" width="1" height="1" fill="#000000" />
  <rect x="0" y="13" width="1" height="1" fill="#545454" />
  <rect x="1" y="13" width="1" height="1" fill="#EEEEEE" />
  <rect x="2" y="13" width="1" height="1" fill="#E6E6E6" />
  <rect x="3" y="13" width="2" height="1" fill="#E5E5E5" />
  <rect x="5" y="13" width="1" height="1" fill="#E4E4E4" />
  <rect x="6" y="13" width="1" height="1" fill="#E3E3E3" />
  <rect x="7" y="13" width="1" height="1" fill="#C9C9C9" />
  <rect x="8" y="13" width="1" height="1" fill="#000000" />
  <rect x="12" y="13" width="1" height="1" fill="#171717" />
  <rect x="13" y="13" width="1" height="1" fill="#494949" />
  <rect x="14" y="13" width="1" height="1" fill="#0E0E0E" />
  <rect x="0" y="14" width="1" height="1" fill="#313131" />
  <rect x="1" y="14" width="1" height="1" fill="#7F7F7F" />
  <rect x="2" y="14" width="2" height="1" fill="#7E7E7E" />
  <rect x="4" y="14" width="3" height="1" fill="#7D7D7D" />
  <rect x="7" y="14" width="1" height="1" fill="#717171" />
  <rect x="14" y="14" width="1" height="1" fill="#000000" />
</svg>