<svg width="16" height="16" viewBox="0 0 16 16" fill="none" xmlns="http://www.w3.org/2000/svg" shape-rendering="crispEdges">
  <rect x="3" y="1" width="3" height="1" fill="#891700" />
  <rect x="7" y="1" width="2" height="1" fill="#000686" />
  <rect x="3" y="2" width="1" height="1" fill="#891700" />
  <rect x="4" y="2" width="1" height="1" fill="#DC3F16" />
  <rect x="5" y="2" width="1" height="1" fill="#891700" />
  <rect x="6" y="2" width="1" height="1" fill="#000686" />
  <rect x="7" y="2" width="2" height="1" fill="#889CC1" />
  <rect x="9" y="2" width="1" height="1" fill="#000686" />
  <rect x="3" y="3" width="1" height="1" fill="#891700" />
  <rect x="4" y="3" width="1" height="1" fill="#DC3F16" />
  <rect x="5" y="3" width="1" height="1" fill="#000686" />
  <rect x="6" y="3" width="1" height="1" fill="#889CC1" />
  <rect x="7" y="3" width="2" height="1" fill="#FFFFFF" />
  <rect x="9" y="3" width="1" height="1" fill="#889CC1" />
  <rect x="10" y="3" width="1" height="1" fill="#000686" />
  <rect x="3" y="4" width="1" height="1" fill="#891700" />
  <rect x="4" y="4" width="1" height="1" fill="#000686" />
  <rect x="5" y="4" width="1" height="1" fill="#889CC1" />
  <rect x="6" y="4" width="4" height="1" fill="#FFFFFF" />
  <rect x="10" y="4" width="1" height="1" fill="#889CC1" />
  <rect x="11" y="4" width="1" height="1" fill="#000686" />
  <rect x="3" y="5" width="1" height="1" fill="#000686" />
  <rect x="4" y="5" width="1" height="1" fill="#889CC1" />
  <rect x="5" y="5" width="6" height="1" fill="#FFFFFF" />
  <rect x="11" y="5" width="1" height="1" fill="#889CC1" />
  <rect x="12" y="5" width="1" height="1" fill="#000686" />
  <rect x="2" y="6" width="1" height="1" fill="#000686" />
  <rect x="3" y="6" width="1" height="1" fill="#889CC1" />
  <rect x="4" y="6" width="8" height="1" fill="#FFFFFF" />
  <rect x="12" y="6" width="1" height="1" fill="#889CC1" />
  <rect x="13" y="6" width="1" height="1" fill="#000686" />
  <rect x="1" y="7" width="3" height="1" fill="#000686" />
  <rect x="4" y="7" width="5" height="1" fill="#FFFFFF" />
  <rect x="9" y="7" width="3" height="1" fill="#2B5198" />
  <rect x="12" y="7" width="3" height="1" fill="#000686" />
  <rect x="3" y="8" width="1" height="1" fill="#000686" />
  <rect x="4" y="8" width="1" height="1" fill="#FFFFFF" />
  <rect x="5" y="8" width="3" height="1" fill="#891700" />
  <rect x="8" y="8" width="1" height="1" fill="#FFFFFF" />
  <rect x="9" y="8" width="1" height="1" fill="#2B5198" />
  <rect x="10" y="8" width="1" height="1" fill="#FFFFFF" />
  <rect x="11" y="8" width="1" height="1" fill="#2B5198" />
  <rect x="12" y="8" width="1" height="1" fill="#000686" />
  <rect x="3" y="9" width="1" height="1" fill="#000686" />
  <rect x="4" y="9" width="1" height="1" fill="#FFFFFF" />
  <rect x="5" y="9" width="1" height="1" fill="#891700" />
  <rect x="6" y="9" width="1" height="1" fill="#DC3F16" />
  <rect x="7" y="9" width="1" height="1" fill="#891700" />
  <rect x="8" y="9" width="1" height="1" fill="#FFFFFF" />
  <rect x="9" y="9" width="3" height="1" fill="#2B5198" />
  <rect x="12" y="9" width="1" height="1" fill="#000686" />
  <rect x="3" y="10" width="1" height="1" fill="#000686" />
  <rect x="4" y="10" width="1" height="1" fill="#FFFFFF" />
  <rect x="5" y="10" width="1" height="1" fill="#891700" />
  <rect x="6" y="10" width="1" height="1" fill="#DC3F16" />
  <rect x="7" y="10" width="1" height="1" fill="#891700" />
  <rect x="8" y="10" width="4" height="1" fill="#FFFFFF" />
  <rect x="12" y="10" width="1" height="1" fill="#000686" />
  <rect x="3" y="11" width="1" height="1" fill="#000686" />
  <rect x="4" y="11" width="1" height="1" fill="#FFFFFF" />
  <rect x="5" y="11" width="1" height="1" fill="#891700" />
  <rect x="6" y="11" width="1" height="1" fill="#DC3F16" />
  <rect x="7" y="11" width="1" height="1" fill="#891700" />
  <rect x="8" y="11" width="4" height="1" fill="#FFFFFF" />
  <rect x="12" y="11" width="1" height="1" fill="#000686" />
  <rect x="3" y="12" width="1" height="1" fill="#000686" />
  <rect x="4" y="12" width="1" height="1" fill="#FFFFFF" />
  <rect x="5" y="12" width="1" height="1" fill="#891700" />
  <rect x="6" y="12" width="1" height="1" fill="#DC3F16" />
  <rect x="7" y="12" width="1" height="1" fill="#891700" />
  <rect x="8" y="12" width="4" height="1" fill="#FFFFFF" />
  <rect x="12" y="12" width="1" height="1" fill="#000686" />
  <rect x="2" y="13" width="12" height="1" fill="#000686" />
</svg>