<svg width="16" height="16" viewBox="0 0 16 16" fill="none" xmlns="http://www.w3.org/2000/svg" shape-rendering="crispEdges">
  <rect x="6" y="0" width="1" height="1" fill="#FEBF14" />
  <rect x="10" y="0" width="1" height="1" fill="#F19502" />
  <rect x="4" y="1" width="1" height="1" fill="#FEB61B" />
  <rect x="5" y="1" width="1" height="1" fill="#FEE451" />
  <rect x="6" y="1" width="1" height="1" fill="#FEFE66" />
  <rect x="7" y="1" width="1" height="1" fill="#DEB21D" />
  <rect x="9" y="1" width="1" height="1" fill="#FECF39" />
  <rect x="10" y="1" width="1" height="1" fill="#FCE85D" />
  <rect x="11" y="1" width="1" height="1" fill="#E49109" />
  <rect x="2" y="2" width="1" height="1" fill="#FEAF19" />
  <rect x="3" y="2" width="1" height="1" fill="#FEDD65" />
  <rect x="4" y="2" width="1" height="1" fill="#FEFE90" />
  <rect x="5" y="2" width="1" height="1" fill="#FEFE7D" />
  <rect x="6" y="2" width="1" height="1" fill="#FEF551" />
  <rect x="7" y="2" width="1" height="1" fill="#FEC41A" />
  <rect x="8" y="2" width="1" height="1" fill="#FEA810" />
  <rect x="9" y="2" width="1" height="1" fill="#FDF575" />
  <rect x="10" y="2" width="1" height="1" fill="#FEFE6A" />
  <rect x="11" y="2" width="1" height="1" fill="#FDE83E" />
  <rect x="12" y="2" width="1" height="1" fill="#E08709" />
  <rect x="1" y="3" width="1" height="1" fill="#FDA60C" />
  <rect x="2" y="3" width="1" height="1" fill="#FEF6AC" />
  <rect x="3" y="3" width="1" height="1" fill="#FEFEBD" />
  <rect x="4" y="3" width="1" height="1" fill="#FEFB81" />
  <rect x="5" y="3" width="1" height="1" fill="#FED638" />
  <rect x="6" y="3" width="1" height="1" fill="#FEBC16" />
  <rect x="7" y="3" width="1" height="1" fill="#FDD027" />
  <rect x="8" y="3" width="1" height="1" fill="#FDB512" />
  <rect x="9" y="3" width="1" height="1" fill="#F3A917" />
  <rect x="10" y="3" width="1" height="1" fill="#FBE642" />
  <rect x="11" y="3" width="1" height="1" fill="#FEF040" />
  <rect x="12" y="3" width="1" height="1" fill="#FDCF26" />
  <rect x="13" y="3" width="1" height="1" fill="#E08006" />
  <rect x="2" y="4" width="1" height="1" fill="#FDCB4B" />
  <rect x="3" y="4" width="1" height="1" fill="#FEE069" />
  <rect x="4" y="4" width="1" height="1" fill="#FEB716" />
  <rect x="5" y="4" width="1" height="1" fill="#FEB811" />
  <rect x="6" y="4" width="1" height="1" fill="#FED72D" />
  <rect x="7" y="4" width="1" height="1" fill="#FEEC41" />
  <rect x="8" y="4" width="1" height="1" fill="#FECE24" />
  <rect x="9" y="4" width="1" height="1" fill="#FBBB17" />
  <rect x="10" y="4" width="1" height="1" fill="#ED9F12" />
  <rect x="11" y="4" width="1" height="1" fill="#F6BC22" />
  <rect x="12" y="4" width="1" height="1" fill="#FECF1F" />
  <rect x="13" y="4" width="1" height="1" fill="#FEAF0B" />
  <rect x="14" y="4" width="1" height="1" fill="#A74900" />
  <rect x="0" y="5" width="1" height="1" fill="#F89A00" />
  <rect x="1" y="5" width="1" height="1" fill="#FDB729" />
  <rect x="2" y="5" width="1" height="1" fill="#FEC02D" />
  <rect x="3" y="5" width="1" height="1" fill="#FEA201" />
  <rect x="4" y="5" width="1" height="1" fill="#FEBB13" />
  <rect x="5" y="5" width="1" height="1" fill="#FED229" />
  <rect x="6" y="5" width="1" height="1" fill="#FEE439" />
  <rect x="7" y="5" width="1" height="1" fill="#FEF64B" />
  <rect x="8" y="5" width="1" height="1" fill="#FEDB33" />
  <rect x="9" y="5" width="1" height="1" fill="#FEDB2F" />
  <rect x="10" y="5" width="1" height="1" fill="#FCD832" />
  <rect x="11" y="5" width="1" height="1" fill="#E9A31A" />
  <rect x="12" y="5" width="1" height="1" fill="#F0960A" />
  <rect x="13" y="5" width="1" height="1" fill="#BF5A01" />
  <rect x="2" y="6" width="1" height="1" fill="#FCDB4D" />
  <rect x="3" y="6" width="1" height="1" fill="#FDD02B" />
  <rect x="4" y="6" width="1" height="1" fill="#FBB613" />
  <rect x="5" y="6" width="1" height="1" fill="#FEE034" />
  <rect x="6" y="6" width="1" height="1" fill="#FEF246" />
  <rect x="7" y="6" width="1" height="1" fill="#FEFE67" />
  <rect x="8" y="6" width="1" height="1" fill="#FEEE4B" />
  <rect x="9" y="6" width="1" height="1" fill="#FEF142" />
  <rect x="10" y="6" width="1" height="1" fill="#FDF045" />
  <rect x="11" y="6" width="1" height="1" fill="#EBB62A" />
  <rect x="12" y="6" width="1" height="1" fill="#DA790A" />
  <rect x="13" y="6" width="1" height="1" fill="#CE6D07" />
  <rect x="14" y="6" width="1" height="1" fill="#B14300" />
  <rect x="2" y="7" width="1" height="1" fill="#E68D00" />
  <rect x="3" y="7" width="1" height="1" fill="#FCC924" />
  <rect x="4" y="7" width="1" height="1" fill="#F8B91A" />
  <rect x="5" y="7" width="1" height="1" fill="#F6BE21" />
  <rect x="6" y="7" width="1" height="1" fill="#FEF64F" />
  <rect x="7" y="7" width="1" height="1" fill="#F7CC3E" />
  <rect x="8" y="7" width="1" height="1" fill="#F3BB22" />
  <rect x="9" y="7" width="1" height="1" fill="#F0C831" />
  <rect x="10" y="7" width="1" height="1" fill="#E4A725" />
  <rect x="11" y="7" width="1" height="1" fill="#EDBE2B" />
  <rect x="12" y="7" width="1" height="1" fill="#F3B922" />
  <rect x="13" y="7" width="1" height="1" fill="#CC6B07" />
  <rect x="14" y="7" width="1" height="1" fill="#5E2000" />
  <rect x="3" y="8" width="1" height="1" fill="#F9A207" />
  <rect x="4" y="8" width="1" height="1" fill="#F3A30D" />
  <rect x="5" y="8" width="1" height="1" fill="#ED9006" />
  <rect x="6" y="8" width="1" height="1" fill="#E48506" />
  <rect x="7" y="8" width="1" height="1" fill="#E07000" />
  <rect x="8" y="8" width="1" height="1" fill="#DD7D11" />
  <rect x="9" y="8" width="1" height="1" fill="#ECBF4C" />
  <rect x="10" y="8" width="1" height="1" fill="#F1D84B" />
  <rect x="11" y="8" width="1" height="1" fill="#E9A41D" />
  <rect x="12" y="8" width="1" height="1" fill="#C35602" />
  <rect x="2" y="9" width="1" height="1" fill="#F59906" />
  <rect x="3" y="9" width="1" height="1" fill="#FEC31C" />
  <rect x="4" y="9" width="1" height="1" fill="#FBBC19" />
  <rect x="5" y="9" width="1" height="1" fill="#F5AC13" />
  <rect x="6" y="9" width="1" height="1" fill="#E9930D" />
  <rect x="7" y="9" width="1" height="1" fill="#E1840D" />
  <rect x="8" y="9" width="1" height="1" fill="#E39927" />
  <rect x="9" y="9" width="1" height="1" fill="#E4A634" />
  <rect x="10" y="9" width="1" height="1" fill="#E08B12" />
  <rect x="11" y="9" width="1" height="1" fill="#F7AB0D" />
  <rect x="12" y="9" width="1" height="1" fill="#C86C06" />
  <rect x="2" y="10" width="1" height="1" fill="#ED9108" />
  <rect x="3" y="10" width="1" height="1" fill="#FED830" />
  <rect x="4" y="10" width="1" height="1" fill="#FEE033" />
  <rect x="5" y="10" width="1" height="1" fill="#FEDE32" />
  <rect x="6" y="10" width="1" height="1" fill="#FEE339" />
  <rect x="7" y="10" width="1" height="1" fill="#FEDB3A" />
  <rect x="8" y="10" width="1" height="1" fill="#FDC91F" />
  <rect x="9" y="10" width="1" height="1" fill="#F9BF1D" />
  <rect x="10" y="10" width="1" height="1" fill="#FECB22" />
  <rect x="11" y="10" width="1" height="1" fill="#FEE027" />
  <rect x="12" y="10" width="1" height="1" fill="#CA770F" />
  <rect x="3" y="11" width="1" height="1" fill="#DE9216" />
  <rect x="4" y="11" width="1" height="1" fill="#FEED46" />
  <rect x="5" y="11" width="1" height="1" fill="#FEF74A" />
  <rect x="6" y="11" width="1" height="1" fill="#FEF34B" />
  <rect x="7" y="11" width="1" height="1" fill="#FEEB4B" />
  <rect x="8" y="11" width="1" height="1" fill="#FEE338" />
  <rect x="9" y="11" width="1" height="1" fill="#FEE639" />
  <rect x="10" y="11" width="1" height="1" fill="#FEEC3B" />
  <rect x="11" y="11" width="1" height="1" fill="#FEED3A" />
  <rect x="12" y="11" width="1" height="1" fill="#C96E12" />
  <rect x="4" y="12" width="1" height="1" fill="#E18713" />
  <rect x="5" y="12" width="1" height="1" fill="#FDED59" />
  <rect x="6" y="12" width="1" height="1" fill="#FEFE6F" />
  <rect x="7" y="12" width="1" height="1" fill="#FEFC61" />
  <rect x="8" y="12" width="1" height="1" fill="#FEFE52" />
  <rect x="9" y="12" width="1" height="1" fill="#FEFC4F" />
  <rect x="10" y="12" width="1" height="1" fill="#F8BE32" />
  <rect x="11" y="12" width="1" height="1" fill="#B3590F" />
  <rect x="5" y="13" width="1" height="1" fill="#C56411" />
  <rect x="6" y="13" width="1" height="1" fill="#F8DD76" />
  <rect x="7" y="13" width="1" height="1" fill="#FEFE86" />
  <rect x="8" y="13" width="1" height="1" fill="#FCCA44" />
  <rect x="9" y="13" width="1" height="1" fill="#C06816" />
  <rect x="10" y="13" width="1" height="1" fill="#541600" />
  <rect x="6" y="14" width="1" height="1" fill="#B74E0D" />
  <rect x="7" y="14" width="1" height="1" fill="#CF6D24" />
  <rect x="8" y="14" width="1" height="1" fill="#641D00" />
</svg>