<svg width="16" height="16" viewBox="0 0 16 16" fill="none" xmlns="http://www.w3.org/2000/svg" shape-rendering="crispEdges">
  <rect x="3" y="2" width="1" height="1" fill="#ff8822" fill-opacity="0.059" />
  <rect x="4" y="2" width="1" height="1" fill="#ff811c" fill-opacity="0.286" />
  <rect x="5" y="2" width="1" height="1" fill="#ff821c" fill-opacity="0.361" />
  <rect x="6" y="2" width="1" height="1" fill="#ff831a" fill-opacity="0.153" />
  <rect x="2" y="3" width="1" height="1" fill="#ff881d" fill-opacity="0.310" />
  <rect x="3" y="3" width="1" height="1" fill="#fe8d1f" fill-opacity="0.906" />
  <rect x="4" y="3" width="1" height="1" fill="#feb32d" fill-opacity="0.949" />
  <rect x="5" y="3" width="1" height="1" fill="#ffbe30" fill-opacity="0.976" />
  <rect x="6" y="3" width="1" height="1" fill="#fe9925" fill-opacity="0.914" />
  <rect x="7" y="3" width="1" height="1" fill="#fd8d22" fill-opacity="0.647" />
  <rect x="1" y="4" width="1" height="1" fill="#ff831d" fill-opacity="0.137" />
  <rect x="2" y="4" width="1" height="1" fill="#fe9122" fill-opacity="0.922" />
  <rect x="3" y="4" width="1" height="1" fill="#ffb52e" fill-opacity="1.000" />
  <rect x="4" y="4" width="1" height="1" fill="#feb532" fill-opacity="1.000" />
  <rect x="5" y="4" width="1" height="1" fill="#ffef5c" fill-opacity="1.000" />
  <rect x="6" y="4" width="1" height="1" fill="#fff068" fill-opacity="1.000" />
  <rect x="7" y="4" width="1" height="1" fill="#feaf3d" fill-opacity="0.945" />
  <rect x="8" y="4" width="1" height="1" fill="#ff881e" fill-opacity="0.361" />
  <rect x="1" y="5" width="1" height="1" fill="#fd8b1f" fill-opacity="0.639" />
  <rect x="2" y="5" width="1" height="1" fill="#ffd237" fill-opacity="1.000" />
  <rect x="3" y="5" width="1" height="1" fill="#fe891f" fill-opacity="1.000" />
  <rect x="4" y="5" width="1" height="1" fill="#fe8720" fill-opacity="1.000" />
  <rect x="5" y="5" width="1" height="1" fill="#ffed74" fill-opacity="1.000" />
  <rect x="6" y="5" width="1" height="1" fill="#fff387" fill-opacity="1.000" />
  <rect x="7" y="5" width="1" height="1" fill="#ffef89" fill-opacity="1.000" />
  <rect x="8" y="5" width="1" height="1" fill="#fe8c27" fill-opacity="0.886" />
  <rect x="9" y="5" width="1" height="1" fill="#ffff00" fill-opacity="0.004" />
  <rect x="1" y="6" width="1" height="1" fill="#fe8c20" fill-opacity="0.784" />
  <rect x="2" y="6" width="1" height="1" fill="#ffe442" fill-opacity="1.000" />
  <rect x="3" y="6" width="1" height="1" fill="#ffba3f" fill-opacity="1.000" />
  <rect x="4" y="6" width="1" height="1" fill="#ffbb4d" fill-opacity="1.000" />
  <rect x="5" y="6" width="1" height="1" fill="#ffef8e" fill-opacity="1.000" />
  <rect x="6" y="6" width="1" height="1" fill="#fff6a6" fill-opacity="1.000" />
  <rect x="7" y="6" width="1" height="1" fill="#fff7b1" fill-opacity="1.000" />
  <rect x="8" y="6" width="1" height="1" fill="#fe902e" fill-opacity="0.906" />
  <rect x="1" y="7" width="1" height="1" fill="#fd8c20" fill-opacity="0.600" />
  <rect x="2" y="7" width="1" height="1" fill="#ffd243" fill-opacity="1.000" />
  <rect x="3" y="7" width="1" height="1" fill="#fff16e" fill-opacity="1.000" />
  <rect x="4" y="7" width="1" height="1" fill="#fff48b" fill-opacity="1.000" />
  <rect x="5" y="7" width="1" height="1" fill="#fff6a7" fill-opacity="1.000" />
  <rect x="6" y="7" width="1" height="1" fill="#fff9c0" fill-opacity="1.000" />
  <rect x="7" y="7" width="1" height="1" fill="#fffad1" fill-opacity="1.000" />
  <rect x="8" y="7" width="1" height="1" fill="#fe8a2c" fill-opacity="0.910" />
  <rect x="9" y="7" width="1" height="1" fill="#ffff00" fill-opacity="0.004" />
  <rect x="1" y="8" width="1" height="1" fill="#ff801a" fill-opacity="0.157" />
  <rect x="2" y="8" width="1" height="1" fill="#fe9425" fill-opacity="0.910" />
  <rect x="3" y="8" width="1" height="1" fill="#ffec70" fill-opacity="1.000" />
  <rect x="4" y="8" width="1" height="1" fill="#fff493" fill-opacity="1.000" />
  <rect x="5" y="8" width="1" height="1" fill="#fff7b2" fill-opacity="1.000" />
  <rect x="6" y="8" width="1" height="1" fill="#fffad1" fill-opacity="1.000" />
  <rect x="7" y="8" width="1" height="1" fill="#fffdee" fill-opacity="1.000" />
  <rect x="8" y="8" width="1" height="1" fill="#ffc188" fill-opacity="0.949" />
  <rect x="9" y="8" width="1" height="1" fill="#fe8b2c" fill-opacity="0.725" />
  <rect x="10" y="8" width="1" height="1" fill="#ff9224" fill-opacity="0.027" />
  <rect x="2" y="9" width="1" height="1" fill="#ff891f" fill-opacity="0.322" />
  <rect x="3" y="9" width="1" height="1" fill="#fe8c25" fill-opacity="0.871" />
  <rect x="4" y="9" width="1" height="1" fill="#feab47" fill-opacity="0.925" />
  <rect x="5" y="9" width="1" height="1" fill="#feb55e" fill-opacity="0.949" />
  <rect x="6" y="9" width="1" height="1" fill="#fe9235" fill-opacity="0.910" />
  <rect x="7" y="9" width="1" height="1" fill="#fe9138" fill-opacity="0.922" />
  <rect x="8" y="9" width="1" height="1" fill="#ffefcd" fill-opacity="1.000" />
  <rect x="9" y="9" width="1" height="1" fill="#ffcc89" fill-opacity="0.973" />
  <rect x="10" y="9" width="1" height="1" fill="#fe8c29" fill-opacity="0.808" />
  <rect x="11" y="9" width="1" height="1" fill="#ff8020" fill-opacity="0.063" />
  <rect x="4" y="10" width="1" height="1" fill="#ff821c" fill-opacity="0.247" />
  <rect x="5" y="10" width="1" height="1" fill="#ff801c" fill-opacity="0.290" />
  <rect x="6" y="10" width="1" height="1" fill="#ff8e1c" fill-opacity="0.035" />
  <rect x="7" y="10" width="1" height="1" fill="#ff8521" fill-opacity="0.482" />
  <rect x="8" y="10" width="1" height="1" fill="#ffc97e" fill-opacity="0.996" />
  <rect x="9" y="10" width="1" height="1" fill="#ffeea6" fill-opacity="1.000" />
  <rect x="10" y="10" width="1" height="1" fill="#ffd679" fill-opacity="0.988" />
  <rect x="11" y="10" width="1" height="1" fill="#fe8c25" fill-opacity="0.867" />
  <rect x="12" y="10" width="1" height="1" fill="#ff841a" fill-opacity="0.114" />
  <rect x="7" y="11" width="1" height="1" fill="#ff8b28" fill-opacity="0.404" />
  <rect x="8" y="11" width="1" height="1" fill="#fe8d29" fill-opacity="0.851" />
  <rect x="9" y="11" width="1" height="1" fill="#fe8c28" fill-opacity="0.871" />
  <rect x="10" y="11" width="1" height="1" fill="#ffdd70" fill-opacity="0.996" />
  <rect x="11" y="11" width="1" height="1" fill="#ffdc5f" fill-opacity="1.000" />
  <rect x="12" y="11" width="1" height="1" fill="#fe8d21" fill-opacity="0.898" />
  <rect x="13" y="11" width="1" height="1" fill="#ff801d" fill-opacity="0.173" />
  <rect x="9" y="12" width="1" height="1" fill="#ff851e" fill-opacity="0.427" />
  <rect x="10" y="12" width="1" height="1" fill="#ffb943" fill-opacity="1.000" />
  <rect x="11" y="12" width="1" height="1" fill="#ffd74a" fill-opacity="1.000" />
  <rect x="12" y="12" width="1" height="1" fill="#fea92a" fill-opacity="0.945" />
  <rect x="13" y="12" width="1" height="1" fill="#ff8a1d" fill-opacity="0.420" />
  <rect x="9" y="13" width="1" height="1" fill="#ff8b1f" fill-opacity="0.259" />
  <rect x="10" y="13" width="1" height="1" fill="#fe8d21" fill-opacity="0.694" />
  <rect x="11" y="13" width="1" height="1" fill="#fe8b1f" fill-opacity="0.733" />
  <rect x="12" y="13" width="1" height="1" fill="#fd8c1e" fill-opacity="0.624" />
</svg>