<svg width="16" height="16" viewBox="0 0 16 16" fill="none" xmlns="http://www.w3.org/2000/svg" shape-rendering="crispEdges">
  <rect x="4" y="0" width="1" height="1" fill="#e97e31" fill-opacity="0.365" />
  <rect x="5" y="0" width="1" height="1" fill="#f88a25" fill-opacity="0.820" />
  <rect x="6" y="0" width="1" height="1" fill="#fe891e" fill-opacity="0.898" />
  <rect x="7" y="0" width="1" height="1" fill="#fe8b1f" fill-opacity="0.784" />
  <rect x="8" y="0" width="1" height="1" fill="#ff841c" fill-opacity="0.325" />
  <rect x="2" y="1" width="1" height="1" fill="#453bce" fill-opacity="0.102" />
  <rect x="3" y="1" width="1" height="1" fill="#b66f64" fill-opacity="0.902" />
  <rect x="4" y="1" width="1" height="1" fill="#f39a2e" fill-opacity="0.996" />
  <rect x="5" y="1" width="1" height="1" fill="#ffdf3b" fill-opacity="1.000" />
  <rect x="6" y="1" width="1" height="1" fill="#ffed44" fill-opacity="1.000" />
  <rect x="7" y="1" width="1" height="1" fill="#ffde49" fill-opacity="1.000" />
  <rect x="8" y="1" width="1" height="1" fill="#fda02e" fill-opacity="0.941" />
  <rect x="9" y="1" width="1" height="1" fill="#fd8b20" fill-opacity="0.620" />
  <rect x="1" y="2" width="1" height="1" fill="#4d33cc" fill-opacity="0.039" />
  <rect x="2" y="2" width="1" height="1" fill="#684faa" fill-opacity="0.902" />
  <rect x="3" y="2" width="1" height="1" fill="#ef9530" fill-opacity="1.000" />
  <rect x="4" y="2" width="1" height="1" fill="#fea829" fill-opacity="1.000" />
  <rect x="5" y="2" width="1" height="1" fill="#fe8920" fill-opacity="1.000" />
  <rect x="6" y="2" width="1" height="1" fill="#ffce4a" fill-opacity="1.000" />
  <rect x="7" y="2" width="1" height="1" fill="#fff16d" fill-opacity="1.000" />
  <rect x="8" y="2" width="1" height="1" fill="#fff276" fill-opacity="1.000" />
  <rect x="9" y="2" width="1" height="1" fill="#fea035" fill-opacity="0.933" />
  <rect x="10" y="2" width="1" height="1" fill="#ff8219" fill-opacity="0.239" />
  <rect x="1" y="3" width="1" height="1" fill="#4040d1" fill-opacity="0.561" />
  <rect x="2" y="3" width="1" height="1" fill="#a37c6f" fill-opacity="0.988" />
  <rect x="3" y="3" width="1" height="1" fill="#ffca34" fill-opacity="1.000" />
  <rect x="4" y="3" width="1" height="1" fill="#fe9023" fill-opacity="1.000" />
  <rect x="5" y="3" width="1" height="1" fill="#feab38" fill-opacity="1.000" />
  <rect x="6" y="3" width="1" height="1" fill="#feb547" fill-opacity="1.000" />
  <rect x="7" y="3" width="1" height="1" fill="#fff38a" fill-opacity="1.000" />
  <rect x="8" y="3" width="1" height="1" fill="#fff595" fill-opacity="1.000" />
  <rect x="9" y="3" width="1" height="1" fill="#ffda7c" fill-opacity="1.000" />
  <rect x="10" y="3" width="1" height="1" fill="#fe8d29" fill-opacity="0.667" />
  <rect x="1" y="4" width="1" height="1" fill="#4141d1" fill-opacity="0.878" />
  <rect x="2" y="4" width="1" height="1" fill="#c08e5e" fill-opacity="1.000" />
  <rect x="3" y="4" width="1" height="1" fill="#ffd439" fill-opacity="1.000" />
  <rect x="4" y="4" width="1" height="1" fill="#ffd750" fill-opacity="1.000" />
  <rect x="5" y="4" width="1" height="1" fill="#ffbb4b" fill-opacity="1.000" />
  <rect x="6" y="4" width="1" height="1" fill="#ffeb85" fill-opacity="1.000" />
  <rect x="7" y="4" width="1" height="1" fill="#fff6a4" fill-opacity="1.000" />
  <rect x="8" y="4" width="1" height="1" fill="#fff7b3" fill-opacity="1.000" />
  <rect x="9" y="4" width="1" height="1" fill="#ffe8a3" fill-opacity="1.000" />
  <rect x="10" y="4" width="1" height="1" fill="#fe8d2c" fill-opacity="0.773" />
  <rect x="1" y="5" width="1" height="1" fill="#4343d1" fill-opacity="0.871" />
  <rect x="2" y="5" width="1" height="1" fill="#9c9091" fill-opacity="1.000" />
  <rect x="3" y="5" width="1" height="1" fill="#fab93a" fill-opacity="1.000" />
  <rect x="4" y="5" width="1" height="1" fill="#fff069" fill-opacity="1.000" />
  <rect x="5" y="5" width="1" height="1" fill="#fff385" fill-opacity="1.000" />
  <rect x="6" y="5" width="1" height="1" fill="#fff6a0" fill-opacity="1.000" />
  <rect x="7" y="5" width="1" height="1" fill="#fff8ba" fill-opacity="1.000" />
  <rect x="8" y="5" width="1" height="1" fill="#fffacf" fill-opacity="1.000" />
  <rect x="9" y="5" width="1" height="1" fill="#ffd59e" fill-opacity="1.000" />
  <rect x="10" y="5" width="1" height="1" fill="#fe8524" fill-opacity="0.729" />
  <rect x="1" y="6" width="1" height="1" fill="#4443d0" fill-opacity="0.600" />
  <rect x="2" y="6" width="1" height="1" fill="#6987d1" fill-opacity="0.988" />
  <rect x="3" y="6" width="1" height="1" fill="#f18c33" fill-opacity="1.000" />
  <rect x="4" y="6" width="1" height="1" fill="#ffe464" fill-opacity="1.000" />
  <rect x="5" y="6" width="1" height="1" fill="#fff48b" fill-opacity="1.000" />
  <rect x="6" y="6" width="1" height="1" fill="#fff6a8" fill-opacity="1.000" />
  <rect x="7" y="6" width="1" height="1" fill="#fff9c5" fill-opacity="1.000" />
  <rect x="8" y="6" width="1" height="1" fill="#fff8db" fill-opacity="1.000" />
  <rect x="9" y="6" width="1" height="1" fill="#fff6e9" fill-opacity="1.000" />
  <rect x="10" y="6" width="1" height="1" fill="#fe9841" fill-opacity="0.933" />
  <rect x="11" y="6" width="1" height="1" fill="#ff8826" fill-opacity="0.447" />
  <rect x="1" y="7" width="1" height="1" fill="#4433cc" fill-opacity="0.059" />
  <rect x="2" y="7" width="1" height="1" fill="#4947d2" fill-opacity="0.890" />
  <rect x="3" y="7" width="1" height="1" fill="#a19fbc" fill-opacity="0.996" />
  <rect x="4" y="7" width="1" height="1" fill="#f79137" fill-opacity="1.000" />
  <rect x="5" y="7" width="1" height="1" fill="#fcb554" fill-opacity="1.000" />
  <rect x="6" y="7" width="1" height="1" fill="#ffcd75" fill-opacity="1.000" />
  <rect x="7" y="7" width="1" height="1" fill="#fab96e" fill-opacity="0.996" />
  <rect x="8" y="7" width="1" height="1" fill="#fe801b" fill-opacity="1.000" />
  <rect x="9" y="7" width="1" height="1" fill="#ffbe82" fill-opacity="0.957" />
  <rect x="10" y="7" width="1" height="1" fill="#fff7d1" fill-opacity="1.000" />
  <rect x="11" y="7" width="1" height="1" fill="#fea248" fill-opacity="0.941" />
  <rect x="12" y="7" width="1" height="1" fill="#fd8a26" fill-opacity="0.580" />
  <rect x="13" y="7" width="1" height="1" fill="#ffff00" fill-opacity="0.004" />
  <rect x="2" y="8" width="1" height="1" fill="#463ed1" fill-opacity="0.129" />
  <rect x="3" y="8" width="1" height="1" fill="#4c47d3" fill-opacity="0.804" />
  <rect x="4" y="8" width="1" height="1" fill="#4a3dca" fill-opacity="1.000" />
  <rect x="5" y="8" width="1" height="1" fill="#e6c7b5" fill-opacity="1.000" />
  <rect x="6" y="8" width="1" height="1" fill="#b67a86" fill-opacity="0.973" />
  <rect x="7" y="8" width="1" height="1" fill="#9a5e84" fill-opacity="0.741" />
  <rect x="8" y="8" width="1" height="1" fill="#e1782d" fill-opacity="0.067" />
  <rect x="9" y="8" width="1" height="1" fill="#fe8420" fill-opacity="0.969" />
  <rect x="10" y="8" width="1" height="1" fill="#fff5ba" fill-opacity="1.000" />
  <rect x="11" y="8" width="1" height="1" fill="#fff6aa" fill-opacity="1.000" />
  <rect x="12" y="8" width="1" height="1" fill="#feaf4c" fill-opacity="0.949" />
  <rect x="13" y="8" width="1" height="1" fill="#fe8922" fill-opacity="0.702" />
  <rect x="14" y="8" width="1" height="1" fill="#ff802b" fill-opacity="0.024" />
  <rect x="3" y="9" width="1" height="1" fill="#0000ff" fill-opacity="0.004" />
  <rect x="4" y="9" width="1" height="1" fill="#473fd2" fill-opacity="0.914" />
  <rect x="5" y="9" width="1" height="1" fill="#c0cef1" fill-opacity="1.000" />
  <rect x="6" y="9" width="1" height="1" fill="#6f6ddb" fill-opacity="0.918" />
  <rect x="7" y="9" width="1" height="1" fill="#463ad1" fill-opacity="0.173" />
  <rect x="9" y="9" width="1" height="1" fill="#fe801b" fill-opacity="1.000" />
  <rect x="10" y="9" width="1" height="1" fill="#fe8521" fill-opacity="0.949" />
  <rect x="11" y="9" width="1" height="1" fill="#fe9d3a" fill-opacity="0.937" />
  <rect x="12" y="9" width="1" height="1" fill="#fff27f" fill-opacity="1.000" />
  <rect x="13" y="9" width="1" height="1" fill="#ffbc45" fill-opacity="0.965" />
  <rect x="14" y="9" width="1" height="1" fill="#fe881f" fill-opacity="0.800" />
  <rect x="15" y="9" width="1" height="1" fill="#ff8822" fill-opacity="0.059" />
  <rect x="3" y="10" width="1" height="1" fill="#4640d1" fill-opacity="0.769" />
  <rect x="4" y="10" width="1" height="1" fill="#5d61d7" fill-opacity="0.961" />
  <rect x="5" y="10" width="1" height="1" fill="#b4d1f0" fill-opacity="1.000" />
  <rect x="6" y="10" width="1" height="1" fill="#6e74dc" fill-opacity="0.925" />
  <rect x="7" y="10" width="1" height="1" fill="#443cd0" fill-opacity="0.235" />
  <rect x="9" y="10" width="1" height="1" fill="#ffaa00" fill-opacity="0.012" />
  <rect x="11" y="10" width="1" height="1" fill="#fe8620" fill-opacity="0.902" />
  <rect x="12" y="10" width="1" height="1" fill="#ffe561" fill-opacity="1.000" />
  <rect x="13" y="10" width="1" height="1" fill="#ffec54" fill-opacity="1.000" />
  <rect x="14" y="10" width="1" height="1" fill="#fe8f20" fill-opacity="0.976" />
  <rect x="15" y="10" width="1" height="1" fill="#ff831d" fill-opacity="0.412" />
  <rect x="3" y="11" width="1" height="1" fill="#473cd1" fill-opacity="0.282" />
  <rect x="4" y="11" width="1" height="1" fill="#4640d1" fill-opacity="0.949" />
  <rect x="5" y="11" width="1" height="1" fill="#85a8e6" fill-opacity="1.000" />
  <rect x="6" y="11" width="1" height="1" fill="#6977dc" fill-opacity="0.945" />
  <rect x="7" y="11" width="1" height="1" fill="#4339d0" fill-opacity="0.298" />
  <rect x="11" y="11" width="1" height="1" fill="#fe831c" fill-opacity="0.925" />
  <rect x="12" y="11" width="1" height="1" fill="#fe881f" fill-opacity="0.910" />
  <rect x="13" y="11" width="1" height="1" fill="#fe801b" fill-opacity="1.000" />
  <rect x="14" y="11" width="1" height="1" fill="#fe871d" fill-opacity="0.753" />
  <rect x="15" y="11" width="1" height="1" fill="#ffaa00" fill-opacity="0.012" />
  <rect x="4" y="12" width="1" height="1" fill="#453fd1" fill-opacity="0.765" />
  <rect x="5" y="12" width="1" height="1" fill="#6189de" fill-opacity="1.000" />
  <rect x="6" y="12" width="1" height="1" fill="#5d77da" fill-opacity="0.973" />
  <rect x="7" y="12" width="1" height="1" fill="#433bcf" fill-opacity="0.357" />
  <rect x="13" y="12" width="1" height="1" fill="#ff8020" fill-opacity="0.094" />
  <rect x="14" y="12" width="1" height="1" fill="#ff9224" fill-opacity="0.027" />
  <rect x="3" y="13" width="1" height="1" fill="#423ed1" fill-opacity="0.545" />
  <rect x="4" y="13" width="1" height="1" fill="#4346d2" fill-opacity="0.976" />
  <rect x="5" y="13" width="1" height="1" fill="#4c95dd" fill-opacity="1.000" />
  <rect x="6" y="13" width="1" height="1" fill="#4b72d8" fill-opacity="1.000" />
  <rect x="7" y="13" width="1" height="1" fill="#443bd0" fill-opacity="0.424" />
  <rect x="3" y="14" width="1" height="1" fill="#4038cf" fill-opacity="0.125" />
  <rect x="4" y="14" width="1" height="1" fill="#423ed0" fill-opacity="0.875" />
  <rect x="5" y="14" width="1" height="1" fill="#326ad3" fill-opacity="0.984" />
  <rect x="6" y="14" width="1" height="1" fill="#356cd5" fill-opacity="1.000" />
  <rect x="7" y="14" width="1" height="1" fill="#4240d1" fill-opacity="0.518" />
  <rect x="4" y="15" width="1" height="1" fill="#4239d0" fill-opacity="0.212" />
  <rect x="5" y="15" width="1" height="1" fill="#433ad0" fill-opacity="1.000" />
  <rect x="6" y="15" width="1" height="1" fill="#423cd1" fill-opacity="0.969" />
  <rect x="7" y="15" width="1" height="1" fill="#4141d1" fill-opacity="0.416" />
</svg>