<svg width="16" height="16" viewBox="0 0 16 16" fill="none" xmlns="http://www.w3.org/2000/svg" shape-rendering="crispEdges">
  <rect x="5" y="0" width="1" height="1" fill="#C2C2C2" />
  <rect x="6" y="0" width="1" height="1" fill="#B3B3B3" />
  <rect x="7" y="0" width="2" height="1" fill="#A2A2A2" />
  <rect x="9" y="0" width="1" height="1" fill="#B3B3B3" />
  <rect x="10" y="0" width="1" height="1" fill="#C2C2C2" />
  <rect x="5" y="1" width="1" height="1" fill="#A9A9A9" />
  <rect x="6" y="1" width="4" height="1" fill="#FFFFFF" />
  <rect x="10" y="1" width="1" height="1" fill="#A9A9A9" />
  <rect x="1" y="2" width="1" height="1" fill="#C2C2C2" />
  <rect x="2" y="2" width="1" height="1" fill="#B3B3B3" />
  <rect x="3" y="2" width="2" height="1" fill="#A2A2A2" />
  <rect x="5" y="2" width="1" height="1" fill="#B1B1B1" />
  <rect x="6" y="2" width="1" height="1" fill="#D6D6D6" />
  <rect x="7" y="2" width="1" height="1" fill="#FDFDFD" />
  <rect x="8" y="2" width="1" height="1" fill="#FCFCFC" />
  <rect x="9" y="2" width="1" height="1" fill="#D3D3D3" />
  <rect x="10" y="2" width="1" height="1" fill="#B1B1B1" />
  <rect x="11" y="2" width="2" height="1" fill="#A2A2A2" />
  <rect x="13" y="2" width="1" height="1" fill="#B3B3B3" />
  <rect x="14" y="2" width="1" height="1" fill="#C2C2C2" />
  <rect x="1" y="3" width="1" height="1" fill="#A9A9A9" />
  <rect x="2" y="3" width="3" height="1" fill="#FFFFFF" />
  <rect x="5" y="3" width="1" height="1" fill="#E0E0E0" />
  <rect x="6" y="3" width="1" height="1" fill="#ACACAC" />
  <rect x="7" y="3" width="2" height="1" fill="#D1D1D1" />
  <rect x="9" y="3" width="1" height="1" fill="#ABABAB" />
  <rect x="10" y="3" width="1" height="1" fill="#E0E0E0" />
  <rect x="11" y="3" width="3" height="1" fill="#FFFFFF" />
  <rect x="14" y="3" width="1" height="1" fill="#A9A9A9" />
  <rect x="0" y="4" width="2" height="1" fill="#AEAEAE" />
  <rect x="2" y="4" width="1" height="1" fill="#D5D5D5" />
  <rect x="3" y="4" width="2" height="1" fill="#FDFDFD" />
  <rect x="5" y="4" width="1" height="1" fill="#C7C7C7" />
  <rect x="6" y="4" width="1" height="1" fill="#B5B5B5" />
  <rect x="7" y="4" width="2" height="1" fill="#A3A3A3" />
  <rect x="9" y="4" width="1" height="1" fill="#B5B5B5" />
  <rect x="10" y="4" width="1" height="1" fill="#C7C7C7" />
  <rect x="11" y="4" width="1" height="1" fill="#FCFCFC" />
  <rect x="12" y="4" width="1" height="1" fill="#FBFBFB" />
  <rect x="13" y="4" width="1" height="1" fill="#D2D2D2" />
  <rect x="14" y="4" width="1" height="1" fill="#AEAEAE" />
  <rect x="15" y="4" width="1" height="1" fill="#9D9D9D" />
  <rect x="0" y="5" width="1" height="1" fill="#ACACAC" />
  <rect x="1" y="5" width="1" height="1" fill="#D8D8D8" />
  <rect x="2" y="5" width="1" height="1" fill="#CDCDCD" />
  <rect x="3" y="5" width="1" height="1" fill="#CECECE" />
  <rect x="4" y="5" width="1" height="1" fill="#D1D1D1" />
  <rect x="5" y="5" width="1" height="1" fill="#ACACAC" />
  <rect x="6" y="5" width="4" height="1" fill="#FFFFFF" />
  <rect x="10" y="5" width="1" height="1" fill="#ACACAC" />
  <rect x="11" y="5" width="1" height="1" fill="#D1D1D1" />
  <rect x="12" y="5" width="1" height="1" fill="#CCCCCC" />
  <rect x="13" y="5" width="1" height="1" fill="#C1C1C1" />
  <rect x="14" y="5" width="1" height="1" fill="#BEBEBE" />
  <rect x="15" y="5" width="1" height="1" fill="#9B9B9B" />
  <rect x="0" y="6" width="1" height="1" fill="#ABABAB" />
  <rect x="1" y="6" width="1" height="1" fill="#F3F3F3" />
  <rect x="2" y="6" width="1" height="1" fill="#E9E9E9" />
  <rect x="3" y="6" width="1" height="1" fill="#DDDDDD" />
  <rect x="4" y="6" width="1" height="1" fill="#DEDEDE" />
  <rect x="5" y="6" width="1" height="1" fill="#C2C2C2" />
  <rect x="6" y="6" width="1" height="1" fill="#DADADA" />
  <rect x="7" y="6" width="2" height="1" fill="#FDFDFD" />
  <rect x="9" y="6" width="1" height="1" fill="#DADADA" />
  <rect x="10" y="6" width="1" height="1" fill="#C3C3C3" />
  <rect x="11" y="6" width="1" height="1" fill="#D7D7D7" />
  <rect x="12" y="6" width="2" height="1" fill="#BBBBBB" />
  <rect x="14" y="6" width="1" height="1" fill="#CFCFCF" />
  <rect x="15" y="6" width="1" height="1" fill="#9A9A9A" />
  <rect x="0" y="7" width="1" height="1" fill="#AAAAAA" />
  <rect x="1" y="7" width="1" height="1" fill="#F3F3F3" />
  <rect x="2" y="7" width="1" height="1" fill="#F1F1F1" />
  <rect x="3" y="7" width="1" height="1" fill="#EEEEEE" />
  <rect x="4" y="7" width="1" height="1" fill="#E1E1E1" />
  <rect x="5" y="7" width="1" height="1" fill="#C7C7C7" />
  <rect x="6" y="7" width="1" height="1" fill="#CBCBCB" />
  <rect x="7" y="7" width="2" height="1" fill="#D1D1D1" />
  <rect x="9" y="7" width="1" height="1" fill="#CCCCCC" />
  <rect x="10" y="7" width="1" height="1" fill="#B1B1B1" />
  <rect x="11" y="7" width="1" height="1" fill="#BBBBBB" />
  <rect x="12" y="7" width="2" height="1" fill="#C0C0C0" />
  <rect x="14" y="7" width="1" height="1" fill="#CECECE" />
  <rect x="15" y="7" width="1" height="1" fill="#999999" />
  <rect x="0" y="8" width="1" height="1" fill="#A9A9A9" />
  <rect x="1" y="8" width="1" height="1" fill="#F3F3F3" />
  <rect x="2" y="8" width="1" height="1" fill="#F0F0F0" />
  <rect x="3" y="8" width="1" height="1" fill="#ECECEC" />
  <rect x="4" y="8" width="1" height="1" fill="#EAEAEA" />
  <rect x="5" y="8" width="1" height="1" fill="#E4E4E4" />
  <rect x="6" y="8" width="1" height="1" fill="#DADADA" />
  <rect x="7" y="8" width="1" height="1" fill="#D8D8D8" />
  <rect x="8" y="8" width="1" height="1" fill="#C4C4C4" />
  <rect x="9" y="8" width="1" height="1" fill="#BBBBBB" />
  <rect x="10" y="8" width="1" height="1" fill="#BEBEBE" />
  <rect x="11" y="8" width="1" height="1" fill="#C2C2C2" />
  <rect x="12" y="8" width="1" height="1" fill="#C3C3C3" />
  <rect x="13" y="8" width="1" height="1" fill="#C0C0C0" />
  <rect x="14" y="8" width="1" height="1" fill="#CBCBCB" />
  <rect x="15" y="8" width="1" height="1" fill="#989898" />
  <rect x="0" y="9" width="1" height="1" fill="#A6A6A6" />
  <rect x="1" y="9" width="1" height="1" fill="#F5F5F5" />
  <rect x="2" y="9" width="1" height="1" fill="#F2F2F2" />
  <rect x="3" y="9" width="1" height="1" fill="#E7E7E7" />
  <rect x="4" y="9" width="1" height="1" fill="#E4E4E4" />
  <rect x="5" y="9" width="1" height="1" fill="#DFDFDF" />
  <rect x="6" y="9" width="1" height="1" fill="#DBDBDB" />
  <rect x="7" y="9" width="1" height="1" fill="#D6D6D6" />
  <rect x="8" y="9" width="1" height="1" fill="#C0C0C0" />
  <rect x="9" y="9" width="3" height="1" fill="#C2C2C2" />
  <rect x="12" y="9" width="1" height="1" fill="#BDBDBD" />
  <rect x="13" y="9" width="1" height="1" fill="#BEBEBE" />
  <rect x="14" y="9" width="1" height="1" fill="#C9C9C9" />
  <rect x="15" y="9" width="1" height="1" fill="#959595" />
  <rect x="0" y="10" width="1" height="1" fill="#A5A5A5" />
  <rect x="1" y="10" width="1" height="1" fill="#BEBEBE" />
  <rect x="2" y="10" width="1" height="1" fill="#E3E3E3" />
  <rect x="3" y="10" width="1" height="1" fill="#F1F1F1" />
  <rect x="4" y="10" width="1" height="1" fill="#E7E7E7" />
  <rect x="5" y="10" width="1" height="1" fill="#DDDDDD" />
  <rect x="6" y="10" width="1" height="1" fill="#DADADA" />
  <rect x="7" y="10" width="1" height="1" fill="#D6D6D6" />
  <rect x="8" y="10" width="1" height="1" fill="#BEBEBE" />
  <rect x="9" y="10" width="2" height="1" fill="#C1C1C1" />
  <rect x="11" y="10" width="1" height="1" fill="#BBBBBB" />
  <rect x="12" y="10" width="1" height="1" fill="#CBCBCB" />
  <rect x="13" y="10" width="1" height="1" fill="#C0C0C0" />
  <rect x="14" y="10" width="1" height="1" fill="#A6A6A6" />
  <rect x="15" y="10" width="1" height="1" fill="#949494" />
  <rect x="2" y="11" width="1" height="1" fill="#A1A1A1" />
  <rect x="3" y="11" width="1" height="1" fill="#C1C1C1" />
  <rect x="4" y="11" width="1" height="1" fill="#E8E8E8" />
  <rect x="5" y="11" width="1" height="1" fill="#EBEBEB" />
  <rect x="6" y="11" width="1" height="1" fill="#DEDEDE" />
  <rect x="7" y="11" width="1" height="1" fill="#D6D6D6" />
  <rect x="8" y="11" width="2" height="1" fill="#BBBBBB" />
  <rect x="10" y="11" width="1" height="1" fill="#CBCBCB" />
  <rect x="11" y="11" width="1" height="1" fill="#C7C7C7" />
  <rect x="12" y="11" width="1" height="1" fill="#ABABAB" />
  <rect x="13" y="11" width="1" height="1" fill="#949494" />
  <rect x="3" y="12" width="1" height="1" fill="#9E9E9E" />
  <rect x="4" y="12" width="1" height="1" fill="#9D9D9D" />
  <rect x="5" y="12" width="1" height="1" fill="#C5C5C5" />
  <rect x="6" y="12" width="1" height="1" fill="#EBEBEB" />
  <rect x="7" y="12" width="1" height="1" fill="#E8E8E8" />
  <rect x="8" y="12" width="1" height="1" fill="#CCCCCC" />
  <rect x="9" y="12" width="1" height="1" fill="#CDCDCD" />
  <rect x="10" y="12" width="1" height="1" fill="#B3B3B3" />
  <rect x="11" y="12" width="1" height="1" fill="#959595" />
  <rect x="12" y="12" width="1" height="1" fill="#949494" />
  <rect x="5" y="13" width="1" height="1" fill="#9B9B9B" />
  <rect x="6" y="13" width="1" height="1" fill="#9A9A9A" />
  <rect x="7" y="13" width="1" height="1" fill="#CDCDCD" />
  <rect x="8" y="13" width="1" height="1" fill="#BDBDBD" />
  <rect x="9" y="13" width="1" height="1" fill="#A1A1A1" />
  <rect x="10" y="13" width="1" height="1" fill="#959595" />
  <rect x="7" y="14" width="1" height="1" fill="#979797" />
  <rect x="8" y="14" width="1" height="1" fill="#969696" />
</svg>