<svg width="16" height="16" viewBox="0 0 16 16" fill="none" xmlns="http://www.w3.org/2000/svg" shape-rendering="crispEdges">
  <rect x="3" y="1" width="1" height="1" fill="#C96468" />
  <rect x="4" y="1" width="1" height="1" fill="#DF5F60" />
  <rect x="11" y="1" width="1" height="1" fill="#DD676A" />
  <rect x="12" y="1" width="1" height="1" fill="#CB6468" />
  <rect x="2" y="2" width="1" height="1" fill="#8E373B" />
  <rect x="3" y="2" width="1" height="1" fill="#EA4952" />
  <rect x="4" y="2" width="1" height="1" fill="#EC4C54" />
  <rect x="5" y="2" width="1" height="1" fill="#D53E41" />
  <rect x="10" y="2" width="1" height="1" fill="#D2393D" />
  <rect x="11" y="2" width="1" height="1" fill="#EB4A53" />
  <rect x="12" y="2" width="1" height="1" fill="#EE4C56" />
  <rect x="13" y="2" width="1" height="1" fill="#9E3E43" />
  <rect x="1" y="3" width="1" height="1" fill="#9F5860" />
  <rect x="2" y="3" width="1" height="1" fill="#E6434D" />
  <rect x="3" y="3" width="2" height="1" fill="#EA3B45" />
  <rect x="5" y="3" width="1" height="1" fill="#EC4750" />
  <rect x="6" y="3" width="1" height="1" fill="#D1292B" />
  <rect x="9" y="3" width="1" height="1" fill="#C7272A" />
  <rect x="10" y="3" width="1" height="1" fill="#EC454E" />
  <rect x="11" y="3" width="1" height="1" fill="#EA3B45" />
  <rect x="12" y="3" width="1" height="1" fill="#EC3C46" />
  <rect x="13" y="3" width="1" height="1" fill="#ED4650" />
  <rect x="14" y="3" width="1" height="1" fill="#A44654" />
  <rect x="1" y="4" width="1" height="1" fill="#150D11" />
  <rect x="2" y="4" width="1" height="1" fill="#A73035" />
  <rect x="3" y="4" width="1" height="1" fill="#E93A43" />
  <rect x="4" y="4" width="2" height="1" fill="#EA3B45" />
  <rect x="6" y="4" width="1" height="1" fill="#EB3941" />
  <rect x="7" y="4" width="1" height="1" fill="#D94649" />
  <rect x="8" y="4" width="1" height="1" fill="#D33B3F" />
  <rect x="9" y="4" width="1" height="1" fill="#E93841" />
  <rect x="10" y="4" width="2" height="1" fill="#EA3B45" />
  <rect x="12" y="4" width="1" height="1" fill="#EA3740" />
  <rect x="13" y="4" width="1" height="1" fill="#BC262B" />
  <rect x="14" y="4" width="1" height="1" fill="#160609" />
  <rect x="2" y="5" width="1" height="1" fill="#230708" />
  <rect x="3" y="5" width="1" height="1" fill="#B72125" />
  <rect x="4" y="5" width="3" height="1" fill="#EA3B45" />
  <rect x="7" y="5" width="1" height="1" fill="#EF4D57" />
  <rect x="8" y="5" width="1" height="1" fill="#EF4952" />
  <rect x="9" y="5" width="3" height="1" fill="#EA3B45" />
  <rect x="12" y="5" width="1" height="1" fill="#BF1418" />
  <rect x="13" y="5" width="1" height="1" fill="#2D0506" />
  <rect x="14" y="5" width="1" height="1" fill="#000000" />
  <rect x="3" y="6" width="1" height="1" fill="#300203" />
  <rect x="4" y="6" width="1" height="1" fill="#C01C21" />
  <rect x="5" y="6" width="1" height="1" fill="#E83741" />
  <rect x="6" y="6" width="4" height="1" fill="#EA3B45" />
  <rect x="10" y="6" width="1" height="1" fill="#E6353E" />
  <rect x="11" y="6" width="1" height="1" fill="#BE1316" />
  <rect x="12" y="6" width="1" height="1" fill="#310304" />
  <rect x="13" y="6" width="1" height="1" fill="#070000" />
  <rect x="4" y="7" width="1" height="1" fill="#731416" />
  <rect x="5" y="7" width="1" height="1" fill="#D33136" />
  <rect x="6" y="7" width="4" height="1" fill="#EA3B45" />
  <rect x="10" y="7" width="1" height="1" fill="#CC2125" />
  <rect x="11" y="7" width="1" height="1" fill="#740C0E" />
  <rect x="12" y="7" width="1" height="1" fill="#0A0000" />
  <rect x="4" y="8" width="1" height="1" fill="#B31517" />
  <rect x="5" y="8" width="1" height="1" fill="#E5353E" />
  <rect x="6" y="8" width="4" height="1" fill="#EA3B45" />
  <rect x="10" y="8" width="1" height="1" fill="#E4363E" />
  <rect x="11" y="8" width="1" height="1" fill="#B41618" />
  <rect x="12" y="8" width="1" height="1" fill="#310302" />
  <rect x="3" y="9" width="1" height="1" fill="#B51013" />
  <rect x="4" y="9" width="1" height="1" fill="#E4333C" />
  <rect x="5" y="9" width="6" height="1" fill="#EA3B45" />
  <rect x="11" y="9" width="1" height="1" fill="#E4343C" />
  <rect x="12" y="9" width="1" height="1" fill="#B61112" />
  <rect x="2" y="10" width="1" height="1" fill="#BE1213" />
  <rect x="3" y="10" width="1" height="1" fill="#E6333B" />
  <rect x="4" y="10" width="2" height="1" fill="#EA3B45" />
  <rect x="6" y="10" width="1" height="1" fill="#EC3740" />
  <rect x="7" y="10" width="1" height="1" fill="#E52C30" />
  <rect x="8" y="10" width="1" height="1" fill="#E6373B" />
  <rect x="9" y="10" width="1" height="1" fill="#EC3740" />
  <rect x="10" y="10" width="2" height="1" fill="#EA3B45" />
  <rect x="12" y="10" width="1" height="1" fill="#E6333B" />
  <rect x="13" y="10" width="1" height="1" fill="#C01415" />
  <rect x="1" y="11" width="1" height="1" fill="#D43B41" />
  <rect x="2" y="11" width="1" height="1" fill="#E5323A" />
  <rect x="3" y="11" width="3" height="1" fill="#EA3B45" />
  <rect x="6" y="11" width="1" height="1" fill="#E51E20" />
  <rect x="7" y="11" width="1" height="1" fill="#8C0A0A" />
  <rect x="8" y="11" width="1" height="1" fill="#810C0A" />
  <rect x="9" y="11" width="1" height="1" fill="#E52123" />
  <rect x="10" y="11" width="3" height="1" fill="#EA3B45" />
  <rect x="13" y="11" width="1" height="1" fill="#E5333B" />
  <rect x="14" y="11" width="1" height="1" fill="#D5373A" />
  <rect x="1" y="12" width="1" height="1" fill="#AF1716" />
  <rect x="2" y="12" width="1" height="1" fill="#E23038" />
  <rect x="3" y="12" width="1" height="1" fill="#EA3B45" />
  <rect x="4" y="12" width="1" height="1" fill="#EC3740" />
  <rect x="5" y="12" width="1" height="1" fill="#E61F21" />
  <rect x="6" y="12" width="1" height="1" fill="#7A0606" />
  <rect x="7" y="12" width="1" height="1" fill="#1F0000" />
  <rect x="9" y="12" width="1" height="1" fill="#880404" />
  <rect x="10" y="12" width="1" height="1" fill="#E52527" />
  <rect x="11" y="12" width="1" height="1" fill="#EC3942" />
  <rect x="12" y="12" width="1" height="1" fill="#EA3B45" />
  <rect x="13" y="12" width="1" height="1" fill="#E43139" />
  <rect x="14" y="12" width="1" height="1" fill="#960D0C" />
  <rect x="2" y="13" width="1" height="1" fill="#B00B0B" />
  <rect x="3" y="13" width="1" height="1" fill="#E63037" />
  <rect x="4" y="13" width="1" height="1" fill="#E72F32" />
  <rect x="5" y="13" width="1" height="1" fill="#990808" />
  <rect x="6" y="13" width="1" height="1" fill="#200000" />
  <rect x="10" y="13" width="1" height="1" fill="#9B0808" />
  <rect x="11" y="13" width="1" height="1" fill="#E62325" />
  <rect x="12" y="13" width="1" height="1" fill="#E63139" />
  <rect x="13" y="13" width="1" height="1" fill="#B20D0E" />
  <rect x="14" y="13" width="1" height="1" fill="#230000" />
  <rect x="3" y="14" width="1" height="1" fill="#C03F3F" />
  <rect x="4" y="14" width="1" height="1" fill="#8E2829" />
  <rect x="5" y="14" width="1" height="1" fill="#230000" />
  <rect x="11" y="14" width="1" height="1" fill="#9C1413" />
  <rect x="12" y="14" width="1" height="1" fill="#AE3333" />
  <rect x="13" y="14" width="1" height="1" fill="#290000" />
</svg>