<svg width="16" height="16" viewBox="0 0 16 16" fill="none" xmlns="http://www.w3.org/2000/svg" shape-rendering="crispEdges">
  <rect x="4" y="0" width="1" height="1" fill="#9a9899" fill-opacity="0.008" />
  <rect x="5" y="0" width="1" height="1" fill="#9a9899" fill-opacity="0.031" />
  <rect x="13" y="0" width="1" height="1" fill="#9b9b9e" fill-opacity="0.216" />
  <rect x="14" y="0" width="1" height="1" fill="#b7b7b8" fill-opacity="0.827" />
  <rect x="15" y="0" width="1" height="1" fill="#848484" fill-opacity="0.443" />
  <rect x="2" y="1" width="1" height="1" fill="#8f8d8e" fill-opacity="0.220" />
  <rect x="3" y="1" width="1" height="1" fill="#918f8f" fill-opacity="0.769" />
  <rect x="4" y="1" width="1" height="1" fill="#888687" fill-opacity="0.949" />
  <rect x="5" y="1" width="1" height="1" fill="#858384" fill-opacity="0.965" />
  <rect x="6" y="1" width="1" height="1" fill="#898687" fill-opacity="0.922" />
  <rect x="7" y="1" width="1" height="1" fill="#8a8888" fill-opacity="0.800" />
  <rect x="8" y="1" width="1" height="1" fill="#737171" fill-opacity="0.643" />
  <rect x="9" y="1" width="1" height="1" fill="#605f5f" fill-opacity="0.384" />
  <rect x="10" y="1" width="1" height="1" fill="#2e2d2d" fill-opacity="0.165" />
  <rect x="11" y="1" width="1" height="1" fill="#0e0c0d" fill-opacity="0.373" />
  <rect x="12" y="1" width="1" height="1" fill="#333132" fill-opacity="0.678" />
  <rect x="13" y="1" width="1" height="1" fill="#858788" fill-opacity="0.925" />
  <rect x="14" y="1" width="1" height="1" fill="#a6a7a7" fill-opacity="0.867" />
  <rect x="15" y="1" width="1" height="1" fill="#525252" fill-opacity="0.310" />
  <rect x="1" y="2" width="1" height="1" fill="#838181" fill-opacity="0.635" />
  <rect x="2" y="2" width="1" height="1" fill="#6e6b6c" fill-opacity="1.000" />
  <rect x="3" y="2" width="1" height="1" fill="#595656" fill-opacity="1.000" />
  <rect x="4" y="2" width="1" height="1" fill="#545353" fill-opacity="1.000" />
  <rect x="5" y="2" width="1" height="1" fill="#515050" fill-opacity="1.000" />
  <rect x="6" y="2" width="1" height="1" fill="#4f4e4d" fill-opacity="1.000" />
  <rect x="7" y="2" width="1" height="1" fill="#474646" fill-opacity="1.000" />
  <rect x="8" y="2" width="1" height="1" fill="#4b4a4a" fill-opacity="1.000" />
  <rect x="9" y="2" width="1" height="1" fill="#797878" fill-opacity="1.000" />
  <rect x="10" y="2" width="1" height="1" fill="#828182" fill-opacity="0.996" />
  <rect x="11" y="2" width="1" height="1" fill="#434545" fill-opacity="0.996" />
  <rect x="12" y="2" width="1" height="1" fill="#2f2e2e" fill-opacity="0.980" />
  <rect x="13" y="2" width="1" height="1" fill="#494747" fill-opacity="0.475" />
  <rect x="0" y="3" width="1" height="1" fill="#797677" fill-opacity="0.310" />
  <rect x="1" y="3" width="1" height="1" fill="#5f5d5d" fill-opacity="1.000" />
  <rect x="2" y="3" width="1" height="1" fill="#464244" fill-opacity="1.000" />
  <rect x="3" y="3" width="1" height="1" fill="#404141" fill-opacity="1.000" />
  <rect x="4" y="3" width="1" height="1" fill="#333433" fill-opacity="1.000" />
  <rect x="5" y="3" width="1" height="1" fill="#2b2c2a" fill-opacity="1.000" />
  <rect x="6" y="3" width="1" height="1" fill="#353636" fill-opacity="1.000" />
  <rect x="7" y="3" width="1" height="1" fill="#6f6f6f" fill-opacity="1.000" />
  <rect x="8" y="3" width="1" height="1" fill="#707171" fill-opacity="1.000" />
  <rect x="9" y="3" width="1" height="1" fill="#4a4b4b" fill-opacity="1.000" />
  <rect x="10" y="3" width="1" height="1" fill="#1b1c1b" fill-opacity="1.000" />
  <rect x="11" y="3" width="1" height="1" fill="#1c1d1c" fill-opacity="1.000" />
  <rect x="12" y="3" width="1" height="1" fill="#343031" fill-opacity="1.000" />
  <rect x="13" y="3" width="1" height="1" fill="#333031" fill-opacity="1.000" />
  <rect x="14" y="3" width="1" height="1" fill="#4d4a4b" fill-opacity="0.992" />
  <rect x="15" y="3" width="1" height="1" fill="#464243" fill-opacity="0.682" />
  <rect x="0" y="4" width="1" height="1" fill="#6d6a6b" fill-opacity="0.878" />
  <rect x="1" y="4" width="1" height="1" fill="#454143" fill-opacity="1.000" />
  <rect x="2" y="4" width="1" height="1" fill="#2e2d2d" fill-opacity="1.000" />
  <rect x="3" y="4" width="1" height="1" fill="#151515" fill-opacity="1.000" />
  <rect x="4" y="4" width="1" height="1" fill="#292b29" fill-opacity="1.000" />
  <rect x="5" y="4" width="1" height="1" fill="#6a6b6b" fill-opacity="1.000" />
  <rect x="6" y="4" width="1" height="1" fill="#656565" fill-opacity="1.000" />
  <rect x="7" y="4" width="1" height="1" fill="#292a29" fill-opacity="1.000" />
  <rect x="8" y="4" width="1" height="1" fill="#0c0c0c" fill-opacity="1.000" />
  <rect x="9" y="4" width="1" height="1" fill="#0c0d0c" fill-opacity="1.000" />
  <rect x="10" y="4" width="1" height="1" fill="#121413" fill-opacity="1.000" />
  <rect x="11" y="4" width="1" height="1" fill="#222222" fill-opacity="1.000" />
  <rect x="12" y="4" width="1" height="1" fill="#302d2e" fill-opacity="1.000" />
  <rect x="13" y="4" width="1" height="1" fill="#363334" fill-opacity="1.000" />
  <rect x="14" y="4" width="1" height="1" fill="#2a2728" fill-opacity="0.973" />
  <rect x="15" y="4" width="1" height="1" fill="#151314" fill-opacity="0.514" />
  <rect x="0" y="5" width="1" height="1" fill="#3f3d3d" fill-opacity="0.871" />
  <rect x="1" y="5" width="1" height="1" fill="#454243" fill-opacity="1.000" />
  <rect x="2" y="5" width="1" height="1" fill="#555354" fill-opacity="1.000" />
  <rect x="3" y="5" width="1" height="1" fill="#dbdbdb" fill-opacity="1.000" />
  <rect x="4" y="5" width="1" height="1" fill="#a3a3a3" fill-opacity="1.000" />
  <rect x="5" y="5" width="1" height="1" fill="#141313" fill-opacity="1.000" />
  <rect x="6" y="5" width="1" height="1" fill="#100f0f" fill-opacity="1.000" />
  <rect x="7" y="5" width="1" height="1" fill="#131212" fill-opacity="1.000" />
  <rect x="8" y="5" width="1" height="1" fill="#161414" fill-opacity="1.000" />
  <rect x="9" y="5" width="1" height="1" fill="#211e1f" fill-opacity="1.000" />
  <rect x="10" y="5" width="1" height="1" fill="#383435" fill-opacity="1.000" />
  <rect x="11" y="5" width="1" height="1" fill="#3f3d3e" fill-opacity="1.000" />
  <rect x="12" y="5" width="1" height="1" fill="#272626" fill-opacity="0.906" />
  <rect x="13" y="5" width="1" height="1" fill="#1a1818" fill-opacity="0.353" />
  <rect x="0" y="6" width="1" height="1" fill="#201e1f" fill-opacity="0.145" />
  <rect x="1" y="6" width="1" height="1" fill="#2d2a2b" fill-opacity="0.933" />
  <rect x="2" y="6" width="1" height="1" fill="#424241" fill-opacity="0.996" />
  <rect x="3" y="6" width="1" height="1" fill="#504e4d" fill-opacity="1.000" />
  <rect x="4" y="6" width="1" height="1" fill="#272425" fill-opacity="1.000" />
  <rect x="5" y="6" width="1" height="1" fill="#2e2a2b" fill-opacity="1.000" />
  <rect x="6" y="6" width="1" height="1" fill="#2d2a29" fill-opacity="1.000" />
  <rect x="7" y="6" width="1" height="1" fill="#383536" fill-opacity="1.000" />
  <rect x="8" y="6" width="1" height="1" fill="#4c4a4b" fill-opacity="1.000" />
  <rect x="9" y="6" width="1" height="1" fill="#615e5f" fill-opacity="1.000" />
  <rect x="10" y="6" width="1" height="1" fill="#626263" fill-opacity="1.000" />
  <rect x="11" y="6" width="1" height="1" fill="#747576" fill-opacity="1.000" />
  <rect x="12" y="6" width="1" height="1" fill="#2d2f2e" fill-opacity="0.427" />
  <rect x="2" y="7" width="1" height="1" fill="#9b9b9b" fill-opacity="0.106" />
  <rect x="3" y="7" width="1" height="1" fill="#383838" fill-opacity="0.988" />
  <rect x="4" y="7" width="1" height="1" fill="#5a5a5a" fill-opacity="1.000" />
  <rect x="5" y="7" width="1" height="1" fill="#9b9d9c" fill-opacity="1.000" />
  <rect x="6" y="7" width="1" height="1" fill="#b4b4b4" fill-opacity="1.000" />
  <rect x="7" y="7" width="1" height="1" fill="#bec0be" fill-opacity="1.000" />
  <rect x="8" y="7" width="1" height="1" fill="#c0c0c0" fill-opacity="1.000" />
  <rect x="9" y="7" width="1" height="1" fill="#cbcccd" fill-opacity="1.000" />
  <rect x="10" y="7" width="1" height="1" fill="#b7b8b9" fill-opacity="1.000" />
  <rect x="11" y="7" width="1" height="1" fill="#656768" fill-opacity="1.000" />
  <rect x="12" y="7" width="1" height="1" fill="#141515" fill-opacity="0.569" />
  <rect x="2" y="8" width="1" height="1" fill="#c9c9c9" fill-opacity="0.039" />
  <rect x="3" y="8" width="1" height="1" fill="#121111" fill-opacity="0.992" />
  <rect x="4" y="8" width="1" height="1" fill="#0d0c0c" fill-opacity="1.000" />
  <rect x="5" y="8" width="1" height="1" fill="#424140" fill-opacity="1.000" />
  <rect x="6" y="8" width="1" height="1" fill="#787778" fill-opacity="1.000" />
  <rect x="7" y="8" width="1" height="1" fill="#939596" fill-opacity="1.000" />
  <rect x="8" y="8" width="1" height="1" fill="#919293" fill-opacity="1.000" />
  <rect x="9" y="8" width="1" height="1" fill="#6f6e70" fill-opacity="1.000" />
  <rect x="10" y="8" width="1" height="1" fill="#232223" fill-opacity="1.000" />
  <rect x="11" y="8" width="1" height="1" fill="#0a0909" fill-opacity="1.000" />
  <rect x="12" y="8" width="1" height="1" fill="#020202" fill-opacity="0.675" />
  <rect x="2" y="9" width="1" height="1" fill="#000000" fill-opacity="0.173" />
  <rect x="3" y="9" width="1" height="1" fill="#121212" fill-opacity="1.000" />
  <rect x="4" y="9" width="1" height="1" fill="#161616" fill-opacity="1.000" />
  <rect x="5" y="9" width="1" height="1" fill="#393737" fill-opacity="1.000" />
  <rect x="6" y="9" width="1" height="1" fill="#605f60" fill-opacity="1.000" />
  <rect x="7" y="9" width="1" height="1" fill="#828487" fill-opacity="1.000" />
  <rect x="8" y="9" width="1" height="1" fill="#727275" fill-opacity="1.000" />
  <rect x="9" y="9" width="1" height="1" fill="#514e50" fill-opacity="1.000" />
  <rect x="10" y="9" width="1" height="1" fill="#292729" fill-opacity="1.000" />
  <rect x="11" y="9" width="1" height="1" fill="#191919" fill-opacity="1.000" />
  <rect x="12" y="9" width="1" height="1" fill="#0d0d0d" fill-opacity="0.808" />
  <rect x="2" y="10" width="1" height="1" fill="#171817" fill-opacity="0.451" />
  <rect x="3" y="10" width="1" height="1" fill="#111111" fill-opacity="1.000" />
  <rect x="4" y="10" width="1" height="1" fill="#111010" fill-opacity="1.000" />
  <rect x="5" y="10" width="1" height="1" fill="#3d3b3b" fill-opacity="1.000" />
  <rect x="6" y="10" width="1" height="1" fill="#676566" fill-opacity="1.000" />
  <rect x="7" y="10" width="1" height="1" fill="#86888b" fill-opacity="1.000" />
  <rect x="8" y="10" width="1" height="1" fill="#78787b" fill-opacity="1.000" />
  <rect x="9" y="10" width="1" height="1" fill="#585757" fill-opacity="1.000" />
  <rect x="10" y="10" width="1" height="1" fill="#282828" fill-opacity="1.000" />
  <rect x="11" y="10" width="1" height="1" fill="#0e0e0e" fill-opacity="1.000" />
  <rect x="12" y="10" width="1" height="1" fill="#171717" fill-opacity="0.953" />
  <rect x="2" y="11" width="1" height="1" fill="#181918" fill-opacity="0.875" />
  <rect x="3" y="11" width="1" height="1" fill="#040404" fill-opacity="1.000" />
  <rect x="4" y="11" width="1" height="1" fill="#151414" fill-opacity="1.000" />
  <rect x="5" y="11" width="1" height="1" fill="#3c3a3a" fill-opacity="1.000" />
  <rect x="6" y="11" width="1" height="1" fill="#666566" fill-opacity="1.000" />
  <rect x="7" y="11" width="1" height="1" fill="#86878b" fill-opacity="1.000" />
  <rect x="8" y="11" width="1" height="1" fill="#78787b" fill-opacity="1.000" />
  <rect x="9" y="11" width="1" height="1" fill="#575656" fill-opacity="1.000" />
  <rect x="10" y="11" width="1" height="1" fill="#2a2929" fill-opacity="1.000" />
  <rect x="11" y="11" width="1" height="1" fill="#0b0b0b" fill-opacity="1.000" />
  <rect x="12" y="11" width="1" height="1" fill="#070707" fill-opacity="1.000" />
  <rect x="13" y="11" width="1" height="1" fill="#272727" fill-opacity="0.302" />
  <rect x="2" y="12" width="1" height="1" fill="#414141" fill-opacity="0.831" />
  <rect x="3" y="12" width="1" height="1" fill="#000000" fill-opacity="1.000" />
  <rect x="4" y="12" width="1" height="1" fill="#191818" fill-opacity="1.000" />
  <rect x="5" y="12" width="1" height="1" fill="#444242" fill-opacity="1.000" />
  <rect x="6" y="12" width="1" height="1" fill="#6b6969" fill-opacity="1.000" />
  <rect x="7" y="12" width="1" height="1" fill="#888a8d" fill-opacity="1.000" />
  <rect x="8" y="12" width="1" height="1" fill="#7a7b7f" fill-opacity="1.000" />
  <rect x="9" y="12" width="1" height="1" fill="#5c5b5c" fill-opacity="1.000" />
  <rect x="10" y="12" width="1" height="1" fill="#353434" fill-opacity="1.000" />
  <rect x="11" y="12" width="1" height="1" fill="#070707" fill-opacity="1.000" />
  <rect x="12" y="12" width="1" height="1" fill="#0d0c0c" fill-opacity="0.996" />
  <rect x="13" y="12" width="1" height="1" fill="#5c5c5c" fill-opacity="0.341" />
  <rect x="2" y="13" width="1" height="1" fill="#888988" fill-opacity="0.157" />
  <rect x="3" y="13" width="1" height="1" fill="#797979" fill-opacity="0.780" />
  <rect x="4" y="13" width="1" height="1" fill="#272726" fill-opacity="0.984" />
  <rect x="5" y="13" width="1" height="1" fill="#282525" fill-opacity="1.000" />
  <rect x="6" y="13" width="1" height="1" fill="#464445" fill-opacity="1.000" />
  <rect x="7" y="13" width="1" height="1" fill="#626468" fill-opacity="1.000" />
  <rect x="8" y="13" width="1" height="1" fill="#55565a" fill-opacity="1.000" />
  <rect x="9" y="13" width="1" height="1" fill="#3a3839" fill-opacity="1.000" />
  <rect x="10" y="13" width="1" height="1" fill="#232222" fill-opacity="0.996" />
  <rect x="11" y="13" width="1" height="1" fill="#484848" fill-opacity="0.941" />
  <rect x="12" y="13" width="1" height="1" fill="#8a8b8a" fill-opacity="0.451" />
  <rect x="13" y="13" width="1" height="1" fill="#7c7d7c" fill-opacity="0.031" />
  <rect x="4" y="14" width="1" height="1" fill="#c4c4c4" fill-opacity="0.180" />
  <rect x="5" y="14" width="1" height="1" fill="#bcbcbc" fill-opacity="0.447" />
  <rect x="6" y="14" width="1" height="1" fill="#b3b3b3" fill-opacity="0.639" />
  <rect x="7" y="14" width="1" height="1" fill="#b3b3b4" fill-opacity="0.710" />
  <rect x="8" y="14" width="1" height="1" fill="#b2b3b3" fill-opacity="0.682" />
  <rect x="9" y="14" width="1" height="1" fill="#b8b8b8" fill-opacity="0.561" />
  <rect x="10" y="14" width="1" height="1" fill="#c1c1c1" fill-opacity="0.314" />
  <rect x="11" y="14" width="1" height="1" fill="#c1c2c1" fill-opacity="0.071" />
</svg>