<svg width="16" height="16" viewBox="0 0 16 16" fill="none" xmlns="http://www.w3.org/2000/svg" shape-rendering="crispEdges">
  <rect x="4" y="0" width="4" height="1" fill="#000000" />
  <rect x="2" y="1" width="1" height="1" fill="#000000" />
  <rect x="3" y="1" width="1" height="1" fill="#262626" />
  <rect x="4" y="1" width="1" height="1" fill="#C5C5C5" />
  <rect x="5" y="1" width="1" height="1" fill="#EEEEEE" />
  <rect x="6" y="1" width="1" height="1" fill="#EDEDED" />
  <rect x="7" y="1" width="1" height="1" fill="#ABABAB" />
  <rect x="8" y="1" width="1" height="1" fill="#464646" />
  <rect x="9" y="1" width="1" height="1" fill="#000000" />
  <rect x="1" y="2" width="1" height="1" fill="#000000" />
  <rect x="2" y="2" width="1" height="1" fill="#878787" />
  <rect x="3" y="2" width="1" height="1" fill="#F1F1F1" />
  <rect x="4" y="2" width="2" height="1" fill="#FEFEFE" />
  <rect x="6" y="2" width="1" height="1" fill="#FDFDFD" />
  <rect x="7" y="2" width="1" height="1" fill="#FCFCFC" />
  <rect x="8" y="2" width="1" height="1" fill="#EAEAEA" />
  <rect x="9" y="2" width="1" height="1" fill="#707070" />
  <rect x="10" y="2" width="1" height="1" fill="#000000" />
  <rect x="1" y="3" width="1" height="1" fill="#2E2E2E" />
  <rect x="2" y="3" width="1" height="1" fill="#A0A0A0" />
  <rect x="3" y="3" width="3" height="1" fill="#A9A9A9" />
  <rect x="6" y="3" width="1" height="1" fill="#E5E5E5" />
  <rect x="7" y="3" width="1" height="1" fill="#FDFDFD" />
  <rect x="8" y="3" width="1" height="1" fill="#FBFBFB" />
  <rect x="9" y="3" width="1" height="1" fill="#E8E8E8" />
  <rect x="10" y="3" width="1" height="1" fill="#464646" />
  <rect x="0" y="4" width="1" height="1" fill="#000000" />
  <rect x="1" y="4" width="1" height="1" fill="#AFAFAF" />
  <rect x="2" y="4" width="2" height="1" fill="#FDFDFD" />
  <rect x="4" y="4" width="1" height="1" fill="#F4F4F4" />
  <rect x="5" y="4" width="1" height="1" fill="#E9E9E9" />
  <rect x="6" y="4" width="1" height="1" fill="#A9A9A9" />
  <rect x="7" y="4" width="1" height="1" fill="#E1E1E1" />
  <rect x="8" y="4" width="1" height="1" fill="#FCFCFC" />
  <rect x="9" y="4" width="1" height="1" fill="#FAFAFA" />
  <rect x="10" y="4" width="1" height="1" fill="#A4A4A4" />
  <rect x="11" y="4" width="1" height="1" fill="#000000" />
  <rect x="0" y="5" width="1" height="1" fill="#000000" />
  <rect x="1" y="5" width="1" height="1" fill="#E9E9E9" />
  <rect x="2" y="5" width="2" height="1" fill="#F9F9F9" />
  <rect x="4" y="5" width="1" height="1" fill="#EAEAEA" />
  <rect x="5" y="5" width="1" height="1" fill="#FCFCFC" />
  <rect x="6" y="5" width="1" height="1" fill="#E1E1E1" />
  <rect x="7" y="5" width="1" height="1" fill="#A8A8A8" />
  <rect x="8" y="5" width="1" height="1" fill="#E2E2E2" />
  <rect x="9" y="5" width="1" height="1" fill="#FAFAFA" />
  <rect x="10" y="5" width="1" height="1" fill="#E5E5E5" />
  <rect x="11" y="5" width="1" height="1" fill="#000000" />
  <rect x="0" y="6" width="1" height="1" fill="#000000" />
  <rect x="1" y="6" width="1" height="1" fill="#E8E8E8" />
  <rect x="2" y="6" width="1" height="1" fill="#F8F8F8" />
  <rect x="3" y="6" width="1" height="1" fill="#F9F9F9" />
  <rect x="4" y="6" width="1" height="1" fill="#E2E2E2" />
  <rect x="5" y="6" width="1" height="1" fill="#D0D0D0" />
  <rect x="6" y="6" width="1" height="1" fill="#C7C7C7" />
  <rect x="7" y="6" width="1" height="1" fill="#BDBDBD" />
  <rect x="8" y="6" width="1" height="1" fill="#A7A7A7" />
  <rect x="9" y="6" width="1" height="1" fill="#FAFAFA" />
  <rect x="10" y="6" width="1" height="1" fill="#E4E4E4" />
  <rect x="11" y="6" width="1" height="1" fill="#000000" />
  <rect x="0" y="7" width="1" height="1" fill="#000000" />
  <rect x="1" y="7" width="1" height="1" fill="#A8A8A8" />
  <rect x="2" y="7" width="1" height="1" fill="#F7F7F7" />
  <rect x="3" y="7" width="1" height="1" fill="#F8F8F8" />
  <rect x="4" y="7" width="1" height="1" fill="#F3F3F3" />
  <rect x="5" y="7" width="1" height="1" fill="#D4D4D4" />
  <rect x="6" y="7" width="1" height="1" fill="#C0C0C0" />
  <rect x="7" y="7" width="1" height="1" fill="#AEAEAE" />
  <rect x="8" y="7" width="1" height="1" fill="#A6A6A6" />
  <rect x="9" y="7" width="1" height="1" fill="#F9F9F9" />
  <rect x="10" y="7" width="1" height="1" fill="#BABABA" />
  <rect x="11" y="7" width="1" height="1" fill="#000000" />
  <rect x="0" y="8" width="1" height="1" fill="#000000" />
  <rect x="1" y="8" width="1" height="1" fill="#444444" />
  <rect x="2" y="8" width="1" height="1" fill="#E5E5E5" />
  <rect x="3" y="8" width="1" height="1" fill="#F5F5F5" />
  <rect x="4" y="8" width="1" height="1" fill="#F6F6F6" />
  <rect x="5" y="8" width="2" height="1" fill="#F5F5F5" />
  <rect x="7" y="8" width="1" height="1" fill="#E7E7E7" />
  <rect x="8" y="8" width="1" height="1" fill="#A6A6A6" />
  <rect x="9" y="8" width="1" height="1" fill="#E7E7E7" />
  <rect x="10" y="8" width="1" height="1" fill="#464646" />
  <rect x="0" y="9" width="1" height="1" fill="#000000" />
  <rect x="1" y="9" width="1" height="1" fill="#858585" />
  <rect x="2" y="9" width="1" height="1" fill="#828282" />
  <rect x="3" y="9" width="1" height="1" fill="#E3E3E3" />
  <rect x="4" y="9" width="2" height="1" fill="#F4F4F4" />
  <rect x="6" y="9" width="1" height="1" fill="#F3F3F3" />
  <rect x="7" y="9" width="1" height="1" fill="#E5E5E5" />
  <rect x="8" y="9" width="1" height="1" fill="#979797" />
  <rect x="9" y="9" width="1" height="1" fill="#6D6D6D" />
  <rect x="10" y="9" width="1" height="1" fill="#000000" />
  <rect x="0" y="10" width="1" height="1" fill="#000000" />
  <rect x="1" y="10" width="1" height="1" fill="#D6D6D6" />
  <rect x="2" y="10" width="1" height="1" fill="#2D2D2D" />
  <rect x="3" y="10" width="1" height="1" fill="#444444" />
  <rect x="4" y="10" width="1" height="1" fill="#A0A0A0" />
  <rect x="5" y="10" width="1" height="1" fill="#E0E0E0" />
  <rect x="6" y="10" width="1" height="1" fill="#DEDEDE" />
  <rect x="7" y="10" width="1" height="1" fill="#949494" />
  <rect x="8" y="10" width="1" height="1" fill="#2E2E2E" />
  <rect x="9" y="10" width="4" height="1" fill="#000000" />
  <rect x="0" y="11" width="1" height="1" fill="#000000" />
  <rect x="1" y="11" width="1" height="1" fill="#FDFDFD" />
  <rect x="2" y="11" width="1" height="1" fill="#E5E5E5" />
  <rect x="3" y="11" width="1" height="1" fill="#7C7C7C" />
  <rect x="4" y="11" width="1" height="1" fill="#2E2E2E" />
  <rect x="5" y="11" width="1" height="1" fill="#050505" />
  <rect x="6" y="11" width="1" height="1" fill="#040404" />
  <rect x="7" y="11" width="1" height="1" fill="#000000" />
  <rect x="10" y="11" width="2" height="1" fill="#202020" />
  <rect x="12" y="11" width="2" height="1" fill="#000000" />
  <rect x="0" y="12" width="1" height="1" fill="#000000" />
  <rect x="1" y="12" width="1" height="1" fill="#FDFDFD" />
  <rect x="2" y="12" width="1" height="1" fill="#E4E4E4" />
  <rect x="3" y="12" width="3" height="1" fill="#E3E3E3" />
  <rect x="6" y="12" width="1" height="1" fill="#BBBBBB" />
  <rect x="7" y="12" width="1" height="1" fill="#000000" />
  <rect x="10" y="12" width="1" height="1" fill="#000000" />
  <rect x="11" y="12" width="1" height="1" fill="#686868" />
  <rect x="12" y="12" width="1" height="1" fill="#343434" />
  <rect x="13" y="12" width="2" height="1" fill="#000000" />
  <rect x="0" y="13" width="1" height="1" fill="#000000" />
  <rect x="1" y="13" width="1" height="1" fill="#C2C2C2" />
  <rect x="2" y="13" width="4" height="1" fill="#BBBBBB" />
  <rect x="6" y="13" width="1" height="1" fill="#A0A0A0" />
  <rect x="7" y="13" width="1" height="1" fill="#000000" />
  <rect x="11" y="13" width="1" height="1" fill="#000000" />
  <rect x="12" y="13" width="1" height="1" fill="#797979" />
  <rect x="13" y="13" width="1" height="1" fill="#3A3A3A" />
  <rect x="14" y="13" width="2" height="1" fill="#000000" />
  <rect x="1" y="14" width="6" height="1" fill="#000000" />
  <rect x="12" y="14" width="1" height="1" fill="#000000" />
  <rect x="13" y="14" width="1" height="1" fill="#686868" />
  <rect x="14" y="14" width="1" height="1" fill="#1F1F1F" />
  <rect x="15" y="14" width="1" height="1" fill="#000000" />
  <rect x="13" y="15" width="2" height="1" fill="#000000" />
</svg>