<svg width="16" height="16" viewBox="0 0 16 16" fill="none" xmlns="http://www.w3.org/2000/svg" shape-rendering="crispEdges">
  <rect x="3" y="1" width="1" height="1" fill="#CDCDCD" />
  <rect x="4" y="1" width="1" height="1" fill="#C9C9C9" />
  <rect x="5" y="1" width="1" height="1" fill="#C4C4C4" />
  <rect x="6" y="1" width="1" height="1" fill="#C0C0C0" />
  <rect x="7" y="1" width="1" height="1" fill="#BBBBBB" />
  <rect x="8" y="1" width="1" height="1" fill="#B6B6B6" />
  <rect x="9" y="1" width="1" height="1" fill="#B0B0B0" />
  <rect x="10" y="1" width="1" height="1" fill="#ABABAB" />
  <rect x="2" y="2" width="1" height="1" fill="#CCCCCC" />
  <rect x="3" y="2" width="1" height="1" fill="#DCDCDC" />
  <rect x="4" y="2" width="1" height="1" fill="#E3E3E6" />
  <rect x="5" y="2" width="1" height="1" fill="#DCDEE1" />
  <rect x="6" y="2" width="1" height="1" fill="#DCDCDF" />
  <rect x="7" y="2" width="1" height="1" fill="#DBDCDF" />
  <rect x="8" y="2" width="1" height="1" fill="#DBDBDE" />
  <rect x="9" y="2" width="1" height="1" fill="#ECECEE" />
  <rect x="10" y="2" width="1" height="1" fill="#A5A5A5" />
  <rect x="1" y="3" width="1" height="1" fill="#CBCBCB" />
  <rect x="2" y="3" width="1" height="1" fill="#DFDFDF" />
  <rect x="3" y="3" width="1" height="1" fill="#EAEAEA" />
  <rect x="4" y="3" width="1" height="1" fill="#C9CACF" />
  <rect x="5" y="3" width="1" height="1" fill="#C5C6CB" />
  <rect x="6" y="3" width="1" height="1" fill="#C3C4CA" />
  <rect x="7" y="3" width="1" height="1" fill="#C1C3C8" />
  <rect x="8" y="3" width="1" height="1" fill="#C1C1C7" />
  <rect x="9" y="3" width="1" height="1" fill="#D8D9DC" />
  <rect x="10" y="3" width="1" height="1" fill="#9E9E9E" />
  <rect x="0" y="4" width="1" height="1" fill="#CBCBCB" />
  <rect x="1" y="4" width="2" height="1" fill="#E9E9E9" />
  <rect x="3" y="4" width="1" height="1" fill="#E1E1E2" />
  <rect x="4" y="4" width="1" height="1" fill="#C4C6CB" />
  <rect x="5" y="4" width="1" height="1" fill="#979798" />
  <rect x="6" y="4" width="1" height="1" fill="#959596" />
  <rect x="7" y="4" width="1" height="1" fill="#939394" />
  <rect x="8" y="4" width="1" height="1" fill="#919192" />
  <rect x="9" y="4" width="1" height="1" fill="#D6D7DB" />
  <rect x="10" y="4" width="1" height="1" fill="#989898" />
  <rect x="0" y="5" width="1" height="1" fill="#C6C6C6" />
  <rect x="1" y="5" width="1" height="1" fill="#EFEFEF" />
  <rect x="2" y="5" width="1" height="1" fill="#E1E1E1" />
  <rect x="3" y="5" width="1" height="1" fill="#DDDDDD" />
  <rect x="4" y="5" width="1" height="1" fill="#C2C3C8" />
  <rect x="5" y="5" width="1" height="1" fill="#C1C2C8" />
  <rect x="6" y="5" width="1" height="1" fill="#BFC1C6" />
  <rect x="7" y="5" width="1" height="1" fill="#BEBFC5" />
  <rect x="8" y="5" width="1" height="1" fill="#BBBDC3" />
  <rect x="9" y="5" width="1" height="1" fill="#D5D6DA" />
  <rect x="10" y="5" width="1" height="1" fill="#919191" />
  <rect x="0" y="6" width="1" height="1" fill="#C0C0C0" />
  <rect x="1" y="6" width="1" height="1" fill="#ECECEC" />
  <rect x="2" y="6" width="1" height="1" fill="#E0E0E0" />
  <rect x="3" y="6" width="1" height="1" fill="#DCDCDD" />
  <rect x="4" y="6" width="1" height="1" fill="#C0C1C7" />
  <rect x="5" y="6" width="1" height="1" fill="#919192" />
  <rect x="6" y="6" width="1" height="1" fill="#8F8F8F" />
  <rect x="7" y="6" width="2" height="1" fill="#8D8D8D" />
  <rect x="9" y="6" width="1" height="1" fill="#C9CACC" />
  <rect x="10" y="6" width="1" height="1" fill="#AEAEAE" />
  <rect x="11" y="6" width="1" height="1" fill="#B7B7B7" />
  <rect x="12" y="6" width="1" height="1" fill="#B5B5B5" />
  <rect x="13" y="6" width="1" height="1" fill="#B2B2B2" />
  <rect x="14" y="6" width="1" height="1" fill="#B0B0B0" />
  <rect x="0" y="7" width="1" height="1" fill="#BBBBBB" />
  <rect x="1" y="7" width="1" height="1" fill="#ECECEC" />
  <rect x="2" y="7" width="1" height="1" fill="#DFDFDF" />
  <rect x="3" y="7" width="1" height="1" fill="#D9D9DA" />
  <rect x="4" y="7" width="1" height="1" fill="#BEBFC6" />
  <rect x="5" y="7" width="1" height="1" fill="#BCBEC4" />
  <rect x="6" y="7" width="1" height="1" fill="#BBBCC3" />
  <rect x="7" y="7" width="1" height="1" fill="#B9BBC1" />
  <rect x="8" y="7" width="1" height="1" fill="#B9BABC" />
  <rect x="9" y="7" width="1" height="1" fill="#D6D6D6" />
  <rect x="10" y="7" width="1" height="1" fill="#EDEDED" />
  <rect x="11" y="7" width="1" height="1" fill="#F9F9F9" />
  <rect x="12" y="7" width="1" height="1" fill="#FBFBFB" />
  <rect x="13" y="7" width="1" height="1" fill="#F0F0F0" />
  <rect x="14" y="7" width="1" height="1" fill="#D9D9D9" />
  <rect x="15" y="7" width="1" height="1" fill="#ABABAB" />
  <rect x="0" y="8" width="1" height="1" fill="#B5B5B5" />
  <rect x="1" y="8" width="1" height="1" fill="#ECECEC" />
  <rect x="2" y="8" width="1" height="1" fill="#DEDEDE" />
  <rect x="3" y="8" width="1" height="1" fill="#D8D8D9" />
  <rect x="4" y="8" width="1" height="1" fill="#BBBDC3" />
  <rect x="5" y="8" width="1" height="1" fill="#BABBC2" />
  <rect x="6" y="8" width="1" height="1" fill="#B9BAC1" />
  <rect x="7" y="8" width="1" height="1" fill="#A4C8A0" />
  <rect x="8" y="8" width="1" height="1" fill="#B1B7B1" />
  <rect x="9" y="8" width="1" height="1" fill="#F6F6F6" />
  <rect x="10" y="8" width="1" height="1" fill="#F4F4F4" />
  <rect x="11" y="8" width="1" height="1" fill="#F9F9F9" />
  <rect x="12" y="8" width="1" height="1" fill="#FBFBFB" />
  <rect x="13" y="8" width="2" height="1" fill="#F6F6F6" />
  <rect x="15" y="8" width="1" height="1" fill="#A8A8A8" />
  <rect x="0" y="9" width="1" height="1" fill="#AFAFAF" />
  <rect x="1" y="9" width="1" height="1" fill="#EBEBEB" />
  <rect x="2" y="9" width="1" height="1" fill="#DDDDDD" />
  <rect x="3" y="9" width="1" height="1" fill="#D5D5D7" />
  <rect x="4" y="9" width="1" height="1" fill="#B9BBC1" />
  <rect x="5" y="9" width="1" height="1" fill="#B8B9C0" />
  <rect x="6" y="9" width="1" height="1" fill="#B6B8BE" />
  <rect x="7" y="9" width="1" height="1" fill="#42A13B" />
  <rect x="8" y="9" width="1" height="1" fill="#ABB3AB" />
  <rect x="9" y="9" width="1" height="1" fill="#F2F2F2" />
  <rect x="10" y="9" width="1" height="1" fill="#D9D9D9" />
  <rect x="11" y="9" width="1" height="1" fill="#E4E4E4" />
  <rect x="12" y="9" width="1" height="1" fill="#E2E2E2" />
  <rect x="13" y="9" width="1" height="1" fill="#C8C8C8" />
  <rect x="14" y="9" width="1" height="1" fill="#F1F1F1" />
  <rect x="15" y="9" width="1" height="1" fill="#A5A5A5" />
  <rect x="0" y="10" width="1" height="1" fill="#A8A8A8" />
  <rect x="1" y="10" width="1" height="1" fill="#EAEAEA" />
  <rect x="2" y="10" width="1" height="1" fill="#DDDDDD" />
  <rect x="3" y="10" width="1" height="1" fill="#D3D4D5" />
  <rect x="4" y="10" width="1" height="1" fill="#B7B9C0" />
  <rect x="5" y="10" width="1" height="1" fill="#B6B7BE" />
  <rect x="6" y="10" width="1" height="1" fill="#B4B6BD" />
  <rect x="7" y="10" width="1" height="1" fill="#B3B4BB" />
  <rect x="8" y="10" width="1" height="1" fill="#B4B4B5" />
  <rect x="9" y="10" width="1" height="1" fill="#F8F8F8" />
  <rect x="10" y="10" width="1" height="1" fill="#DBDBDB" />
  <rect x="11" y="10" width="1" height="1" fill="#EFEFEF" />
  <rect x="12" y="10" width="2" height="1" fill="#D0D0D0" />
  <rect x="14" y="10" width="1" height="1" fill="#FFFFFF" />
  <rect x="15" y="10" width="1" height="1" fill="#A2A2A2" />
  <rect x="0" y="11" width="1" height="1" fill="#A2A2A2" />
  <rect x="1" y="11" width="1" height="1" fill="#F0F0F0" />
  <rect x="2" y="11" width="1" height="1" fill="#E0E0E0" />
  <rect x="3" y="11" width="1" height="1" fill="#D2D2D4" />
  <rect x="4" y="11" width="1" height="1" fill="#B5B6BE" />
  <rect x="5" y="11" width="1" height="1" fill="#B4B5BC" />
  <rect x="6" y="11" width="1" height="1" fill="#B2B4BB" />
  <rect x="7" y="11" width="1" height="1" fill="#B1B2BA" />
  <rect x="8" y="11" width="1" height="1" fill="#B1B1B2" />
  <rect x="9" y="11" width="1" height="1" fill="#F8F8F8" />
  <rect x="10" y="11" width="1" height="1" fill="#D5D5D5" />
  <rect x="11" y="11" width="1" height="1" fill="#EFEFEF" />
  <rect x="12" y="11" width="2" height="1" fill="#CBCBCB" />
  <rect x="14" y="11" width="1" height="1" fill="#FFFFFF" />
  <rect x="15" y="11" width="1" height="1" fill="#9E9E9E" />
  <rect x="0" y="12" width="1" height="1" fill="#9B9B9B" />
  <rect x="1" y="12" width="1" height="1" fill="#B3B3B3" />
  <rect x="2" y="12" width="1" height="1" fill="#D4D4D4" />
  <rect x="3" y="12" width="1" height="1" fill="#DFDFE1" />
  <rect x="4" y="12" width="1" height="1" fill="#BDBFC5" />
  <rect x="5" y="12" width="1" height="1" fill="#B3B5BD" />
  <rect x="6" y="12" width="1" height="1" fill="#B0B1B9" />
  <rect x="7" y="12" width="1" height="1" fill="#AEB1B9" />
  <rect x="8" y="12" width="1" height="1" fill="#AEAEAF" />
  <rect x="9" y="12" width="1" height="1" fill="#F8F8F8" />
  <rect x="10" y="12" width="1" height="1" fill="#D1D1D1" />
  <rect x="11" y="12" width="1" height="1" fill="#ECECEC" />
  <rect x="12" y="12" width="1" height="1" fill="#C5C5C5" />
  <rect x="13" y="12" width="1" height="1" fill="#C6C6C6" />
  <rect x="14" y="12" width="1" height="1" fill="#FFFFFF" />
  <rect x="15" y="12" width="1" height="1" fill="#9A9A9A" />
  <rect x="2" y="13" width="1" height="1" fill="#8A8A8A" />
  <rect x="3" y="13" width="1" height="1" fill="#A3A3A3" />
  <rect x="4" y="13" width="1" height="1" fill="#C4C5C6" />
  <rect x="5" y="13" width="1" height="1" fill="#D3D4D9" />
  <rect x="6" y="13" width="1" height="1" fill="#CECFD4" />
  <rect x="7" y="13" width="1" height="1" fill="#CDCED3" />
  <rect x="8" y="13" width="1" height="1" fill="#AEAEAE" />
  <rect x="9" y="13" width="1" height="1" fill="#FAFAFA" />
  <rect x="10" y="13" width="1" height="1" fill="#D7D7D7" />
  <rect x="11" y="13" width="1" height="1" fill="#E2E2E2" />
  <rect x="12" y="13" width="1" height="1" fill="#CACACA" />
  <rect x="13" y="13" width="1" height="1" fill="#CFCFCF" />
  <rect x="14" y="13" width="1" height="1" fill="#FFFFFF" />
  <rect x="15" y="13" width="1" height="1" fill="#939393" />
  <rect x="4" y="14" width="1" height="1" fill="#797979" />
  <rect x="5" y="14" width="1" height="1" fill="#747474" />
  <rect x="6" y="14" width="1" height="1" fill="#707070" />
  <rect x="7" y="14" width="1" height="1" fill="#6B6B6B" />
  <rect x="8" y="14" width="1" height="1" fill="#939393" />
  <rect x="9" y="14" width="1" height="1" fill="#CBCBCB" />
  <rect x="10" y="14" width="1" height="1" fill="#EAEAEA" />
  <rect x="11" y="14" width="1" height="1" fill="#F0F0F0" />
  <rect x="12" y="14" width="1" height="1" fill="#F2F2F2" />
  <rect x="13" y="14" width="1" height="1" fill="#ECECEC" />
  <rect x="14" y="14" width="1" height="1" fill="#CACACA" />
  <rect x="15" y="14" width="1" height="1" fill="#8C8C8C" />
  <rect x="10" y="15" width="1" height="1" fill="#A0A0A0" />
  <rect x="11" y="15" width="1" height="1" fill="#9D9D9D" />
  <rect x="12" y="15" width="1" height="1" fill="#999999" />
  <rect x="13" y="15" width="1" height="1" fill="#929292" />
  <rect x="14" y="15" width="1" height="1" fill="#8C8C8C" />
</svg>