<svg width="16" height="16" viewBox="0 0 32 32" fill="none" xmlns="http://www.w3.org/2000/svg" shape-rendering="crispEdges">
  <rect x="0" y="0" width="32" height="1" fill="#007800" />
  <rect x="0" y="1" width="32" height="1" fill="#007800" />
  <rect x="0" y="2" width="32" height="1" fill="#007800" />
  <rect x="0" y="3" width="4" height="1" fill="#007800" />
  <rect x="4" y="3" width="5" height="1" fill="#FFF8FF" />
  <rect x="9" y="3" width="5" height="1" fill="#007800" />
  <rect x="14" y="3" width="4" height="1" fill="#FFF8FF" />
  <rect x="18" y="3" width="4" height="1" fill="#007800" />
  <rect x="22" y="3" width="1" height="1" fill="#FFF8FF" />
  <rect x="23" y="3" width="9" height="1" fill="#007800" />
  <rect x="0" y="4" width="3" height="1" fill="#007800" />
  <rect x="3" y="4" width="1" height="1" fill="#FFF8FF" />
  <rect x="4" y="4" width="5" height="1" fill="#007800" />
  <rect x="9" y="4" width="1" height="1" fill="#FFF8FF" />
  <rect x="10" y="4" width="3" height="1" fill="#007800" />
  <rect x="13" y="4" width="1" height="1" fill="#FFF8FF" />
  <rect x="14" y="4" width="4" height="1" fill="#007800" />
  <rect x="18" y="4" width="1" height="1" fill="#FFF8FF" />
  <rect x="19" y="4" width="3" height="1" fill="#007800" />
  <rect x="22" y="4" width="1" height="1" fill="#FFF8FF" />
  <rect x="23" y="4" width="9" height="1" fill="#007800" />
  <rect x="0" y="5" width="3" height="1" fill="#007800" />
  <rect x="3" y="5" width="1" height="1" fill="#FFF8FF" />
  <rect x="4" y="5" width="5" height="1" fill="#007800" />
  <rect x="9" y="5" width="1" height="1" fill="#FFF8FF" />
  <rect x="10" y="5" width="2" height="1" fill="#007800" />
  <rect x="12" y="5" width="1" height="1" fill="#FFF8FF" />
  <rect x="13" y="5" width="6" height="1" fill="#007800" />
  <rect x="19" y="5" width="1" height="1" fill="#FFF8FF" />
  <rect x="20" y="5" width="2" height="1" fill="#007800" />
  <rect x="22" y="5" width="1" height="1" fill="#FFF8FF" />
  <rect x="23" y="5" width="9" height="1" fill="#007800" />
  <rect x="0" y="6" width="3" height="1" fill="#007800" />
  <rect x="3" y="6" width="1" height="1" fill="#FFF8FF" />
  <rect x="4" y="6" width="8" height="1" fill="#007800" />
  <rect x="12" y="6" width="1" height="1" fill="#FFF8FF" />
  <rect x="13" y="6" width="6" height="1" fill="#007800" />
  <rect x="19" y="6" width="1" height="1" fill="#FFF8FF" />
  <rect x="20" y="6" width="2" height="1" fill="#007800" />
  <rect x="22" y="6" width="1" height="1" fill="#FFF8FF" />
  <rect x="23" y="6" width="9" height="1" fill="#007800" />
  <rect x="0" y="7" width="4" height="1" fill="#007800" />
  <rect x="4" y="7" width="3" height="1" fill="#FFF8FF" />
  <rect x="7" y="7" width="5" height="1" fill="#007800" />
  <rect x="12" y="7" width="1" height="1" fill="#FFF8FF" />
  <rect x="13" y="7" width="6" height="1" fill="#007800" />
  <rect x="19" y="7" width="1" height="1" fill="#FFF8FF" />
  <rect x="20" y="7" width="2" height="1" fill="#007800" />
  <rect x="22" y="7" width="1" height="1" fill="#FFF8FF" />
  <rect x="23" y="7" width="9" height="1" fill="#007800" />
  <rect x="0" y="8" width="7" height="1" fill="#007800" />
  <rect x="7" y="8" width="2" height="1" fill="#FFF8FF" />
  <rect x="9" y="8" width="3" height="1" fill="#007800" />
  <rect x="12" y="8" width="1" height="1" fill="#FFF8FF" />
  <rect x="13" y="8" width="6" height="1" fill="#007800" />
  <rect x="19" y="8" width="1" height="1" fill="#FFF8FF" />
  <rect x="20" y="8" width="2" height="1" fill="#007800" />
  <rect x="22" y="8" width="1" height="1" fill="#FFF8FF" />
  <rect x="23" y="8" width="9" height="1" fill="#007800" />
  <rect x="0" y="9" width="9" height="1" fill="#007800" />
  <rect x="9" y="9" width="1" height="1" fill="#FFF8FF" />
  <rect x="10" y="9" width="2" height="1" fill="#007800" />
  <rect x="12" y="9" width="1" height="1" fill="#FFF8FF" />
  <rect x="13" y="9" width="6" height="1" fill="#007800" />
  <rect x="19" y="9" width="1" height="1" fill="#FFF8FF" />
  <rect x="20" y="9" width="2" height="1" fill="#007800" />
  <rect x="22" y="9" width="1" height="1" fill="#FFF8FF" />
  <rect x="23" y="9" width="9" height="1" fill="#007800" />
  <rect x="0" y="10" width="3" height="1" fill="#007800" />
  <rect x="3" y="10" width="1" height="1" fill="#FFF8FF" />
  <rect x="4" y="10" width="5" height="1" fill="#007800" />
  <rect x="9" y="10" width="1" height="1" fill="#FFF8FF" />
  <rect x="10" y="10" width="2" height="1" fill="#007800" />
  <rect x="12" y="10" width="1" height="1" fill="#FFF8FF" />
  <rect x="13" y="10" width="3" height="1" fill="#007800" />
  <rect x="16" y="10" width="2" height="1" fill="#FFF8FF" />
  <rect x="18" y="10" width="1" height="1" fill="#007800" />
  <rect x="19" y="10" width="1" height="1" fill="#FFF8FF" />
  <rect x="20" y="10" width="2" height="1" fill="#007800" />
  <rect x="22" y="10" width="1" height="1" fill="#FFF8FF" />
  <rect x="23" y="10" width="9" height="1" fill="#007800" />
  <rect x="0" y="11" width="3" height="1" fill="#007800" />
  <rect x="3" y="11" width="1" height="1" fill="#FFF8FF" />
  <rect x="4" y="11" width="5" height="1" fill="#007800" />
  <rect x="9" y="11" width="1" height="1" fill="#FFF8FF" />
  <rect x="10" y="11" width="3" height="1" fill="#007800" />
  <rect x="13" y="11" width="1" height="1" fill="#FFF8FF" />
  <rect x="14" y="11" width="4" height="1" fill="#007800" />
  <rect x="18" y="11" width="1" height="1" fill="#FFF8FF" />
  <rect x="19" y="11" width="3" height="1" fill="#007800" />
  <rect x="22" y="11" width="1" height="1" fill="#FFF8FF" />
  <rect x="23" y="11" width="9" height="1" fill="#007800" />
  <rect x="0" y="12" width="4" height="1" fill="#007800" />
  <rect x="4" y="12" width="5" height="1" fill="#FFF8FF" />
  <rect x="9" y="12" width="5" height="1" fill="#007800" />
  <rect x="14" y="12" width="4" height="1" fill="#FFF8FF" />
  <rect x="18" y="12" width="1" height="1" fill="#007800" />
  <rect x="19" y="12" width="1" height="1" fill="#FFF8FF" />
  <rect x="20" y="12" width="2" height="1" fill="#007800" />
  <rect x="22" y="12" width="6" height="1" fill="#FFF8FF" />
  <rect x="28" y="12" width="4" height="1" fill="#007800" />
  <rect x="0" y="13" width="32" height="1" fill="#007800" />
  <rect x="0" y="14" width="32" height="1" fill="#007800" />
  <rect x="0" y="15" width="32" height="1" fill="#007800" />
  <rect x="0" y="16" width="32" height="1" fill="#007800" />
  <rect x="0" y="17" width="12" height="1" fill="#007800" />
  <rect x="12" y="17" width="1" height="1" fill="#FFF800" />
  <rect x="13" y="17" width="2" height="1" fill="#007800" />
  <rect x="15" y="17" width="1" height="1" fill="#FFF800" />
  <rect x="16" y="17" width="16" height="1" fill="#007800" />
  <rect x="0" y="18" width="12" height="1" fill="#007800" />
  <rect x="12" y="18" width="1" height="1" fill="#FFF800" />
  <rect x="13" y="18" width="5" height="1" fill="#007800" />
  <rect x="18" y="18" width="1" height="1" fill="#FFF800" />
  <rect x="19" y="18" width="13" height="1" fill="#007800" />
  <rect x="0" y="19" width="12" height="1" fill="#007800" />
  <rect x="12" y="19" width="1" height="1" fill="#FFF800" />
  <rect x="13" y="19" width="5" height="1" fill="#007800" />
  <rect x="18" y="19" width="1" height="1" fill="#FFF800" />
  <rect x="19" y="19" width="13" height="1" fill="#007800" />
  <rect x="0" y="20" width="2" height="1" fill="#007800" />
  <rect x="2" y="20" width="3" height="1" fill="#FFF800" />
  <rect x="5" y="20" width="4" height="1" fill="#007800" />
  <rect x="9" y="20" width="2" height="1" fill="#FFF800" />
  <rect x="11" y="20" width="1" height="1" fill="#007800" />
  <rect x="12" y="20" width="1" height="1" fill="#FFF800" />
  <rect x="13" y="20" width="2" height="1" fill="#007800" />
  <rect x="15" y="20" width="1" height="1" fill="#FFF800" />
  <rect x="16" y="20" width="1" height="1" fill="#007800" />
  <rect x="17" y="20" width="3" height="1" fill="#FFF800" />
  <rect x="20" y="20" width="3" height="1" fill="#007800" />
  <rect x="23" y="20" width="3" height="1" fill="#FFF800" />
  <rect x="26" y="20" width="3" height="1" fill="#007800" />
  <rect x="29" y="20" width="1" height="1" fill="#FFF800" />
  <rect x="30" y="20" width="1" height="1" fill="#007800" />
  <rect x="31" y="20" width="1" height="1" fill="#FFF800" />
  <rect x="0" y="21" width="1" height="1" fill="#007800" />
  <rect x="1" y="21" width="1" height="1" fill="#FFF800" />
  <rect x="2" y="21" width="3" height="1" fill="#007800" />
  <rect x="5" y="21" width="1" height="1" fill="#FFF800" />
  <rect x="6" y="21" width="2" height="1" fill="#007800" />
  <rect x="8" y="21" width="1" height="1" fill="#FFF800" />
  <rect x="9" y="21" width="2" height="1" fill="#007800" />
  <rect x="11" y="21" width="2" height="1" fill="#FFF800" />
  <rect x="13" y="21" width="2" height="1" fill="#007800" />
  <rect x="15" y="21" width="1" height="1" fill="#FFF800" />
  <rect x="16" y="21" width="2" height="1" fill="#007800" />
  <rect x="18" y="21" width="1" height="1" fill="#FFF800" />
  <rect x="19" y="21" width="3" height="1" fill="#007800" />
  <rect x="22" y="21" width="1" height="1" fill="#FFF800" />
  <rect x="23" y="21" width="3" height="1" fill="#007800" />
  <rect x="26" y="21" width="1" height="1" fill="#FFF800" />
  <rect x="27" y="21" width="2" height="1" fill="#007800" />
  <rect x="29" y="21" width="2" height="1" fill="#FFF800" />
  <rect x="31" y="21" width="1" height="1" fill="#007800" />
  <rect x="0" y="22" width="1" height="1" fill="#007800" />
  <rect x="1" y="22" width="1" height="1" fill="#FFF800" />
  <rect x="2" y="22" width="3" height="1" fill="#007800" />
  <rect x="5" y="22" width="1" height="1" fill="#FFF800" />
  <rect x="6" y="22" width="2" height="1" fill="#007800" />
  <rect x="8" y="22" width="1" height="1" fill="#FFF800" />
  <rect x="9" y="22" width="3" height="1" fill="#007800" />
  <rect x="12" y="22" width="1" height="1" fill="#FFF800" />
  <rect x="13" y="22" width="2" height="1" fill="#007800" />
  <rect x="15" y="22" width="1" height="1" fill="#FFF800" />
  <rect x="16" y="22" width="2" height="1" fill="#007800" />
  <rect x="18" y="22" width="1" height="1" fill="#FFF800" />
  <rect x="19" y="22" width="3" height="1" fill="#007800" />
  <rect x="22" y="22" width="1" height="1" fill="#FFF800" />
  <rect x="23" y="22" width="3" height="1" fill="#007800" />
  <rect x="26" y="22" width="1" height="1" fill="#FFF800" />
  <rect x="27" y="22" width="2" height="1" fill="#007800" />
  <rect x="29" y="22" width="1" height="1" fill="#FFF800" />
  <rect x="30" y="22" width="2" height="1" fill="#007800" />
  <rect x="0" y="23" width="1" height="1" fill="#007800" />
  <rect x="1" y="23" width="5" height="1" fill="#FFF800" />
  <rect x="6" y="23" width="2" height="1" fill="#007800" />
  <rect x="8" y="23" width="1" height="1" fill="#FFF800" />
  <rect x="9" y="23" width="3" height="1" fill="#007800" />
  <rect x="12" y="23" width="1" height="1" fill="#FFF800" />
  <rect x="13" y="23" width="2" height="1" fill="#007800" />
  <rect x="15" y="23" width="1" height="1" fill="#FFF800" />
  <rect x="16" y="23" width="2" height="1" fill="#007800" />
  <rect x="18" y="23" width="1" height="1" fill="#FFF800" />
  <rect x="19" y="23" width="3" height="1" fill="#007800" />
  <rect x="22" y="23" width="1" height="1" fill="#FFF800" />
  <rect x="23" y="23" width="3" height="1" fill="#007800" />
  <rect x="26" y="23" width="1" height="1" fill="#FFF800" />
  <rect x="27" y="23" width="2" height="1" fill="#007800" />
  <rect x="29" y="23" width="1" height="1" fill="#FFF800" />
  <rect x="30" y="23" width="2" height="1" fill="#007800" />
  <rect x="0" y="24" width="1" height="1" fill="#007800" />
  <rect x="1" y="24" width="1" height="1" fill="#FFF800" />
  <rect x="2" y="24" width="6" height="1" fill="#007800" />
  <rect x="8" y="24" width="1" height="1" fill="#FFF800" />
  <rect x="9" y="24" width="3" height="1" fill="#007800" />
  <rect x="12" y="24" width="1" height="1" fill="#FFF800" />
  <rect x="13" y="24" width="2" height="1" fill="#007800" />
  <rect x="15" y="24" width="1" height="1" fill="#FFF800" />
  <rect x="16" y="24" width="2" height="1" fill="#007800" />
  <rect x="18" y="24" width="1" height="1" fill="#FFF800" />
  <rect x="19" y="24" width="3" height="1" fill="#007800" />
  <rect x="22" y="24" width="1" height="1" fill="#FFF800" />
  <rect x="23" y="24" width="3" height="1" fill="#007800" />
  <rect x="26" y="24" width="1" height="1" fill="#FFF800" />
  <rect x="27" y="24" width="2" height="1" fill="#007800" />
  <rect x="29" y="24" width="1" height="1" fill="#FFF800" />
  <rect x="30" y="24" width="2" height="1" fill="#007800" />
  <rect x="0" y="25" width="1" height="1" fill="#007800" />
  <rect x="1" y="25" width="1" height="1" fill="#FFF800" />
  <rect x="2" y="25" width="3" height="1" fill="#007800" />
  <rect x="5" y="25" width="1" height="1" fill="#FFF800" />
  <rect x="6" y="25" width="2" height="1" fill="#007800" />
  <rect x="8" y="25" width="1" height="1" fill="#FFF800" />
  <rect x="9" y="25" width="3" height="1" fill="#007800" />
  <rect x="12" y="25" width="1" height="1" fill="#FFF800" />
  <rect x="13" y="25" width="2" height="1" fill="#007800" />
  <rect x="15" y="25" width="1" height="1" fill="#FFF800" />
  <rect x="16" y="25" width="2" height="1" fill="#007800" />
  <rect x="18" y="25" width="1" height="1" fill="#FFF800" />
  <rect x="19" y="25" width="3" height="1" fill="#007800" />
  <rect x="22" y="25" width="1" height="1" fill="#FFF800" />
  <rect x="23" y="25" width="3" height="1" fill="#007800" />
  <rect x="26" y="25" width="1" height="1" fill="#FFF800" />
  <rect x="27" y="25" width="2" height="1" fill="#007800" />
  <rect x="29" y="25" width="1" height="1" fill="#FFF800" />
  <rect x="30" y="25" width="2" height="1" fill="#007800" />
  <rect x="0" y="26" width="2" height="1" fill="#007800" />
  <rect x="2" y="26" width="3" height="1" fill="#FFF800" />
  <rect x="5" y="26" width="4" height="1" fill="#007800" />
  <rect x="9" y="26" width="4" height="1" fill="#FFF800" />
  <rect x="13" y="26" width="2" height="1" fill="#007800" />
  <rect x="15" y="26" width="1" height="1" fill="#FFF800" />
  <rect x="16" y="26" width="2" height="1" fill="#007800" />
  <rect x="18" y="26" width="2" height="1" fill="#FFF800" />
  <rect x="20" y="26" width="3" height="1" fill="#007800" />
  <rect x="23" y="26" width="3" height="1" fill="#FFF800" />
  <rect x="26" y="26" width="3" height="1" fill="#007800" />
  <rect x="29" y="26" width="1" height="1" fill="#FFF800" />
  <rect x="30" y="26" width="2" height="1" fill="#007800" />
  <rect x="0" y="27" width="32" height="1" fill="#007800" />
  <rect x="0" y="28" width="32" height="1" fill="#007800" />
  <rect x="0" y="29" width="32" height="1" fill="#007800" />
  <rect x="0" y="30" width="32" height="1" fill="#007800" />
  <rect x="0" y="31" width="32" height="1" fill="#007800" />
</svg>