<svg width="16" height="16" viewBox="0 0 16 16" fill="none" xmlns="http://www.w3.org/2000/svg" shape-rendering="crispEdges">
  <rect x="2" y="1" width="1" height="1" fill="#A2C1EF" />
  <rect x="3" y="1" width="1" height="1" fill="#9FC0ED" />
  <rect x="4" y="1" width="1" height="1" fill="#9DBEEB" />
  <rect x="5" y="1" width="1" height="1" fill="#9ABCEB" />
  <rect x="6" y="1" width="1" height="1" fill="#96BAE9" />
  <rect x="7" y="1" width="1" height="1" fill="#93B7E7" />
  <rect x="8" y="1" width="1" height="1" fill="#90B5E6" />
  <rect x="9" y="1" width="1" height="1" fill="#8CB2E4" />
  <rect x="10" y="1" width="1" height="1" fill="#88AFE2" />
  <rect x="11" y="1" width="1" height="1" fill="#84ACE0" />
  <rect x="12" y="1" width="1" height="1" fill="#80A9DD" />
  <rect x="13" y="1" width="1" height="1" fill="#7DA5DC" />
  <rect x="14" y="1" width="1" height="1" fill="#7AA3DA" />
  <rect x="1" y="2" width="1" height="1" fill="#A1C1EE" />
  <rect x="2" y="2" width="12" height="1" fill="#F4F7FB" />
  <rect x="14" y="2" width="1" height="1" fill="#74A0D7" />
  <rect x="1" y="3" width="1" height="1" fill="#9EBFEC" />
  <rect x="2" y="3" width="1" height="1" fill="#F4F7FB" />
  <rect x="3" y="3" width="1" height="1" fill="#A5D59C" />
  <rect x="4" y="3" width="1" height="1" fill="#A1D398" />
  <rect x="5" y="3" width="1" height="1" fill="#9DD094" />
  <rect x="6" y="3" width="1" height="1" fill="#98CE90" />
  <rect x="7" y="3" width="1" height="1" fill="#93CB8B" />
  <rect x="8" y="3" width="1" height="1" fill="#8EC987" />
  <rect x="9" y="3" width="1" height="1" fill="#89C682" />
  <rect x="10" y="3" width="1" height="1" fill="#84C37E" />
  <rect x="11" y="3" width="1" height="1" fill="#80C17A" />
  <rect x="12" y="3" width="1" height="1" fill="#7CBE76" />
  <rect x="13" y="3" width="1" height="1" fill="#F4F7FB" />
  <rect x="14" y="3" width="1" height="1" fill="#6F9BD4" />
  <rect x="1" y="4" width="1" height="1" fill="#9BBDEB" />
  <rect x="2" y="4" width="1" height="1" fill="#F4F7FB" />
  <rect x="3" y="4" width="10" height="1" fill="#FFFFFF" />
  <rect x="13" y="4" width="1" height="1" fill="#F4F7FB" />
  <rect x="14" y="4" width="1" height="1" fill="#6A97D1" />
  <rect x="1" y="5" width="1" height="1" fill="#98BAE9" />
  <rect x="2" y="5" width="1" height="1" fill="#F4F7FB" />
  <rect x="3" y="5" width="10" height="1" fill="#A6C3E9" />
  <rect x="13" y="5" width="1" height="1" fill="#F4F7FB" />
  <rect x="14" y="5" width="1" height="1" fill="#6493CE" />
  <rect x="1" y="6" width="1" height="1" fill="#94B7E7" />
  <rect x="2" y="6" width="1" height="1" fill="#F4F7FB" />
  <rect x="3" y="6" width="1" height="1" fill="#A6C3E9" />
  <rect x="4" y="6" width="1" height="1" fill="#FFFFFF" />
  <rect x="5" y="6" width="1" height="1" fill="#A9C4E8" />
  <rect x="6" y="6" width="3" height="1" fill="#FFFFFF" />
  <rect x="9" y="6" width="1" height="1" fill="#ACC7E8" />
  <rect x="10" y="6" width="3" height="1" fill="#FFFFFF" />
  <rect x="13" y="6" width="1" height="1" fill="#EBF1F7" />
  <rect x="14" y="6" width="1" height="1" fill="#5F8FCB" />
  <rect x="1" y="7" width="1" height="1" fill="#8FB4E5" />
  <rect x="2" y="7" width="1" height="1" fill="#F2F6FA" />
  <rect x="3" y="7" width="1" height="1" fill="#AAC6E9" />
  <rect x="4" y="7" width="1" height="1" fill="#ACC6E9" />
  <rect x="5" y="7" width="1" height="1" fill="#ACC7EA" />
  <rect x="6" y="7" width="1" height="1" fill="#ADC7E9" />
  <rect x="7" y="7" width="1" height="1" fill="#AEC9E9" />
  <rect x="8" y="7" width="1" height="1" fill="#B0C9E9" />
  <rect x="9" y="7" width="1" height="1" fill="#ACC7E8" />
  <rect x="10" y="7" width="1" height="1" fill="#B0C9E9" />
  <rect x="11" y="7" width="1" height="1" fill="#B0C8E8" />
  <rect x="12" y="7" width="1" height="1" fill="#B5CCE8" />
  <rect x="13" y="7" width="1" height="1" fill="#DEE7F2" />
  <rect x="14" y="7" width="1" height="1" fill="#598AC8" />
  <rect x="1" y="8" width="1" height="1" fill="#8CB1E3" />
  <rect x="2" y="8" width="1" height="1" fill="#F1F6FA" />
  <rect x="3" y="8" width="1" height="1" fill="#AEC9EA" />
  <rect x="4" y="8" width="1" height="1" fill="#FFFFFF" />
  <rect x="5" y="8" width="1" height="1" fill="#B0C9EA" />
  <rect x="6" y="8" width="3" height="1" fill="#FFFFFF" />
  <rect x="9" y="8" width="1" height="1" fill="#ACC7E8" />
  <rect x="10" y="8" width="3" height="1" fill="#FFFFFF" />
  <rect x="13" y="8" width="1" height="1" fill="#DBE5F1" />
  <rect x="14" y="8" width="1" height="1" fill="#5586C6" />
  <rect x="1" y="9" width="1" height="1" fill="#87AEE1" />
  <rect x="2" y="9" width="1" height="1" fill="#F0F4FA" />
  <rect x="3" y="9" width="1" height="1" fill="#B2CBEA" />
  <rect x="4" y="9" width="4" height="1" fill="#B3CCEA" />
  <rect x="8" y="9" width="1" height="1" fill="#B7CEEA" />
  <rect x="9" y="9" width="2" height="1" fill="#ACC7E8" />
  <rect x="11" y="9" width="1" height="1" fill="#B0C8E8" />
  <rect x="12" y="9" width="1" height="1" fill="#AEC8E8" />
  <rect x="13" y="9" width="1" height="1" fill="#D8E2F0" />
  <rect x="14" y="9" width="1" height="1" fill="#5486C4" />
  <rect x="1" y="10" width="1" height="1" fill="#82AADF" />
  <rect x="2" y="10" width="1" height="1" fill="#EFF3F9" />
  <rect x="3" y="10" width="1" height="1" fill="#B7CEEA" />
  <rect x="4" y="10" width="1" height="1" fill="#FFFFFF" />
  <rect x="5" y="10" width="1" height="1" fill="#BBD0EB" />
  <rect x="6" y="10" width="3" height="1" fill="#FFFFFF" />
  <rect x="9" y="10" width="1" height="1" fill="#BACFEA" />
  <rect x="10" y="10" width="1" height="1" fill="#F2F6FB" />
  <rect x="11" y="10" width="2" height="1" fill="#FFFFFF" />
  <rect x="13" y="10" width="1" height="1" fill="#D8E2F0" />
  <rect x="14" y="10" width="1" height="1" fill="#5F8DC8" />
  <rect x="1" y="11" width="1" height="1" fill="#7EA8DD" />
  <rect x="2" y="11" width="1" height="1" fill="#EFF3F9" />
  <rect x="3" y="11" width="1" height="1" fill="#BAD0EB" />
  <rect x="4" y="11" width="4" height="1" fill="#BBD0EB" />
  <rect x="8" y="11" width="1" height="1" fill="#BDD1EB" />
  <rect x="9" y="11" width="4" height="1" fill="#B5CDEA" />
  <rect x="13" y="11" width="1" height="1" fill="#D8E2F0" />
  <rect x="14" y="11" width="1" height="1" fill="#5C8AC6" />
  <rect x="1" y="12" width="1" height="1" fill="#7AA4D9" />
  <rect x="2" y="12" width="1" height="1" fill="#EEF3F9" />
  <rect x="3" y="12" width="1" height="1" fill="#BED2EB" />
  <rect x="4" y="12" width="1" height="1" fill="#FFFFFF" />
  <rect x="5" y="12" width="1" height="1" fill="#BFD3EB" />
  <rect x="6" y="12" width="3" height="1" fill="#FFFFFF" />
  <rect x="9" y="12" width="1" height="1" fill="#ADC7EA" />
  <rect x="10" y="12" width="3" height="1" fill="#FFFFFF" />
  <rect x="13" y="12" width="1" height="1" fill="#D8E2F0" />
  <rect x="14" y="12" width="1" height="1" fill="#5F8CC6" />
  <rect x="1" y="13" width="1" height="1" fill="#75A1D7" />
  <rect x="2" y="13" width="1" height="1" fill="#EDF2F8" />
  <rect x="3" y="13" width="1" height="1" fill="#EAF0F7" />
  <rect x="4" y="13" width="1" height="1" fill="#E6EDF6" />
  <rect x="5" y="13" width="1" height="1" fill="#E2EAF4" />
  <rect x="6" y="13" width="1" height="1" fill="#DEE7F3" />
  <rect x="7" y="13" width="1" height="1" fill="#DBE4F1" />
  <rect x="8" y="13" width="6" height="1" fill="#D8E2F0" />
  <rect x="14" y="13" width="1" height="1" fill="#5D8AC5" />
  <rect x="1" y="14" width="1" height="1" fill="#729ED6" />
  <rect x="2" y="14" width="1" height="1" fill="#6E99D3" />
  <rect x="3" y="14" width="1" height="1" fill="#6896D1" />
  <rect x="4" y="14" width="1" height="1" fill="#6392CE" />
  <rect x="5" y="14" width="1" height="1" fill="#5E8ECB" />
  <rect x="6" y="14" width="1" height="1" fill="#5B8AC9" />
  <rect x="7" y="14" width="1" height="1" fill="#5687C7" />
  <rect x="8" y="14" width="6" height="1" fill="#5284C3" />
  <rect x="14" y="14" width="1" height="1" fill="#4277BB" />
</svg>