<svg width="16" height="16" viewBox="0 0 16 16" fill="none" xmlns="http://www.w3.org/2000/svg" shape-rendering="crispEdges">
  <rect x="1" y="0" width="13" height="1" fill="#000686" />
  <rect x="0" y="1" width="1" height="1" fill="#000686" />
  <rect x="1" y="1" width="1" height="1" fill="#FFFFFF" />
  <rect x="2" y="1" width="8" height="1" fill="#F7F7F7" />
  <rect x="10" y="1" width="4" height="1" fill="#FFFBFF" />
  <rect x="14" y="1" width="1" height="1" fill="#000686" />
  <rect x="0" y="2" width="1" height="1" fill="#000686" />
  <rect x="1" y="2" width="1" height="1" fill="#FFFFFF" />
  <rect x="2" y="2" width="3" height="1" fill="#E7E3E7" />
  <rect x="5" y="2" width="3" height="1" fill="#E7E7E7" />
  <rect x="8" y="2" width="4" height="1" fill="#EFEBEF" />
  <rect x="12" y="2" width="3" height="1" fill="#EFEFEF" />
  <rect x="15" y="2" width="1" height="1" fill="#000686" />
  <rect x="0" y="3" width="1" height="1" fill="#000686" />
  <rect x="1" y="3" width="1" height="1" fill="#FFFFFF" />
  <rect x="2" y="3" width="1" height="1" fill="#E7E3E7" />
  <rect x="3" y="3" width="3" height="1" fill="#000686" />
  <rect x="6" y="3" width="1" height="1" fill="#E7E7E7" />
  <rect x="7" y="3" width="6" height="1" fill="#889CC1" />
  <rect x="13" y="3" width="1" height="1" fill="#EFEFEF" />
  <rect x="14" y="3" width="1" height="1" fill="#F7F3F7" />
  <rect x="15" y="3" width="1" height="1" fill="#000686" />
  <rect x="0" y="4" width="1" height="1" fill="#000686" />
  <rect x="1" y="4" width="1" height="1" fill="#FFFFFF" />
  <rect x="2" y="4" width="1" height="1" fill="#E7E3E7" />
  <rect x="3" y="4" width="3" height="1" fill="#E7E7E7" />
  <rect x="6" y="4" width="4" height="1" fill="#EFEBEF" />
  <rect x="10" y="4" width="3" height="1" fill="#EFEFEF" />
  <rect x="13" y="4" width="2" height="1" fill="#F7F3F7" />
  <rect x="15" y="4" width="1" height="1" fill="#000686" />
  <rect x="0" y="5" width="1" height="1" fill="#000686" />
  <rect x="1" y="5" width="1" height="1" fill="#FFFFFF" />
  <rect x="2" y="5" width="2" height="1" fill="#E7E7E7" />
  <rect x="4" y="5" width="1" height="1" fill="#000686" />
  <rect x="5" y="5" width="1" height="1" fill="#EFEBEF" />
  <rect x="6" y="5" width="7" height="1" fill="#889CC1" />
  <rect x="13" y="5" width="2" height="1" fill="#F7F3F7" />
  <rect x="15" y="5" width="1" height="1" fill="#000686" />
  <rect x="0" y="6" width="1" height="1" fill="#000686" />
  <rect x="1" y="6" width="1" height="1" fill="#FFFFFF" />
  <rect x="2" y="6" width="2" height="1" fill="#E7E7E7" />
  <rect x="4" y="6" width="1" height="1" fill="#000686" />
  <rect x="5" y="6" width="3" height="1" fill="#EFEBEF" />
  <rect x="8" y="6" width="3" height="1" fill="#EFEFEF" />
  <rect x="11" y="6" width="3" height="1" fill="#F7F3F7" />
  <rect x="14" y="6" width="1" height="1" fill="#F7F7F7" />
  <rect x="15" y="6" width="1" height="1" fill="#000686" />
  <rect x="0" y="7" width="1" height="1" fill="#000686" />
  <rect x="1" y="7" width="1" height="1" fill="#FFFFFF" />
  <rect x="2" y="7" width="1" height="1" fill="#E7E7E7" />
  <rect x="3" y="7" width="1" height="1" fill="#EFEBEF" />
  <rect x="4" y="7" width="1" height="1" fill="#000686" />
  <rect x="5" y="7" width="1" height="1" fill="#EFEBEF" />
  <rect x="6" y="7" width="7" height="1" fill="#889CC1" />
  <rect x="13" y="7" width="2" height="1" fill="#F7F7F7" />
  <rect x="15" y="7" width="1" height="1" fill="#000686" />
  <rect x="0" y="8" width="1" height="1" fill="#000686" />
  <rect x="1" y="8" width="1" height="1" fill="#FFFFFF" />
  <rect x="2" y="8" width="2" height="1" fill="#EFEBEF" />
  <rect x="4" y="8" width="1" height="1" fill="#000686" />
  <rect x="5" y="8" width="1" height="1" fill="#EFEBEF" />
  <rect x="6" y="8" width="3" height="1" fill="#EFEFEF" />
  <rect x="9" y="8" width="3" height="1" fill="#F7F3F7" />
  <rect x="12" y="8" width="3" height="1" fill="#F7F7F7" />
  <rect x="15" y="8" width="1" height="1" fill="#000686" />
  <rect x="0" y="9" width="1" height="1" fill="#000686" />
  <rect x="1" y="9" width="1" height="1" fill="#FFFFFF" />
  <rect x="2" y="9" width="2" height="1" fill="#EFEBEF" />
  <rect x="4" y="9" width="1" height="1" fill="#000686" />
  <rect x="5" y="9" width="3" height="1" fill="#EFEFEF" />
  <rect x="8" y="9" width="1" height="1" fill="#F7F3F7" />
  <rect x="9" y="9" width="4" height="1" fill="#889CC1" />
  <rect x="13" y="9" width="2" height="1" fill="#F7F7F7" />
  <rect x="15" y="9" width="1" height="1" fill="#000686" />
  <rect x="0" y="10" width="1" height="1" fill="#000686" />
  <rect x="1" y="10" width="1" height="1" fill="#FFFFFF" />
  <rect x="2" y="10" width="2" height="1" fill="#EFEBEF" />
  <rect x="4" y="10" width="1" height="1" fill="#000686" />
  <rect x="5" y="10" width="2" height="1" fill="#EFEFEF" />
  <rect x="7" y="10" width="1" height="1" fill="#000686" />
  <rect x="8" y="10" width="2" height="1" fill="#F7F3F7" />
  <rect x="10" y="10" width="4" height="1" fill="#F7F7F7" />
  <rect x="14" y="10" width="1" height="1" fill="#FFFBFF" />
  <rect x="15" y="10" width="1" height="1" fill="#000686" />
  <rect x="0" y="11" width="1" height="1" fill="#000686" />
  <rect x="1" y="11" width="1" height="1" fill="#FFFFFF" />
  <rect x="2" y="11" width="2" height="1" fill="#EFEFEF" />
  <rect x="4" y="11" width="5" height="1" fill="#000686" />
  <rect x="9" y="11" width="1" height="1" fill="#F7F7F7" />
  <rect x="10" y="11" width="3" height="1" fill="#889CC1" />
  <rect x="13" y="11" width="2" height="1" fill="#FFFBFF" />
  <rect x="15" y="11" width="1" height="1" fill="#000686" />
  <rect x="0" y="12" width="1" height="1" fill="#000686" />
  <rect x="1" y="12" width="1" height="1" fill="#FFFFFF" />
  <rect x="2" y="12" width="2" height="1" fill="#EFEFEF" />
  <rect x="4" y="12" width="3" height="1" fill="#F7F3F7" />
  <rect x="7" y="12" width="1" height="1" fill="#000686" />
  <rect x="8" y="12" width="3" height="1" fill="#F7F7F7" />
  <rect x="11" y="12" width="3" height="1" fill="#FFFBFF" />
  <rect x="14" y="12" width="1" height="1" fill="#FFFFFF" />
  <rect x="15" y="12" width="1" height="1" fill="#000686" />
  <rect x="0" y="13" width="1" height="1" fill="#000686" />
  <rect x="1" y="13" width="1" height="1" fill="#FFFFFF" />
  <rect x="2" y="13" width="1" height="1" fill="#EFEFEF" />
  <rect x="3" y="13" width="3" height="1" fill="#F7F3F7" />
  <rect x="6" y="13" width="4" height="1" fill="#F7F7F7" />
  <rect x="10" y="13" width="3" height="1" fill="#FFFBFF" />
  <rect x="13" y="13" width="1" height="1" fill="#FFFFFF" />
  <rect x="14" y="13" width="1" height="1" fill="#000686" />
  <rect x="1" y="14" width="13" height="1" fill="#000686" />
</svg>