<svg width="16" height="16" viewBox="0 0 16 16" fill="none" xmlns="http://www.w3.org/2000/svg" shape-rendering="crispEdges">
  <rect x="6" y="0" width="1" height="1" fill="#75A1E1" />
  <rect x="7" y="0" width="1" height="1" fill="#8DB1EB" />
  <rect x="8" y="0" width="1" height="1" fill="#87ADE9" />
  <rect x="9" y="0" width="1" height="1" fill="#5B8DD1" />
  <rect x="5" y="1" width="1" height="1" fill="#8DB3EB" />
  <rect x="6" y="1" width="1" height="1" fill="#CCDDF6" />
  <rect x="7" y="1" width="1" height="1" fill="#D6E2F9" />
  <rect x="8" y="1" width="1" height="1" fill="#D3E1F8" />
  <rect x="9" y="1" width="1" height="1" fill="#C2D6F4" />
  <rect x="10" y="1" width="1" height="1" fill="#6795DB" />
  <rect x="4" y="2" width="1" height="1" fill="#73A1E1" />
  <rect x="5" y="2" width="1" height="1" fill="#CCDDF6" />
  <rect x="6" y="2" width="1" height="1" fill="#DBE7F9" />
  <rect x="7" y="2" width="1" height="1" fill="#CDDDF7" />
  <rect x="8" y="2" width="1" height="1" fill="#C9DBF6" />
  <rect x="9" y="2" width="1" height="1" fill="#D0E0F7" />
  <rect x="10" y="2" width="1" height="1" fill="#B9D0F3" />
  <rect x="11" y="2" width="1" height="1" fill="#3369B9" />
  <rect x="4" y="3" width="1" height="1" fill="#89AFE9" />
  <rect x="5" y="3" width="1" height="1" fill="#D4E2F9" />
  <rect x="6" y="3" width="1" height="1" fill="#CDDDF7" />
  <rect x="7" y="3" width="1" height="1" fill="#C8DAF7" />
  <rect x="8" y="3" width="1" height="1" fill="#C4D7F5" />
  <rect x="9" y="3" width="1" height="1" fill="#BFD4F4" />
  <rect x="10" y="3" width="1" height="1" fill="#C5D8F4" />
  <rect x="11" y="3" width="1" height="1" fill="#5189D5" />
  <rect x="4" y="4" width="1" height="1" fill="#81A9E9" />
  <rect x="5" y="4" width="1" height="1" fill="#D1DFF8" />
  <rect x="6" y="4" width="1" height="1" fill="#C8D9F6" />
  <rect x="7" y="4" width="1" height="1" fill="#C3D7F5" />
  <rect x="8" y="4" width="1" height="1" fill="#BFD4F5" />
  <rect x="9" y="4" width="1" height="1" fill="#BBD1F4" />
  <rect x="10" y="4" width="1" height="1" fill="#C1D6F4" />
  <rect x="11" y="4" width="1" height="1" fill="#4981D1" />
  <rect x="4" y="5" width="1" height="1" fill="#5183CF" />
  <rect x="5" y="5" width="1" height="1" fill="#BFD5F3" />
  <rect x="6" y="5" width="1" height="1" fill="#CFDFF7" />
  <rect x="7" y="5" width="1" height="1" fill="#BCD2F4" />
  <rect x="8" y="5" width="1" height="1" fill="#B7CFF4" />
  <rect x="9" y="5" width="1" height="1" fill="#C5D8F5" />
  <rect x="10" y="5" width="1" height="1" fill="#AAC7F0" />
  <rect x="11" y="5" width="1" height="1" fill="#0947A5" />
  <rect x="5" y="6" width="1" height="1" fill="#5B8DD5" />
  <rect x="6" y="6" width="1" height="1" fill="#C1D6F5" />
  <rect x="7" y="6" width="1" height="1" fill="#B3CCF2" />
  <rect x="8" y="6" width="1" height="1" fill="#AEC9F1" />
  <rect x="9" y="6" width="1" height="1" fill="#B9D1F3" />
  <rect x="10" y="6" width="1" height="1" fill="#336DC1" />
  <rect x="11" y="6" width="1" height="1" fill="#00116D" />
  <rect x="4" y="7" width="1" height="1" fill="#6D9BDD" />
  <rect x="5" y="7" width="1" height="1" fill="#A3B8DE" />
  <rect x="6" y="7" width="1" height="1" fill="#A1BAE0" />
  <rect x="7" y="7" width="1" height="1" fill="#88ACE4" />
  <rect x="8" y="7" width="1" height="1" fill="#84A8E2" />
  <rect x="9" y="7" width="1" height="1" fill="#94AFD8" />
  <rect x="10" y="7" width="1" height="1" fill="#98ADD2" />
  <rect x="11" y="7" width="1" height="1" fill="#3F75C3" />
  <rect x="3" y="8" width="1" height="1" fill="#6B99DB" />
  <rect x="4" y="8" width="1" height="1" fill="#C4D8F4" />
  <rect x="5" y="8" width="1" height="1" fill="#D7E4F8" />
  <rect x="6" y="8" width="1" height="1" fill="#CCDEF7" />
  <rect x="7" y="8" width="1" height="1" fill="#CBDCF6" />
  <rect x="8" y="8" width="1" height="1" fill="#C6D8F5" />
  <rect x="9" y="8" width="1" height="1" fill="#BBD0F1" />
  <rect x="10" y="8" width="1" height="1" fill="#C1D5EF" />
  <rect x="11" y="8" width="1" height="1" fill="#ADC6E8" />
  <rect x="12" y="8" width="1" height="1" fill="#235DB7" />
  <rect x="2" y="9" width="1" height="1" fill="#3D75C7" />
  <rect x="3" y="9" width="1" height="1" fill="#B6CEF1" />
  <rect x="4" y="9" width="1" height="1" fill="#D5E2F7" />
  <rect x="5" y="9" width="1" height="1" fill="#C2D6F5" />
  <rect x="6" y="9" width="1" height="1" fill="#CCDDF7" />
  <rect x="7" y="9" width="1" height="1" fill="#CBDCF7" />
  <rect x="8" y="9" width="1" height="1" fill="#C4D7F5" />
  <rect x="9" y="9" width="1" height="1" fill="#B5CCF0" />
  <rect x="10" y="9" width="1" height="1" fill="#9EBBE8" />
  <rect x="11" y="9" width="1" height="1" fill="#B4CBEB" />
  <rect x="12" y="9" width="1" height="1" fill="#88A9DB" />
  <rect x="13" y="9" width="1" height="1" fill="#00298F" />
  <rect x="2" y="10" width="1" height="1" fill="#618FD9" />
  <rect x="3" y="10" width="1" height="1" fill="#C5D9F3" />
  <rect x="4" y="10" width="1" height="1" fill="#BFD2F2" />
  <rect x="5" y="10" width="1" height="1" fill="#C2D5F4" />
  <rect x="6" y="10" width="1" height="1" fill="#CADCF6" />
  <rect x="7" y="10" width="1" height="1" fill="#C9DAF6" />
  <rect x="8" y="10" width="1" height="1" fill="#C0D5F4" />
  <rect x="9" y="10" width="1" height="1" fill="#B3CBEF" />
  <rect x="10" y="10" width="1" height="1" fill="#9DBAE9" />
  <rect x="11" y="10" width="1" height="1" fill="#8FADE1" />
  <rect x="12" y="10" width="1" height="1" fill="#A2BCE3" />
  <rect x="13" y="10" width="1" height="1" fill="#053FA7" />
  <rect x="2" y="11" width="1" height="1" fill="#6D9BE1" />
  <rect x="3" y="11" width="1" height="1" fill="#CBDAF5" />
  <rect x="4" y="11" width="1" height="1" fill="#A3BBE9" />
  <rect x="5" y="11" width="1" height="1" fill="#C0D4F4" />
  <rect x="6" y="11" width="1" height="1" fill="#C7D9F6" />
  <rect x="7" y="11" width="1" height="1" fill="#C5D8F5" />
  <rect x="8" y="11" width="1" height="1" fill="#BBD1F3" />
  <rect x="9" y="11" width="1" height="1" fill="#AFC7EF" />
  <rect x="10" y="11" width="1" height="1" fill="#9BB8E9" />
  <rect x="11" y="11" width="1" height="1" fill="#81A0DD" />
  <rect x="12" y="11" width="1" height="1" fill="#A8BFE6" />
  <rect x="13" y="11" width="1" height="1" fill="#0B47B1" />
  <rect x="2" y="12" width="1" height="1" fill="#6795DD" />
  <rect x="3" y="12" width="1" height="1" fill="#C6D9F5" />
  <rect x="4" y="12" width="1" height="1" fill="#A5BDEA" />
  <rect x="5" y="12" width="1" height="1" fill="#BDD2F3" />
  <rect x="6" y="12" width="1" height="1" fill="#C3D7F5" />
  <rect x="7" y="12" width="1" height="1" fill="#BFD3F4" />
  <rect x="8" y="12" width="1" height="1" fill="#B4CCF1" />
  <rect x="9" y="12" width="1" height="1" fill="#AAC5ED" />
  <rect x="10" y="12" width="1" height="1" fill="#99B8EA" />
  <rect x="11" y="12" width="1" height="1" fill="#7FA0DE" />
  <rect x="12" y="12" width="1" height="1" fill="#A6C0E8" />
  <rect x="13" y="12" width="1" height="1" fill="#0945B1" />
  <rect x="2" y="13" width="1" height="1" fill="#4579CF" />
  <rect x="3" y="13" width="1" height="1" fill="#A3BFEB" />
  <rect x="4" y="13" width="1" height="1" fill="#B1C6EB" />
  <rect x="5" y="13" width="1" height="1" fill="#BDD2F3" />
  <rect x="6" y="13" width="1" height="1" fill="#C0D5F3" />
  <rect x="7" y="13" width="1" height="1" fill="#B9D0F2" />
  <rect x="8" y="13" width="1" height="1" fill="#ADC7EF" />
  <rect x="9" y="13" width="1" height="1" fill="#A6C2ED" />
  <rect x="10" y="13" width="1" height="1" fill="#9EBBEA" />
  <rect x="11" y="13" width="1" height="1" fill="#9DB5E3" />
  <rect x="12" y="13" width="1" height="1" fill="#759FDD" />
  <rect x="13" y="13" width="1" height="1" fill="#0033A1" />
  <rect x="3" y="14" width="1" height="1" fill="#0B57C9" />
  <rect x="4" y="14" width="1" height="1" fill="#6991D9" />
  <rect x="5" y="14" width="1" height="1" fill="#BCD0F2" />
  <rect x="6" y="14" width="1" height="1" fill="#C5D7F4" />
  <rect x="7" y="14" width="1" height="1" fill="#C2D6F2" />
  <rect x="8" y="14" width="1" height="1" fill="#B8CEF0" />
  <rect x="9" y="14" width="1" height="1" fill="#ACC6ED" />
  <rect x="10" y="14" width="1" height="1" fill="#9CBAE9" />
  <rect x="11" y="14" width="1" height="1" fill="#4874CC" />
  <rect x="12" y="14" width="1" height="1" fill="#054BC1" />
  <rect x="4" y="15" width="1" height="1" fill="#1B57BB" />
  <rect x="5" y="15" width="1" height="1" fill="#336DCB" />
  <rect x="6" y="15" width="1" height="1" fill="#477BD1" />
  <rect x="7" y="15" width="1" height="1" fill="#3F77D1" />
  <rect x="8" y="15" width="1" height="1" fill="#2565C7" />
  <rect x="9" y="15" width="1" height="1" fill="#0B51C1" />
  <rect x="10" y="15" width="1" height="1" fill="#0035B3" />
  <rect x="11" y="15" width="1" height="1" fill="#0029A9" />
</svg>