<svg width="16" height="16" viewBox="0 0 16 16" fill="none" xmlns="http://www.w3.org/2000/svg" shape-rendering="crispEdges">
  <rect x="2" y="1" width="1" height="1" fill="#A2C1EF" />
  <rect x="3" y="1" width="1" height="1" fill="#9FC0ED" />
  <rect x="4" y="1" width="1" height="1" fill="#9DBEEB" />
  <rect x="5" y="1" width="1" height="1" fill="#9ABCEB" />
  <rect x="6" y="1" width="1" height="1" fill="#96BAE9" />
  <rect x="7" y="1" width="1" height="1" fill="#93B7E7" />
  <rect x="8" y="1" width="1" height="1" fill="#90B5E6" />
  <rect x="9" y="1" width="1" height="1" fill="#8CB2E4" />
  <rect x="10" y="1" width="1" height="1" fill="#88AFE2" />
  <rect x="11" y="1" width="1" height="1" fill="#84ACE0" />
  <rect x="12" y="1" width="1" height="1" fill="#80A9DD" />
  <rect x="13" y="1" width="1" height="1" fill="#7DA5DC" />
  <rect x="14" y="1" width="1" height="1" fill="#7AA3DA" />
  <rect x="1" y="2" width="1" height="1" fill="#A1C1EE" />
  <rect x="2" y="2" width="12" height="1" fill="#F4F7FB" />
  <rect x="14" y="2" width="1" height="1" fill="#74A0D7" />
  <rect x="1" y="3" width="1" height="1" fill="#9EBFEC" />
  <rect x="2" y="3" width="1" height="1" fill="#F4F7FB" />
  <rect x="3" y="3" width="1" height="1" fill="#A5D59C" />
  <rect x="4" y="3" width="1" height="1" fill="#A1D398" />
  <rect x="5" y="3" width="1" height="1" fill="#9DD094" />
  <rect x="6" y="3" width="1" height="1" fill="#98CE90" />
  <rect x="7" y="3" width="1" height="1" fill="#93CB8B" />
  <rect x="8" y="3" width="1" height="1" fill="#8EC987" />
  <rect x="9" y="3" width="1" height="1" fill="#89C682" />
  <rect x="10" y="3" width="1" height="1" fill="#84C37E" />
  <rect x="11" y="3" width="1" height="1" fill="#80C17A" />
  <rect x="12" y="3" width="1" height="1" fill="#7CBE76" />
  <rect x="13" y="3" width="1" height="1" fill="#F4F7FB" />
  <rect x="14" y="3" width="1" height="1" fill="#6F9BD4" />
  <rect x="1" y="4" width="1" height="1" fill="#9BBDEB" />
  <rect x="2" y="4" width="1" height="1" fill="#F4F7FB" />
  <rect x="3" y="4" width="10" height="1" fill="#FFFFFF" />
  <rect x="13" y="4" width="1" height="1" fill="#F4F7FB" />
  <rect x="14" y="4" width="1" height="1" fill="#6A97D1" />
  <rect x="1" y="5" width="1" height="1" fill="#98BAE9" />
  <rect x="2" y="5" width="1" height="1" fill="#F4F7FB" />
  <rect x="3" y="5" width="10" height="1" fill="#A6C3E9" />
  <rect x="13" y="5" width="1" height="1" fill="#F4F7FB" />
  <rect x="14" y="5" width="1" height="1" fill="#6493CE" />
  <rect x="1" y="6" width="1" height="1" fill="#94B7E7" />
  <rect x="2" y="6" width="1" height="1" fill="#F4F7FB" />
  <rect x="3" y="6" width="1" height="1" fill="#A6C3E9" />
  <rect x="4" y="6" width="1" height="1" fill="#FFFFFF" />
  <rect x="5" y="6" width="1" height="1" fill="#A9C4E8" />
  <rect x="6" y="6" width="3" height="1" fill="#FFFFFF" />
  <rect x="9" y="6" width="1" height="1" fill="#ACC7E8" />
  <rect x="10" y="6" width="3" height="1" fill="#FFFFFF" />
  <rect x="13" y="6" width="1" height="1" fill="#EBF1F7" />
  <rect x="14" y="6" width="1" height="1" fill="#5F8FCB" />
  <rect x="1" y="7" width="1" height="1" fill="#8FB4E5" />
  <rect x="2" y="7" width="1" height="1" fill="#F2F6FA" />
  <rect x="3" y="7" width="1" height="1" fill="#AAC6E9" />
  <rect x="4" y="7" width="1" height="1" fill="#ACC6E9" />
  <rect x="5" y="7" width="1" height="1" fill="#ACC7EA" />
  <rect x="6" y="7" width="1" height="1" fill="#ADC7E9" />
  <rect x="7" y="7" width="1" height="1" fill="#AEC9E9" />
  <rect x="8" y="7" width="1" height="1" fill="#ABC3E1" />
  <rect x="9" y="7" width="1" height="1" fill="#646E77" />
  <rect x="10" y="7" width="1" height="1" fill="#666D75" />
  <rect x="11" y="7" width="1" height="1" fill="#D1D5D9" />
  <rect x="12" y="7" width="1" height="1" fill="#5F676F" />
  <rect x="13" y="7" width="1" height="1" fill="#62666B" />
  <rect x="14" y="7" width="1" height="1" fill="#598AC8" />
  <rect x="1" y="8" width="1" height="1" fill="#8CB1E3" />
  <rect x="2" y="8" width="1" height="1" fill="#F1F6FA" />
  <rect x="3" y="8" width="1" height="1" fill="#AEC9EA" />
  <rect x="4" y="8" width="1" height="1" fill="#FFFFFF" />
  <rect x="5" y="8" width="1" height="1" fill="#B0C9EA" />
  <rect x="6" y="8" width="1" height="1" fill="#FFFFFF" />
  <rect x="7" y="8" width="1" height="1" fill="#F5F6F6" />
  <rect x="8" y="8" width="1" height="1" fill="#B7BEC5" />
  <rect x="9" y="8" width="1" height="1" fill="#838F9C" />
  <rect x="10" y="8" width="1" height="1" fill="#484C52" />
  <rect x="11" y="8" width="1" height="1" fill="#C4C6C9" />
  <rect x="12" y="8" width="1" height="1" fill="#474D54" />
  <rect x="13" y="8" width="1" height="1" fill="#7B8690" />
  <rect x="14" y="8" width="1" height="1" fill="#939698" />
  <rect x="1" y="9" width="1" height="1" fill="#87AEE1" />
  <rect x="2" y="9" width="1" height="1" fill="#F0F4FA" />
  <rect x="3" y="9" width="1" height="1" fill="#B2CBEA" />
  <rect x="4" y="9" width="3" height="1" fill="#B3CCEA" />
  <rect x="7" y="9" width="1" height="1" fill="#ACC4E0" />
  <rect x="8" y="9" width="1" height="1" fill="#5A636C" />
  <rect x="9" y="9" width="1" height="1" fill="#6F7885" />
  <rect x="10" y="9" width="1" height="1" fill="#3B414A" />
  <rect x="11" y="9" width="1" height="1" fill="#7D8895" />
  <rect x="12" y="9" width="1" height="1" fill="#404A56" />
  <rect x="13" y="9" width="1" height="1" fill="#748392" />
  <rect x="14" y="9" width="1" height="1" fill="#40474F" />
  <rect x="1" y="10" width="1" height="1" fill="#82AADF" />
  <rect x="2" y="10" width="1" height="1" fill="#EFF3F9" />
  <rect x="3" y="10" width="1" height="1" fill="#B7CEEA" />
  <rect x="4" y="10" width="1" height="1" fill="#FFFFFF" />
  <rect x="5" y="10" width="1" height="1" fill="#BBD0EB" />
  <rect x="6" y="10" width="1" height="1" fill="#FFFFFF" />
  <rect x="7" y="10" width="1" height="1" fill="#95979A" />
  <rect x="8" y="10" width="1" height="1" fill="#4D545B" />
  <rect x="9" y="10" width="1" height="1" fill="#90A0B0" />
  <rect x="10" y="10" width="1" height="1" fill="#515D69" />
  <rect x="11" y="10" width="1" height="1" fill="#657486" />
  <rect x="12" y="10" width="1" height="1" fill="#4E5863" />
  <rect x="13" y="10" width="1" height="1" fill="#8898AA" />
  <rect x="14" y="10" width="1" height="1" fill="#4A515A" />
  <rect x="15" y="10" width="1" height="1" fill="#828384" />
  <rect x="1" y="11" width="1" height="1" fill="#7EA8DD" />
  <rect x="2" y="11" width="1" height="1" fill="#EFF3F9" />
  <rect x="3" y="11" width="1" height="1" fill="#BAD0EB" />
  <rect x="4" y="11" width="3" height="1" fill="#BBD0EB" />
  <rect x="7" y="11" width="1" height="1" fill="#5C656E" />
  <rect x="8" y="11" width="1" height="1" fill="#586169" />
  <rect x="9" y="11" width="1" height="1" fill="#484F56" />
  <rect x="10" y="11" width="1" height="1" fill="#484A4D" />
  <rect x="11" y="11" width="1" height="1" fill="#8A8A8B" />
  <rect x="12" y="11" width="1" height="1" fill="#393C40" />
  <rect x="13" y="11" width="1" height="1" fill="#3C4246" />
  <rect x="14" y="11" width="1" height="1" fill="#33383D" />
  <rect x="15" y="11" width="1" height="1" fill="#2A2B2C" />
  <rect x="1" y="12" width="1" height="1" fill="#7AA4D9" />
  <rect x="2" y="12" width="1" height="1" fill="#EEF3F9" />
  <rect x="3" y="12" width="1" height="1" fill="#BED2EB" />
  <rect x="4" y="12" width="1" height="1" fill="#FFFFFF" />
  <rect x="5" y="12" width="1" height="1" fill="#BFD3EB" />
  <rect x="6" y="12" width="1" height="1" fill="#FFFFFF" />
  <rect x="7" y="12" width="1" height="1" fill="#677078" />
  <rect x="8" y="12" width="1" height="1" fill="#AFB9C4" />
  <rect x="9" y="12" width="1" height="1" fill="#8D9AA7" />
  <rect x="10" y="12" width="1" height="1" fill="#787C80" />
  <rect x="11" y="12" width="1" height="1" fill="#D3D4D4" />
  <rect x="12" y="12" width="1" height="1" fill="#5E646C" />
  <rect x="13" y="12" width="1" height="1" fill="#A4AFBB" />
  <rect x="14" y="12" width="1" height="1" fill="#8B98A6" />
  <rect x="15" y="12" width="1" height="1" fill="#4F5153" />
  <rect x="1" y="13" width="1" height="1" fill="#75A1D7" />
  <rect x="2" y="13" width="1" height="1" fill="#EDF2F8" />
  <rect x="3" y="13" width="1" height="1" fill="#EAF0F7" />
  <rect x="4" y="13" width="1" height="1" fill="#E6EDF6" />
  <rect x="5" y="13" width="1" height="1" fill="#E2EAF4" />
  <rect x="6" y="13" width="1" height="1" fill="#DEE7F3" />
  <rect x="7" y="13" width="1" height="1" fill="#5F6871" />
  <rect x="8" y="13" width="1" height="1" fill="#ABB6C1" />
  <rect x="9" y="13" width="1" height="1" fill="#667079" />
  <rect x="10" y="13" width="1" height="1" fill="#595D62" />
  <rect x="11" y="13" width="1" height="1" fill="#B7B8B8" />
  <rect x="12" y="13" width="1" height="1" fill="#5D666E" />
  <rect x="13" y="13" width="1" height="1" fill="#A5B1BD" />
  <rect x="14" y="13" width="1" height="1" fill="#6A747E" />
  <rect x="15" y="13" width="1" height="1" fill="#2E3033" />
  <rect x="1" y="14" width="1" height="1" fill="#729ED6" />
  <rect x="2" y="14" width="1" height="1" fill="#6E99D3" />
  <rect x="3" y="14" width="1" height="1" fill="#6896D1" />
  <rect x="4" y="14" width="1" height="1" fill="#6392CE" />
  <rect x="5" y="14" width="1" height="1" fill="#5E8ECB" />
  <rect x="6" y="14" width="1" height="1" fill="#5B8AC9" />
  <rect x="7" y="14" width="1" height="1" fill="#545B63" />
  <rect x="8" y="14" width="1" height="1" fill="#8D9AA7" />
  <rect x="9" y="14" width="1" height="1" fill="#5E6770" />
  <rect x="10" y="14" width="1" height="1" fill="#3B4045" />
  <rect x="11" y="14" width="1" height="1" fill="#ABABAC" />
  <rect x="12" y="14" width="1" height="1" fill="#4E555C" />
  <rect x="13" y="14" width="1" height="1" fill="#7F8A96" />
  <rect x="14" y="14" width="1" height="1" fill="#565E66" />
  <rect x="15" y="14" width="1" height="1" fill="#18191B" />
  <rect x="7" y="15" width="1" height="1" fill="#383D42" />
  <rect x="8" y="15" width="1" height="1" fill="#3C4248" />
  <rect x="9" y="15" width="1" height="1" fill="#2C3135" />
  <rect x="10" y="15" width="1" height="1" fill="#555759" />
  <rect x="12" y="15" width="1" height="1" fill="#393B3D" />
  <rect x="13" y="15" width="1" height="1" fill="#3D3F42" />
  <rect x="14" y="15" width="1" height="1" fill="#343637" />
  <rect x="15" y="15" width="1" height="1" fill="#3B3C3C" />
</svg>